G04*
G04 #@! TF.GenerationSoftware,Altium Limited,Altium Designer,25.8.1 (18)*
G04*
G04 Layer_Color=8421504*
%FSLAX44Y44*%
%MOMM*%
G71*
G04*
G04 #@! TF.SameCoordinates,78507F3A-5BF6-467C-BE05-C536D97B98AD*
G04*
G04*
G04 #@! TF.FilePolarity,Positive*
G04*
G01*
G75*
G04:AMPARAMS|DCode=16|XSize=0.54mm|YSize=0.6mm|CornerRadius=0.0675mm|HoleSize=0mm|Usage=FLASHONLY|Rotation=90.000|XOffset=0mm|YOffset=0mm|HoleType=Round|Shape=RoundedRectangle|*
%AMROUNDEDRECTD16*
21,1,0.5400,0.4650,0,0,90.0*
21,1,0.4050,0.6000,0,0,90.0*
1,1,0.1350,0.2325,0.2025*
1,1,0.1350,0.2325,-0.2025*
1,1,0.1350,-0.2325,-0.2025*
1,1,0.1350,-0.2325,0.2025*
%
%ADD16ROUNDEDRECTD16*%
%ADD17R,1.1000X1.0000*%
%ADD18R,0.3000X1.2000*%
%ADD19R,1.2000X0.3000*%
%ADD20R,0.6000X1.2000*%
%ADD21R,0.3000X1.1500*%
%ADD22R,2.1800X2.0000*%
%ADD23R,0.4000X0.3500*%
%ADD24R,0.4750X0.5000*%
G36*
X387500Y712750D02*
Y705250D01*
X377500D01*
Y712750D01*
X387500D01*
D02*
G37*
G36*
X402500D02*
Y705250D01*
X392500D01*
Y712750D01*
X402500D01*
D02*
G37*
G36*
X382589Y610564D02*
Y630564D01*
X437589D01*
Y610564D01*
X382589D01*
D02*
G37*
G36*
X477589D02*
Y630564D01*
X532589D01*
Y610564D01*
X477589D01*
D02*
G37*
D16*
X387000Y581680D02*
D03*
X527000Y579680D02*
D03*
Y588320D02*
D03*
X387000Y590320D02*
D03*
D17*
X399500Y661000D02*
D03*
X416500D02*
D03*
D18*
X439500Y758000D02*
D03*
X469500Y675000D02*
D03*
X434500Y758000D02*
D03*
X474500Y675000D02*
D03*
X434500D02*
D03*
X439500D02*
D03*
X444500D02*
D03*
X449500D02*
D03*
X464500D02*
D03*
X479500D02*
D03*
X484500D02*
D03*
X489500D02*
D03*
Y758000D02*
D03*
X484500D02*
D03*
X479500D02*
D03*
X474500D02*
D03*
X469500D02*
D03*
X464500D02*
D03*
X459500D02*
D03*
X454500D02*
D03*
X449500D02*
D03*
X444500D02*
D03*
X454500Y675000D02*
D03*
X459500D02*
D03*
D19*
X503500Y739000D02*
D03*
X420500Y694000D02*
D03*
Y709000D02*
D03*
X503500Y744000D02*
D03*
X420500Y689000D02*
D03*
X503500Y704000D02*
D03*
Y709000D02*
D03*
Y714000D02*
D03*
Y719000D02*
D03*
Y734000D02*
D03*
Y729000D02*
D03*
Y724000D02*
D03*
X420500Y699000D02*
D03*
Y704000D02*
D03*
Y714000D02*
D03*
Y719000D02*
D03*
Y744000D02*
D03*
Y739000D02*
D03*
Y734000D02*
D03*
Y729000D02*
D03*
Y724000D02*
D03*
X503500Y699000D02*
D03*
Y689000D02*
D03*
Y694000D02*
D03*
D20*
X451509Y808814D02*
D03*
Y831814D02*
D03*
X442009D02*
D03*
Y808814D02*
D03*
X461009D02*
D03*
Y831814D02*
D03*
D21*
X478839Y962284D02*
D03*
X411839D02*
D03*
X414840D02*
D03*
X475840D02*
D03*
X470840D02*
D03*
X447840D02*
D03*
X442840D02*
D03*
X432840D02*
D03*
X419840D02*
D03*
X422840D02*
D03*
X437840D02*
D03*
X452840D02*
D03*
X462840D02*
D03*
X467840D02*
D03*
X457840D02*
D03*
X427840D02*
D03*
D22*
X496440Y1007334D02*
D03*
X394240D02*
D03*
X496440Y968034D02*
D03*
X394240D02*
D03*
D23*
X421584Y772877D02*
D03*
Y778877D02*
D03*
D24*
X390120Y798000D02*
D03*
X379880D02*
D03*
M02*
