G04*
G04 #@! TF.GenerationSoftware,Altium Limited,Altium Designer,25.8.1 (18)*
G04*
G04 Layer_Color=8388736*
%FSLAX44Y44*%
%MOMM*%
G71*
G04*
G04 #@! TF.SameCoordinates,78507F3A-5BF6-467C-BE05-C536D97B98AD*
G04*
G04*
G04 #@! TF.FilePolarity,Negative*
G04*
G01*
G75*
%ADD25R,1.2032X0.9532*%
G04:AMPARAMS|DCode=26|XSize=0.7432mm|YSize=0.8032mm|CornerRadius=0.1691mm|HoleSize=0mm|Usage=FLASHONLY|Rotation=90.000|XOffset=0mm|YOffset=0mm|HoleType=Round|Shape=RoundedRectangle|*
%AMROUNDEDRECTD26*
21,1,0.7432,0.4650,0,0,90.0*
21,1,0.4050,0.8032,0,0,90.0*
1,1,0.3382,0.2325,0.2025*
1,1,0.3382,0.2325,-0.2025*
1,1,0.3382,-0.2325,-0.2025*
1,1,0.3382,-0.2325,0.2025*
%
%ADD26ROUNDEDRECTD26*%
%ADD27R,1.3032X1.2032*%
%ADD28R,0.5032X1.4032*%
%ADD29R,1.4032X0.5032*%
%ADD30R,0.8032X1.4032*%
%ADD31R,0.5032X1.3532*%
%ADD32R,2.3832X2.2032*%
%ADD33R,0.6032X0.5532*%
%ADD34R,0.6782X0.7032*%
%ADD35R,5.7032X2.2032*%
%ADD36C,1.6080*%
%ADD37C,0.5282*%
%ADD38C,5.7032*%
%ADD39R,1.6080X1.6080*%
%ADD40C,2.2482*%
%ADD41C,3.2032*%
%ADD42C,0.8032*%
%ADD43C,0.6032*%
D25*
X382500Y709000D02*
D03*
X397500D02*
D03*
D26*
X387000Y581680D02*
D03*
X527000Y579680D02*
D03*
Y588320D02*
D03*
X387000Y590320D02*
D03*
D27*
X399500Y661000D02*
D03*
X416500D02*
D03*
D28*
X439500Y758000D02*
D03*
X469500Y675000D02*
D03*
X434500Y758000D02*
D03*
X474500Y675000D02*
D03*
X434500D02*
D03*
X439500D02*
D03*
X444500D02*
D03*
X449500D02*
D03*
X464500D02*
D03*
X479500D02*
D03*
X484500D02*
D03*
X489500D02*
D03*
Y758000D02*
D03*
X484500D02*
D03*
X479500D02*
D03*
X474500D02*
D03*
X469500D02*
D03*
X464500D02*
D03*
X459500D02*
D03*
X454500D02*
D03*
X449500D02*
D03*
X444500D02*
D03*
X454500Y675000D02*
D03*
X459500D02*
D03*
D29*
X503500Y739000D02*
D03*
X420500Y694000D02*
D03*
Y709000D02*
D03*
X503500Y744000D02*
D03*
X420500Y689000D02*
D03*
X503500Y704000D02*
D03*
Y709000D02*
D03*
Y714000D02*
D03*
Y719000D02*
D03*
Y734000D02*
D03*
Y729000D02*
D03*
Y724000D02*
D03*
X420500Y699000D02*
D03*
Y704000D02*
D03*
Y714000D02*
D03*
Y719000D02*
D03*
Y744000D02*
D03*
Y739000D02*
D03*
Y734000D02*
D03*
Y729000D02*
D03*
Y724000D02*
D03*
X503500Y699000D02*
D03*
Y689000D02*
D03*
Y694000D02*
D03*
D30*
X451509Y808814D02*
D03*
Y831814D02*
D03*
X442009D02*
D03*
Y808814D02*
D03*
X461009D02*
D03*
Y831814D02*
D03*
D31*
X478839Y962284D02*
D03*
X411839D02*
D03*
X414840D02*
D03*
X475840D02*
D03*
X470840D02*
D03*
X447840D02*
D03*
X442840D02*
D03*
X432840D02*
D03*
X419840D02*
D03*
X422840D02*
D03*
X437840D02*
D03*
X452840D02*
D03*
X462840D02*
D03*
X467840D02*
D03*
X457840D02*
D03*
X427840D02*
D03*
D32*
X496440Y1007334D02*
D03*
X394240D02*
D03*
X496440Y968034D02*
D03*
X394240D02*
D03*
D33*
X421584Y772877D02*
D03*
Y778877D02*
D03*
D34*
X390120Y798000D02*
D03*
X379880D02*
D03*
D35*
X505089Y620564D02*
D03*
X410089D02*
D03*
D36*
X459400Y462600D02*
D03*
Y437200D02*
D03*
Y411800D02*
D03*
Y386400D02*
D03*
Y361000D02*
D03*
Y335600D02*
D03*
Y310200D02*
D03*
Y284800D02*
D03*
Y259400D02*
D03*
X434000Y310200D02*
D03*
Y437200D02*
D03*
Y411800D02*
D03*
Y386400D02*
D03*
Y462600D02*
D03*
Y335600D02*
D03*
Y259400D02*
D03*
Y284800D02*
D03*
Y361000D02*
D03*
X459400Y488000D02*
D03*
D37*
X474240Y973034D02*
D03*
X416440D02*
D03*
D38*
X345000Y915000D02*
D03*
X1210000D02*
D03*
Y40000D02*
D03*
X345000D02*
D03*
D39*
X434000Y488000D02*
D03*
D40*
X694500Y859000D02*
D03*
X885000D02*
D03*
X1075500D02*
D03*
X694500Y668500D02*
D03*
X885000D02*
D03*
X1075500D02*
D03*
X694500Y478000D02*
D03*
X885000D02*
D03*
X1075500D02*
D03*
X694500Y287500D02*
D03*
X885000D02*
D03*
X1075500D02*
D03*
X694500Y97000D02*
D03*
X885000D02*
D03*
X1075500D02*
D03*
D41*
X1101250Y911700D02*
D03*
X1037750Y886300D02*
D03*
X910750Y530700D02*
D03*
X847250Y505300D02*
D03*
X720250Y720200D02*
D03*
X656750Y694800D02*
D03*
X910280Y339040D02*
D03*
X846780Y313640D02*
D03*
X909750Y721200D02*
D03*
X846250Y695800D02*
D03*
X1101500Y719900D02*
D03*
X1038000Y694500D02*
D03*
X720500Y149200D02*
D03*
X657000Y123800D02*
D03*
X720000Y910400D02*
D03*
X656500Y885000D02*
D03*
X719250Y529700D02*
D03*
X655750Y504300D02*
D03*
X910000Y148700D02*
D03*
X846500Y123300D02*
D03*
X720250Y339700D02*
D03*
X656750Y314300D02*
D03*
X1101250Y339200D02*
D03*
X1037750Y313800D02*
D03*
X1100000Y529400D02*
D03*
X1036500Y504000D02*
D03*
X909750Y911700D02*
D03*
X846250Y886300D02*
D03*
X1101250Y149200D02*
D03*
X1037750Y123800D02*
D03*
D42*
X457840Y978314D02*
D03*
X470000Y790000D02*
D03*
X363000Y768000D02*
D03*
X514470Y652730D02*
D03*
X562000Y765000D02*
D03*
X428000Y1015000D02*
D03*
X459000Y1016000D02*
D03*
X374540Y696000D02*
D03*
X386000Y645000D02*
D03*
X408000Y580000D02*
D03*
X506000D02*
D03*
X514000Y459000D02*
D03*
X371000Y273000D02*
D03*
X514470Y292730D02*
D03*
X377000Y478000D02*
D03*
Y454000D02*
D03*
X371941Y551224D02*
D03*
X333000Y731000D02*
D03*
Y695000D02*
D03*
X353000Y488000D02*
D03*
Y355000D02*
D03*
X451839Y858064D02*
D03*
X526487Y604171D02*
D03*
X407840Y689064D02*
D03*
X466339Y935314D02*
D03*
X474339Y663564D02*
D03*
X387237Y604421D02*
D03*
X422589Y934314D02*
D03*
X515589Y744064D02*
D03*
X421834Y789377D02*
D03*
X434339Y769314D02*
D03*
X465340Y663314D02*
D03*
X427840Y977064D02*
D03*
X1002500Y922500D02*
D03*
X1100000Y195000D02*
D03*
X900000Y192500D02*
D03*
X707500D02*
D03*
X1085000Y765000D02*
D03*
X900000D02*
D03*
X710000D02*
D03*
X1107500Y7500D02*
D03*
X890000D02*
D03*
X705000D02*
D03*
X606035Y919217D02*
D03*
X1087500Y577500D02*
D03*
X900000D02*
D03*
X715000D02*
D03*
X383000Y785000D02*
D03*
X808750Y920750D02*
D03*
X1095000Y382500D02*
D03*
X902500D02*
D03*
X700000D02*
D03*
D43*
X467090Y910064D02*
D03*
X457090D02*
D03*
X442985Y924363D02*
D03*
X452985D02*
D03*
M02*
