G04*
G04 #@! TF.GenerationSoftware,Altium Limited,Altium Designer,25.8.1 (18)*
G04*
G04 Layer_Color=128*
%FSLAX44Y44*%
%MOMM*%
G71*
G04*
G04 #@! TF.SameCoordinates,FCA943C9-AC26-45BC-959E-77FD342E558C*
G04*
G04*
G04 #@! TF.FilePolarity,Positive*
G04*
G01*
G75*
G04:AMPARAMS|DCode=42|XSize=0.87mm|YSize=0.93mm|CornerRadius=0.1088mm|HoleSize=0mm|Usage=FLASHONLY|Rotation=90.000|XOffset=0mm|YOffset=0mm|HoleType=Round|Shape=RoundedRectangle|*
%AMROUNDEDRECTD42*
21,1,0.8700,0.7125,0,0,90.0*
21,1,0.6525,0.9300,0,0,90.0*
1,1,0.2175,0.3563,0.3263*
1,1,0.2175,0.3563,-0.3263*
1,1,0.2175,-0.3563,-0.3263*
1,1,0.2175,-0.3563,0.3263*
%
%ADD42ROUNDEDRECTD42*%
%ADD43R,1.0000X1.1000*%
%ADD44R,1.1000X1.0000*%
%ADD46R,0.5000X0.5000*%
%ADD47R,1.0000X1.7000*%
%ADD49R,0.9500X1.0300*%
%ADD50R,0.5000X0.4750*%
G04:AMPARAMS|DCode=51|XSize=0.67mm|YSize=1.17mm|CornerRadius=0.0402mm|HoleSize=0mm|Usage=FLASHONLY|Rotation=0.000|XOffset=0mm|YOffset=0mm|HoleType=Round|Shape=RoundedRectangle|*
%AMROUNDEDRECTD51*
21,1,0.6700,1.0896,0,0,0.0*
21,1,0.5896,1.1700,0,0,0.0*
1,1,0.0804,0.2948,-0.5448*
1,1,0.0804,-0.2948,-0.5448*
1,1,0.0804,-0.2948,0.5448*
1,1,0.0804,0.2948,0.5448*
%
%ADD51ROUNDEDRECTD51*%
%ADD53R,0.6900X0.5600*%
%ADD54R,2.5500X2.5000*%
G36*
X390795Y653348D02*
X383295D01*
Y643348D01*
X390795D01*
Y653348D01*
D02*
G37*
G36*
X420340Y655814D02*
Y643814D01*
X430340D01*
Y655814D01*
X420340D01*
D02*
G37*
G36*
X454205Y634668D02*
Y627168D01*
X464205D01*
Y634668D01*
X454205D01*
D02*
G37*
G36*
X440340Y655814D02*
Y643814D01*
X450340D01*
Y655814D01*
X440340D01*
D02*
G37*
G36*
X469205Y634668D02*
Y627168D01*
X479205D01*
Y634668D01*
X469205D01*
D02*
G37*
G36*
X390795Y668348D02*
X383295D01*
Y658348D01*
X390795D01*
Y668348D01*
D02*
G37*
G36*
X530127Y727778D02*
Y720278D01*
X540127D01*
Y727778D01*
X530127D01*
D02*
G37*
G36*
X545127D02*
Y720278D01*
X555127D01*
Y727778D01*
X545127D01*
D02*
G37*
G36*
X406834Y860127D02*
Y872127D01*
X396834D01*
Y860127D01*
X406834D01*
D02*
G37*
G36*
X426834D02*
Y872127D01*
X416834D01*
Y860127D01*
X426834D01*
D02*
G37*
D42*
X400885Y600971D02*
D03*
Y585371D02*
D03*
X514237Y600971D02*
D03*
Y585371D02*
D03*
D43*
X394840Y688564D02*
D03*
Y705564D02*
D03*
X527589Y745064D02*
D03*
Y762064D02*
D03*
D44*
X474090Y649064D02*
D03*
X491090D02*
D03*
X449090Y600987D02*
D03*
X466090D02*
D03*
X421334Y845127D02*
D03*
X404334D02*
D03*
X434590Y781814D02*
D03*
X451590D02*
D03*
X402864Y767897D02*
D03*
X385864D02*
D03*
D46*
X422340Y897814D02*
D03*
Y887814D02*
D03*
D47*
X364045Y663348D02*
D03*
X326045D02*
D03*
Y600348D02*
D03*
X364045D02*
D03*
D49*
X402464Y747877D02*
D03*
X386704D02*
D03*
D50*
X427840Y990194D02*
D03*
Y1000434D02*
D03*
X457840Y989944D02*
D03*
Y1000184D02*
D03*
D51*
X421484Y802177D02*
D03*
Y826577D02*
D03*
X402684D02*
D03*
Y802177D02*
D03*
X412084Y826577D02*
D03*
D53*
X948000Y475800D02*
D03*
X757500Y475800D02*
D03*
X1138500Y473800D02*
D03*
X1137500Y284300D02*
D03*
X757500Y286300D02*
D03*
X947000Y288300D02*
D03*
X948000Y858000D02*
D03*
X755500Y856800D02*
D03*
X1138500Y854800D02*
D03*
X755000Y87550D02*
D03*
X1139500Y89550D02*
D03*
X945250Y92550D02*
D03*
X948000Y665300D02*
D03*
X1140500Y666300D02*
D03*
X757500Y665300D02*
D03*
Y500200D02*
D03*
X755500Y881200D02*
D03*
X1137500Y308700D02*
D03*
X1140500Y690700D02*
D03*
X1139500Y113950D02*
D03*
X948000Y689700D02*
D03*
X755000Y111950D02*
D03*
X757500Y689700D02*
D03*
X948000Y882400D02*
D03*
X1138500Y879200D02*
D03*
X945250Y116950D02*
D03*
X948000Y500200D02*
D03*
X1138500Y498200D02*
D03*
X757500Y310700D02*
D03*
X947000Y312700D02*
D03*
D54*
X1002500Y694500D02*
D03*
X1002250Y313800D02*
D03*
X1001000Y504000D02*
D03*
X1002250Y886300D02*
D03*
X1002250Y123800D02*
D03*
X621000Y885000D02*
D03*
X621250Y314300D02*
D03*
X621250Y694800D02*
D03*
X621500Y123800D02*
D03*
X620250Y504300D02*
D03*
X810750Y886300D02*
D03*
X811750Y505300D02*
D03*
X810750Y695800D02*
D03*
X811280Y313640D02*
D03*
X811000Y123300D02*
D03*
X1136750Y911700D02*
D03*
X946250Y530700D02*
D03*
X755750Y720200D02*
D03*
X945780Y339040D02*
D03*
X945250Y721200D02*
D03*
X1137000Y719900D02*
D03*
X756000Y149200D02*
D03*
X755500Y910400D02*
D03*
X754750Y529700D02*
D03*
X945500Y148700D02*
D03*
X755750Y339700D02*
D03*
X1136750Y339200D02*
D03*
X1135500Y529400D02*
D03*
X945250Y911700D02*
D03*
X1136750Y149200D02*
D03*
M02*
