G04*
G04 #@! TF.GenerationSoftware,Altium Limited,Altium Designer,25.8.1 (18)*
G04*
G04 Layer_Color=16711935*
%FSLAX44Y44*%
%MOMM*%
G71*
G04*
G04 #@! TF.SameCoordinates,FCA943C9-AC26-45BC-959E-77FD342E558C*
G04*
G04*
G04 #@! TF.FilePolarity,Negative*
G04*
G01*
G75*
%ADD29C,0.5282*%
%ADD30C,2.2482*%
%ADD31C,5.7032*%
%ADD32C,3.2032*%
%ADD33C,0.8032*%
%ADD34C,0.6032*%
G04:AMPARAMS|DCode=55|XSize=1.0732mm|YSize=1.1332mm|CornerRadius=0.2104mm|HoleSize=0mm|Usage=FLASHONLY|Rotation=90.000|XOffset=0mm|YOffset=0mm|HoleType=Round|Shape=RoundedRectangle|*
%AMROUNDEDRECTD55*
21,1,1.0732,0.7125,0,0,90.0*
21,1,0.6525,1.1332,0,0,90.0*
1,1,0.4207,0.3563,0.3263*
1,1,0.4207,0.3563,-0.3263*
1,1,0.4207,-0.3563,-0.3263*
1,1,0.4207,-0.3563,0.3263*
%
%ADD55ROUNDEDRECTD55*%
%ADD56R,1.2032X1.3032*%
%ADD57R,1.3032X1.2032*%
%ADD58R,1.2032X0.9532*%
%ADD59R,0.7032X0.7032*%
%ADD60R,1.2032X1.9032*%
%ADD61R,1.2032X1.4032*%
%ADD62R,1.1532X1.2332*%
%ADD63R,0.7032X0.6782*%
G04:AMPARAMS|DCode=64|XSize=0.8732mm|YSize=1.3732mm|CornerRadius=0.1418mm|HoleSize=0mm|Usage=FLASHONLY|Rotation=0.000|XOffset=0mm|YOffset=0mm|HoleType=Round|Shape=RoundedRectangle|*
%AMROUNDEDRECTD64*
21,1,0.8732,1.0896,0,0,0.0*
21,1,0.5896,1.3732,0,0,0.0*
1,1,0.2836,0.2948,-0.5448*
1,1,0.2836,-0.2948,-0.5448*
1,1,0.2836,-0.2948,0.5448*
1,1,0.2836,0.2948,0.5448*
%
%ADD64ROUNDEDRECTD64*%
%ADD65R,0.9532X1.2032*%
%ADD66R,0.8932X0.7632*%
%ADD67R,2.7532X2.7032*%
D29*
X416440Y973034D02*
D03*
X474240D02*
D03*
D30*
X694500Y859000D02*
D03*
X885000D02*
D03*
X1075500D02*
D03*
X694500Y668500D02*
D03*
X885000D02*
D03*
X1075500D02*
D03*
X694500Y478000D02*
D03*
X885000D02*
D03*
X1075500D02*
D03*
X694500Y287500D02*
D03*
X885000D02*
D03*
X1075500D02*
D03*
X694500Y97000D02*
D03*
X885000D02*
D03*
X1075500D02*
D03*
D31*
X1210000Y915000D02*
D03*
X345000D02*
D03*
X1210000Y40000D02*
D03*
X345000D02*
D03*
D32*
X1101250Y911700D02*
D03*
X1037750Y886300D02*
D03*
X910750Y530700D02*
D03*
X847250Y505300D02*
D03*
X720250Y720200D02*
D03*
X656750Y694800D02*
D03*
X910280Y339040D02*
D03*
X846780Y313640D02*
D03*
X909750Y721200D02*
D03*
X846250Y695800D02*
D03*
X1101500Y719900D02*
D03*
X1038000Y694500D02*
D03*
X720500Y149200D02*
D03*
X657000Y123800D02*
D03*
X720000Y910400D02*
D03*
X656500Y885000D02*
D03*
X719250Y529700D02*
D03*
X655750Y504300D02*
D03*
X910000Y148700D02*
D03*
X846500Y123300D02*
D03*
X720250Y339700D02*
D03*
X656750Y314300D02*
D03*
X1101250Y339200D02*
D03*
X1037750Y313800D02*
D03*
X1100000Y529400D02*
D03*
X1036500Y504000D02*
D03*
X909750Y911700D02*
D03*
X846250Y886300D02*
D03*
X1101250Y149200D02*
D03*
X1037750Y123800D02*
D03*
D33*
X383000Y785000D02*
D03*
X407840Y689064D02*
D03*
X387237Y604421D02*
D03*
X517095Y724028D02*
D03*
X434339Y769314D02*
D03*
X451839Y858064D02*
D03*
X474339Y663564D02*
D03*
X457840Y978314D02*
D03*
X465340Y663314D02*
D03*
X466339Y935314D02*
D03*
X421834Y789377D02*
D03*
X399840Y673814D02*
D03*
X515589Y744064D02*
D03*
X422589Y934314D02*
D03*
X526487Y604171D02*
D03*
X427840Y977064D02*
D03*
X700000Y382500D02*
D03*
X902500D02*
D03*
X1095000D02*
D03*
X470000Y790000D02*
D03*
X363000Y768000D02*
D03*
X370000Y735000D02*
D03*
X520000Y665000D02*
D03*
X404530Y653730D02*
D03*
X562000Y765000D02*
D03*
X428000Y1015000D02*
D03*
X459000Y1016000D02*
D03*
X1002500Y922500D02*
D03*
X707500Y192500D02*
D03*
X900000D02*
D03*
X1100000Y195000D02*
D03*
X710000Y765000D02*
D03*
X900000D02*
D03*
X1085000D02*
D03*
X606035Y919217D02*
D03*
X705000Y7500D02*
D03*
X890000D02*
D03*
X1107500D02*
D03*
X715000Y577500D02*
D03*
X900000D02*
D03*
X1087500D02*
D03*
X808750Y920750D02*
D03*
D34*
X457090Y910064D02*
D03*
X467090D02*
D03*
X452985Y924363D02*
D03*
X442985D02*
D03*
D55*
X400885Y600971D02*
D03*
Y585371D02*
D03*
X514237Y600971D02*
D03*
Y585371D02*
D03*
D56*
X394840Y688564D02*
D03*
Y705564D02*
D03*
X527589Y745064D02*
D03*
Y762064D02*
D03*
D57*
X474090Y649064D02*
D03*
X491090D02*
D03*
X449090Y600987D02*
D03*
X466090D02*
D03*
X421334Y845127D02*
D03*
X404334D02*
D03*
X434590Y781814D02*
D03*
X451590D02*
D03*
X402864Y767897D02*
D03*
X385864D02*
D03*
D58*
X535127Y724028D02*
D03*
X550127D02*
D03*
X459205Y630918D02*
D03*
X474205D02*
D03*
D59*
X422340Y897814D02*
D03*
Y887814D02*
D03*
D60*
X364045Y663348D02*
D03*
X326045D02*
D03*
Y600348D02*
D03*
X364045D02*
D03*
D61*
X421834Y866127D02*
D03*
X401834D02*
D03*
X445340Y649814D02*
D03*
X425340D02*
D03*
D62*
X402464Y747877D02*
D03*
X386704D02*
D03*
D63*
X427840Y990194D02*
D03*
Y1000434D02*
D03*
X457840Y989944D02*
D03*
Y1000184D02*
D03*
D64*
X421484Y802177D02*
D03*
Y826577D02*
D03*
X402684D02*
D03*
Y802177D02*
D03*
X412084Y826577D02*
D03*
D65*
X387045Y663348D02*
D03*
Y648348D02*
D03*
D66*
X948000Y475800D02*
D03*
X757500Y475800D02*
D03*
X1138500Y473800D02*
D03*
X1137500Y284300D02*
D03*
X757500Y286300D02*
D03*
X947000Y288300D02*
D03*
X948000Y858000D02*
D03*
X755500Y856800D02*
D03*
X1138500Y854800D02*
D03*
X755000Y87550D02*
D03*
X1139500Y89550D02*
D03*
X945250Y92550D02*
D03*
X948000Y665300D02*
D03*
X1140500Y666300D02*
D03*
X757500Y665300D02*
D03*
Y500200D02*
D03*
X755500Y881200D02*
D03*
X1137500Y308700D02*
D03*
X1140500Y690700D02*
D03*
X1139500Y113950D02*
D03*
X948000Y689700D02*
D03*
X755000Y111950D02*
D03*
X757500Y689700D02*
D03*
X948000Y882400D02*
D03*
X1138500Y879200D02*
D03*
X945250Y116950D02*
D03*
X948000Y500200D02*
D03*
X1138500Y498200D02*
D03*
X757500Y310700D02*
D03*
X947000Y312700D02*
D03*
D67*
X1002500Y694500D02*
D03*
X1002250Y313800D02*
D03*
X1001000Y504000D02*
D03*
X1002250Y886300D02*
D03*
X1002250Y123800D02*
D03*
X621000Y885000D02*
D03*
X621250Y314300D02*
D03*
X621250Y694800D02*
D03*
X621500Y123800D02*
D03*
X620250Y504300D02*
D03*
X810750Y886300D02*
D03*
X811750Y505300D02*
D03*
X810750Y695800D02*
D03*
X811280Y313640D02*
D03*
X811000Y123300D02*
D03*
X1136750Y911700D02*
D03*
X946250Y530700D02*
D03*
X755750Y720200D02*
D03*
X945780Y339040D02*
D03*
X945250Y721200D02*
D03*
X1137000Y719900D02*
D03*
X756000Y149200D02*
D03*
X755500Y910400D02*
D03*
X754750Y529700D02*
D03*
X945500Y148700D02*
D03*
X755750Y339700D02*
D03*
X1136750Y339200D02*
D03*
X1135500Y529400D02*
D03*
X945250Y911700D02*
D03*
X1136750Y149200D02*
D03*
M02*
