G04*
G04 #@! TF.GenerationSoftware,Altium Limited,Altium Designer,25.8.1 (18)*
G04*
G04 Layer_Color=65535*
%FSLAX44Y44*%
%MOMM*%
G71*
G04*
G04 #@! TF.SameCoordinates,78507F3A-5BF6-467C-BE05-C536D97B98AD*
G04*
G04*
G04 #@! TF.FilePolarity,Positive*
G04*
G01*
G75*
%ADD10C,0.2000*%
%ADD11C,0.2540*%
%ADD12C,0.0500*%
%ADD13C,0.1000*%
%ADD14C,0.0508*%
%ADD15C,0.1270*%
D10*
X479339Y952064D02*
G03*
X478340Y952064I-500J0D01*
G01*
D02*
G03*
X479339Y952064I500J0D01*
G01*
D02*
G03*
X478340Y952064I-500J0D01*
G01*
X398970Y488000D02*
G03*
X398970Y488000I-1000J0D01*
G01*
X426584Y767877D02*
Y783627D01*
X416584D02*
X426584D01*
X416584Y767877D02*
Y783627D01*
Y767877D02*
X426584D01*
X400840Y596314D02*
X514090D01*
X400840Y644564D02*
X514339D01*
X400840Y596314D02*
Y608314D01*
X514339Y632564D02*
Y644564D01*
X514090Y596314D02*
Y608314D01*
X400840Y632564D02*
Y644564D01*
X434009Y842814D02*
X469009D01*
Y797814D02*
Y842814D01*
X434009Y797814D02*
X469009D01*
X434009D02*
Y842814D01*
X443200Y686350D02*
X492150D01*
Y746650D01*
X431850D02*
X492150D01*
X431850Y697700D02*
Y746650D01*
Y697700D02*
X443200Y686350D01*
X373500Y716500D02*
X406750D01*
X373500Y701500D02*
Y716500D01*
Y701500D02*
X406750D01*
Y716500D01*
X395755Y840498D02*
Y829668D01*
X397921Y827502D01*
X402253D01*
X404419Y829668D01*
Y840498D01*
X408751Y827502D02*
X413083D01*
X410917D01*
Y840498D01*
X408751Y838332D01*
X419581D02*
X421747Y840498D01*
X426079D01*
X428245Y838332D01*
Y836166D01*
X426079Y834000D01*
X428245Y831834D01*
Y829668D01*
X426079Y827502D01*
X421747D01*
X419581Y829668D01*
Y831834D01*
X421747Y834000D01*
X419581Y836166D01*
Y838332D01*
X421747Y834000D02*
X426079D01*
X379003Y721002D02*
Y732998D01*
X385001D01*
X387001Y730999D01*
Y727000D01*
X385001Y725001D01*
X379003D01*
X383002D02*
X387001Y721002D01*
X396997D02*
Y732998D01*
X390999Y727000D01*
X398997D01*
X389169Y778332D02*
X387502Y779998D01*
X384170D01*
X382504Y778332D01*
Y771668D01*
X384170Y770002D01*
X387502D01*
X389169Y771668D01*
X392501Y770002D02*
X395833D01*
X394167D01*
Y779998D01*
X392501Y778332D01*
X400831D02*
X402498Y779998D01*
X405830D01*
X407496Y778332D01*
Y771668D01*
X405830Y770002D01*
X402498D01*
X400831Y771668D01*
Y778332D01*
D11*
X443009Y791814D02*
G03*
X443009Y791814I-1000J0D01*
G01*
X345304Y790383D02*
Y805618D01*
X352922D01*
X355461Y803078D01*
Y798000D01*
X352922Y795461D01*
X345304D01*
X350382D02*
X355461Y790383D01*
X360539Y805618D02*
X370696D01*
Y803078D01*
X360539Y792922D01*
Y790383D01*
X414000Y556618D02*
X408922D01*
X411461D01*
Y543922D01*
X408922Y541382D01*
X406382D01*
X403843Y543922D01*
X419078Y541382D02*
X424157D01*
X421618D01*
Y556618D01*
X419078Y554078D01*
X359113Y666078D02*
X356574Y668617D01*
X351495D01*
X348956Y666078D01*
Y655922D01*
X351495Y653382D01*
X356574D01*
X359113Y655922D01*
X364191Y653382D02*
X369270D01*
X366730D01*
Y668617D01*
X364191Y666078D01*
X376887D02*
X379426Y668617D01*
X384505D01*
X387044Y666078D01*
Y663539D01*
X384505Y661000D01*
X381965D01*
X384505D01*
X387044Y658461D01*
Y655922D01*
X384505Y653382D01*
X379426D01*
X376887Y655922D01*
X548461Y587078D02*
X545922Y589618D01*
X540843D01*
X538304Y587078D01*
Y576922D01*
X540843Y574383D01*
X545922D01*
X548461Y576922D01*
X553539Y589618D02*
X563696D01*
Y587078D01*
X553539Y576922D01*
Y574383D01*
X362461Y590078D02*
X359922Y592617D01*
X354843D01*
X352304Y590078D01*
Y579922D01*
X354843Y577383D01*
X359922D01*
X362461Y579922D01*
X377696Y592617D02*
X372617Y590078D01*
X367539Y585000D01*
Y579922D01*
X370078Y577383D01*
X375157D01*
X377696Y579922D01*
Y582461D01*
X375157Y585000D01*
X367539D01*
X444843Y587617D02*
Y585078D01*
X449922Y580000D01*
X455000Y585078D01*
Y587617D01*
X449922Y580000D02*
Y572383D01*
X460078D02*
X465157D01*
X462618D01*
Y587617D01*
X460078Y585078D01*
X999935Y199738D02*
X1010092Y184503D01*
Y199738D02*
X999935Y184503D01*
X1015170D02*
X1020248D01*
X1017709D01*
Y199738D01*
X1015170Y197199D01*
X1038023Y199738D02*
X1027866D01*
Y192120D01*
X1032944Y194660D01*
X1035483D01*
X1038023Y192120D01*
Y187042D01*
X1035483Y184503D01*
X1030405D01*
X1027866Y187042D01*
X809435Y199738D02*
X819592Y184503D01*
Y199738D02*
X809435Y184503D01*
X824670D02*
X829748D01*
X827209D01*
Y199738D01*
X824670Y197199D01*
X844984Y184503D02*
Y199738D01*
X837366Y192120D01*
X847523D01*
X618935Y199738D02*
X629092Y184503D01*
Y199738D02*
X618935Y184503D01*
X634170D02*
X639248D01*
X636709D01*
Y199738D01*
X634170Y197199D01*
X646866D02*
X649405Y199738D01*
X654483D01*
X657023Y197199D01*
Y194660D01*
X654483Y192120D01*
X651944D01*
X654483D01*
X657023Y189581D01*
Y187042D01*
X654483Y184503D01*
X649405D01*
X646866Y187042D01*
X999935Y390238D02*
X1010092Y375003D01*
Y390238D02*
X999935Y375003D01*
X1015170D02*
X1020248D01*
X1017709D01*
Y390238D01*
X1015170Y387699D01*
X1038023Y375003D02*
X1027866D01*
X1038023Y385160D01*
Y387699D01*
X1035483Y390238D01*
X1030405D01*
X1027866Y387699D01*
X809435Y390238D02*
X819592Y375003D01*
Y390238D02*
X809435Y375003D01*
X824670D02*
X829748D01*
X827209D01*
Y390238D01*
X824670Y387699D01*
X837366Y375003D02*
X842444D01*
X839905D01*
Y390238D01*
X837366Y387699D01*
X618935Y390238D02*
X629092Y375003D01*
Y390238D02*
X618935Y375003D01*
X634170D02*
X639248D01*
X636709D01*
Y390238D01*
X634170Y387699D01*
X646866D02*
X649405Y390238D01*
X654483D01*
X657023Y387699D01*
Y377542D01*
X654483Y375003D01*
X649405D01*
X646866Y377542D01*
Y387699D01*
X999935Y580738D02*
X1010092Y565503D01*
Y580738D02*
X999935Y565503D01*
X1015170Y568042D02*
X1017709Y565503D01*
X1022788D01*
X1025327Y568042D01*
Y578199D01*
X1022788Y580738D01*
X1017709D01*
X1015170Y578199D01*
Y575660D01*
X1017709Y573120D01*
X1025327D01*
X809435Y580738D02*
X819592Y565503D01*
Y580738D02*
X809435Y565503D01*
X824670Y578199D02*
X827209Y580738D01*
X832288D01*
X834827Y578199D01*
Y575660D01*
X832288Y573120D01*
X834827Y570581D01*
Y568042D01*
X832288Y565503D01*
X827209D01*
X824670Y568042D01*
Y570581D01*
X827209Y573120D01*
X824670Y575660D01*
Y578199D01*
X827209Y573120D02*
X832288D01*
X618935Y580738D02*
X629092Y565503D01*
Y580738D02*
X618935Y565503D01*
X634170Y580738D02*
X644327D01*
Y578199D01*
X634170Y568042D01*
Y565503D01*
X999935Y771238D02*
X1010092Y756003D01*
Y771238D02*
X999935Y756003D01*
X1025327Y771238D02*
X1020248Y768699D01*
X1015170Y763621D01*
Y758542D01*
X1017709Y756003D01*
X1022788D01*
X1025327Y758542D01*
Y761081D01*
X1022788Y763621D01*
X1015170D01*
X809435Y771238D02*
X819592Y756003D01*
Y771238D02*
X809435Y756003D01*
X834827Y771238D02*
X824670D01*
Y763621D01*
X829748Y766160D01*
X832288D01*
X834827Y763621D01*
Y758542D01*
X832288Y756003D01*
X827209D01*
X824670Y758542D01*
X618935Y771238D02*
X629092Y756003D01*
Y771238D02*
X618935Y756003D01*
X641788D02*
Y771238D01*
X634170Y763621D01*
X644327D01*
X999935Y961738D02*
X1010092Y946503D01*
Y961738D02*
X999935Y946503D01*
X1015170Y959199D02*
X1017709Y961738D01*
X1022788D01*
X1025327Y959199D01*
Y956660D01*
X1022788Y954120D01*
X1020248D01*
X1022788D01*
X1025327Y951581D01*
Y949042D01*
X1022788Y946503D01*
X1017709D01*
X1015170Y949042D01*
X809435Y961738D02*
X819592Y946503D01*
Y961738D02*
X809435Y946503D01*
X834827D02*
X824670D01*
X834827Y956660D01*
Y959199D01*
X832288Y961738D01*
X827209D01*
X824670Y959199D01*
X618935Y961738D02*
X629092Y946503D01*
Y961738D02*
X618935Y946503D01*
X634170D02*
X639248D01*
X636709D01*
Y961738D01*
X634170Y959199D01*
X497304Y767617D02*
Y754922D01*
X499843Y752383D01*
X504922D01*
X507461Y754922D01*
Y767617D01*
X522696D02*
X512539D01*
Y760000D01*
X517617Y762539D01*
X520157D01*
X522696Y760000D01*
Y754922D01*
X520157Y752383D01*
X515078D01*
X512539Y754922D01*
X434843Y1012617D02*
Y999922D01*
X437383Y997383D01*
X442461D01*
X445000Y999922D01*
Y1012617D01*
X450078Y997383D02*
X455157D01*
X452618D01*
Y1012617D01*
X450078Y1010078D01*
D12*
X395000Y793000D02*
Y803000D01*
X375000D02*
X395000D01*
X375000Y793000D02*
Y803000D01*
Y793000D02*
X395000D01*
X381500Y595520D02*
X392500D01*
X381500Y576480D02*
X392500D01*
X381500D02*
Y595520D01*
X392500Y576480D02*
Y595520D01*
X521500Y593520D02*
X532500D01*
X521500Y574480D02*
X532500D01*
X521500D02*
Y593520D01*
X532500Y574480D02*
Y593520D01*
D13*
X490039Y984064D02*
X490340D01*
Y991564D01*
X490039D02*
X490340D01*
X490039Y984064D02*
Y991564D01*
Y1024064D02*
Y1035834D01*
Y1024064D02*
Y1035834D01*
X400639D02*
X490039D01*
X400639D02*
X490039D01*
X400639Y1021564D02*
Y1035834D01*
Y1021564D02*
Y1035834D01*
Y981564D02*
Y991564D01*
Y981564D02*
Y991564D01*
X617770Y782270D02*
Y938270D01*
Y782270D02*
X773770D01*
Y938270D01*
X617770D02*
X773770D01*
X808270D02*
X964270D01*
Y782270D02*
Y938270D01*
X808270Y782270D02*
X964270D01*
X808270D02*
Y938270D01*
X998770Y782270D02*
Y938270D01*
Y782270D02*
X1154770D01*
Y938270D01*
X998770D02*
X1154770D01*
X617770Y747770D02*
X773770D01*
Y591770D02*
Y747770D01*
X617770Y591770D02*
X773770D01*
X617770D02*
Y747770D01*
X808270Y591770D02*
Y747770D01*
Y591770D02*
X964270D01*
Y747770D01*
X808270D02*
X964270D01*
X998770D02*
X1154770D01*
Y591770D02*
Y747770D01*
X998770Y591770D02*
X1154770D01*
X998770D02*
Y747770D01*
X617770Y401270D02*
Y557270D01*
Y401270D02*
X773770D01*
Y557270D01*
X617770D02*
X773770D01*
X808270D02*
X964270D01*
Y401270D02*
Y557270D01*
X808270Y401270D02*
X964270D01*
X808270D02*
Y557270D01*
X998770Y401270D02*
Y557270D01*
Y401270D02*
X1154770D01*
Y557270D01*
X998770D02*
X1154770D01*
X617770Y366770D02*
X773770D01*
Y210770D02*
Y366770D01*
X617770Y210770D02*
X773770D01*
X617770D02*
Y366770D01*
X808270Y210770D02*
Y366770D01*
Y210770D02*
X964270D01*
Y366770D01*
X808270D02*
X964270D01*
X998770D02*
X1154770D01*
Y210770D02*
Y366770D01*
X998770Y210770D02*
X1154770D01*
X998770D02*
Y366770D01*
X617770Y20270D02*
Y176270D01*
Y20270D02*
X773770D01*
Y176270D01*
X617770D02*
X773770D01*
X808270D02*
X964270D01*
Y20270D02*
Y176270D01*
X808270Y20270D02*
X964270D01*
X808270D02*
Y176270D01*
X998770Y20270D02*
Y176270D01*
Y20270D02*
X1154770D01*
Y176270D01*
X998770D02*
X1154770D01*
D14*
X391270Y668830D02*
X424730D01*
Y653170D02*
Y668830D01*
X391270Y653170D02*
X424730D01*
X391270D02*
Y668830D01*
D15*
X403970Y209200D02*
X494970D01*
X403970D02*
Y538200D01*
X494970D01*
Y209200D02*
Y538200D01*
M02*
