G04*
G04 #@! TF.GenerationSoftware,Altium Limited,Altium Designer,25.8.1 (18)*
G04*
G04 Layer_Color=8421504*
%FSLAX44Y44*%
%MOMM*%
G71*
G04*
G04 #@! TF.SameCoordinates,FCA943C9-AC26-45BC-959E-77FD342E558C*
G04*
G04*
G04 #@! TF.FilePolarity,Positive*
G04*
G01*
G75*
%ADD14R,0.9300X1.4200*%
%ADD15R,1.2000X0.3000*%
%ADD16R,0.3000X1.2000*%
%ADD17R,0.6000X1.2000*%
%ADD18R,0.4000X0.3500*%
%ADD19R,0.3000X1.1500*%
%ADD20R,2.1800X2.0000*%
G36*
X382589Y610564D02*
Y630564D01*
X437589D01*
Y610564D01*
X382589D01*
D02*
G37*
G36*
X477589D02*
Y630564D01*
X532589D01*
Y610564D01*
X477589D01*
D02*
G37*
D14*
X398790Y800000D02*
D03*
X379210D02*
D03*
D15*
X503500Y694000D02*
D03*
Y689000D02*
D03*
Y699000D02*
D03*
X420500Y724000D02*
D03*
Y729000D02*
D03*
Y734000D02*
D03*
Y739000D02*
D03*
Y744000D02*
D03*
Y719000D02*
D03*
Y714000D02*
D03*
Y704000D02*
D03*
Y699000D02*
D03*
X503500Y724000D02*
D03*
Y729000D02*
D03*
Y734000D02*
D03*
Y719000D02*
D03*
Y714000D02*
D03*
Y709000D02*
D03*
Y704000D02*
D03*
X420500Y689000D02*
D03*
X503500Y744000D02*
D03*
Y739000D02*
D03*
X420500Y694000D02*
D03*
Y709000D02*
D03*
D16*
X459500Y675000D02*
D03*
X454500D02*
D03*
X444500Y758000D02*
D03*
X449500D02*
D03*
X454500D02*
D03*
X459500D02*
D03*
X464500D02*
D03*
X469500D02*
D03*
X474500D02*
D03*
X479500D02*
D03*
X484500D02*
D03*
X489500D02*
D03*
Y675000D02*
D03*
X484500D02*
D03*
X479500D02*
D03*
X464500D02*
D03*
X449500D02*
D03*
X444500D02*
D03*
X439500D02*
D03*
X434500D02*
D03*
X474500D02*
D03*
X434500Y758000D02*
D03*
X439500D02*
D03*
X469500Y675000D02*
D03*
D17*
X461009Y831814D02*
D03*
Y808814D02*
D03*
X442009D02*
D03*
Y831814D02*
D03*
X451509D02*
D03*
Y808814D02*
D03*
D18*
X421584Y778877D02*
D03*
Y772877D02*
D03*
D19*
X427840Y962284D02*
D03*
X457840D02*
D03*
X467840D02*
D03*
X462840D02*
D03*
X452840D02*
D03*
X437840D02*
D03*
X422840D02*
D03*
X419840D02*
D03*
X432840D02*
D03*
X442840D02*
D03*
X447840D02*
D03*
X470840D02*
D03*
X478839D02*
D03*
X411839D02*
D03*
X414840D02*
D03*
X475840D02*
D03*
D20*
X496440Y1007334D02*
D03*
X394240D02*
D03*
X496440Y968034D02*
D03*
X394240D02*
D03*
M02*
