G04*
G04 #@! TF.GenerationSoftware,Altium Limited,Altium Designer,25.8.1 (18)*
G04*
G04 Layer_Color=32896*
%FSLAX44Y44*%
%MOMM*%
G71*
G04*
G04 #@! TF.SameCoordinates,4A496B56-2FD5-4BE6-835D-0BBDAEE4E5EE*
G04*
G04*
G04 #@! TF.FilePolarity,Positive*
G04*
G01*
G75*
%ADD10C,0.2000*%
%ADD11C,0.2540*%
%ADD12C,0.1000*%
%ADD13C,0.0500*%
%ADD14C,0.0508*%
%ADD15C,0.1270*%
%ADD73R,1.4000X0.9000*%
D10*
X984500Y886000D02*
G03*
X984500Y886000I-1000J0D01*
G01*
X794000Y505000D02*
G03*
X794000Y505000I-1000J0D01*
G01*
X603500Y694500D02*
G03*
X603500Y694500I-1000J0D01*
G01*
X793530Y313340D02*
G03*
X793530Y313340I-1000J0D01*
G01*
X793000Y695500D02*
G03*
X793000Y695500I-1000J0D01*
G01*
X984750Y694200D02*
G03*
X984750Y694200I-1000J0D01*
G01*
X603750Y123500D02*
G03*
X603750Y123500I-1000J0D01*
G01*
X603250Y884700D02*
G03*
X603250Y884700I-1000J0D01*
G01*
X602500Y504000D02*
G03*
X602500Y504000I-1000J0D01*
G01*
X793250Y123000D02*
G03*
X793250Y123000I-1000J0D01*
G01*
X603500Y314000D02*
G03*
X603500Y314000I-1000J0D01*
G01*
X984500Y313500D02*
G03*
X984500Y313500I-1000J0D01*
G01*
X983250Y503700D02*
G03*
X983250Y503700I-1000J0D01*
G01*
X793000Y886000D02*
G03*
X793000Y886000I-1000J0D01*
G01*
X984500Y123500D02*
G03*
X984500Y123500I-1000J0D01*
G01*
X386000Y404500D02*
X419250D01*
X386000D02*
Y419500D01*
X419250D01*
Y404500D02*
Y419500D01*
X386500Y328500D02*
X419750D01*
X386500D02*
Y343500D01*
X419750D01*
Y328500D02*
Y343500D01*
X385500Y379500D02*
X418750D01*
X385500D02*
Y394500D01*
X418750D01*
Y379500D02*
Y394500D01*
X377584Y739877D02*
X411584D01*
Y755877D01*
X377584D02*
X411584D01*
X377584Y739877D02*
Y755877D01*
X430834Y856127D02*
Y875127D01*
X391834D02*
X430834D01*
X391834Y856127D02*
Y875127D01*
Y856127D02*
X430834D01*
X449955Y638418D02*
X483205D01*
Y623418D02*
Y638418D01*
X449955Y623418D02*
X483205D01*
X449955D02*
Y638418D01*
X443270Y621000D02*
Y640000D01*
X404270D02*
X443270D01*
X404270Y621000D02*
Y640000D01*
Y621000D02*
X443270D01*
X415340Y880814D02*
Y904814D01*
Y880814D02*
X429339D01*
Y904814D01*
X415340D02*
X429339D01*
X384250Y292500D02*
X417500D01*
Y277500D02*
Y292500D01*
X384250Y277500D02*
X417500D01*
X384250D02*
Y292500D01*
Y266500D02*
X417500D01*
Y251500D02*
Y266500D01*
X384250Y251500D02*
X417500D01*
X384250D02*
Y266500D01*
X385250Y368500D02*
X418500D01*
Y353500D02*
Y368500D01*
X385250Y353500D02*
X418500D01*
X385250D02*
Y368500D01*
X750500Y461000D02*
X764500D01*
X750500D02*
Y507000D01*
X764500D01*
Y461000D02*
Y507000D01*
X748500Y842000D02*
X762500D01*
X748500D02*
Y888000D01*
X762500D01*
Y842000D02*
Y888000D01*
X1130500Y269500D02*
X1144500D01*
X1130500D02*
Y315500D01*
X1144500D01*
Y269500D02*
Y315500D01*
X1133500Y651500D02*
X1147500D01*
X1133500D02*
Y697500D01*
X1147500D01*
Y651500D02*
Y697500D01*
X1132500Y74750D02*
X1146500D01*
X1132500D02*
Y120750D01*
X1146500D01*
Y74750D02*
Y120750D01*
X941000Y650500D02*
X955000D01*
X941000D02*
Y696500D01*
X955000D01*
Y650500D02*
Y696500D01*
X748000Y72750D02*
X762000D01*
X748000D02*
Y118750D01*
X762000D01*
Y72750D02*
Y118750D01*
X750500Y650500D02*
X764500D01*
X750500D02*
Y696500D01*
X764500D01*
Y650500D02*
Y696500D01*
X941000Y843200D02*
X955000D01*
X941000D02*
Y889200D01*
X955000D01*
Y843200D02*
Y889200D01*
X1131500Y840000D02*
X1145500D01*
X1131500D02*
Y886000D01*
X1145500D01*
Y840000D02*
Y886000D01*
X938250Y77750D02*
X952250D01*
X938250D02*
Y123750D01*
X952250D01*
Y77750D02*
Y123750D01*
X941000Y461000D02*
X955000D01*
X941000D02*
Y507000D01*
X955000D01*
Y461000D02*
Y507000D01*
X1131500Y459000D02*
X1145500D01*
X1131500D02*
Y505000D01*
X1145500D01*
Y459000D02*
Y505000D01*
X750500Y271500D02*
X764500D01*
X750500D02*
Y317500D01*
X764500D01*
Y271500D02*
Y317500D01*
X940000Y273500D02*
X954000D01*
X940000D02*
Y319500D01*
X954000D01*
Y273500D02*
Y319500D01*
X514499Y653999D02*
X516499Y655998D01*
X520497D01*
X522497Y653999D01*
Y646001D01*
X520497Y644002D01*
X516499D01*
X514499Y646001D01*
X504503Y644002D02*
Y655998D01*
X510501Y650000D01*
X502503D01*
X507497Y624002D02*
Y635998D01*
X501499D01*
X499499Y633999D01*
Y630000D01*
X501499Y628001D01*
X507497D01*
X503498D02*
X499499Y624002D01*
X487503D02*
X495501D01*
X487503Y631999D01*
Y633999D01*
X489503Y635998D01*
X493501D01*
X495501Y633999D01*
X376999Y848999D02*
X378999Y850998D01*
X382997D01*
X384997Y848999D01*
Y841001D01*
X382997Y839002D01*
X378999D01*
X376999Y841001D01*
X373001D02*
X371001Y839002D01*
X367003D01*
X365003Y841001D01*
Y848999D01*
X367003Y850998D01*
X371001D01*
X373001Y848999D01*
Y846999D01*
X371001Y845000D01*
X365003D01*
X361998Y771499D02*
X363997Y773498D01*
X367996D01*
X369995Y771499D01*
Y763501D01*
X367996Y761502D01*
X363997D01*
X361998Y763501D01*
X357999Y761502D02*
X354000D01*
X356000D01*
Y773498D01*
X357999Y771499D01*
X340005Y761502D02*
X348002D01*
X340005Y769499D01*
Y771499D01*
X342004Y773498D01*
X346003D01*
X348002Y771499D01*
D11*
X394584Y835627D02*
G03*
X394584Y835627I-500J0D01*
G01*
X379696Y403382D02*
Y418618D01*
X372078D01*
X369539Y416078D01*
Y411000D01*
X372078Y408461D01*
X379696D01*
X374618D02*
X369539Y403382D01*
X364461Y405922D02*
X361922Y403382D01*
X356843D01*
X354304Y405922D01*
Y416078D01*
X356843Y418618D01*
X361922D01*
X364461Y416078D01*
Y413539D01*
X361922Y411000D01*
X354304D01*
X378505Y327383D02*
Y342617D01*
X370887D01*
X368348Y340078D01*
Y335000D01*
X370887Y332461D01*
X378505D01*
X373426D02*
X368348Y327383D01*
X363270D02*
X358191D01*
X360730D01*
Y342617D01*
X363270Y340078D01*
X350574Y327383D02*
X345495D01*
X348035D01*
Y342617D01*
X350574Y340078D01*
X379044Y378382D02*
Y393618D01*
X371426D01*
X368887Y391078D01*
Y386000D01*
X371426Y383461D01*
X379044D01*
X373965D02*
X368887Y378382D01*
X363809D02*
X358730D01*
X361270D01*
Y393618D01*
X363809Y391078D01*
X351113D02*
X348574Y393618D01*
X343495D01*
X340956Y391078D01*
Y380922D01*
X343495Y378382D01*
X348574D01*
X351113Y380922D01*
Y391078D01*
X394696Y454383D02*
Y469618D01*
X387078D01*
X384539Y467078D01*
Y462000D01*
X387078Y459461D01*
X394696D01*
X389618D02*
X384539Y454383D01*
X379461Y467078D02*
X376922Y469618D01*
X371843D01*
X369304Y467078D01*
Y464539D01*
X371843Y462000D01*
X369304Y459461D01*
Y456922D01*
X371843Y454383D01*
X376922D01*
X379461Y456922D01*
Y459461D01*
X376922Y462000D01*
X379461Y464539D01*
Y467078D01*
X376922Y462000D02*
X371843D01*
X470196Y574883D02*
Y590117D01*
X462578D01*
X460039Y587578D01*
Y582500D01*
X462578Y579961D01*
X470196D01*
X465117D02*
X460039Y574883D01*
X444804Y590117D02*
X454961D01*
Y582500D01*
X449883Y585039D01*
X447343D01*
X444804Y582500D01*
Y577422D01*
X447343Y574883D01*
X452422D01*
X454961Y577422D01*
X361348Y752578D02*
X363887Y755117D01*
X368965D01*
X371505Y752578D01*
Y742422D01*
X368965Y739883D01*
X363887D01*
X361348Y742422D01*
X356270Y739883D02*
X351191D01*
X353730D01*
Y755117D01*
X356270Y752578D01*
X343574Y739883D02*
X338495D01*
X341035D01*
Y755117D01*
X343574Y752578D01*
X480039Y787578D02*
X482578Y790117D01*
X487657D01*
X490196Y787578D01*
Y777422D01*
X487657Y774883D01*
X482578D01*
X480039Y777422D01*
X464804Y774883D02*
X474961D01*
X464804Y785039D01*
Y787578D01*
X467343Y790117D01*
X472422D01*
X474961Y787578D01*
X391544Y810117D02*
Y797422D01*
X389005Y794883D01*
X383926D01*
X381387Y797422D01*
Y810117D01*
X376309Y794883D02*
X371230D01*
X373770D01*
Y810117D01*
X376309Y807578D01*
X363613Y797422D02*
X361074Y794883D01*
X355995D01*
X353456Y797422D01*
Y807578D01*
X355995Y810117D01*
X361074D01*
X363613Y807578D01*
Y805039D01*
X361074Y802500D01*
X353456D01*
X384624Y831837D02*
X389702D01*
X387163D01*
Y816602D01*
X384624Y819141D01*
X377539Y870078D02*
X380078Y872617D01*
X385157D01*
X387696Y870078D01*
Y859922D01*
X385157Y857383D01*
X380078D01*
X377539Y859922D01*
X372461Y870078D02*
X369922Y872617D01*
X364843D01*
X362304Y870078D01*
Y867539D01*
X364843Y865000D01*
X362304Y862461D01*
Y859922D01*
X364843Y857383D01*
X369922D01*
X372461Y859922D01*
Y862461D01*
X369922Y865000D01*
X372461Y867539D01*
Y870078D01*
X369922Y865000D02*
X364843D01*
X388539Y636078D02*
X391078Y638618D01*
X396157D01*
X398696Y636078D01*
Y625922D01*
X396157Y623382D01*
X391078D01*
X388539Y625922D01*
X373304Y638618D02*
X383461D01*
Y631000D01*
X378382Y633539D01*
X375843D01*
X373304Y631000D01*
Y625922D01*
X375843Y623382D01*
X380922D01*
X383461Y625922D01*
X434882Y892500D02*
Y902657D01*
X442500D01*
Y897578D01*
Y902657D01*
X450117D01*
Y887422D02*
Y882343D01*
Y884882D01*
X434882D01*
X437422Y887422D01*
X415013Y1005600D02*
X399777D01*
Y997983D01*
X402317Y995443D01*
X407395D01*
X409934Y997983D01*
Y1005600D01*
Y1000522D02*
X415013Y995443D01*
X399777Y980208D02*
X402317Y985287D01*
X407395Y990365D01*
X412473D01*
X415013Y987826D01*
Y982748D01*
X412473Y980208D01*
X409934D01*
X407395Y982748D01*
Y990365D01*
X369922Y700000D02*
X367383Y702539D01*
Y707617D01*
X369922Y710157D01*
X380078D01*
X382617Y707617D01*
Y702539D01*
X380078Y700000D01*
X382617Y694922D02*
Y689843D01*
Y692382D01*
X367383D01*
X369922Y694922D01*
X482617Y1005157D02*
X467382D01*
Y997539D01*
X469922Y995000D01*
X475000D01*
X477539Y997539D01*
Y1005157D01*
Y1000078D02*
X482617Y995000D01*
Y989922D02*
Y984843D01*
Y987382D01*
X467382D01*
X469922Y989922D01*
X542422Y757539D02*
X539882Y760078D01*
Y765157D01*
X542422Y767696D01*
X552578D01*
X555117Y765157D01*
Y760078D01*
X552578Y757539D01*
X542422Y752461D02*
X539882Y749922D01*
Y744843D01*
X542422Y742304D01*
X544961D01*
X547500Y744843D01*
Y747382D01*
Y744843D01*
X550039Y742304D01*
X552578D01*
X555117Y744843D01*
Y749922D01*
X552578Y752461D01*
X377044Y277383D02*
Y292617D01*
X369426D01*
X366887Y290078D01*
Y285000D01*
X369426Y282461D01*
X377044D01*
X371965D02*
X366887Y277383D01*
X361809D02*
X356730D01*
X359270D01*
Y292617D01*
X361809Y290078D01*
X349113D02*
X346574Y292617D01*
X341495D01*
X338956Y290078D01*
Y287539D01*
X341495Y285000D01*
X344035D01*
X341495D01*
X338956Y282461D01*
Y279922D01*
X341495Y277383D01*
X346574D01*
X349113Y279922D01*
X377044Y250382D02*
Y265618D01*
X369426D01*
X366887Y263078D01*
Y258000D01*
X369426Y255461D01*
X377044D01*
X371965D02*
X366887Y250382D01*
X361809D02*
X356730D01*
X359270D01*
Y265618D01*
X361809Y263078D01*
X341495Y250382D02*
Y265618D01*
X349113Y258000D01*
X338956D01*
X378044Y352383D02*
Y367617D01*
X370426D01*
X367887Y365078D01*
Y360000D01*
X370426Y357461D01*
X378044D01*
X372966D02*
X367887Y352383D01*
X362809D02*
X357730D01*
X360270D01*
Y367617D01*
X362809Y365078D01*
X339956Y352383D02*
X350113D01*
X339956Y362539D01*
Y365078D01*
X342495Y367617D01*
X347574D01*
X350113Y365078D01*
X390696Y481382D02*
Y496618D01*
X383078D01*
X380539Y494078D01*
Y489000D01*
X383078Y486461D01*
X390696D01*
X385617D02*
X380539Y481382D01*
X375461Y494078D02*
X372922Y496618D01*
X367843D01*
X365304Y494078D01*
Y491539D01*
X367843Y489000D01*
X370382D01*
X367843D01*
X365304Y486461D01*
Y483922D01*
X367843Y481382D01*
X372922D01*
X375461Y483922D01*
X1074044Y192617D02*
Y179922D01*
X1071505Y177383D01*
X1066426D01*
X1063887Y179922D01*
Y192617D01*
X1058809Y177383D02*
X1053730D01*
X1056270D01*
Y192617D01*
X1058809Y190078D01*
X1046113Y192617D02*
X1035956D01*
Y190078D01*
X1046113Y179922D01*
Y177383D01*
X874044Y192617D02*
Y179922D01*
X871505Y177383D01*
X866426D01*
X863887Y179922D01*
Y192617D01*
X858809Y177383D02*
X853730D01*
X856270D01*
Y192617D01*
X858809Y190078D01*
X835956Y192617D02*
X841034Y190078D01*
X846113Y185000D01*
Y179922D01*
X843574Y177383D01*
X838495D01*
X835956Y179922D01*
Y182461D01*
X838495Y185000D01*
X846113D01*
X689044Y192617D02*
Y179922D01*
X686505Y177383D01*
X681426D01*
X678887Y179922D01*
Y192617D01*
X673809Y177383D02*
X668730D01*
X671270D01*
Y192617D01*
X673809Y190078D01*
X650956Y192617D02*
X661113D01*
Y185000D01*
X656034Y187539D01*
X653495D01*
X650956Y185000D01*
Y179922D01*
X653495Y177383D01*
X658574D01*
X661113Y179922D01*
X1069044Y382617D02*
Y369922D01*
X1066505Y367383D01*
X1061426D01*
X1058887Y369922D01*
Y382617D01*
X1053809Y367383D02*
X1048730D01*
X1051270D01*
Y382617D01*
X1053809Y380078D01*
X1033495Y367383D02*
Y382617D01*
X1041113Y375000D01*
X1030956D01*
X879044Y382617D02*
Y369922D01*
X876505Y367383D01*
X871426D01*
X868887Y369922D01*
Y382617D01*
X863809Y367383D02*
X858730D01*
X861270D01*
Y382617D01*
X863809Y380078D01*
X851113D02*
X848574Y382617D01*
X843495D01*
X840956Y380078D01*
Y377539D01*
X843495Y375000D01*
X846034D01*
X843495D01*
X840956Y372461D01*
Y369922D01*
X843495Y367383D01*
X848574D01*
X851113Y369922D01*
X684044Y382617D02*
Y369922D01*
X681505Y367383D01*
X676426D01*
X673887Y369922D01*
Y382617D01*
X668809Y367383D02*
X663730D01*
X666270D01*
Y382617D01*
X668809Y380078D01*
X645956Y367383D02*
X656113D01*
X645956Y377539D01*
Y380078D01*
X648495Y382617D01*
X653574D01*
X656113Y380078D01*
X1066505Y572617D02*
Y559922D01*
X1063966Y557383D01*
X1058887D01*
X1056348Y559922D01*
Y572617D01*
X1051270Y557383D02*
X1046191D01*
X1048730D01*
Y572617D01*
X1051270Y570078D01*
X1038574Y557383D02*
X1033495D01*
X1036034D01*
Y572617D01*
X1038574Y570078D01*
X884044Y572617D02*
Y559922D01*
X881505Y557383D01*
X876426D01*
X873887Y559922D01*
Y572617D01*
X868809Y557383D02*
X863730D01*
X866270D01*
Y572617D01*
X868809Y570078D01*
X856113D02*
X853574Y572617D01*
X848495D01*
X845956Y570078D01*
Y559922D01*
X848495Y557383D01*
X853574D01*
X856113Y559922D01*
Y570078D01*
X687696Y572617D02*
Y559922D01*
X685157Y557383D01*
X680078D01*
X677539Y559922D01*
Y572617D01*
X672461Y559922D02*
X669922Y557383D01*
X664843D01*
X662304Y559922D01*
Y570078D01*
X664843Y572617D01*
X669922D01*
X672461Y570078D01*
Y567539D01*
X669922Y565000D01*
X662304D01*
X1062696Y762617D02*
Y749922D01*
X1060157Y747383D01*
X1055078D01*
X1052539Y749922D01*
Y762617D01*
X1047461Y760078D02*
X1044922Y762617D01*
X1039843D01*
X1037304Y760078D01*
Y757539D01*
X1039843Y755000D01*
X1037304Y752461D01*
Y749922D01*
X1039843Y747383D01*
X1044922D01*
X1047461Y749922D01*
Y752461D01*
X1044922Y755000D01*
X1047461Y757539D01*
Y760078D01*
X1044922Y755000D02*
X1039843D01*
X877696Y762617D02*
Y749922D01*
X875157Y747383D01*
X870078D01*
X867539Y749922D01*
Y762617D01*
X862461D02*
X852304D01*
Y760078D01*
X862461Y749922D01*
Y747383D01*
X692696Y762617D02*
Y749922D01*
X690157Y747383D01*
X685078D01*
X682539Y749922D01*
Y762617D01*
X667304D02*
X672383Y760078D01*
X677461Y755000D01*
Y749922D01*
X674922Y747383D01*
X669843D01*
X667304Y749922D01*
Y752461D01*
X669843Y755000D01*
X677461D01*
X1082696Y953617D02*
Y940922D01*
X1080157Y938382D01*
X1075078D01*
X1072539Y940922D01*
Y953617D01*
X1059843Y938382D02*
Y953617D01*
X1067461Y946000D01*
X1057304D01*
X892696Y957617D02*
Y944922D01*
X890157Y942383D01*
X885078D01*
X882539Y944922D01*
Y957617D01*
X877461Y955078D02*
X874922Y957617D01*
X869843D01*
X867304Y955078D01*
Y952539D01*
X869843Y950000D01*
X872383D01*
X869843D01*
X867304Y947461D01*
Y944922D01*
X869843Y942383D01*
X874922D01*
X877461Y944922D01*
X697696Y952617D02*
Y939922D01*
X695157Y937383D01*
X690078D01*
X687539Y939922D01*
Y952617D01*
X672304Y937383D02*
X682461D01*
X672304Y947539D01*
Y950078D01*
X674843Y952617D01*
X679922D01*
X682461Y950078D01*
X1194044Y92618D02*
Y77382D01*
X1186426D01*
X1183887Y79922D01*
Y90078D01*
X1186426Y92618D01*
X1194044D01*
X1178809Y77382D02*
X1173730D01*
X1176270D01*
Y92618D01*
X1178809Y90078D01*
X1155956Y92618D02*
X1166113D01*
Y85000D01*
X1161034Y87539D01*
X1158495D01*
X1155956Y85000D01*
Y79922D01*
X1158495Y77382D01*
X1163574D01*
X1166113Y79922D01*
X994044Y92618D02*
Y77382D01*
X986426D01*
X983887Y79922D01*
Y90078D01*
X986426Y92618D01*
X994044D01*
X978809Y77382D02*
X973730D01*
X976270D01*
Y92618D01*
X978809Y90078D01*
X958495Y77382D02*
Y92618D01*
X966113Y85000D01*
X955956D01*
X809044Y87618D02*
Y72382D01*
X801426D01*
X798887Y74922D01*
Y85078D01*
X801426Y87618D01*
X809044D01*
X793809Y72382D02*
X788730D01*
X791270D01*
Y87618D01*
X793809Y85078D01*
X781113D02*
X778574Y87618D01*
X773495D01*
X770956Y85078D01*
Y82539D01*
X773495Y80000D01*
X776034D01*
X773495D01*
X770956Y77461D01*
Y74922D01*
X773495Y72382D01*
X778574D01*
X781113Y74922D01*
X1189044Y282617D02*
Y267383D01*
X1181426D01*
X1178887Y269922D01*
Y280078D01*
X1181426Y282617D01*
X1189044D01*
X1173809Y267383D02*
X1168730D01*
X1171270D01*
Y282617D01*
X1173809Y280078D01*
X1150956Y267383D02*
X1161113D01*
X1150956Y277539D01*
Y280078D01*
X1153495Y282617D01*
X1158574D01*
X1161113Y280078D01*
X991505Y287617D02*
Y272383D01*
X983887D01*
X981348Y274922D01*
Y285078D01*
X983887Y287617D01*
X991505D01*
X976270Y272383D02*
X971191D01*
X973730D01*
Y287617D01*
X976270Y285078D01*
X963574Y272383D02*
X958495D01*
X961034D01*
Y287617D01*
X963574Y285078D01*
X809044Y282617D02*
Y267383D01*
X801426D01*
X798887Y269922D01*
Y280078D01*
X801426Y282617D01*
X809044D01*
X793809Y267383D02*
X788730D01*
X791270D01*
Y282617D01*
X793809Y280078D01*
X781113D02*
X778574Y282617D01*
X773495D01*
X770956Y280078D01*
Y269922D01*
X773495Y267383D01*
X778574D01*
X781113Y269922D01*
Y280078D01*
X1182696Y472617D02*
Y457383D01*
X1175078D01*
X1172539Y459922D01*
Y470078D01*
X1175078Y472617D01*
X1182696D01*
X1167461Y459922D02*
X1164922Y457383D01*
X1159843D01*
X1157304Y459922D01*
Y470078D01*
X1159843Y472617D01*
X1164922D01*
X1167461Y470078D01*
Y467539D01*
X1164922Y465000D01*
X1157304D01*
X987696Y472617D02*
Y457383D01*
X980078D01*
X977539Y459922D01*
Y470078D01*
X980078Y472617D01*
X987696D01*
X972461Y470078D02*
X969922Y472617D01*
X964843D01*
X962304Y470078D01*
Y467539D01*
X964843Y465000D01*
X962304Y462461D01*
Y459922D01*
X964843Y457383D01*
X969922D01*
X972461Y459922D01*
Y462461D01*
X969922Y465000D01*
X972461Y467539D01*
Y470078D01*
X969922Y465000D02*
X964843D01*
X797696Y477617D02*
Y462383D01*
X790078D01*
X787539Y464922D01*
Y475078D01*
X790078Y477617D01*
X797696D01*
X782461D02*
X772304D01*
Y475078D01*
X782461Y464922D01*
Y462383D01*
X1182696Y667617D02*
Y652383D01*
X1175078D01*
X1172539Y654922D01*
Y665078D01*
X1175078Y667617D01*
X1182696D01*
X1157304D02*
X1162383Y665078D01*
X1167461Y660000D01*
Y654922D01*
X1164922Y652383D01*
X1159843D01*
X1157304Y654922D01*
Y657461D01*
X1159843Y660000D01*
X1167461D01*
X987696Y667617D02*
Y652383D01*
X980078D01*
X977539Y654922D01*
Y665078D01*
X980078Y667617D01*
X987696D01*
X962304D02*
X972461D01*
Y660000D01*
X967383Y662539D01*
X964843D01*
X962304Y660000D01*
Y654922D01*
X964843Y652383D01*
X969922D01*
X972461Y654922D01*
X797696Y662617D02*
Y647383D01*
X790078D01*
X787539Y649922D01*
Y660078D01*
X790078Y662617D01*
X797696D01*
X774843Y647383D02*
Y662617D01*
X782461Y655000D01*
X772304D01*
X1177696Y857617D02*
Y842383D01*
X1170078D01*
X1167539Y844922D01*
Y855078D01*
X1170078Y857617D01*
X1177696D01*
X1162461Y855078D02*
X1159922Y857617D01*
X1154843D01*
X1152304Y855078D01*
Y852539D01*
X1154843Y850000D01*
X1157383D01*
X1154843D01*
X1152304Y847461D01*
Y844922D01*
X1154843Y842383D01*
X1159922D01*
X1162461Y844922D01*
X987696Y857617D02*
Y842383D01*
X980078D01*
X977539Y844922D01*
Y855078D01*
X980078Y857617D01*
X987696D01*
X962304Y842383D02*
X972461D01*
X962304Y852539D01*
Y855078D01*
X964843Y857617D01*
X969922D01*
X972461Y855078D01*
X790157Y857617D02*
Y842383D01*
X782539D01*
X780000Y844922D01*
Y855078D01*
X782539Y857617D01*
X790157D01*
X774922Y842383D02*
X769843D01*
X772382D01*
Y857617D01*
X774922Y855078D01*
D12*
X399584Y834377D02*
Y834377D01*
X394584Y831877D02*
X397084Y834377D01*
X394584Y794377D02*
Y831877D01*
X397084Y834377D02*
X429584D01*
Y794377D02*
Y834377D01*
X429584Y794377D02*
X429584Y794377D01*
X394584Y794377D02*
X429584D01*
D13*
X400350Y457500D02*
Y468500D01*
X419650Y457500D02*
Y468500D01*
X400350D02*
X419650D01*
X400350Y457500D02*
X419650D01*
X422840Y985314D02*
Y1005314D01*
Y985314D02*
X432840D01*
Y1005314D01*
X422840D02*
X432840D01*
X462840Y985064D02*
Y1005064D01*
X452840D02*
X462840D01*
X452840Y985064D02*
Y1005064D01*
Y985064D02*
X462840D01*
X395350Y482500D02*
Y493500D01*
X414650Y482500D02*
Y493500D01*
X395350D02*
X414650D01*
X395350Y482500D02*
X414650D01*
X1152000Y867050D02*
Y930950D01*
X987000Y867050D02*
X1152000D01*
X987000D02*
Y930950D01*
X1152000D01*
X961500Y486050D02*
Y549950D01*
X796500Y486050D02*
X961500D01*
X796500D02*
Y549950D01*
X961500D01*
X771000Y675550D02*
Y739450D01*
X606000Y675550D02*
X771000D01*
X606000D02*
Y739450D01*
X771000D01*
X961030Y294390D02*
Y358290D01*
X796030Y294390D02*
X961030D01*
X796030D02*
Y358290D01*
X961030D01*
X960500Y676550D02*
Y740450D01*
X795500Y676550D02*
X960500D01*
X795500D02*
Y740450D01*
X960500D01*
X1152250Y675250D02*
Y739150D01*
X987250Y675250D02*
X1152250D01*
X987250D02*
Y739150D01*
X1152250D01*
X771250Y104550D02*
Y168450D01*
X606250Y104550D02*
X771250D01*
X606250D02*
Y168450D01*
X771250D01*
X770750Y865750D02*
Y929650D01*
X605750Y865750D02*
X770750D01*
X605750D02*
Y929650D01*
X770750D01*
X770000Y485050D02*
Y548950D01*
X605000Y485050D02*
X770000D01*
X605000D02*
Y548950D01*
X770000D01*
X960750Y104050D02*
Y167950D01*
X795750Y104050D02*
X960750D01*
X795750D02*
Y167950D01*
X960750D01*
X771000Y295050D02*
Y358950D01*
X606000Y295050D02*
X771000D01*
X606000D02*
Y358950D01*
X771000D01*
X1152000Y294550D02*
Y358450D01*
X987000Y294550D02*
X1152000D01*
X987000D02*
Y358450D01*
X1152000D01*
X1150750Y484750D02*
Y548650D01*
X985750Y484750D02*
X1150750D01*
X985750D02*
Y548650D01*
X1150750D01*
X960500Y867050D02*
Y930950D01*
X795500Y867050D02*
X960500D01*
X795500D02*
Y930950D01*
X960500D01*
X1152000Y104550D02*
Y168450D01*
X987000Y104550D02*
X1152000D01*
X987000D02*
Y168450D01*
X1152000D01*
D14*
X473320Y594157D02*
Y607817D01*
X441860Y594157D02*
X473320D01*
X441860D02*
Y607817D01*
X473320D01*
X426359Y789644D02*
X459819D01*
X426359Y773984D02*
Y789644D01*
Y773984D02*
X459819D01*
Y789644D01*
X465859Y656894D02*
X499319D01*
X465859Y641234D02*
Y656894D01*
Y641234D02*
X499319D01*
Y656894D01*
X396104Y837297D02*
X429564D01*
Y852957D01*
X396104D02*
X429564D01*
X396104Y837297D02*
Y852957D01*
X377634Y760067D02*
X411094D01*
Y775727D01*
X377634D02*
X411094D01*
X377634Y760067D02*
Y775727D01*
X387010Y680334D02*
Y713794D01*
Y680334D02*
X402669D01*
Y713794D01*
X387010D02*
X402669D01*
X519759Y736834D02*
Y770294D01*
Y736834D02*
X535420D01*
Y770294D01*
X519759D02*
X535420D01*
D15*
X1031750Y928450D02*
G03*
X1015000Y911700I0J-16750D01*
G01*
X1047750Y869550D02*
G03*
X1052750Y874550I0J5000D01*
G01*
X1066650Y888450D02*
G03*
X1052750Y874550I0J-13900D01*
G01*
X1119000Y888450D02*
G03*
X1124000Y893450I0J5000D01*
G01*
X841250Y547450D02*
G03*
X824500Y530700I0J-16750D01*
G01*
X857250Y488550D02*
G03*
X862250Y493550I0J5000D01*
G01*
X876150Y507450D02*
G03*
X862250Y493550I0J-13900D01*
G01*
X928500Y507450D02*
G03*
X933500Y512450I0J5000D01*
G01*
X650750Y736950D02*
G03*
X634000Y720200I0J-16750D01*
G01*
X666750Y678050D02*
G03*
X671750Y683050I0J5000D01*
G01*
X685650Y696950D02*
G03*
X671750Y683050I0J-13900D01*
G01*
X738000Y696950D02*
G03*
X743000Y701950I0J5000D01*
G01*
X840780Y355790D02*
G03*
X824030Y339040I0J-16750D01*
G01*
X856780Y296890D02*
G03*
X861780Y301890I0J5000D01*
G01*
X875680Y315790D02*
G03*
X861780Y301890I0J-13900D01*
G01*
X928030Y315790D02*
G03*
X933030Y320790I0J5000D01*
G01*
X840250Y737950D02*
G03*
X823500Y721200I0J-16750D01*
G01*
X856250Y679050D02*
G03*
X861250Y684050I0J5000D01*
G01*
X875150Y697950D02*
G03*
X861250Y684050I0J-13900D01*
G01*
X927500Y697950D02*
G03*
X932500Y702950I0J5000D01*
G01*
X1032000Y736650D02*
G03*
X1015250Y719900I0J-16750D01*
G01*
X1048000Y677750D02*
G03*
X1053000Y682750I0J5000D01*
G01*
X1066900Y696650D02*
G03*
X1053000Y682750I0J-13900D01*
G01*
X1119250Y696650D02*
G03*
X1124250Y701650I0J5000D01*
G01*
X651000Y165950D02*
G03*
X634250Y149200I0J-16750D01*
G01*
X667000Y107050D02*
G03*
X672000Y112050I0J5000D01*
G01*
X685900Y125950D02*
G03*
X672000Y112050I0J-13900D01*
G01*
X738250Y125950D02*
G03*
X743250Y130950I0J5000D01*
G01*
X650500Y927150D02*
G03*
X633750Y910400I0J-16750D01*
G01*
X666500Y868250D02*
G03*
X671500Y873250I0J5000D01*
G01*
X685400Y887150D02*
G03*
X671500Y873250I0J-13900D01*
G01*
X737750Y887150D02*
G03*
X742750Y892150I0J5000D01*
G01*
X649750Y546450D02*
G03*
X633000Y529700I0J-16750D01*
G01*
X665750Y487550D02*
G03*
X670750Y492550I0J5000D01*
G01*
X684650Y506450D02*
G03*
X670750Y492550I0J-13900D01*
G01*
X737000Y506450D02*
G03*
X742000Y511450I0J5000D01*
G01*
X840500Y165450D02*
G03*
X823750Y148700I0J-16750D01*
G01*
X856500Y106550D02*
G03*
X861500Y111550I0J5000D01*
G01*
X875400Y125450D02*
G03*
X861500Y111550I0J-13900D01*
G01*
X927750Y125450D02*
G03*
X932750Y130450I0J5000D01*
G01*
X650750Y356450D02*
G03*
X634000Y339700I0J-16750D01*
G01*
X666750Y297550D02*
G03*
X671750Y302550I0J5000D01*
G01*
X685650Y316450D02*
G03*
X671750Y302550I0J-13900D01*
G01*
X738000Y316450D02*
G03*
X743000Y321450I0J5000D01*
G01*
X1031750Y355950D02*
G03*
X1015000Y339200I0J-16750D01*
G01*
X1047750Y297050D02*
G03*
X1052750Y302050I0J5000D01*
G01*
X1066650Y315950D02*
G03*
X1052750Y302050I0J-13900D01*
G01*
X1119000Y315950D02*
G03*
X1124000Y320950I0J5000D01*
G01*
X1030500Y546150D02*
G03*
X1013750Y529400I0J-16750D01*
G01*
X1046500Y487250D02*
G03*
X1051500Y492250I0J5000D01*
G01*
X1065400Y506150D02*
G03*
X1051500Y492250I0J-13900D01*
G01*
X1117750Y506150D02*
G03*
X1122750Y511150I0J5000D01*
G01*
X840250Y928450D02*
G03*
X823500Y911700I0J-16750D01*
G01*
X856250Y869550D02*
G03*
X861250Y874550I0J5000D01*
G01*
X875150Y888450D02*
G03*
X861250Y874550I0J-13900D01*
G01*
X927500Y888450D02*
G03*
X932500Y893450I0J5000D01*
G01*
X1031750Y165950D02*
G03*
X1015000Y149200I0J-16750D01*
G01*
X1047750Y107050D02*
G03*
X1052750Y112050I0J5000D01*
G01*
X1066650Y125950D02*
G03*
X1052750Y112050I0J-13900D01*
G01*
X1119000Y125950D02*
G03*
X1124000Y130950I0J5000D01*
G01*
X1031750Y928450D02*
X1091250D01*
X1015000Y902000D02*
Y911700D01*
X1066650Y888450D02*
X1119000D01*
X1124000Y893450D02*
Y896000D01*
X841250Y547450D02*
X900750D01*
X824500Y521000D02*
Y530700D01*
X876150Y507450D02*
X928500D01*
X933500Y512450D02*
Y515000D01*
X650750Y736950D02*
X710250D01*
X634000Y710500D02*
Y720200D01*
X685650Y696950D02*
X738000D01*
X743000Y701950D02*
Y704500D01*
X840780Y355790D02*
X900280D01*
X824030Y329340D02*
Y339040D01*
X875680Y315790D02*
X928030D01*
X933030Y320790D02*
Y323340D01*
X840250Y737950D02*
X899750D01*
X823500Y711500D02*
Y721200D01*
X875150Y697950D02*
X927500D01*
X932500Y702950D02*
Y705500D01*
X1032000Y736650D02*
X1091500D01*
X1015250Y710200D02*
Y719900D01*
X1066900Y696650D02*
X1119250D01*
X1124250Y701650D02*
Y704200D01*
X651000Y165950D02*
X710500D01*
X634250Y139500D02*
Y149200D01*
X685900Y125950D02*
X738250D01*
X743250Y130950D02*
Y133500D01*
X650500Y927150D02*
X710000D01*
X633750Y900700D02*
Y910400D01*
X685400Y887150D02*
X737750D01*
X742750Y892150D02*
Y894700D01*
X649750Y546450D02*
X709250D01*
X633000Y520000D02*
Y529700D01*
X684650Y506450D02*
X737000D01*
X742000Y511450D02*
Y514000D01*
X840500Y165450D02*
X900000D01*
X823750Y139000D02*
Y148700D01*
X875400Y125450D02*
X927750D01*
X932750Y130450D02*
Y133000D01*
X650750Y356450D02*
X710250D01*
X634000Y330000D02*
Y339700D01*
X685650Y316450D02*
X738000D01*
X743000Y321450D02*
Y324000D01*
X1031750Y355950D02*
X1091250D01*
X1015000Y329500D02*
Y339200D01*
X1066650Y315950D02*
X1119000D01*
X1124000Y320950D02*
Y323500D01*
X1030500Y546150D02*
X1090000D01*
X1013750Y519700D02*
Y529400D01*
X1065400Y506150D02*
X1117750D01*
X1122750Y511150D02*
Y513700D01*
X840250Y928450D02*
X899750D01*
X823500Y902000D02*
Y911700D01*
X875150Y888450D02*
X927500D01*
X932500Y893450D02*
Y896000D01*
X1031750Y165950D02*
X1091250D01*
X1015000Y139500D02*
Y149200D01*
X1066650Y125950D02*
X1119000D01*
X1124000Y130950D02*
Y133500D01*
D73*
X757505Y465508D02*
D03*
X755505Y846507D02*
D03*
X1137505Y274007D02*
D03*
X1140505Y656007D02*
D03*
X1139504Y79258D02*
D03*
X948005Y655007D02*
D03*
X755005Y77259D02*
D03*
X757505Y655007D02*
D03*
X948005Y847707D02*
D03*
X1138505Y844508D02*
D03*
X945254Y82259D02*
D03*
X948005Y465508D02*
D03*
X1138505Y463508D02*
D03*
X757504Y276008D02*
D03*
X947006Y278009D02*
D03*
M02*
