G04*
G04 #@! TF.GenerationSoftware,Altium Limited,Altium Designer,26.1.1 (7)*
G04*
G04 Layer_Color=128*
%FSLAX25Y25*%
%MOIN*%
G70*
G04*
G04 #@! TF.SameCoordinates,A05F3A44-81DF-4996-AA7C-0B09D49317B3*
G04*
G04*
G04 #@! TF.FilePolarity,Positive*
G04*
G01*
G75*
%ADD18R,0.04331X0.03937*%
%ADD49R,0.03740X0.04055*%
G04:AMPARAMS|DCode=50|XSize=26.38mil|YSize=46.06mil|CornerRadius=1.58mil|HoleSize=0mil|Usage=FLASHONLY|Rotation=0.000|XOffset=0mil|YOffset=0mil|HoleType=Round|Shape=RoundedRectangle|*
%AMROUNDEDRECTD50*
21,1,0.02638,0.04290,0,0,0.0*
21,1,0.02321,0.04606,0,0,0.0*
1,1,0.00317,0.01161,-0.02145*
1,1,0.00317,-0.01161,-0.02145*
1,1,0.00317,-0.01161,0.02145*
1,1,0.00317,0.01161,0.02145*
%
%ADD50ROUNDEDRECTD50*%
G04:AMPARAMS|DCode=51|XSize=34.25mil|YSize=36.61mil|CornerRadius=4.28mil|HoleSize=0mil|Usage=FLASHONLY|Rotation=90.000|XOffset=0mil|YOffset=0mil|HoleType=Round|Shape=RoundedRectangle|*
%AMROUNDEDRECTD51*
21,1,0.03425,0.02805,0,0,90.0*
21,1,0.02569,0.03661,0,0,90.0*
1,1,0.00856,0.01403,0.01284*
1,1,0.00856,0.01403,-0.01284*
1,1,0.00856,-0.01403,-0.01284*
1,1,0.00856,-0.01403,0.01284*
%
%ADD51ROUNDEDRECTD51*%
%ADD52R,0.03937X0.04331*%
%ADD56R,0.10039X0.09843*%
%ADD57R,0.02717X0.02205*%
G36*
X49935Y314617D02*
X45998D01*
Y319341D01*
X49935D01*
Y314617D01*
D02*
G37*
G36*
X42061D02*
X38124D01*
Y319341D01*
X42061D01*
Y314617D01*
D02*
G37*
G36*
X58661Y222047D02*
X53937D01*
Y225984D01*
X58661D01*
Y222047D01*
D02*
G37*
G36*
X69980Y220669D02*
X67027D01*
Y224606D01*
X69980D01*
Y220669D01*
D02*
G37*
G36*
Y214764D02*
X67027D01*
Y218701D01*
X69980D01*
Y214764D01*
D02*
G37*
G36*
X58661Y214173D02*
X53937D01*
Y218110D01*
X58661D01*
Y214173D01*
D02*
G37*
G36*
X45276Y136713D02*
X41339D01*
Y139665D01*
X45276D01*
Y136713D01*
D02*
G37*
G36*
X39370D02*
X35433D01*
Y139665D01*
X39370D01*
Y136713D01*
D02*
G37*
G36*
X45079Y126870D02*
X41142D01*
Y129823D01*
X45079D01*
Y126870D01*
D02*
G37*
G36*
X39173D02*
X35236D01*
Y129823D01*
X39173D01*
Y126870D01*
D02*
G37*
G36*
X45079Y116634D02*
X41142D01*
Y119587D01*
X45079D01*
Y116634D01*
D02*
G37*
G36*
X39173D02*
X35236D01*
Y119587D01*
X39173D01*
Y116634D01*
D02*
G37*
G36*
X45472Y106791D02*
X41535D01*
Y109744D01*
X45472D01*
Y106791D01*
D02*
G37*
G36*
X39567D02*
X35630D01*
Y109744D01*
X39567D01*
Y106791D01*
D02*
G37*
G36*
X44685Y86713D02*
X40748D01*
Y89665D01*
X44685D01*
Y86713D01*
D02*
G37*
G36*
X38780D02*
X34843D01*
Y89665D01*
X38780D01*
Y86713D01*
D02*
G37*
G36*
X44685Y76476D02*
X40748D01*
Y79429D01*
X44685D01*
Y76476D01*
D02*
G37*
G36*
X38780D02*
X34843D01*
Y79429D01*
X38780D01*
Y76476D01*
D02*
G37*
D18*
X40497Y278306D02*
D03*
X33805D02*
D03*
X65945Y279921D02*
D03*
X59252D02*
D03*
X35236Y375197D02*
D03*
X41929D02*
D03*
X47769Y308712D02*
D03*
X41076D02*
D03*
X78150Y375197D02*
D03*
X71457D02*
D03*
X37598Y158268D02*
D03*
X44291D02*
D03*
X37992Y168110D02*
D03*
X44685D02*
D03*
X93504Y239370D02*
D03*
X100197D02*
D03*
D49*
X40340Y270424D02*
D03*
X34135D02*
D03*
D50*
X44127Y301408D02*
D03*
X40427Y291802D02*
D03*
Y301408D02*
D03*
X47828D02*
D03*
Y291802D02*
D03*
D51*
X80418Y297193D02*
D03*
Y291051D02*
D03*
D52*
X97638Y269094D02*
D03*
Y275787D02*
D03*
X48165Y326108D02*
D03*
Y332801D02*
D03*
X32677Y247441D02*
D03*
Y254134D02*
D03*
D56*
X124114Y198543D02*
D03*
X124606Y48740D02*
D03*
X124508Y273543D02*
D03*
X124508Y123740D02*
D03*
X124409Y348425D02*
D03*
X199114Y348937D02*
D03*
X199508Y198937D02*
D03*
X199114Y273937D02*
D03*
X199323Y123480D02*
D03*
X199213Y48543D02*
D03*
X274606Y273425D02*
D03*
X274508Y123543D02*
D03*
X274016Y198425D02*
D03*
X274508Y348937D02*
D03*
X274508Y48740D02*
D03*
X327461Y358937D02*
D03*
X252461Y208937D02*
D03*
X177461Y283543D02*
D03*
X252276Y133480D02*
D03*
X252067Y283937D02*
D03*
X327559Y283425D02*
D03*
X177559Y58740D02*
D03*
X177362Y358425D02*
D03*
X177067Y208543D02*
D03*
X252165Y58543D02*
D03*
X177461Y133740D02*
D03*
X327461Y133543D02*
D03*
X326969Y208425D02*
D03*
X252067Y358937D02*
D03*
X327461Y58740D02*
D03*
D57*
X253150Y261929D02*
D03*
X328937Y262323D02*
D03*
X178150Y261929D02*
D03*
X177165Y34468D02*
D03*
X328543Y35256D02*
D03*
X252067Y36437D02*
D03*
X253150Y187323D02*
D03*
X178150Y187323D02*
D03*
X328150Y186535D02*
D03*
X327756Y111929D02*
D03*
X178150Y112716D02*
D03*
X252756Y113504D02*
D03*
X253150Y337795D02*
D03*
X177362Y337323D02*
D03*
X328150Y336535D02*
D03*
X178150Y196929D02*
D03*
X177362Y346929D02*
D03*
X327756Y121535D02*
D03*
X328937Y271929D02*
D03*
X328543Y44862D02*
D03*
X253150Y271535D02*
D03*
X177165Y44075D02*
D03*
X178150Y271535D02*
D03*
X253150Y347402D02*
D03*
X328150Y346142D02*
D03*
X252067Y46043D02*
D03*
X253150Y196929D02*
D03*
X328150Y196142D02*
D03*
X178150Y122323D02*
D03*
X252756Y123110D02*
D03*
M02*
