G04*
G04 #@! TF.GenerationSoftware,Altium Limited,Altium Designer,25.8.1 (18)*
G04*
G04 Layer_Color=8388736*
%FSLAX44Y44*%
%MOMM*%
G71*
G04*
G04 #@! TF.SameCoordinates,26A691C8-8527-417C-A7E6-5B3A698584CC*
G04*
G04*
G04 #@! TF.FilePolarity,Negative*
G04*
G01*
G75*
%ADD21R,1.1332X1.6232*%
%ADD22R,1.4032X0.5032*%
%ADD23R,0.5032X1.4032*%
%ADD24R,0.8032X1.4032*%
%ADD25R,5.7032X2.2032*%
%ADD26R,0.6032X0.5532*%
%ADD27R,0.5032X1.3532*%
%ADD28R,2.3832X2.2032*%
%ADD29C,0.5282*%
%ADD30C,2.2482*%
%ADD31C,5.7032*%
%ADD32C,3.2032*%
%ADD33C,0.8032*%
%ADD34C,0.6032*%
D21*
X398790Y800000D02*
D03*
X379210D02*
D03*
D22*
X503500Y694000D02*
D03*
Y689000D02*
D03*
Y699000D02*
D03*
X420500Y724000D02*
D03*
Y729000D02*
D03*
Y734000D02*
D03*
Y739000D02*
D03*
Y744000D02*
D03*
Y719000D02*
D03*
Y714000D02*
D03*
Y704000D02*
D03*
Y699000D02*
D03*
X503500Y724000D02*
D03*
Y729000D02*
D03*
Y734000D02*
D03*
Y719000D02*
D03*
Y714000D02*
D03*
Y709000D02*
D03*
Y704000D02*
D03*
X420500Y689000D02*
D03*
X503500Y744000D02*
D03*
Y739000D02*
D03*
X420500Y694000D02*
D03*
Y709000D02*
D03*
D23*
X459500Y675000D02*
D03*
X454500D02*
D03*
X444500Y758000D02*
D03*
X449500D02*
D03*
X454500D02*
D03*
X459500D02*
D03*
X464500D02*
D03*
X469500D02*
D03*
X474500D02*
D03*
X479500D02*
D03*
X484500D02*
D03*
X489500D02*
D03*
Y675000D02*
D03*
X484500D02*
D03*
X479500D02*
D03*
X464500D02*
D03*
X449500D02*
D03*
X444500D02*
D03*
X439500D02*
D03*
X434500D02*
D03*
X474500D02*
D03*
X434500Y758000D02*
D03*
X439500D02*
D03*
X469500Y675000D02*
D03*
D24*
X461009Y831814D02*
D03*
Y808814D02*
D03*
X442009D02*
D03*
Y831814D02*
D03*
X451509D02*
D03*
Y808814D02*
D03*
D25*
X410089Y620564D02*
D03*
X505089D02*
D03*
D26*
X421584Y778877D02*
D03*
Y772877D02*
D03*
D27*
X427840Y962284D02*
D03*
X457840D02*
D03*
X467840D02*
D03*
X462840D02*
D03*
X452840D02*
D03*
X437840D02*
D03*
X422840D02*
D03*
X419840D02*
D03*
X432840D02*
D03*
X442840D02*
D03*
X447840D02*
D03*
X470840D02*
D03*
X478839D02*
D03*
X411839D02*
D03*
X414840D02*
D03*
X475840D02*
D03*
D28*
X496440Y1007334D02*
D03*
X394240D02*
D03*
X496440Y968034D02*
D03*
X394240D02*
D03*
D29*
X416440Y973034D02*
D03*
X474240D02*
D03*
D30*
X694500Y859000D02*
D03*
X885000D02*
D03*
X1075500D02*
D03*
X694500Y668500D02*
D03*
X885000D02*
D03*
X1075500D02*
D03*
X694500Y478000D02*
D03*
X885000D02*
D03*
X1075500D02*
D03*
X694500Y287500D02*
D03*
X885000D02*
D03*
X1075500D02*
D03*
X694500Y97000D02*
D03*
X885000D02*
D03*
X1075500D02*
D03*
D31*
X1210000Y915000D02*
D03*
X345000D02*
D03*
X1210000Y40000D02*
D03*
X345000D02*
D03*
D32*
X1101250Y911700D02*
D03*
X1037750Y886300D02*
D03*
X910750Y530700D02*
D03*
X847250Y505300D02*
D03*
X720250Y720200D02*
D03*
X656750Y694800D02*
D03*
X910280Y339040D02*
D03*
X846780Y313640D02*
D03*
X909750Y721200D02*
D03*
X846250Y695800D02*
D03*
X1101500Y719900D02*
D03*
X1038000Y694500D02*
D03*
X720500Y149200D02*
D03*
X657000Y123800D02*
D03*
X720000Y910400D02*
D03*
X656500Y885000D02*
D03*
X719250Y529700D02*
D03*
X655750Y504300D02*
D03*
X910000Y148700D02*
D03*
X846500Y123300D02*
D03*
X720250Y339700D02*
D03*
X656750Y314300D02*
D03*
X1101250Y339200D02*
D03*
X1037750Y313800D02*
D03*
X1100000Y529400D02*
D03*
X1036500Y504000D02*
D03*
X909750Y911700D02*
D03*
X846250Y886300D02*
D03*
X1101250Y149200D02*
D03*
X1037750Y123800D02*
D03*
D33*
X383000Y785000D02*
D03*
X407840Y689064D02*
D03*
X387237Y604421D02*
D03*
X517095Y724028D02*
D03*
X434339Y769314D02*
D03*
X451839Y858064D02*
D03*
X474339Y663564D02*
D03*
X457840Y978314D02*
D03*
X465340Y663314D02*
D03*
X466339Y935314D02*
D03*
X421834Y789377D02*
D03*
X399840Y673814D02*
D03*
X515589Y744064D02*
D03*
X422589Y934314D02*
D03*
X526487Y604171D02*
D03*
X427840Y977064D02*
D03*
X700000Y382500D02*
D03*
X902500D02*
D03*
X1095000D02*
D03*
X470000Y790000D02*
D03*
X363000Y768000D02*
D03*
X370000Y735000D02*
D03*
X520000Y665000D02*
D03*
X404530Y653730D02*
D03*
X562000Y765000D02*
D03*
X428000Y1015000D02*
D03*
X459000Y1016000D02*
D03*
X1002500Y922500D02*
D03*
X707500Y192500D02*
D03*
X900000D02*
D03*
X1100000Y195000D02*
D03*
X710000Y765000D02*
D03*
X900000D02*
D03*
X1085000D02*
D03*
X606035Y919217D02*
D03*
X705000Y7500D02*
D03*
X890000D02*
D03*
X1107500D02*
D03*
X715000Y577500D02*
D03*
X900000D02*
D03*
X1087500D02*
D03*
X808750Y920750D02*
D03*
D34*
X457090Y910064D02*
D03*
X467090D02*
D03*
X452985Y924363D02*
D03*
X442985D02*
D03*
M02*
