G04*
G04 #@! TF.GenerationSoftware,Altium Limited,Altium Designer,26.1.1 (7)*
G04*
G04 Layer_Color=16711935*
%FSLAX25Y25*%
%MOIN*%
G70*
G04*
G04 #@! TF.SameCoordinates,DDB61D4A-7B62-475A-B33E-85BEADE60F6A*
G04*
G04*
G04 #@! TF.FilePolarity,Negative*
G04*
G01*
G75*
G04:AMPARAMS|DCode=23|XSize=42.25mil|YSize=44.61mil|CornerRadius=8.28mil|HoleSize=0mil|Usage=FLASHONLY|Rotation=0.000|XOffset=0mil|YOffset=0mil|HoleType=Round|Shape=RoundedRectangle|*
%AMROUNDEDRECTD23*
21,1,0.04225,0.02805,0,0,0.0*
21,1,0.02569,0.04461,0,0,0.0*
1,1,0.01656,0.01284,-0.01403*
1,1,0.01656,-0.01284,-0.01403*
1,1,0.01656,-0.01284,0.01403*
1,1,0.01656,0.01284,0.01403*
%
%ADD23ROUNDEDRECTD23*%
%ADD24R,0.05131X0.04737*%
%ADD29R,0.04737X0.05131*%
%ADD31C,0.06331*%
%ADD32R,0.06331X0.06331*%
%ADD33C,0.02080*%
%ADD34C,0.22453*%
%ADD35C,0.08851*%
%ADD36C,0.12611*%
%ADD37C,0.07099*%
%ADD56R,0.04068X0.03280*%
%ADD57R,0.03162X0.05524*%
%ADD58R,0.05524X0.04737*%
%ADD59R,0.04737X0.05524*%
G04:AMPARAMS|DCode=60|XSize=34.38mil|YSize=54.06mil|CornerRadius=5.58mil|HoleSize=0mil|Usage=FLASHONLY|Rotation=0.000|XOffset=0mil|YOffset=0mil|HoleType=Round|Shape=RoundedRectangle|*
%AMROUNDEDRECTD60*
21,1,0.03438,0.04290,0,0,0.0*
21,1,0.02321,0.05406,0,0,0.0*
1,1,0.01116,0.01161,-0.02145*
1,1,0.01116,-0.01161,-0.02145*
1,1,0.01116,-0.01161,0.02145*
1,1,0.01116,0.01161,0.02145*
%
%ADD60ROUNDEDRECTD60*%
%ADD61R,0.04540X0.04855*%
%ADD62R,0.03753X0.04737*%
%ADD63R,0.10839X0.10642*%
D23*
X60551Y286221D02*
D03*
X54409D02*
D03*
D24*
X100197Y239370D02*
D03*
X78150Y375197D02*
D03*
X41076Y308712D02*
D03*
X35236Y375197D02*
D03*
X65945Y279921D02*
D03*
X33805Y278306D02*
D03*
X40497D02*
D03*
X59252Y279921D02*
D03*
X41929Y375197D02*
D03*
X47769Y308712D02*
D03*
X71457Y375197D02*
D03*
X93504Y239370D02*
D03*
D29*
X56693Y349410D02*
D03*
Y356102D02*
D03*
X32677Y254134D02*
D03*
X97638Y275787D02*
D03*
Y269094D02*
D03*
X48165Y326108D02*
D03*
Y332801D02*
D03*
X32677Y247441D02*
D03*
D31*
X37244Y76535D02*
D03*
Y86535D02*
D03*
Y96535D02*
D03*
Y126535D02*
D03*
Y116535D02*
D03*
Y106535D02*
D03*
Y156535D02*
D03*
Y146535D02*
D03*
Y136535D02*
D03*
X47244D02*
D03*
Y146535D02*
D03*
Y156535D02*
D03*
X37244Y166535D02*
D03*
X47244Y106535D02*
D03*
Y116535D02*
D03*
Y126535D02*
D03*
Y96535D02*
D03*
Y86535D02*
D03*
Y76535D02*
D03*
D32*
Y166535D02*
D03*
D33*
X45449Y366155D02*
D03*
X68204D02*
D03*
D34*
X15748Y370079D02*
D03*
X356299D02*
D03*
Y15748D02*
D03*
X15748D02*
D03*
D35*
X153347Y338189D02*
D03*
X228346D02*
D03*
X303346D02*
D03*
X153347Y263189D02*
D03*
X228346D02*
D03*
X303346D02*
D03*
X153347Y188189D02*
D03*
X228346D02*
D03*
X303346D02*
D03*
X153347Y113189D02*
D03*
X228346D02*
D03*
X303346D02*
D03*
X153347Y38189D02*
D03*
X228346D02*
D03*
X303346D02*
D03*
D36*
X313484Y358937D02*
D03*
X288484Y348937D02*
D03*
X238484Y208937D02*
D03*
X213484Y198937D02*
D03*
X163484Y283543D02*
D03*
X138484Y273543D02*
D03*
X238299Y133480D02*
D03*
X213299Y123480D02*
D03*
X238090Y283937D02*
D03*
X213090Y273937D02*
D03*
X313583Y283425D02*
D03*
X288583Y273425D02*
D03*
X163583Y58740D02*
D03*
X138583Y48740D02*
D03*
X163386Y358425D02*
D03*
X138386Y348425D02*
D03*
X163091Y208543D02*
D03*
X138091Y198543D02*
D03*
X238189Y58543D02*
D03*
X213189Y48543D02*
D03*
X163484Y133740D02*
D03*
X138484Y123740D02*
D03*
X313484Y133543D02*
D03*
X288484Y123543D02*
D03*
X312992Y208425D02*
D03*
X287992Y198425D02*
D03*
X238091Y358937D02*
D03*
X213091Y348937D02*
D03*
X313484Y58740D02*
D03*
X288484Y48740D02*
D03*
D37*
X22047Y115748D02*
D03*
X22441Y160236D02*
D03*
X85433Y150000D02*
D03*
X55118Y151181D02*
D03*
X62205Y372047D02*
D03*
X50394D02*
D03*
X80709Y309842D02*
D03*
X54437Y293807D02*
D03*
X17035Y76272D02*
D03*
X85433Y195276D02*
D03*
X98032Y287795D02*
D03*
X18898Y285039D02*
D03*
X25984Y249606D02*
D03*
X18504Y313779D02*
D03*
X63169Y341578D02*
D03*
X85216D02*
D03*
Y331735D02*
D03*
X63169D02*
D03*
X66142Y353937D02*
D03*
X47441Y354035D02*
D03*
X100394Y23622D02*
D03*
X48819Y279921D02*
D03*
X88189Y268898D02*
D03*
X84646Y237795D02*
D03*
X40551Y247244D02*
D03*
X9843Y248031D02*
D03*
X10236Y264961D02*
D03*
X92126Y231102D02*
D03*
X118518Y361896D02*
D03*
X312851Y76772D02*
D03*
X234252Y75787D02*
D03*
X158465D02*
D03*
X155512Y150591D02*
D03*
X235850Y150276D02*
D03*
X310644Y150212D02*
D03*
X308383Y227137D02*
D03*
X234623Y228106D02*
D03*
X161831Y226620D02*
D03*
X159248Y301091D02*
D03*
X234429Y301091D02*
D03*
X307673Y300962D02*
D03*
X266594Y371557D02*
D03*
X192520Y369291D02*
D03*
D56*
X252067Y45630D02*
D03*
Y36850D02*
D03*
X328543Y35669D02*
D03*
Y44449D02*
D03*
X177165Y34882D02*
D03*
Y43661D02*
D03*
X327756Y112343D02*
D03*
Y121122D02*
D03*
X252756Y113917D02*
D03*
Y122697D02*
D03*
X178150Y113130D02*
D03*
Y121909D02*
D03*
X328150Y186949D02*
D03*
Y195728D02*
D03*
X253150Y187736D02*
D03*
Y196516D02*
D03*
X178150Y187736D02*
D03*
Y196516D02*
D03*
X328937Y262736D02*
D03*
Y271516D02*
D03*
X253150Y262343D02*
D03*
Y271122D02*
D03*
X178150Y262343D02*
D03*
Y271122D02*
D03*
X328150Y336949D02*
D03*
Y345728D02*
D03*
X253150Y338209D02*
D03*
Y346988D02*
D03*
X177362Y337736D02*
D03*
Y346516D02*
D03*
D57*
X74192Y341184D02*
D03*
X77932Y332129D02*
D03*
Y341184D02*
D03*
X70452D02*
D03*
Y332129D02*
D03*
X74192D02*
D03*
D58*
X56299Y224016D02*
D03*
Y216142D02*
D03*
D59*
X40092Y316979D02*
D03*
X47966D02*
D03*
D60*
X44127Y301408D02*
D03*
X40427Y291802D02*
D03*
Y301408D02*
D03*
X47828D02*
D03*
Y291802D02*
D03*
D61*
X34135Y270424D02*
D03*
X40340D02*
D03*
D62*
X68504Y222638D02*
D03*
Y216732D02*
D03*
D63*
X124114Y198543D02*
D03*
X124606Y48740D02*
D03*
X124508Y273543D02*
D03*
X124508Y123740D02*
D03*
X124409Y348425D02*
D03*
X199114Y348937D02*
D03*
X199508Y198937D02*
D03*
X199114Y273937D02*
D03*
X199323Y123480D02*
D03*
X199213Y48543D02*
D03*
X274606Y273425D02*
D03*
X274508Y123543D02*
D03*
X274016Y198425D02*
D03*
X274508Y348937D02*
D03*
X274508Y48740D02*
D03*
X327461Y358937D02*
D03*
X252461Y208937D02*
D03*
X177461Y283543D02*
D03*
X252276Y133480D02*
D03*
X252067Y283937D02*
D03*
X327559Y283425D02*
D03*
X177559Y58740D02*
D03*
X177362Y358425D02*
D03*
X177067Y208543D02*
D03*
X252165Y58543D02*
D03*
X177461Y133740D02*
D03*
X327461Y133543D02*
D03*
X326969Y208425D02*
D03*
X252067Y358937D02*
D03*
X327461Y58740D02*
D03*
M02*
