G04*
G04 #@! TF.GenerationSoftware,Altium Limited,Altium Designer,26.1.1 (7)*
G04*
G04 Layer_Color=8388736*
%FSLAX25Y25*%
%MOIN*%
G70*
G04*
G04 #@! TF.SameCoordinates,A05F3A44-81DF-4996-AA7C-0B09D49317B3*
G04*
G04*
G04 #@! TF.FilePolarity,Negative*
G04*
G01*
G75*
%ADD23R,0.09383X0.08674*%
%ADD24R,0.01981X0.05328*%
%ADD25R,0.05131X0.04737*%
%ADD26R,0.03162X0.05524*%
%ADD27R,0.05524X0.01981*%
%ADD28R,0.01981X0.05524*%
G04:AMPARAMS|DCode=29|XSize=42.25mil|YSize=44.61mil|CornerRadius=8.28mil|HoleSize=0mil|Usage=FLASHONLY|Rotation=180.000|XOffset=0mil|YOffset=0mil|HoleType=Round|Shape=RoundedRectangle|*
%AMROUNDEDRECTD29*
21,1,0.04225,0.02805,0,0,180.0*
21,1,0.02569,0.04461,0,0,180.0*
1,1,0.01656,-0.01284,0.01403*
1,1,0.01656,0.01284,0.01403*
1,1,0.01656,0.01284,-0.01403*
1,1,0.01656,-0.01284,-0.01403*
%
%ADD29ROUNDEDRECTD29*%
%ADD30R,0.22453X0.08674*%
%ADD31R,0.04737X0.03753*%
%ADD32C,0.06331*%
%ADD33R,0.06331X0.06331*%
%ADD34C,0.02080*%
%ADD35C,0.22453*%
%ADD36C,0.08851*%
%ADD37C,0.12611*%
%ADD38C,0.07099*%
D23*
X36709Y364187D02*
D03*
X76945D02*
D03*
X36709Y379659D02*
D03*
X76945D02*
D03*
D24*
X68835Y361923D02*
D03*
X44819D02*
D03*
X43638D02*
D03*
X70016D02*
D03*
X49937D02*
D03*
X61748D02*
D03*
X65685D02*
D03*
X63716D02*
D03*
X59779D02*
D03*
X53874D02*
D03*
X47968D02*
D03*
X46787D02*
D03*
X51905D02*
D03*
X55842D02*
D03*
X57811D02*
D03*
X66866D02*
D03*
D25*
X42323Y290158D02*
D03*
X35630D02*
D03*
X45866Y236221D02*
D03*
X39173D02*
D03*
D26*
X59842Y307087D02*
D03*
X56102D02*
D03*
Y298031D02*
D03*
X63583D02*
D03*
Y307087D02*
D03*
X59842Y298031D02*
D03*
D27*
X47441Y255118D02*
D03*
X80118Y268898D02*
D03*
X47441Y247244D02*
D03*
X80118Y253150D02*
D03*
Y255118D02*
D03*
Y257087D02*
D03*
Y259055D02*
D03*
Y264961D02*
D03*
Y262992D02*
D03*
Y261024D02*
D03*
X47441Y251181D02*
D03*
Y253150D02*
D03*
Y257087D02*
D03*
Y259055D02*
D03*
Y268898D02*
D03*
Y266929D02*
D03*
Y264961D02*
D03*
Y262992D02*
D03*
Y261024D02*
D03*
X80118Y251181D02*
D03*
Y247244D02*
D03*
Y249213D02*
D03*
Y266929D02*
D03*
X47441Y249213D02*
D03*
D28*
X52953Y274409D02*
D03*
X68701Y241732D02*
D03*
X52953D02*
D03*
X54921D02*
D03*
X56890D02*
D03*
X58858D02*
D03*
X64764D02*
D03*
X70669D02*
D03*
X72638D02*
D03*
X74606D02*
D03*
Y274409D02*
D03*
X72638D02*
D03*
X70669D02*
D03*
X68701D02*
D03*
X66732D02*
D03*
X64764D02*
D03*
X62795D02*
D03*
X60827D02*
D03*
X58858D02*
D03*
X56890D02*
D03*
X60827Y241732D02*
D03*
X62795D02*
D03*
X54921Y274409D02*
D03*
X66732Y241732D02*
D03*
D29*
X71653Y226378D02*
D03*
X77795D02*
D03*
X53150Y225984D02*
D03*
X47008D02*
D03*
D30*
X80744Y213214D02*
D03*
X43342D02*
D03*
D31*
X38386Y255118D02*
D03*
X32480D02*
D03*
D32*
X62756Y168110D02*
D03*
X52756Y118110D02*
D03*
Y88110D02*
D03*
Y78110D02*
D03*
Y148110D02*
D03*
Y128110D02*
D03*
Y108110D02*
D03*
Y98110D02*
D03*
Y158110D02*
D03*
Y138110D02*
D03*
X62756Y158110D02*
D03*
Y148110D02*
D03*
Y138110D02*
D03*
Y128110D02*
D03*
Y118110D02*
D03*
Y108110D02*
D03*
Y98110D02*
D03*
Y88110D02*
D03*
Y78110D02*
D03*
D33*
X52756Y168110D02*
D03*
D34*
X45449Y366155D02*
D03*
X68204D02*
D03*
D35*
X15748Y360236D02*
D03*
X356299D02*
D03*
Y15748D02*
D03*
X15748D02*
D03*
D36*
X153347Y338189D02*
D03*
X228346D02*
D03*
X303346D02*
D03*
X153347Y263189D02*
D03*
X228346D02*
D03*
X303346D02*
D03*
X153347Y188189D02*
D03*
X228346D02*
D03*
X303346D02*
D03*
X153347Y113189D02*
D03*
X228346D02*
D03*
X303346D02*
D03*
X153347Y38189D02*
D03*
X228346D02*
D03*
X303346D02*
D03*
D37*
X313484Y358937D02*
D03*
X288484Y348937D02*
D03*
X238484Y208937D02*
D03*
X213484Y198937D02*
D03*
X163484Y283543D02*
D03*
X138484Y273543D02*
D03*
X238299Y133480D02*
D03*
X213299Y123480D02*
D03*
X238090Y283937D02*
D03*
X213090Y273937D02*
D03*
X313583Y283425D02*
D03*
X288583Y273425D02*
D03*
X163583Y58740D02*
D03*
X138583Y48740D02*
D03*
X163386Y358425D02*
D03*
X138386Y348425D02*
D03*
X163091Y208543D02*
D03*
X138091Y198543D02*
D03*
X238189Y58543D02*
D03*
X213189Y48543D02*
D03*
X163484Y133740D02*
D03*
X138484Y123740D02*
D03*
X313484Y133543D02*
D03*
X288484Y123543D02*
D03*
X312992Y208425D02*
D03*
X287992Y198425D02*
D03*
X238091Y358937D02*
D03*
X213091Y348937D02*
D03*
X313484Y58740D02*
D03*
X288484Y48740D02*
D03*
D38*
X27165Y290551D02*
D03*
X48819Y279921D02*
D03*
X88189Y268898D02*
D03*
X84646Y237795D02*
D03*
X40551Y247244D02*
D03*
X29528Y190945D02*
D03*
X30315Y164173D02*
D03*
Y152362D02*
D03*
X18504Y313779D02*
D03*
X25984Y249606D02*
D03*
X18898Y285039D02*
D03*
X98032Y287795D02*
D03*
X81102Y321654D02*
D03*
X85433Y195276D02*
D03*
X86614Y162992D02*
D03*
X89370Y94095D02*
D03*
X23622Y67716D02*
D03*
X70866Y294882D02*
D03*
Y343701D02*
D03*
X9843Y248031D02*
D03*
X10236Y264961D02*
D03*
X62205Y371260D02*
D03*
X47244Y341732D02*
D03*
X56693Y331102D02*
D03*
X66535Y334252D02*
D03*
X56293Y339907D02*
D03*
X50394Y371654D02*
D03*
X20866Y168110D02*
D03*
X63971Y289532D02*
D03*
X55905Y289370D02*
D03*
X40551Y325984D02*
D03*
X20079Y116142D02*
D03*
X92126Y231102D02*
D03*
X118518Y361896D02*
D03*
X316142Y3937D02*
D03*
X230315D02*
D03*
X157087Y4331D02*
D03*
X312851Y76772D02*
D03*
X234252Y75787D02*
D03*
X158465D02*
D03*
X155512Y150591D02*
D03*
X235850Y150276D02*
D03*
X310644Y150212D02*
D03*
X308383Y227137D02*
D03*
X234623Y228106D02*
D03*
X161831Y226620D02*
D03*
X159248Y301091D02*
D03*
X234429Y301091D02*
D03*
X307673Y300962D02*
D03*
X266594Y371557D02*
D03*
X192520Y369291D02*
D03*
M02*
