G04*
G04 #@! TF.GenerationSoftware,Altium Limited,Altium Designer,26.1.1 (7)*
G04*
G04 Layer_Color=32896*
%FSLAX25Y25*%
%MOIN*%
G70*
G04*
G04 #@! TF.SameCoordinates,A05F3A44-81DF-4996-AA7C-0B09D49317B3*
G04*
G04*
G04 #@! TF.FilePolarity,Positive*
G04*
G01*
G75*
%ADD10C,0.00787*%
%ADD11C,0.01000*%
%ADD12C,0.00500*%
%ADD13C,0.00394*%
%ADD14C,0.00200*%
%ADD15C,0.00197*%
%ADD67R,0.05512X0.03543*%
D10*
X267520Y348819D02*
G03*
X267520Y348819I-394J0D01*
G01*
X192520Y198819D02*
G03*
X192520Y198819I-394J0D01*
G01*
X117520Y273425D02*
G03*
X117520Y273425I-394J0D01*
G01*
X192335Y123362D02*
G03*
X192335Y123362I-394J0D01*
G01*
X192126Y273819D02*
G03*
X192126Y273819I-394J0D01*
G01*
X267618Y273307D02*
G03*
X267618Y273307I-394J0D01*
G01*
X117618Y48622D02*
G03*
X117618Y48622I-394J0D01*
G01*
X117421Y348307D02*
G03*
X117421Y348307I-394J0D01*
G01*
X117126Y198425D02*
G03*
X117126Y198425I-394J0D01*
G01*
X192224Y48425D02*
G03*
X192224Y48425I-394J0D01*
G01*
X117520Y123622D02*
G03*
X117520Y123622I-394J0D01*
G01*
X267520Y123425D02*
G03*
X267520Y123425I-394J0D01*
G01*
X267028Y198307D02*
G03*
X267028Y198307I-394J0D01*
G01*
X192126Y348819D02*
G03*
X192126Y348819I-394J0D01*
G01*
X267520Y48622D02*
G03*
X267520Y48622I-394J0D01*
G01*
X30545Y267275D02*
X43931D01*
Y273574D01*
X30545D02*
X43931D01*
X30545Y267275D02*
Y273574D01*
X51509Y313042D02*
Y320523D01*
X36155D02*
X51509D01*
X36155Y313042D02*
Y320523D01*
Y313042D02*
X51509D01*
X33169Y75000D02*
Y80905D01*
Y75000D02*
X46260D01*
Y80905D01*
X33169D02*
X46260D01*
X33169Y85236D02*
Y91142D01*
Y85236D02*
X46260D01*
Y91142D01*
X33169D02*
X46260D01*
X47146Y105315D02*
Y111221D01*
X34055D02*
X47146D01*
X34055Y105315D02*
Y111221D01*
Y105315D02*
X47146D01*
X33563Y115157D02*
Y121063D01*
Y115157D02*
X46654D01*
Y121063D01*
X33563D02*
X46654D01*
X46752Y125394D02*
Y131299D01*
X33661D02*
X46752D01*
X33661Y125394D02*
Y131299D01*
Y125394D02*
X46752D01*
X65551Y213090D02*
Y226181D01*
X71457D01*
Y213090D02*
Y226181D01*
X65551Y213090D02*
X71457D01*
X60236Y212205D02*
Y227559D01*
X52756Y212205D02*
X60236D01*
X52756D02*
Y227559D01*
X60236D01*
X46949Y135236D02*
Y141142D01*
X33858D02*
X46949D01*
X33858Y135236D02*
Y141142D01*
Y135236D02*
X46949D01*
X175394Y181496D02*
X180905D01*
X175394D02*
Y199606D01*
X180905D01*
Y181496D02*
Y199606D01*
X174606Y331496D02*
X180118D01*
X174606D02*
Y349606D01*
X180118D01*
Y331496D02*
Y349606D01*
X325000Y106102D02*
X330512D01*
X325000D02*
Y124213D01*
X330512D01*
Y106102D02*
Y124213D01*
X326181Y256496D02*
X331693D01*
X326181D02*
Y274606D01*
X331693D01*
Y256496D02*
Y274606D01*
X325787Y29429D02*
X331299D01*
X325787D02*
Y47539D01*
X331299D01*
Y29429D02*
Y47539D01*
X250394Y256102D02*
X255906D01*
X250394D02*
Y274213D01*
X255906D01*
Y256102D02*
Y274213D01*
X174409Y28642D02*
X179921D01*
X174409D02*
Y46752D01*
X179921D01*
Y28642D02*
Y46752D01*
X175394Y256102D02*
X180905D01*
X175394D02*
Y274213D01*
X180905D01*
Y256102D02*
Y274213D01*
X250394Y331968D02*
X255906D01*
X250394D02*
Y350079D01*
X255906D01*
Y331968D02*
Y350079D01*
X325394Y330709D02*
X330906D01*
X325394D02*
Y348819D01*
X330906D01*
Y330709D02*
Y348819D01*
X249311Y30610D02*
X254823D01*
X249311D02*
Y48720D01*
X254823D01*
Y30610D02*
Y48720D01*
X250394Y181496D02*
X255906D01*
X250394D02*
Y199606D01*
X255906D01*
Y181496D02*
Y199606D01*
X325394Y180709D02*
X330906D01*
X325394D02*
Y198819D01*
X330906D01*
Y180709D02*
Y198819D01*
X175394Y106890D02*
X180905D01*
X175394D02*
Y125000D01*
X180905D01*
Y106890D02*
Y125000D01*
X250000Y107677D02*
X255512D01*
X250000D02*
Y125787D01*
X255512D01*
Y107677D02*
Y125787D01*
X79527Y224014D02*
X74804D01*
Y221653D01*
X75591Y220866D01*
X77165D01*
X77952Y221653D01*
Y224014D01*
Y222440D02*
X79527Y220866D01*
Y216143D02*
Y219292D01*
X76378Y216143D01*
X75591D01*
X74804Y216930D01*
Y218504D01*
X75591Y219292D01*
X24408Y279724D02*
X25196Y280511D01*
X26770D01*
X27557Y279724D01*
Y276575D01*
X26770Y275788D01*
X25196D01*
X24408Y276575D01*
X22834Y275788D02*
X21260D01*
X22047D01*
Y280511D01*
X22834Y279724D01*
X15750Y275788D02*
X18899D01*
X15750Y278937D01*
Y279724D01*
X16537Y280511D01*
X18111D01*
X18899Y279724D01*
X30315Y310236D02*
X31102Y311023D01*
X32676D01*
X33463Y310236D01*
Y307087D01*
X32676Y306300D01*
X31102D01*
X30315Y307087D01*
X28740D02*
X27953Y306300D01*
X26379D01*
X25592Y307087D01*
Y310236D01*
X26379Y311023D01*
X27953D01*
X28740Y310236D01*
Y309449D01*
X27953Y308661D01*
X25592D01*
X109413Y241313D02*
X110201Y242100D01*
X111775D01*
X112562Y241313D01*
Y238164D01*
X111775Y237377D01*
X110201D01*
X109413Y238164D01*
X105478Y237377D02*
Y242100D01*
X107839Y239739D01*
X104690D01*
D11*
X37238Y304971D02*
G03*
X37238Y304971I-197J0D01*
G01*
X35221Y297850D02*
X33221D01*
X34221D01*
Y303849D01*
X35221Y302849D01*
X32557Y154875D02*
Y160873D01*
X29558D01*
X28559Y159873D01*
Y157874D01*
X29558Y156874D01*
X32557D01*
X30558D02*
X28559Y154875D01*
X22561Y160873D02*
X26559D01*
Y157874D01*
X24560Y158874D01*
X23560D01*
X22561Y157874D01*
Y155875D01*
X23560Y154875D01*
X25560D01*
X26559Y155875D01*
X86977Y297987D02*
X85977Y298987D01*
Y300986D01*
X86977Y301986D01*
X90976D01*
X91975Y300986D01*
Y298987D01*
X90976Y297987D01*
X91975Y295988D02*
Y293988D01*
Y294988D01*
X85977D01*
X86977Y295988D01*
Y290989D02*
X85977Y289990D01*
Y287990D01*
X86977Y286991D01*
X90976D01*
X91975Y287990D01*
Y289990D01*
X90976Y290989D01*
X86977D01*
X42794Y363536D02*
Y369534D01*
X39795D01*
X38795Y368535D01*
Y366535D01*
X39795Y365536D01*
X42794D01*
X40794D02*
X38795Y363536D01*
X36796Y369534D02*
X32797D01*
Y368535D01*
X36796Y364536D01*
Y363536D01*
X79801Y363930D02*
Y369928D01*
X76802D01*
X75803Y368929D01*
Y366929D01*
X76802Y365929D01*
X79801D01*
X77802D02*
X75803Y363930D01*
X69805Y369928D02*
X71804Y368929D01*
X73804Y366929D01*
Y364930D01*
X72804Y363930D01*
X70804D01*
X69805Y364930D01*
Y365929D01*
X70804Y366929D01*
X73804D01*
X30332Y74560D02*
Y80558D01*
X27333D01*
X26333Y79558D01*
Y77559D01*
X27333Y76559D01*
X30332D01*
X28333D02*
X26333Y74560D01*
X24334D02*
X22335D01*
X23335D01*
Y80558D01*
X24334Y79558D01*
X16337Y74560D02*
Y80558D01*
X19336Y77559D01*
X15337D01*
X30332Y85190D02*
Y91188D01*
X27333D01*
X26333Y90188D01*
Y88189D01*
X27333Y87189D01*
X30332D01*
X28333D02*
X26333Y85190D01*
X24334D02*
X22335D01*
X23335D01*
Y91188D01*
X24334Y90188D01*
X19336D02*
X18336Y91188D01*
X16337D01*
X15337Y90188D01*
Y89189D01*
X16337Y88189D01*
X17336D01*
X16337D01*
X15337Y87189D01*
Y86190D01*
X16337Y85190D01*
X18336D01*
X19336Y86190D01*
X30726Y114717D02*
Y120716D01*
X27727D01*
X26727Y119716D01*
Y117717D01*
X27727Y116717D01*
X30726D01*
X28727D02*
X26727Y114717D01*
X24728D02*
X22728D01*
X23728D01*
Y120716D01*
X24728Y119716D01*
X15731Y114717D02*
X19729D01*
X15731Y118716D01*
Y119716D01*
X16730Y120716D01*
X18730D01*
X19729Y119716D01*
X30907Y104875D02*
Y110873D01*
X27908D01*
X26909Y109873D01*
Y107874D01*
X27908Y106874D01*
X30907D01*
X28908D02*
X26909Y104875D01*
X24909D02*
X22910D01*
X23910D01*
Y110873D01*
X24909Y109873D01*
X19911Y104875D02*
X17911D01*
X18911D01*
Y110873D01*
X19911Y109873D01*
X31120Y124954D02*
Y130952D01*
X28121D01*
X27121Y129952D01*
Y127953D01*
X28121Y126953D01*
X31120D01*
X29120D02*
X27121Y124954D01*
X25122D02*
X23122D01*
X24122D01*
Y130952D01*
X25122Y129952D01*
X20123D02*
X19124Y130952D01*
X17124D01*
X16125Y129952D01*
Y125953D01*
X17124Y124954D01*
X19124D01*
X20123Y125953D01*
Y129952D01*
X31376Y134796D02*
Y140794D01*
X28377D01*
X27378Y139795D01*
Y137795D01*
X28377Y136796D01*
X31376D01*
X29377D02*
X27378Y134796D01*
X25378Y135796D02*
X24379Y134796D01*
X22379D01*
X21380Y135796D01*
Y139795D01*
X22379Y140794D01*
X24379D01*
X25378Y139795D01*
Y138795D01*
X24379Y137795D01*
X21380D01*
X32164Y165505D02*
Y171503D01*
X29165D01*
X28165Y170503D01*
Y168504D01*
X29165Y167504D01*
X32164D01*
X30164D02*
X28165Y165505D01*
X26166Y170503D02*
X25166Y171503D01*
X23167D01*
X22167Y170503D01*
Y169504D01*
X23167Y168504D01*
X24166D01*
X23167D01*
X22167Y167504D01*
Y166505D01*
X23167Y165505D01*
X25166D01*
X26166Y166505D01*
X36041Y294928D02*
Y289930D01*
X35041Y288930D01*
X33042D01*
X32042Y289930D01*
Y294928D01*
X30043Y288930D02*
X28043D01*
X29043D01*
Y294928D01*
X30043Y293929D01*
X25044Y289930D02*
X24045Y288930D01*
X22045D01*
X21046Y289930D01*
Y293929D01*
X22045Y294928D01*
X24045D01*
X25044Y293929D01*
Y292929D01*
X24045Y291929D01*
X21046D01*
X302773Y75834D02*
Y70835D01*
X301774Y69836D01*
X299774D01*
X298774Y70835D01*
Y75834D01*
X296775Y69836D02*
X294776D01*
X295775D01*
Y75834D01*
X296775Y74834D01*
X291777Y75834D02*
X287778D01*
Y74834D01*
X291777Y70835D01*
Y69836D01*
X224033Y75834D02*
Y70835D01*
X223033Y69836D01*
X221034D01*
X220034Y70835D01*
Y75834D01*
X218035Y69836D02*
X216036D01*
X217035D01*
Y75834D01*
X218035Y74834D01*
X209038Y75834D02*
X211037Y74834D01*
X213037Y72835D01*
Y70835D01*
X212037Y69836D01*
X210037D01*
X209038Y70835D01*
Y71835D01*
X210037Y72835D01*
X213037D01*
X151198Y75834D02*
Y70835D01*
X150199Y69836D01*
X148199D01*
X147200Y70835D01*
Y75834D01*
X145200Y69836D02*
X143201D01*
X144201D01*
Y75834D01*
X145200Y74834D01*
X136203Y75834D02*
X140202D01*
Y72835D01*
X138203Y73834D01*
X137203D01*
X136203Y72835D01*
Y70835D01*
X137203Y69836D01*
X139202D01*
X140202Y70835D01*
X300805Y150637D02*
Y145638D01*
X299805Y144639D01*
X297806D01*
X296806Y145638D01*
Y150637D01*
X294807Y144639D02*
X292807D01*
X293807D01*
Y150637D01*
X294807Y149637D01*
X286809Y144639D02*
Y150637D01*
X289808Y147638D01*
X285809D01*
X226002Y150637D02*
Y145638D01*
X225002Y144639D01*
X223003D01*
X222003Y145638D01*
Y150637D01*
X220004Y144639D02*
X218004D01*
X219004D01*
Y150637D01*
X220004Y149637D01*
X215005D02*
X214005Y150637D01*
X212006D01*
X211006Y149637D01*
Y148637D01*
X212006Y147638D01*
X213006D01*
X212006D01*
X211006Y146638D01*
Y145638D01*
X212006Y144639D01*
X214005D01*
X215005Y145638D01*
X149230Y150637D02*
Y145638D01*
X148230Y144639D01*
X146231D01*
X145231Y145638D01*
Y150637D01*
X143232Y144639D02*
X141232D01*
X142232D01*
Y150637D01*
X143232Y149637D01*
X134235Y144639D02*
X138233D01*
X134235Y148637D01*
Y149637D01*
X135234Y150637D01*
X137234D01*
X138233Y149637D01*
X299805Y225440D02*
Y220442D01*
X298805Y219442D01*
X296806D01*
X295806Y220442D01*
Y225440D01*
X293807Y219442D02*
X291808D01*
X292807D01*
Y225440D01*
X293807Y224440D01*
X288808Y219442D02*
X286809D01*
X287809D01*
Y225440D01*
X288808Y224440D01*
X227970Y225440D02*
Y220442D01*
X226970Y219442D01*
X224971D01*
X223971Y220442D01*
Y225440D01*
X221972Y219442D02*
X219973D01*
X220972D01*
Y225440D01*
X221972Y224440D01*
X216974D02*
X215974Y225440D01*
X213974D01*
X212975Y224440D01*
Y220442D01*
X213974Y219442D01*
X215974D01*
X216974Y220442D01*
Y224440D01*
X150668Y225440D02*
Y220442D01*
X149668Y219442D01*
X147669D01*
X146669Y220442D01*
Y225440D01*
X144670Y220442D02*
X143670Y219442D01*
X141671D01*
X140671Y220442D01*
Y224440D01*
X141671Y225440D01*
X143670D01*
X144670Y224440D01*
Y223441D01*
X143670Y222441D01*
X140671D01*
X298306Y300243D02*
Y295245D01*
X297306Y294245D01*
X295306D01*
X294307Y295245D01*
Y300243D01*
X292307Y299243D02*
X291308Y300243D01*
X289308D01*
X288309Y299243D01*
Y298244D01*
X289308Y297244D01*
X288309Y296244D01*
Y295245D01*
X289308Y294245D01*
X291308D01*
X292307Y295245D01*
Y296244D01*
X291308Y297244D01*
X292307Y298244D01*
Y299243D01*
X291308Y297244D02*
X289308D01*
X225471Y300243D02*
Y295245D01*
X224471Y294245D01*
X222472D01*
X221472Y295245D01*
Y300243D01*
X219473D02*
X215474D01*
Y299243D01*
X219473Y295245D01*
Y294245D01*
X152636Y300243D02*
Y295245D01*
X151637Y294245D01*
X149637D01*
X148637Y295245D01*
Y300243D01*
X142639D02*
X144639Y299243D01*
X146638Y297244D01*
Y295245D01*
X145638Y294245D01*
X143639D01*
X142639Y295245D01*
Y296244D01*
X143639Y297244D01*
X146638D01*
X306179Y375440D02*
Y370442D01*
X305180Y369442D01*
X303181D01*
X302181Y370442D01*
Y375440D01*
X297182Y369442D02*
Y375440D01*
X300181Y372441D01*
X296183D01*
X231376Y377015D02*
Y372016D01*
X230377Y371017D01*
X228377D01*
X227378Y372016D01*
Y377015D01*
X225378Y376015D02*
X224379Y377015D01*
X222379D01*
X221380Y376015D01*
Y375015D01*
X222379Y374016D01*
X223379D01*
X222379D01*
X221380Y373016D01*
Y372016D01*
X222379Y371017D01*
X224379D01*
X225378Y372016D01*
X154605Y375046D02*
Y370048D01*
X153605Y369048D01*
X151606D01*
X150606Y370048D01*
Y375046D01*
X144608Y369048D02*
X148607D01*
X144608Y373047D01*
Y374047D01*
X145608Y375046D01*
X147607D01*
X148607Y374047D01*
X37158Y333858D02*
Y337857D01*
X40157D01*
Y335858D01*
Y337857D01*
X43156D01*
Y331859D02*
Y329859D01*
Y330859D01*
X37158D01*
X38158Y331859D01*
X350017Y36464D02*
Y30465D01*
X347018D01*
X346019Y31465D01*
Y35464D01*
X347018Y36464D01*
X350017D01*
X344019Y30465D02*
X342020D01*
X343020D01*
Y36464D01*
X344019Y35464D01*
X335022Y36464D02*
X339021D01*
Y33465D01*
X337021Y34464D01*
X336022D01*
X335022Y33465D01*
Y31465D01*
X336022Y30465D01*
X338021D01*
X339021Y31465D01*
X271277Y36464D02*
Y30465D01*
X268278D01*
X267278Y31465D01*
Y35464D01*
X268278Y36464D01*
X271277D01*
X265279Y30465D02*
X263280D01*
X264279D01*
Y36464D01*
X265279Y35464D01*
X257282Y30465D02*
Y36464D01*
X260281Y33465D01*
X256282D01*
X198442Y34495D02*
Y28497D01*
X195443D01*
X194444Y29497D01*
Y33495D01*
X195443Y34495D01*
X198442D01*
X192444Y28497D02*
X190445D01*
X191445D01*
Y34495D01*
X192444Y33495D01*
X187446D02*
X186446Y34495D01*
X184447D01*
X183447Y33495D01*
Y32496D01*
X184447Y31496D01*
X185447D01*
X184447D01*
X183447Y30496D01*
Y29497D01*
X184447Y28497D01*
X186446D01*
X187446Y29497D01*
X348049Y111267D02*
Y105269D01*
X345050D01*
X344050Y106268D01*
Y110267D01*
X345050Y111267D01*
X348049D01*
X342051Y105269D02*
X340051D01*
X341051D01*
Y111267D01*
X342051Y110267D01*
X333054Y105269D02*
X337052D01*
X333054Y109267D01*
Y110267D01*
X334053Y111267D01*
X336053D01*
X337052Y110267D01*
X270277Y113235D02*
Y107237D01*
X267278D01*
X266279Y108237D01*
Y112236D01*
X267278Y113235D01*
X270277D01*
X264279Y107237D02*
X262280D01*
X263280D01*
Y113235D01*
X264279Y112236D01*
X259281Y107237D02*
X257282D01*
X258281D01*
Y113235D01*
X259281Y112236D01*
X198442Y111267D02*
Y105269D01*
X195443D01*
X194444Y106268D01*
Y110267D01*
X195443Y111267D01*
X198442D01*
X192444Y105269D02*
X190445D01*
X191445D01*
Y111267D01*
X192444Y110267D01*
X187446D02*
X186446Y111267D01*
X184447D01*
X183447Y110267D01*
Y106268D01*
X184447Y105269D01*
X186446D01*
X187446Y106268D01*
Y110267D01*
X345550Y186070D02*
Y180072D01*
X342550D01*
X341551Y181071D01*
Y185070D01*
X342550Y186070D01*
X345550D01*
X339551Y181071D02*
X338552Y180072D01*
X336553D01*
X335553Y181071D01*
Y185070D01*
X336553Y186070D01*
X338552D01*
X339551Y185070D01*
Y184071D01*
X338552Y183071D01*
X335553D01*
X268778Y186070D02*
Y180072D01*
X265779D01*
X264779Y181071D01*
Y185070D01*
X265779Y186070D01*
X268778D01*
X262780Y185070D02*
X261780Y186070D01*
X259781D01*
X258781Y185070D01*
Y184071D01*
X259781Y183071D01*
X258781Y182071D01*
Y181071D01*
X259781Y180072D01*
X261780D01*
X262780Y181071D01*
Y182071D01*
X261780Y183071D01*
X262780Y184071D01*
Y185070D01*
X261780Y183071D02*
X259781D01*
X193975Y188038D02*
Y182040D01*
X190976D01*
X189976Y183040D01*
Y187039D01*
X190976Y188038D01*
X193975D01*
X187977D02*
X183978D01*
Y187039D01*
X187977Y183040D01*
Y182040D01*
X345550Y262842D02*
Y256843D01*
X342550D01*
X341551Y257843D01*
Y261842D01*
X342550Y262842D01*
X345550D01*
X335553D02*
X337552Y261842D01*
X339551Y259842D01*
Y257843D01*
X338552Y256843D01*
X336553D01*
X335553Y257843D01*
Y258843D01*
X336553Y259842D01*
X339551D01*
X268778Y262842D02*
Y256843D01*
X265779D01*
X264779Y257843D01*
Y261842D01*
X265779Y262842D01*
X268778D01*
X258781D02*
X262780D01*
Y259842D01*
X260781Y260842D01*
X259781D01*
X258781Y259842D01*
Y257843D01*
X259781Y256843D01*
X261780D01*
X262780Y257843D01*
X193975Y260873D02*
Y254875D01*
X190976D01*
X189976Y255875D01*
Y259873D01*
X190976Y260873D01*
X193975D01*
X184978Y254875D02*
Y260873D01*
X187977Y257874D01*
X183978D01*
X343581Y337645D02*
Y331647D01*
X340582D01*
X339582Y332646D01*
Y336645D01*
X340582Y337645D01*
X343581D01*
X337583Y336645D02*
X336583Y337645D01*
X334584D01*
X333584Y336645D01*
Y335645D01*
X334584Y334646D01*
X335584D01*
X334584D01*
X333584Y333646D01*
Y332646D01*
X334584Y331647D01*
X336583D01*
X337583Y332646D01*
X268778Y337645D02*
Y331647D01*
X265779D01*
X264779Y332646D01*
Y336645D01*
X265779Y337645D01*
X268778D01*
X258781Y331647D02*
X262780D01*
X258781Y335645D01*
Y336645D01*
X259781Y337645D01*
X261780D01*
X262780Y336645D01*
X191007Y337645D02*
Y331647D01*
X188007D01*
X187008Y332646D01*
Y336645D01*
X188007Y337645D01*
X191007D01*
X185009Y331647D02*
X183009D01*
X184009D01*
Y337645D01*
X185009Y336645D01*
X24153Y272275D02*
X25152Y273275D01*
X27152D01*
X28151Y272275D01*
Y268276D01*
X27152Y267277D01*
X25152D01*
X24153Y268276D01*
X22153Y267277D02*
X20154D01*
X21154D01*
Y273275D01*
X22153Y272275D01*
X17155Y267277D02*
X15156D01*
X16155D01*
Y273275D01*
X17155Y272275D01*
X30527Y318535D02*
X31527Y319534D01*
X33526D01*
X34526Y318535D01*
Y314536D01*
X33526Y313536D01*
X31527D01*
X30527Y314536D01*
X28528Y318535D02*
X27528Y319534D01*
X25529D01*
X24529Y318535D01*
Y317535D01*
X25529Y316535D01*
X24529Y315536D01*
Y314536D01*
X25529Y313536D01*
X27528D01*
X28528Y314536D01*
Y315536D01*
X27528Y316535D01*
X28528Y317535D01*
Y318535D01*
X27528Y316535D02*
X25529D01*
X44064Y220685D02*
X43064Y221684D01*
Y223684D01*
X44064Y224683D01*
X48062D01*
X49062Y223684D01*
Y221684D01*
X48062Y220685D01*
X43064Y214687D02*
Y218685D01*
X46063D01*
X45063Y216686D01*
Y215686D01*
X46063Y214687D01*
X48062D01*
X49062Y215686D01*
Y217686D01*
X48062Y218685D01*
X103477Y274006D02*
X102478Y275006D01*
Y277005D01*
X103477Y278005D01*
X107476D01*
X108476Y277005D01*
Y275006D01*
X107476Y274006D01*
X103477Y272007D02*
X102478Y271007D01*
Y269008D01*
X103477Y268008D01*
X104477D01*
X105477Y269008D01*
Y270007D01*
Y269008D01*
X106476Y268008D01*
X107476D01*
X108476Y269008D01*
Y271007D01*
X107476Y272007D01*
X63204Y274047D02*
X64204Y275046D01*
X66203D01*
X67203Y274047D01*
Y270048D01*
X66203Y269048D01*
X64204D01*
X63204Y270048D01*
X57206Y269048D02*
X61205D01*
X57206Y273047D01*
Y274047D01*
X58206Y275046D01*
X60205D01*
X61205Y274047D01*
X22867Y251943D02*
X21867Y252943D01*
Y254942D01*
X22867Y255942D01*
X26866D01*
X27865Y254942D01*
Y252943D01*
X26866Y251943D01*
X27865Y249944D02*
Y247945D01*
Y248944D01*
X21867D01*
X22867Y249944D01*
D12*
X286122Y365531D02*
G03*
X279528Y358937I0J-6594D01*
G01*
X292421Y342342D02*
G03*
X294390Y344311I0J1969D01*
G01*
X299862Y349783D02*
G03*
X294390Y344311I0J-5472D01*
G01*
X320472Y349783D02*
G03*
X322441Y351752I0J1969D01*
G01*
X211122Y215531D02*
G03*
X204528Y208937I0J-6594D01*
G01*
X217421Y192342D02*
G03*
X219390Y194311I0J1969D01*
G01*
X224862Y199784D02*
G03*
X219390Y194311I0J-5472D01*
G01*
X245472Y199784D02*
G03*
X247441Y201752I0J1969D01*
G01*
X136122Y290138D02*
G03*
X129528Y283543I0J-6594D01*
G01*
X142421Y266949D02*
G03*
X144390Y268917I0J1969D01*
G01*
X149862Y274390D02*
G03*
X144390Y268917I0J-5472D01*
G01*
X170473Y274390D02*
G03*
X172441Y276358I0J1969D01*
G01*
X210937Y140075D02*
G03*
X204343Y133480I0J-6594D01*
G01*
X217236Y116886D02*
G03*
X219205Y118854I0J1969D01*
G01*
X224677Y124327D02*
G03*
X219205Y118854I0J-5472D01*
G01*
X245287Y124327D02*
G03*
X247256Y126295I0J1969D01*
G01*
X210728Y290531D02*
G03*
X204134Y283937I0J-6594D01*
G01*
X217028Y267342D02*
G03*
X218996Y269311I0J1969D01*
G01*
X224468Y274783D02*
G03*
X218996Y269311I0J-5472D01*
G01*
X245079Y274783D02*
G03*
X247047Y276752I0J1969D01*
G01*
X286221Y290020D02*
G03*
X279626Y283425I0J-6594D01*
G01*
X292520Y266831D02*
G03*
X294488Y268799I0J1969D01*
G01*
X299961Y274272D02*
G03*
X294488Y268799I0J-5472D01*
G01*
X320571Y274272D02*
G03*
X322539Y276240I0J1969D01*
G01*
X136221Y65335D02*
G03*
X129626Y58740I0J-6594D01*
G01*
X142520Y42146D02*
G03*
X144488Y44114I0J1969D01*
G01*
X149961Y49587D02*
G03*
X144488Y44114I0J-5472D01*
G01*
X170571Y49587D02*
G03*
X172539Y51555I0J1969D01*
G01*
X136024Y365020D02*
G03*
X129429Y358425I0J-6594D01*
G01*
X142323Y341831D02*
G03*
X144291Y343799I0J1969D01*
G01*
X149764Y349272D02*
G03*
X144291Y343799I0J-5472D01*
G01*
X170374Y349272D02*
G03*
X172343Y351240I0J1969D01*
G01*
X135728Y215138D02*
G03*
X129134Y208543I0J-6594D01*
G01*
X142028Y191949D02*
G03*
X143996Y193917I0J1969D01*
G01*
X149469Y199390D02*
G03*
X143996Y193917I0J-5472D01*
G01*
X170079Y199390D02*
G03*
X172047Y201358I0J1969D01*
G01*
X210827Y65138D02*
G03*
X204232Y58543I0J-6594D01*
G01*
X217126Y41949D02*
G03*
X219094Y43917I0J1969D01*
G01*
X224567Y49390D02*
G03*
X219094Y43917I0J-5472D01*
G01*
X245177Y49390D02*
G03*
X247146Y51358I0J1969D01*
G01*
X136122Y140335D02*
G03*
X129528Y133740I0J-6594D01*
G01*
X142421Y117146D02*
G03*
X144390Y119114I0J1969D01*
G01*
X149862Y124587D02*
G03*
X144390Y119114I0J-5472D01*
G01*
X170472Y124587D02*
G03*
X172441Y126555I0J1969D01*
G01*
X286122Y140138D02*
G03*
X279528Y133543I0J-6594D01*
G01*
X292421Y116949D02*
G03*
X294390Y118917I0J1969D01*
G01*
X299862Y124390D02*
G03*
X294390Y118917I0J-5472D01*
G01*
X320472Y124390D02*
G03*
X322441Y126358I0J1969D01*
G01*
X285630Y215020D02*
G03*
X279035Y208425I0J-6594D01*
G01*
X291929Y191831D02*
G03*
X293898Y193799I0J1969D01*
G01*
X299370Y199272D02*
G03*
X293898Y193799I0J-5472D01*
G01*
X319980Y199272D02*
G03*
X321949Y201240I0J1969D01*
G01*
X210728Y365531D02*
G03*
X204134Y358937I0J-6594D01*
G01*
X217028Y342342D02*
G03*
X218996Y344311I0J1969D01*
G01*
X224468Y349783D02*
G03*
X218996Y344311I0J-5472D01*
G01*
X245079Y349783D02*
G03*
X247047Y351752I0J1969D01*
G01*
X286122Y65335D02*
G03*
X279528Y58740I0J-6594D01*
G01*
X292421Y42146D02*
G03*
X294390Y44114I0J1969D01*
G01*
X299862Y49587D02*
G03*
X294390Y44114I0J-5472D01*
G01*
X320472Y49587D02*
G03*
X322441Y51555I0J1969D01*
G01*
X286122Y365531D02*
X309547D01*
X279528Y355118D02*
Y358937D01*
X299862Y349783D02*
X320472D01*
X322441Y351752D02*
Y352756D01*
X211122Y215531D02*
X234547D01*
X204528Y205118D02*
Y208937D01*
X224862Y199784D02*
X245472D01*
X247441Y201752D02*
Y202756D01*
X136122Y290138D02*
X159547D01*
X129528Y279724D02*
Y283543D01*
X149862Y274390D02*
X170473D01*
X172441Y276358D02*
Y277362D01*
X210937Y140075D02*
X234362D01*
X204343Y129661D02*
Y133480D01*
X224677Y124327D02*
X245287D01*
X247256Y126295D02*
Y127299D01*
X210728Y290531D02*
X234154D01*
X204134Y280118D02*
Y283937D01*
X224468Y274783D02*
X245079D01*
X247047Y276752D02*
Y277756D01*
X286221Y290020D02*
X309646D01*
X279626Y279606D02*
Y283425D01*
X299961Y274272D02*
X320571D01*
X322539Y276240D02*
Y277244D01*
X136221Y65335D02*
X159646D01*
X129626Y54921D02*
Y58740D01*
X149961Y49587D02*
X170571D01*
X172539Y51555D02*
Y52559D01*
X136024Y365020D02*
X159449D01*
X129429Y354606D02*
Y358425D01*
X149764Y349272D02*
X170374D01*
X172343Y351240D02*
Y352244D01*
X135728Y215138D02*
X159153D01*
X129134Y204724D02*
Y208543D01*
X149469Y199390D02*
X170079D01*
X172047Y201358D02*
Y202362D01*
X210827Y65138D02*
X234252D01*
X204232Y54724D02*
Y58543D01*
X224567Y49390D02*
X245177D01*
X247146Y51358D02*
Y52362D01*
X136122Y140335D02*
X159547D01*
X129528Y129921D02*
Y133740D01*
X149862Y124587D02*
X170472D01*
X172441Y126555D02*
Y127559D01*
X286122Y140138D02*
X309547D01*
X279528Y129724D02*
Y133543D01*
X299862Y124390D02*
X320472D01*
X322441Y126358D02*
Y127362D01*
X285630Y215020D02*
X309055D01*
X279035Y204606D02*
Y208425D01*
X299370Y199272D02*
X319980D01*
X321949Y201240D02*
Y202244D01*
X210728Y365531D02*
X234154D01*
X204134Y355118D02*
Y358937D01*
X224468Y349783D02*
X245079D01*
X247047Y351752D02*
Y352756D01*
X286122Y65335D02*
X309547D01*
X279528Y54921D02*
Y58740D01*
X299862Y49587D02*
X320472D01*
X322441Y51555D02*
Y52559D01*
D13*
X39206Y304479D02*
Y304479D01*
X37238Y303495D02*
X38222Y304479D01*
X37238Y288731D02*
Y303495D01*
X38222Y304479D02*
X51017D01*
Y288731D02*
Y304479D01*
X51017Y288731D02*
X51017Y288731D01*
X37238Y288731D02*
X51017D01*
D14*
X30564Y275223D02*
X43738D01*
Y281389D01*
X30564D02*
X43738D01*
X30564Y275223D02*
Y281389D01*
X69185Y276839D02*
Y283004D01*
X56012Y276839D02*
X69185D01*
X56012D02*
Y283004D01*
X69185D01*
X94555Y265854D02*
Y279028D01*
Y265854D02*
X100721D01*
Y279028D01*
X94555D02*
X100721D01*
X44776Y372508D02*
Y377886D01*
X32390Y372508D02*
X44776D01*
X32390D02*
Y377886D01*
X44776D01*
X45476Y335647D02*
X50854D01*
Y323261D02*
Y335647D01*
X45476Y323261D02*
X50854D01*
X45476D02*
Y335647D01*
X37836Y305629D02*
X51009D01*
Y311794D01*
X37836D02*
X51009D01*
X37836Y305629D02*
Y311794D01*
X68610Y372508D02*
Y377886D01*
X80996D01*
Y372508D02*
Y377886D01*
X68610Y372508D02*
X80996D01*
X29594Y244201D02*
Y257374D01*
Y244201D02*
X35760D01*
Y257374D01*
X29594D02*
X35760D01*
X47138Y155579D02*
Y160957D01*
X34752Y155579D02*
X47138D01*
X34752D02*
Y160957D01*
X47138D01*
X47532Y165421D02*
Y170799D01*
X35146Y165421D02*
X47532D01*
X35146D02*
Y170799D01*
X47532D01*
X103437Y236287D02*
Y242453D01*
X90264Y236287D02*
X103437D01*
X90264D02*
Y242453D01*
X103437D01*
D15*
X77603Y288354D02*
Y299890D01*
X83233Y288354D02*
Y299890D01*
X77603Y288354D02*
X83233D01*
X77603Y299890D02*
X83233D01*
X333465Y341358D02*
Y366516D01*
X268504Y341358D02*
X333465D01*
X268504D02*
Y366516D01*
X333465D01*
X258465Y191358D02*
Y216516D01*
X193504Y191358D02*
X258465D01*
X193504D02*
Y216516D01*
X258465D01*
X183465Y265965D02*
Y291122D01*
X118504Y265965D02*
X183465D01*
X118504D02*
Y291122D01*
X183465D01*
X258279Y115902D02*
Y141059D01*
X193319Y115902D02*
X258279D01*
X193319D02*
Y141059D01*
X258279D01*
X258071Y266358D02*
Y291516D01*
X193110Y266358D02*
X258071D01*
X193110D02*
Y291516D01*
X258071D01*
X333563Y265846D02*
Y291004D01*
X268602Y265846D02*
X333563D01*
X268602D02*
Y291004D01*
X333563D01*
X183563Y41161D02*
Y66319D01*
X118602Y41161D02*
X183563D01*
X118602D02*
Y66319D01*
X183563D01*
X183366Y340846D02*
Y366004D01*
X118405Y340846D02*
X183366D01*
X118405D02*
Y366004D01*
X183366D01*
X183071Y190965D02*
Y216122D01*
X118110Y190965D02*
X183071D01*
X118110D02*
Y216122D01*
X183071D01*
X258169Y40965D02*
Y66122D01*
X193209Y40965D02*
X258169D01*
X193209D02*
Y66122D01*
X258169D01*
X183465Y116161D02*
Y141319D01*
X118504Y116161D02*
X183465D01*
X118504D02*
Y141319D01*
X183465D01*
X333465Y115965D02*
Y141122D01*
X268504Y115965D02*
X333465D01*
X268504D02*
Y141122D01*
X333465D01*
X332972Y190847D02*
Y216004D01*
X268012Y190847D02*
X332972D01*
X268012D02*
Y216004D01*
X332972D01*
X258071Y341358D02*
Y366516D01*
X193110Y341358D02*
X258071D01*
X193110D02*
Y366516D01*
X258071D01*
X333465Y41161D02*
Y66319D01*
X268504Y41161D02*
X333465D01*
X268504D02*
Y66319D01*
X333465D01*
D67*
X178152Y183271D02*
D03*
X177364Y333271D02*
D03*
X327758Y107877D02*
D03*
X328939Y258271D02*
D03*
X328545Y31204D02*
D03*
X253151Y257877D02*
D03*
X177167Y30417D02*
D03*
X178152Y257877D02*
D03*
X253151Y333743D02*
D03*
X328152Y332483D02*
D03*
X252068Y32385D02*
D03*
X253152Y183271D02*
D03*
X328152Y182483D02*
D03*
X178151Y108664D02*
D03*
X252758Y109452D02*
D03*
M02*
