G04*
G04 #@! TF.GenerationSoftware,Altium Limited,Altium Designer,26.1.1 (7)*
G04*
G04 Layer_Physical_Order=1*
G04 Layer_Color=255*
%FSLAX25Y25*%
%MOIN*%
G70*
G04*
G04 #@! TF.SameCoordinates,DDB61D4A-7B62-475A-B33E-85BEADE60F6A*
G04*
G04*
G04 #@! TF.FilePolarity,Positive*
G04*
G01*
G75*
%ADD14C,0.01000*%
G04:AMPARAMS|DCode=15|XSize=34.25mil|YSize=36.61mil|CornerRadius=4.28mil|HoleSize=0mil|Usage=FLASHONLY|Rotation=0.000|XOffset=0mil|YOffset=0mil|HoleType=Round|Shape=RoundedRectangle|*
%AMROUNDEDRECTD15*
21,1,0.03425,0.02805,0,0,0.0*
21,1,0.02569,0.03661,0,0,0.0*
1,1,0.00856,0.01284,-0.01403*
1,1,0.00856,-0.01284,-0.01403*
1,1,0.00856,-0.01284,0.01403*
1,1,0.00856,0.01284,0.01403*
%
%ADD15ROUNDEDRECTD15*%
%ADD16R,0.04331X0.03937*%
%ADD17R,0.04724X0.01181*%
%ADD18R,0.01181X0.04724*%
%ADD19R,0.01181X0.04528*%
%ADD20R,0.08583X0.07874*%
%ADD21R,0.03937X0.04331*%
%ADD38R,0.03937X0.02953*%
%ADD39R,0.21654X0.07874*%
%ADD40C,0.01500*%
%ADD41C,0.05937*%
%ADD42R,0.05937X0.05937*%
%ADD43C,0.01280*%
%ADD44C,0.21654*%
%ADD45C,0.08051*%
%ADD46C,0.11811*%
%ADD47C,0.06299*%
G36*
X367047Y385827D02*
X367540D01*
X368506Y385635D01*
X369416Y385258D01*
X370234Y384711D01*
X370931Y384014D01*
X371478Y383195D01*
X371855Y382285D01*
X372047Y381319D01*
Y380827D01*
X372047D01*
Y3032D01*
Y2733D01*
X371931Y2147D01*
X371702Y1595D01*
X371371Y1099D01*
X370948Y677D01*
X370452Y345D01*
X369900Y117D01*
X369314Y0D01*
X4507D01*
X3542Y192D01*
X2632Y569D01*
X1813Y1116D01*
X1116Y1813D01*
X569Y2632D01*
X192Y3542D01*
X0Y4507D01*
Y5000D01*
X0Y5000D01*
X0Y380827D01*
Y381319D01*
X192Y382285D01*
X569Y383195D01*
X1116Y384014D01*
X1813Y384711D01*
X2632Y385258D01*
X3542Y385635D01*
X4507Y385827D01*
X5000D01*
Y385827D01*
X367047Y385827D01*
D02*
G37*
%LPC*%
G36*
X82236Y384596D02*
X77445D01*
Y380159D01*
X82236D01*
Y384596D01*
D02*
G37*
G36*
X42000D02*
X37209D01*
Y380159D01*
X42000D01*
Y384596D01*
D02*
G37*
G36*
X36209D02*
X31417D01*
Y380159D01*
X36209D01*
Y384596D01*
D02*
G37*
G36*
X76445D02*
X71653D01*
Y380159D01*
X76445D01*
Y384596D01*
D02*
G37*
G36*
X82236Y379159D02*
X77445D01*
Y374722D01*
X82236D01*
Y379159D01*
D02*
G37*
G36*
X76445D02*
X71653D01*
Y374722D01*
X76445D01*
Y379159D01*
D02*
G37*
G36*
X42000D02*
X37209D01*
Y374722D01*
X42000D01*
Y379159D01*
D02*
G37*
G36*
X36209D02*
X31417D01*
Y374722D01*
X36209D01*
Y379159D01*
D02*
G37*
G36*
X256299Y383419D02*
X120079D01*
X119493Y383303D01*
X118997Y382971D01*
X100125Y364099D01*
X99793Y363602D01*
X99677Y363017D01*
Y313257D01*
X69588Y283168D01*
X69256Y282672D01*
X69140Y282087D01*
Y277772D01*
X62356D01*
Y306713D01*
X83549Y327906D01*
X83614Y327869D01*
X84670Y327586D01*
X85762D01*
X86818Y327869D01*
X87764Y328415D01*
X88536Y329188D01*
X89083Y330134D01*
X89366Y331189D01*
Y332282D01*
X89083Y333337D01*
X88536Y334283D01*
X87764Y335056D01*
X86818Y335602D01*
X85762Y335885D01*
X84670D01*
X83614Y335602D01*
X82668Y335056D01*
X81895Y334283D01*
X81349Y333337D01*
X81066Y332282D01*
Y331189D01*
X81349Y330134D01*
X81387Y330069D01*
X61312Y309994D01*
X60388Y310377D01*
Y315748D01*
Y326792D01*
X61502Y327906D01*
X61567Y327869D01*
X62622Y327586D01*
X63715D01*
X64770Y327869D01*
X65716Y328415D01*
X66489Y329188D01*
X67035Y330134D01*
X67318Y331189D01*
Y332282D01*
X67035Y333337D01*
X66489Y334283D01*
X65716Y335056D01*
X64770Y335602D01*
X63715Y335885D01*
X62622D01*
X61567Y335602D01*
X60621Y335056D01*
X59848Y334283D01*
X59302Y333337D01*
X59019Y332282D01*
Y331189D01*
X59302Y330134D01*
X59339Y330069D01*
X57777Y328507D01*
X57445Y328011D01*
X57329Y327425D01*
Y316382D01*
X45769Y304822D01*
X45437Y304325D01*
X45321Y303740D01*
Y298638D01*
X43882D01*
Y292307D01*
X43882D01*
Y291945D01*
X43882D01*
Y285614D01*
X45066D01*
Y283188D01*
X45202Y282506D01*
X45372Y282251D01*
X44952Y281523D01*
X44669Y280468D01*
Y279375D01*
X44952Y278320D01*
X45498Y277373D01*
X46271Y276601D01*
X47217Y276054D01*
X48273Y275772D01*
X49365D01*
X50421Y276054D01*
X50586Y276150D01*
X51362Y275536D01*
Y273761D01*
X50438Y273378D01*
X49507Y274310D01*
X49011Y274641D01*
X48425Y274758D01*
X18709D01*
X18124Y274641D01*
X17627Y274310D01*
X12033Y268715D01*
X11838Y268827D01*
X10783Y269110D01*
X9690D01*
X8635Y268827D01*
X7688Y268281D01*
X6916Y267509D01*
X6369Y266562D01*
X6087Y265507D01*
Y264414D01*
X6369Y263359D01*
X6916Y262413D01*
X7688Y261640D01*
X8635Y261094D01*
X9690Y260811D01*
X10783D01*
X11838Y261094D01*
X12784Y261640D01*
X13557Y262413D01*
X14103Y263359D01*
X14386Y264414D01*
Y265507D01*
X14125Y266481D01*
X19342Y271699D01*
X47115D01*
X47256Y271488D01*
X46721Y270488D01*
X44079D01*
Y270427D01*
X24016D01*
X23430Y270311D01*
X22934Y269979D01*
X3838Y250883D01*
X3506Y250386D01*
X3390Y249801D01*
Y137207D01*
X3506Y136621D01*
X3838Y136125D01*
X9549Y130415D01*
X10045Y130083D01*
X10630Y129967D01*
X33649D01*
X34069Y128972D01*
X33546Y128067D01*
X33276Y127058D01*
Y127035D01*
X37244D01*
X41213D01*
Y127058D01*
X40942Y128067D01*
X40489Y128852D01*
X40912Y129759D01*
X41763Y129854D01*
X43547Y128069D01*
X43546Y128067D01*
X43276Y127058D01*
Y126013D01*
X43546Y125004D01*
X44069Y124099D01*
X44807Y123360D01*
X45712Y122837D01*
X46722Y122567D01*
X47767D01*
X48776Y122837D01*
X49681Y123360D01*
X50420Y124099D01*
X50942Y125004D01*
X50974Y125124D01*
X53921D01*
Y124295D01*
X62750D01*
X62752Y124292D01*
X71050Y115993D01*
Y109007D01*
X70521Y108477D01*
X65370D01*
Y109169D01*
X53528D01*
Y108144D01*
X50898D01*
X50420Y108972D01*
X49681Y109711D01*
X48776Y110233D01*
X47767Y110504D01*
X46722D01*
X45712Y110233D01*
X45710Y110232D01*
X43444Y112499D01*
X42948Y112830D01*
X42362Y112947D01*
X40682D01*
X40268Y113947D01*
X40420Y114099D01*
X40942Y115004D01*
X41213Y116013D01*
Y116035D01*
X37244D01*
X33276D01*
Y116013D01*
X33546Y115004D01*
X34069Y114099D01*
X34220Y113947D01*
X33806Y112947D01*
X26376D01*
X25799Y113947D01*
X25914Y114146D01*
X26197Y115202D01*
Y116294D01*
X25914Y117350D01*
X25368Y118296D01*
X24595Y119069D01*
X23649Y119615D01*
X22593Y119898D01*
X21501D01*
X20446Y119615D01*
X19499Y119069D01*
X18727Y118296D01*
X18180Y117350D01*
X17898Y116294D01*
Y115202D01*
X18180Y114146D01*
X18727Y113200D01*
X19499Y112427D01*
X20446Y111881D01*
X21501Y111598D01*
X22593D01*
X22642Y111611D01*
X23918Y110336D01*
X24414Y110004D01*
X24999Y109888D01*
X33570D01*
X33923Y109239D01*
X34020Y108888D01*
X33546Y108067D01*
X33276Y107058D01*
Y107035D01*
X37244D01*
X41213D01*
Y107058D01*
X40942Y108067D01*
X40510Y108817D01*
X40927Y109701D01*
X41836Y109781D01*
X43547Y108069D01*
X43546Y108067D01*
X43276Y107058D01*
Y106013D01*
X43546Y105004D01*
X44069Y104099D01*
X44807Y103360D01*
X45712Y102837D01*
X46722Y102567D01*
X47767D01*
X48776Y102837D01*
X49681Y103360D01*
X50420Y104099D01*
X50942Y105004D01*
X50964Y105085D01*
X53528D01*
Y104217D01*
X65370D01*
Y104909D01*
X71260D01*
X71943Y105044D01*
X72522Y105431D01*
X74096Y107006D01*
X74096Y107006D01*
X74483Y107585D01*
X74619Y108268D01*
X74619Y108268D01*
Y116732D01*
X74619Y116732D01*
X74483Y117415D01*
X74096Y117994D01*
X65764Y126327D01*
Y129248D01*
X64481D01*
Y134138D01*
X65567D01*
Y139091D01*
X64087D01*
Y163567D01*
X65173D01*
Y169504D01*
X63792D01*
Y187598D01*
X63792Y187598D01*
X63656Y188281D01*
X63270Y188860D01*
X54805Y197325D01*
X54226Y197711D01*
X53543Y197847D01*
X35778D01*
X28950Y204676D01*
Y239812D01*
X34622Y245485D01*
X36775D01*
X37231Y244696D01*
X38003Y243924D01*
X38949Y243377D01*
X40005Y243094D01*
X41098D01*
X42153Y243377D01*
X43099Y243924D01*
X43872Y244696D01*
X44320Y245472D01*
X47428D01*
X48111Y245608D01*
X48179Y245654D01*
X49919Y245654D01*
X50233Y245654D01*
X50477Y245588D01*
X50919Y245417D01*
X51039Y245330D01*
X51126Y245210D01*
X51297Y244769D01*
X51362Y244525D01*
X51362Y244232D01*
Y238564D01*
X50548Y237750D01*
X49031D01*
Y239189D01*
X43339D01*
X42701Y239189D01*
X41701Y239189D01*
X39673D01*
Y236221D01*
Y233252D01*
X41701D01*
X42339Y233252D01*
X43339Y233252D01*
X49031D01*
Y234691D01*
X51181D01*
X51766Y234807D01*
X52263Y235139D01*
X54034Y236911D01*
X54366Y237407D01*
X54482Y237992D01*
Y238370D01*
X59297D01*
Y237096D01*
X52588Y230386D01*
X52256Y229890D01*
X52140Y229305D01*
Y228843D01*
X51865D01*
X51308Y228732D01*
X50836Y228416D01*
X50626Y228102D01*
X50079Y228015D01*
X49532Y228102D01*
X49322Y228416D01*
X48849Y228732D01*
X48292Y228843D01*
X47508D01*
Y225984D01*
Y223126D01*
X48292D01*
X48849Y223236D01*
X49322Y223552D01*
X49532Y223866D01*
X50079Y223954D01*
X50626Y223866D01*
X50836Y223552D01*
X51308Y223236D01*
X51620Y223174D01*
Y218151D01*
X31516D01*
Y208277D01*
X55169D01*
Y218151D01*
X54679D01*
Y223174D01*
X54991Y223236D01*
X55464Y223552D01*
X55779Y224024D01*
X55890Y224582D01*
Y227387D01*
X55779Y227944D01*
X55464Y228416D01*
X55873Y229346D01*
X61908Y235381D01*
X62048Y235395D01*
X69057Y228387D01*
X69024Y228338D01*
X68913Y227781D01*
Y224975D01*
X69024Y224418D01*
X69339Y223946D01*
X69812Y223630D01*
X70124Y223568D01*
Y218151D01*
X68917D01*
Y208277D01*
X92571D01*
Y218151D01*
X73183D01*
Y223568D01*
X73495Y223630D01*
X73968Y223946D01*
X74177Y224260D01*
X74724Y224347D01*
X75271Y224260D01*
X75481Y223946D01*
X75954Y223630D01*
X76511Y223519D01*
X77295D01*
Y226378D01*
X77795D01*
Y226878D01*
X80536D01*
Y227781D01*
X80425Y228338D01*
X80268Y228573D01*
X80562Y229385D01*
X80711Y229573D01*
X88240D01*
X88259Y229501D01*
X88806Y228554D01*
X89578Y227782D01*
X90524Y227236D01*
X91580Y226953D01*
X92672D01*
X93728Y227236D01*
X93792Y227273D01*
X94534Y226532D01*
Y110870D01*
X81729Y98065D01*
X50943D01*
X50942Y98067D01*
X50420Y98972D01*
X49681Y99711D01*
X48776Y100233D01*
X47767Y100504D01*
X46722D01*
X45712Y100233D01*
X44807Y99711D01*
X44069Y98972D01*
X43546Y98067D01*
X43276Y97058D01*
Y96013D01*
X43546Y95004D01*
X44069Y94099D01*
X44807Y93360D01*
X45712Y92837D01*
X46722Y92567D01*
X47767D01*
X48776Y92837D01*
X49681Y93360D01*
X50420Y94099D01*
X50942Y95004D01*
X50943Y95006D01*
X82362D01*
X82947Y95122D01*
X83444Y95454D01*
X97144Y109155D01*
X97476Y109651D01*
X97592Y110236D01*
Y227165D01*
X97476Y227751D01*
X97144Y228247D01*
X95955Y229436D01*
X95993Y229501D01*
X96276Y230556D01*
Y231649D01*
X95993Y232704D01*
X95446Y233650D01*
X94674Y234423D01*
X93728Y234969D01*
X92672Y235252D01*
X91580D01*
X90524Y234969D01*
X89578Y234423D01*
X88806Y233650D01*
X88259Y232704D01*
X88240Y232632D01*
X72681D01*
X70302Y235011D01*
X70716Y236011D01*
X80884D01*
X81325Y235247D01*
X82098Y234475D01*
X83044Y233928D01*
X84099Y233646D01*
X85192D01*
X86247Y233928D01*
X87194Y234475D01*
X87966Y235247D01*
X88512Y236194D01*
X88795Y237249D01*
Y238342D01*
X88512Y239397D01*
X87966Y240343D01*
X87194Y241116D01*
X86247Y241662D01*
X85192Y241945D01*
X84099D01*
X83044Y241662D01*
X82098Y241116D01*
X81325Y240343D01*
X80884Y239580D01*
X76197D01*
X76197Y244211D01*
X76197Y244525D01*
X76262Y244769D01*
X76433Y245210D01*
X76521Y245330D01*
X76641Y245417D01*
X77082Y245588D01*
X77326Y245654D01*
X77640Y245654D01*
X83480D01*
Y245715D01*
X91099D01*
X98864Y237949D01*
Y27508D01*
X98792Y27489D01*
X97846Y26943D01*
X97073Y26170D01*
X96527Y25224D01*
X96244Y24168D01*
Y23076D01*
X96527Y22020D01*
X97073Y21074D01*
X97846Y20301D01*
X98792Y19755D01*
X99847Y19473D01*
X100940D01*
X101995Y19755D01*
X102942Y20301D01*
X103714Y21074D01*
X104261Y22020D01*
X104543Y23076D01*
Y24168D01*
X104261Y25224D01*
X103714Y26170D01*
X102942Y26943D01*
X101995Y27489D01*
X101923Y27508D01*
Y237807D01*
X102923Y238221D01*
X103786Y237359D01*
Y95472D01*
X103902Y94887D01*
X104234Y94391D01*
X123919Y74706D01*
X124415Y74374D01*
X125000Y74258D01*
X154578D01*
X154598Y74186D01*
X155144Y73239D01*
X155917Y72467D01*
X156863Y71921D01*
X157918Y71638D01*
X159011D01*
X160066Y71921D01*
X161012Y72467D01*
X161785Y73239D01*
X162331Y74186D01*
X162351Y74258D01*
X230366D01*
X230385Y74186D01*
X230931Y73239D01*
X231704Y72467D01*
X232650Y71921D01*
X233706Y71638D01*
X234798D01*
X235854Y71921D01*
X236800Y72467D01*
X237573Y73239D01*
X238119Y74186D01*
X238138Y74258D01*
X309510D01*
X309530Y74224D01*
X310303Y73451D01*
X311249Y72905D01*
X312304Y72622D01*
X313397D01*
X314453Y72905D01*
X315399Y73451D01*
X316171Y74224D01*
X316718Y75170D01*
X317000Y76225D01*
Y77318D01*
X316718Y78373D01*
X316171Y79320D01*
X315399Y80092D01*
X314453Y80638D01*
X313397Y80921D01*
X312304D01*
X311249Y80638D01*
X310303Y80092D01*
X309530Y79320D01*
X308984Y78373D01*
X308701Y77318D01*
Y77317D01*
X238138D01*
X238119Y77389D01*
X237573Y78335D01*
X236800Y79108D01*
X235854Y79654D01*
X234798Y79937D01*
X233706D01*
X232650Y79654D01*
X231704Y79108D01*
X230931Y78335D01*
X230385Y77389D01*
X230366Y77317D01*
X162351D01*
X162331Y77389D01*
X161785Y78335D01*
X161012Y79108D01*
X160066Y79654D01*
X159011Y79937D01*
X157918D01*
X156863Y79654D01*
X155917Y79108D01*
X155144Y78335D01*
X154598Y77389D01*
X154578Y77317D01*
X125634D01*
X106844Y96106D01*
Y236823D01*
X107844Y237237D01*
X108707Y236374D01*
Y161417D01*
X108823Y160832D01*
X109155Y160336D01*
X119982Y149509D01*
X120478Y149178D01*
X121063Y149061D01*
X151626D01*
X151645Y148989D01*
X152191Y148043D01*
X152964Y147270D01*
X153910Y146724D01*
X154965Y146441D01*
X156058D01*
X157114Y146724D01*
X158060Y147270D01*
X158832Y148043D01*
X159379Y148989D01*
X159398Y149061D01*
X231880D01*
X231983Y148674D01*
X232530Y147728D01*
X233302Y146956D01*
X234249Y146409D01*
X235304Y146127D01*
X236397D01*
X237452Y146409D01*
X238398Y146956D01*
X239171Y147728D01*
X239717Y148674D01*
X239821Y149061D01*
X306656D01*
X306777Y148610D01*
X307324Y147664D01*
X308096Y146891D01*
X309042Y146345D01*
X310098Y146062D01*
X311190D01*
X312246Y146345D01*
X313192Y146891D01*
X313965Y147664D01*
X314511Y148610D01*
X314794Y149665D01*
Y150758D01*
X314511Y151813D01*
X313965Y152760D01*
X313192Y153532D01*
X312246Y154078D01*
X311190Y154361D01*
X310098D01*
X309042Y154078D01*
X308096Y153532D01*
X307324Y152760D01*
X306954Y152120D01*
X239577D01*
X239171Y152824D01*
X238398Y153597D01*
X237452Y154143D01*
X236397Y154426D01*
X235304D01*
X234249Y154143D01*
X233302Y153597D01*
X232530Y152824D01*
X232123Y152120D01*
X159398D01*
X159379Y152192D01*
X158832Y153138D01*
X158060Y153911D01*
X157114Y154457D01*
X156058Y154740D01*
X154965D01*
X153910Y154457D01*
X152964Y153911D01*
X152191Y153138D01*
X151645Y152192D01*
X151626Y152120D01*
X121696D01*
X111766Y162051D01*
Y236439D01*
X112766Y236853D01*
X124322Y225296D01*
X124818Y224965D01*
X125404Y224849D01*
X158063D01*
X158511Y224072D01*
X159283Y223300D01*
X160230Y222753D01*
X161285Y222470D01*
X162378D01*
X163433Y222753D01*
X164379Y223300D01*
X165152Y224072D01*
X165698Y225018D01*
X165758Y225242D01*
X231387D01*
X231579Y225280D01*
X232075Y224785D01*
X233021Y224239D01*
X234076Y223956D01*
X235169D01*
X236225Y224239D01*
X237171Y224785D01*
X237943Y225558D01*
X238102Y225833D01*
X304437D01*
X304517Y225535D01*
X305063Y224589D01*
X305836Y223816D01*
X306782Y223270D01*
X307837Y222987D01*
X308930D01*
X309985Y223270D01*
X310931Y223816D01*
X311704Y224589D01*
X312250Y225535D01*
X312533Y226590D01*
Y227683D01*
X312250Y228738D01*
X311704Y229685D01*
X310931Y230457D01*
X309985Y231004D01*
X308930Y231286D01*
X307837D01*
X306782Y231004D01*
X305836Y230457D01*
X305063Y229685D01*
X304605Y228892D01*
X238708D01*
X238490Y229707D01*
X237943Y230654D01*
X237171Y231426D01*
X236225Y231972D01*
X235169Y232255D01*
X234076D01*
X233021Y231972D01*
X232075Y231426D01*
X231302Y230654D01*
X230756Y229707D01*
X230473Y228652D01*
Y228301D01*
X165652D01*
X165152Y229168D01*
X164379Y229941D01*
X163433Y230487D01*
X162378Y230770D01*
X161285D01*
X160230Y230487D01*
X159283Y229941D01*
X158511Y229168D01*
X157965Y228222D01*
X157880Y227907D01*
X126037D01*
X99904Y254040D01*
X114467Y268604D01*
X114799Y269100D01*
X114915Y269685D01*
Y291493D01*
X123074Y299652D01*
X155338D01*
X155381Y299489D01*
X155927Y298543D01*
X156700Y297770D01*
X157646Y297224D01*
X158702Y296941D01*
X159794D01*
X160850Y297224D01*
X161796Y297770D01*
X162568Y298543D01*
X163115Y299489D01*
X163158Y299652D01*
X230519D01*
X230562Y299489D01*
X231109Y298543D01*
X231881Y297770D01*
X232828Y297224D01*
X233883Y296941D01*
X234976D01*
X236031Y297224D01*
X236977Y297770D01*
X237750Y298543D01*
X238296Y299489D01*
X238340Y299652D01*
X303728D01*
X303806Y299360D01*
X304352Y298414D01*
X305125Y297641D01*
X306071Y297095D01*
X307126Y296812D01*
X308219D01*
X309274Y297095D01*
X310221Y297641D01*
X310993Y298414D01*
X311540Y299360D01*
X311822Y300415D01*
Y301508D01*
X311540Y302563D01*
X310993Y303510D01*
X310221Y304282D01*
X309274Y304829D01*
X308219Y305111D01*
X307126D01*
X306071Y304829D01*
X305125Y304282D01*
X304352Y303510D01*
X303891Y302711D01*
X238286D01*
X237750Y303639D01*
X236977Y304411D01*
X236031Y304958D01*
X234976Y305241D01*
X233883D01*
X232828Y304958D01*
X231881Y304411D01*
X231109Y303639D01*
X230573Y302711D01*
X163104D01*
X162568Y303639D01*
X161796Y304411D01*
X160850Y304958D01*
X159794Y305241D01*
X158702D01*
X157646Y304958D01*
X156700Y304411D01*
X155927Y303639D01*
X155392Y302711D01*
X122441D01*
X121856Y302594D01*
X121360Y302262D01*
X112304Y293207D01*
X111973Y292711D01*
X111856Y292126D01*
Y270319D01*
X98185Y256647D01*
X83480D01*
Y259433D01*
Y263370D01*
Y267113D01*
X84428D01*
X84869Y266350D01*
X85641Y265577D01*
X86587Y265031D01*
X87643Y264748D01*
X88735D01*
X89791Y265031D01*
X90737Y265577D01*
X91509Y266350D01*
X92056Y267296D01*
X92339Y268351D01*
Y269444D01*
X92056Y270499D01*
X91509Y271446D01*
X90737Y272218D01*
X89791Y272764D01*
X88735Y273047D01*
X87643D01*
X86587Y272764D01*
X85641Y272218D01*
X84869Y271446D01*
X84428Y270682D01*
X80118D01*
X79435Y270546D01*
X79349Y270488D01*
X77640Y270488D01*
X77326Y270488D01*
X77082Y270553D01*
X76641Y270724D01*
X76521Y270812D01*
X76433Y270932D01*
X76262Y271373D01*
X76197Y271617D01*
X76197Y271931D01*
Y277184D01*
X109546Y310533D01*
X109878Y311029D01*
X109994Y311614D01*
Y351210D01*
X116851Y358067D01*
X116916Y358030D01*
X117972Y357747D01*
X119064D01*
X120120Y358030D01*
X121066Y358576D01*
X121838Y359349D01*
X122385Y360295D01*
X122667Y361350D01*
Y362443D01*
X122385Y363498D01*
X121838Y364444D01*
X121066Y365217D01*
X120120Y365763D01*
X119064Y366046D01*
X117972D01*
X116916Y365763D01*
X115970Y365217D01*
X115197Y364444D01*
X114651Y363498D01*
X114368Y362443D01*
Y361350D01*
X114651Y360295D01*
X114688Y360230D01*
X107451Y352992D01*
X107164Y353020D01*
X106451Y353329D01*
Y359012D01*
X120417Y372978D01*
X186670D01*
X188690Y370958D01*
X188653Y370893D01*
X188370Y369838D01*
Y368745D01*
X188653Y367690D01*
X189199Y366743D01*
X189972Y365971D01*
X190918Y365424D01*
X191973Y365142D01*
X193066D01*
X194121Y365424D01*
X195068Y365971D01*
X195840Y366743D01*
X196387Y367690D01*
X196669Y368745D01*
Y369838D01*
X196387Y370893D01*
X195840Y371839D01*
X195068Y372612D01*
X194121Y373158D01*
X193066Y373441D01*
X191973D01*
X190918Y373158D01*
X190853Y373121D01*
X188385Y375589D01*
X187888Y375921D01*
X187303Y376037D01*
X119783D01*
X119198Y375921D01*
X118702Y375589D01*
X103840Y360727D01*
X103735Y360571D01*
X102735Y360874D01*
Y362384D01*
X120712Y380360D01*
X255666D01*
X262779Y373247D01*
X262728Y373159D01*
X262445Y372104D01*
Y371011D01*
X262728Y369956D01*
X263274Y369009D01*
X264047Y368237D01*
X264993Y367690D01*
X266048Y367408D01*
X267141D01*
X268196Y367690D01*
X269142Y368237D01*
X269915Y369009D01*
X270461Y369956D01*
X270744Y371011D01*
Y372104D01*
X270461Y373159D01*
X269915Y374105D01*
X269142Y374878D01*
X268196Y375424D01*
X267141Y375707D01*
X266048D01*
X264993Y375424D01*
X264951Y375400D01*
X257381Y382971D01*
X256885Y383303D01*
X256299Y383419D01*
D02*
G37*
G36*
X62751Y376197D02*
X61658D01*
X60603Y375914D01*
X59657Y375368D01*
X58884Y374595D01*
X58338Y373649D01*
X58055Y372594D01*
Y371501D01*
X58338Y370446D01*
X58884Y369499D01*
X59490Y368894D01*
X59507Y368600D01*
X59383Y368344D01*
X58737Y367671D01*
X56693D01*
X56108Y367555D01*
X55611Y367223D01*
X54824Y366436D01*
X54492Y365940D01*
X54376Y365354D01*
Y365187D01*
X51557D01*
Y368063D01*
X51995Y368180D01*
X52942Y368727D01*
X53714Y369499D01*
X54260Y370446D01*
X54543Y371501D01*
Y372594D01*
X54260Y373649D01*
X53714Y374595D01*
X52942Y375368D01*
X51995Y375914D01*
X50940Y376197D01*
X49847D01*
X48792Y375914D01*
X47846Y375368D01*
X47073Y374595D01*
X46527Y373649D01*
X46244Y372594D01*
Y371501D01*
X46527Y370446D01*
X47073Y369499D01*
X47846Y368727D01*
X48498Y368350D01*
Y367363D01*
X47498Y367164D01*
X47381Y367446D01*
X46740Y368088D01*
X45902Y368435D01*
X44995D01*
X44157Y368088D01*
X43516Y367446D01*
X43169Y366609D01*
Y366418D01*
X42649Y365981D01*
X42134Y366128D01*
X42000Y366239D01*
Y369124D01*
X37209D01*
Y364187D01*
Y359250D01*
X41292D01*
X42047Y358659D01*
X42755Y358659D01*
X43138D01*
Y363779D01*
X45177D01*
Y358678D01*
X45197Y358659D01*
X45150D01*
X45418Y357659D01*
X44893Y357356D01*
X44120Y356583D01*
X43574Y355637D01*
X43291Y354582D01*
Y353489D01*
X43574Y352434D01*
X44120Y351487D01*
X44893Y350715D01*
X45839Y350169D01*
X46895Y349886D01*
X47987D01*
X49043Y350169D01*
X49989Y350715D01*
X50761Y351487D01*
X51308Y352434D01*
X51591Y353489D01*
Y354582D01*
X51308Y355637D01*
X50761Y356583D01*
X49989Y357356D01*
X49464Y357659D01*
X49732Y358659D01*
X52440D01*
X52461Y358556D01*
X52792Y358060D01*
X53469Y357383D01*
X53965Y357052D01*
X54313Y356982D01*
Y348904D01*
X54429Y348319D01*
X54761Y347823D01*
X59339Y343245D01*
X59302Y343180D01*
X59019Y342124D01*
Y341032D01*
X59302Y339976D01*
X59848Y339030D01*
X60621Y338258D01*
X61567Y337711D01*
X62622Y337428D01*
X63715D01*
X64770Y337711D01*
X65716Y338258D01*
X66489Y339030D01*
X67035Y339976D01*
X67318Y341032D01*
Y342124D01*
X67035Y343180D01*
X66489Y344126D01*
X66294Y344321D01*
X66708Y345321D01*
X79310D01*
X81387Y343245D01*
X81349Y343180D01*
X81066Y342124D01*
Y341032D01*
X81349Y339976D01*
X81895Y339030D01*
X82668Y338258D01*
X83614Y337711D01*
X84670Y337428D01*
X85762D01*
X86818Y337711D01*
X87764Y338258D01*
X88536Y339030D01*
X89083Y339976D01*
X89366Y341032D01*
Y342124D01*
X89083Y343180D01*
X88536Y344126D01*
X87764Y344899D01*
X86818Y345445D01*
X85762Y345728D01*
X84670D01*
X83614Y345445D01*
X83549Y345408D01*
X81025Y347932D01*
X80529Y348263D01*
X79944Y348380D01*
X65935D01*
X65636Y348787D01*
X66143Y349787D01*
X66688D01*
X67743Y350070D01*
X68690Y350617D01*
X69462Y351389D01*
X70008Y352335D01*
X70291Y353391D01*
Y354483D01*
X70008Y355539D01*
X69462Y356485D01*
X68690Y357258D01*
X67949Y357685D01*
Y358659D01*
X68457D01*
Y361923D01*
X68486D01*
Y363779D01*
X70526D01*
Y358678D01*
X70545Y358659D01*
X70516D01*
Y358659D01*
X71606D01*
X72361Y359250D01*
X72606D01*
X76445D01*
Y364187D01*
Y369124D01*
X71653D01*
Y366239D01*
X71519Y366128D01*
X71004Y365981D01*
X70484Y366418D01*
Y366609D01*
X70137Y367446D01*
X69496Y368088D01*
X68658Y368435D01*
X67751D01*
X66913Y368088D01*
X66272Y367446D01*
X65925Y366609D01*
Y365702D01*
X65581Y365187D01*
X63368D01*
Y368063D01*
X63806Y368180D01*
X64753Y368727D01*
X65525Y369499D01*
X66071Y370446D01*
X66354Y371501D01*
Y372594D01*
X66071Y373649D01*
X65525Y374595D01*
X64753Y375368D01*
X63806Y375914D01*
X62751Y376197D01*
D02*
G37*
G36*
X82236Y369124D02*
X77445D01*
Y364687D01*
X82236D01*
Y369124D01*
D02*
G37*
G36*
X36209D02*
X31417D01*
Y364687D01*
X36209D01*
Y369124D01*
D02*
G37*
G36*
X82236Y363687D02*
X77445D01*
Y359250D01*
X82236D01*
Y363687D01*
D02*
G37*
G36*
X36209D02*
X31417D01*
Y359250D01*
X36209D01*
Y363687D01*
D02*
G37*
G36*
X69516Y358659D02*
X69335D01*
D01*
X69516D01*
D01*
D02*
G37*
G36*
X357230Y381906D02*
X355368D01*
X353530Y381614D01*
X351759Y381039D01*
X350101Y380194D01*
X348595Y379100D01*
X347278Y377783D01*
X346184Y376277D01*
X345339Y374619D01*
X344764Y372848D01*
X344472Y371009D01*
Y369148D01*
X344764Y367309D01*
X345339Y365539D01*
X346184Y363880D01*
X347278Y362374D01*
X348595Y361058D01*
X350101Y359964D01*
X351759Y359118D01*
X353530Y358543D01*
X355368Y358252D01*
X357230D01*
X359069Y358543D01*
X360839Y359118D01*
X362498Y359964D01*
X364004Y361058D01*
X365320Y362374D01*
X366414Y363880D01*
X367260Y365539D01*
X367835Y367309D01*
X368126Y369148D01*
Y371009D01*
X367835Y372848D01*
X367260Y374619D01*
X366414Y376277D01*
X365320Y377783D01*
X364004Y379100D01*
X362498Y380194D01*
X360839Y381039D01*
X359069Y381614D01*
X357230Y381906D01*
D02*
G37*
G36*
X16679D02*
X14817D01*
X12979Y381614D01*
X11208Y381039D01*
X9550Y380194D01*
X8043Y379100D01*
X6727Y377783D01*
X5633Y376277D01*
X4788Y374619D01*
X4213Y372848D01*
X3921Y371009D01*
Y369148D01*
X4213Y367309D01*
X4788Y365539D01*
X5633Y363880D01*
X6727Y362374D01*
X8043Y361058D01*
X9550Y359964D01*
X11208Y359118D01*
X12979Y358543D01*
X14817Y358252D01*
X16679D01*
X18518Y358543D01*
X20288Y359118D01*
X21947Y359964D01*
X23453Y361058D01*
X24769Y362374D01*
X25863Y363880D01*
X26708Y365539D01*
X27284Y367309D01*
X27575Y369148D01*
Y371009D01*
X27284Y372848D01*
X26708Y374619D01*
X25863Y376277D01*
X24769Y377783D01*
X23453Y379100D01*
X21947Y380194D01*
X20288Y381039D01*
X18518Y381614D01*
X16679Y381906D01*
D02*
G37*
G36*
X238771Y365843D02*
X237410D01*
X236076Y365577D01*
X234820Y365057D01*
X233689Y364301D01*
X232727Y363339D01*
X231971Y362208D01*
X231450Y360951D01*
X231185Y359617D01*
Y358257D01*
X231450Y356923D01*
X231971Y355666D01*
X232727Y354535D01*
X233689Y353573D01*
X234820Y352817D01*
X236076Y352297D01*
X237410Y352031D01*
X238771D01*
X240105Y352297D01*
X241361Y352817D01*
X242493Y353573D01*
X243454Y354535D01*
X244210Y355666D01*
X244731Y356923D01*
X244996Y358257D01*
Y359617D01*
X244731Y360951D01*
X244210Y362208D01*
X243454Y363339D01*
X242493Y364301D01*
X241361Y365057D01*
X240105Y365577D01*
X238771Y365843D01*
D02*
G37*
G36*
X314164Y365843D02*
X312804D01*
X311470Y365577D01*
X310213Y365057D01*
X309082Y364301D01*
X308120Y363339D01*
X307365Y362208D01*
X306844Y360951D01*
X306579Y359617D01*
Y358257D01*
X306844Y356923D01*
X307365Y355666D01*
X308120Y354535D01*
X309082Y353573D01*
X310213Y352817D01*
X311470Y352297D01*
X312804Y352031D01*
X314164D01*
X315498Y352297D01*
X316755Y352817D01*
X317886Y353573D01*
X318848Y354535D01*
X319604Y355666D01*
X320124Y356923D01*
X320390Y358257D01*
Y359617D01*
X320124Y360951D01*
X319604Y362208D01*
X318848Y363339D01*
X317886Y364301D01*
X316755Y365057D01*
X315498Y365577D01*
X314164Y365843D01*
D02*
G37*
G36*
X164066Y365331D02*
X162706D01*
X161372Y365065D01*
X160115Y364545D01*
X158984Y363789D01*
X158022Y362827D01*
X157266Y361696D01*
X156746Y360439D01*
X156480Y359105D01*
Y357745D01*
X156746Y356411D01*
X157266Y355154D01*
X158022Y354023D01*
X158984Y353061D01*
X160115Y352306D01*
X161372Y351785D01*
X162706Y351520D01*
X164066D01*
X165400Y351785D01*
X166657Y352306D01*
X167788Y353061D01*
X168750Y354023D01*
X169505Y355154D01*
X170026Y356411D01*
X170291Y357745D01*
Y359105D01*
X170026Y360439D01*
X169505Y361696D01*
X168750Y362827D01*
X167788Y363789D01*
X166657Y364545D01*
X165400Y365065D01*
X164066Y365331D01*
D02*
G37*
G36*
X213771Y355842D02*
X212410D01*
X211076Y355577D01*
X209820Y355057D01*
X208689Y354301D01*
X207727Y353339D01*
X206971Y352208D01*
X206450Y350951D01*
X206185Y349617D01*
Y348257D01*
X206450Y346923D01*
X206971Y345666D01*
X207727Y344535D01*
X208689Y343573D01*
X209820Y342817D01*
X211076Y342297D01*
X212410Y342032D01*
X213771D01*
X215105Y342297D01*
X216361Y342817D01*
X217493Y343573D01*
X218454Y344535D01*
X219210Y345666D01*
X219731Y346923D01*
X219996Y348257D01*
Y349617D01*
X219731Y350951D01*
X219210Y352208D01*
X218454Y353339D01*
X217493Y354301D01*
X216361Y355057D01*
X215105Y355577D01*
X213771Y355842D01*
D02*
G37*
G36*
X289164Y355842D02*
X287804D01*
X286470Y355577D01*
X285213Y355057D01*
X284082Y354301D01*
X283120Y353339D01*
X282365Y352208D01*
X281844Y350951D01*
X281579Y349617D01*
Y348257D01*
X281844Y346923D01*
X282365Y345666D01*
X283120Y344535D01*
X284082Y343573D01*
X285213Y342817D01*
X286470Y342297D01*
X287804Y342032D01*
X289164D01*
X290498Y342297D01*
X291755Y342817D01*
X292886Y343573D01*
X293848Y344535D01*
X294604Y345666D01*
X295124Y346923D01*
X295390Y348257D01*
Y349617D01*
X295124Y350951D01*
X294604Y352208D01*
X293848Y353339D01*
X292886Y354301D01*
X291755Y355057D01*
X290498Y355577D01*
X289164Y355842D01*
D02*
G37*
G36*
X139066Y355331D02*
X137706D01*
X136372Y355065D01*
X135115Y354545D01*
X133984Y353789D01*
X133022Y352827D01*
X132266Y351696D01*
X131746Y350440D01*
X131480Y349105D01*
Y347745D01*
X131746Y346411D01*
X132266Y345154D01*
X133022Y344023D01*
X133984Y343061D01*
X135115Y342306D01*
X136372Y341785D01*
X137706Y341520D01*
X139066D01*
X140400Y341785D01*
X141657Y342306D01*
X142788Y343061D01*
X143750Y344023D01*
X144505Y345154D01*
X145026Y346411D01*
X145291Y347745D01*
Y349105D01*
X145026Y350440D01*
X144505Y351696D01*
X143750Y352827D01*
X142788Y353789D01*
X141657Y354545D01*
X140400Y355065D01*
X139066Y355331D01*
D02*
G37*
G36*
X304238Y347239D02*
X302455D01*
X300707Y346891D01*
X299060Y346209D01*
X297577Y345219D01*
X296317Y343958D01*
X295326Y342476D01*
X294644Y340829D01*
X294297Y339080D01*
Y337298D01*
X294644Y335549D01*
X295326Y333902D01*
X296317Y332420D01*
X297577Y331159D01*
X299060Y330169D01*
X300707Y329487D01*
X302455Y329139D01*
X304238D01*
X305986Y329487D01*
X307633Y330169D01*
X309116Y331159D01*
X310376Y332420D01*
X311367Y333902D01*
X312049Y335549D01*
X312397Y337298D01*
Y339080D01*
X312049Y340829D01*
X311367Y342476D01*
X310376Y343958D01*
X309116Y345219D01*
X307633Y346209D01*
X305986Y346891D01*
X304238Y347239D01*
D02*
G37*
G36*
X229238D02*
X227455D01*
X225707Y346891D01*
X224060Y346209D01*
X222577Y345219D01*
X221317Y343958D01*
X220326Y342476D01*
X219644Y340829D01*
X219297Y339080D01*
Y337298D01*
X219644Y335549D01*
X220326Y333902D01*
X221317Y332420D01*
X222577Y331159D01*
X224060Y330169D01*
X225707Y329487D01*
X227455Y329139D01*
X229238D01*
X230986Y329487D01*
X232633Y330169D01*
X234116Y331159D01*
X235376Y332420D01*
X236367Y333902D01*
X237049Y335549D01*
X237397Y337298D01*
Y339080D01*
X237049Y340829D01*
X236367Y342476D01*
X235376Y343958D01*
X234116Y345219D01*
X232633Y346209D01*
X230986Y346891D01*
X229238Y347239D01*
D02*
G37*
G36*
X154238D02*
X152455D01*
X150707Y346891D01*
X149060Y346209D01*
X147577Y345219D01*
X146317Y343958D01*
X145326Y342476D01*
X144644Y340829D01*
X144297Y339080D01*
Y337298D01*
X144644Y335549D01*
X145326Y333902D01*
X146317Y332420D01*
X147577Y331159D01*
X149060Y330169D01*
X150707Y329487D01*
X152455Y329139D01*
X154238D01*
X155986Y329487D01*
X157633Y330169D01*
X159116Y331159D01*
X160376Y332420D01*
X161366Y333902D01*
X162049Y335549D01*
X162397Y337298D01*
Y339080D01*
X162049Y340829D01*
X161366Y342476D01*
X160376Y343958D01*
X159116Y345219D01*
X157633Y346209D01*
X155986Y346891D01*
X154238Y347239D01*
D02*
G37*
G36*
X19050Y317929D02*
X19004D01*
Y314280D01*
X22654D01*
Y314326D01*
X22371Y315381D01*
X21824Y316327D01*
X21052Y317100D01*
X20106Y317646D01*
X19050Y317929D01*
D02*
G37*
G36*
X18004D02*
X17958D01*
X16902Y317646D01*
X15956Y317100D01*
X15183Y316327D01*
X14637Y315381D01*
X14354Y314326D01*
Y314280D01*
X18004D01*
Y317929D01*
D02*
G37*
G36*
X81255Y313992D02*
X81209D01*
Y310343D01*
X84858D01*
Y310389D01*
X84575Y311444D01*
X84029Y312390D01*
X83257Y313163D01*
X82310Y313709D01*
X81255Y313992D01*
D02*
G37*
G36*
X80209D02*
X80162D01*
X79107Y313709D01*
X78161Y313163D01*
X77388Y312390D01*
X76842Y311444D01*
X76559Y310389D01*
Y310343D01*
X80209D01*
Y313992D01*
D02*
G37*
G36*
X22654Y313280D02*
X19004D01*
Y309630D01*
X19050D01*
X20106Y309913D01*
X21052Y310459D01*
X21824Y311232D01*
X22371Y312178D01*
X22654Y313233D01*
Y313280D01*
D02*
G37*
G36*
X18004D02*
X14354D01*
Y313233D01*
X14637Y312178D01*
X15183Y311232D01*
X15956Y310459D01*
X16902Y309913D01*
X17958Y309630D01*
X18004D01*
Y313280D01*
D02*
G37*
G36*
X84858Y309343D02*
X81209D01*
Y305693D01*
X81255D01*
X82310Y305976D01*
X83257Y306522D01*
X84029Y307295D01*
X84575Y308241D01*
X84858Y309296D01*
Y309343D01*
D02*
G37*
G36*
X80209D02*
X76559D01*
Y309296D01*
X76842Y308241D01*
X77388Y307295D01*
X78161Y306522D01*
X79107Y305976D01*
X80162Y305693D01*
X80209D01*
Y309343D01*
D02*
G37*
G36*
X98578Y291945D02*
X98532D01*
Y288295D01*
X102181D01*
Y288342D01*
X101898Y289397D01*
X101352Y290343D01*
X100579Y291116D01*
X99633Y291662D01*
X98578Y291945D01*
D02*
G37*
G36*
X97531D02*
X97485D01*
X96430Y291662D01*
X95484Y291116D01*
X94711Y290343D01*
X94165Y289397D01*
X93882Y288342D01*
Y288295D01*
X97531D01*
Y291945D01*
D02*
G37*
G36*
X19444Y289189D02*
X19398D01*
Y285539D01*
X23047D01*
Y285586D01*
X22764Y286641D01*
X22218Y287587D01*
X21446Y288360D01*
X20499Y288906D01*
X19444Y289189D01*
D02*
G37*
G36*
X18398D02*
X18351D01*
X17296Y288906D01*
X16350Y288360D01*
X15577Y287587D01*
X15031Y286641D01*
X14748Y285586D01*
Y285539D01*
X18398D01*
Y289189D01*
D02*
G37*
G36*
X102181Y287295D02*
X98532D01*
Y283646D01*
X98578D01*
X99633Y283928D01*
X100579Y284475D01*
X101352Y285247D01*
X101898Y286194D01*
X102181Y287249D01*
Y287295D01*
D02*
G37*
G36*
X97531D02*
X93882D01*
Y287249D01*
X94165Y286194D01*
X94711Y285247D01*
X95484Y284475D01*
X96430Y283928D01*
X97485Y283646D01*
X97531D01*
Y287295D01*
D02*
G37*
G36*
X23047Y284539D02*
X19398D01*
Y280890D01*
X19444D01*
X20499Y281173D01*
X21446Y281719D01*
X22218Y282491D01*
X22764Y283438D01*
X23047Y284493D01*
Y284539D01*
D02*
G37*
G36*
X18398D02*
X14748D01*
Y284493D01*
X15031Y283438D01*
X15577Y282491D01*
X16350Y281719D01*
X17296Y281173D01*
X18351Y280890D01*
X18398D01*
Y284539D01*
D02*
G37*
G36*
X238771Y290843D02*
X237410D01*
X236076Y290577D01*
X234820Y290057D01*
X233688Y289301D01*
X232727Y288339D01*
X231971Y287208D01*
X231450Y285951D01*
X231185Y284617D01*
Y283257D01*
X231450Y281923D01*
X231971Y280666D01*
X232727Y279535D01*
X233688Y278573D01*
X234820Y277817D01*
X236076Y277297D01*
X237410Y277031D01*
X238771D01*
X240105Y277297D01*
X241361Y277817D01*
X242493Y278573D01*
X243454Y279535D01*
X244210Y280666D01*
X244731Y281923D01*
X244996Y283257D01*
Y284617D01*
X244731Y285951D01*
X244210Y287208D01*
X243454Y288339D01*
X242493Y289301D01*
X241361Y290057D01*
X240105Y290577D01*
X238771Y290843D01*
D02*
G37*
G36*
X164164Y290449D02*
X162804D01*
X161470Y290183D01*
X160213Y289663D01*
X159082Y288907D01*
X158120Y287945D01*
X157365Y286814D01*
X156844Y285558D01*
X156579Y284223D01*
Y282863D01*
X156844Y281529D01*
X157365Y280272D01*
X158120Y279141D01*
X159082Y278179D01*
X160213Y277424D01*
X161470Y276903D01*
X162804Y276638D01*
X164164D01*
X165498Y276903D01*
X166755Y277424D01*
X167886Y278179D01*
X168848Y279141D01*
X169604Y280272D01*
X170124Y281529D01*
X170390Y282863D01*
Y284223D01*
X170124Y285558D01*
X169604Y286814D01*
X168848Y287945D01*
X167886Y288907D01*
X166755Y289663D01*
X165498Y290183D01*
X164164Y290449D01*
D02*
G37*
G36*
X314263Y290331D02*
X312903D01*
X311568Y290065D01*
X310312Y289545D01*
X309181Y288789D01*
X308219Y287827D01*
X307463Y286696D01*
X306943Y285439D01*
X306677Y284105D01*
Y282745D01*
X306943Y281411D01*
X307463Y280154D01*
X308219Y279023D01*
X309181Y278061D01*
X310312Y277306D01*
X311568Y276785D01*
X312903Y276520D01*
X314263D01*
X315597Y276785D01*
X316854Y277306D01*
X317985Y278061D01*
X318947Y279023D01*
X319702Y280154D01*
X320223Y281411D01*
X320488Y282745D01*
Y284105D01*
X320223Y285439D01*
X319702Y286696D01*
X318947Y287827D01*
X317985Y288789D01*
X316854Y289545D01*
X315597Y290065D01*
X314263Y290331D01*
D02*
G37*
G36*
X213771Y280842D02*
X212410D01*
X211076Y280577D01*
X209820Y280057D01*
X208688Y279301D01*
X207727Y278339D01*
X206971Y277208D01*
X206450Y275951D01*
X206185Y274617D01*
Y273257D01*
X206450Y271923D01*
X206971Y270666D01*
X207727Y269535D01*
X208688Y268573D01*
X209820Y267817D01*
X211076Y267297D01*
X212410Y267032D01*
X213771D01*
X215105Y267297D01*
X216361Y267817D01*
X217493Y268573D01*
X218454Y269535D01*
X219210Y270666D01*
X219731Y271923D01*
X219996Y273257D01*
Y274617D01*
X219731Y275951D01*
X219210Y277208D01*
X218454Y278339D01*
X217493Y279301D01*
X216361Y280057D01*
X215105Y280577D01*
X213771Y280842D01*
D02*
G37*
G36*
X139164Y280449D02*
X137804D01*
X136470Y280183D01*
X135213Y279663D01*
X134082Y278907D01*
X133120Y277945D01*
X132365Y276814D01*
X131844Y275558D01*
X131579Y274223D01*
Y272863D01*
X131844Y271529D01*
X132365Y270272D01*
X133120Y269141D01*
X134082Y268179D01*
X135213Y267424D01*
X136470Y266903D01*
X137804Y266638D01*
X139164D01*
X140498Y266903D01*
X141755Y267424D01*
X142886Y268179D01*
X143848Y269141D01*
X144604Y270272D01*
X145124Y271529D01*
X145390Y272863D01*
Y274223D01*
X145124Y275558D01*
X144604Y276814D01*
X143848Y277945D01*
X142886Y278907D01*
X141755Y279663D01*
X140498Y280183D01*
X139164Y280449D01*
D02*
G37*
G36*
X289263Y280331D02*
X287903D01*
X286568Y280065D01*
X285312Y279545D01*
X284181Y278789D01*
X283219Y277827D01*
X282463Y276696D01*
X281943Y275440D01*
X281677Y274105D01*
Y272745D01*
X281943Y271411D01*
X282463Y270154D01*
X283219Y269023D01*
X284181Y268061D01*
X285312Y267306D01*
X286568Y266785D01*
X287903Y266520D01*
X289263D01*
X290597Y266785D01*
X291854Y267306D01*
X292985Y268061D01*
X293947Y269023D01*
X294702Y270154D01*
X295223Y271411D01*
X295488Y272745D01*
Y274105D01*
X295223Y275440D01*
X294702Y276696D01*
X293947Y277827D01*
X292985Y278789D01*
X291854Y279545D01*
X290597Y280065D01*
X289263Y280331D01*
D02*
G37*
G36*
X304238Y272239D02*
X302455D01*
X300707Y271891D01*
X299060Y271209D01*
X297577Y270219D01*
X296317Y268958D01*
X295326Y267476D01*
X294644Y265829D01*
X294297Y264080D01*
Y262298D01*
X294644Y260549D01*
X295326Y258902D01*
X296317Y257420D01*
X297577Y256159D01*
X299060Y255169D01*
X300707Y254487D01*
X302455Y254139D01*
X304238D01*
X305986Y254487D01*
X307633Y255169D01*
X309116Y256159D01*
X310376Y257420D01*
X311367Y258902D01*
X312049Y260549D01*
X312397Y262298D01*
Y264080D01*
X312049Y265829D01*
X311367Y267476D01*
X310376Y268958D01*
X309116Y270219D01*
X307633Y271209D01*
X305986Y271891D01*
X304238Y272239D01*
D02*
G37*
G36*
X229238D02*
X227455D01*
X225707Y271891D01*
X224060Y271209D01*
X222577Y270219D01*
X221317Y268958D01*
X220326Y267476D01*
X219644Y265829D01*
X219297Y264080D01*
Y262298D01*
X219644Y260549D01*
X220326Y258902D01*
X221317Y257420D01*
X222577Y256159D01*
X224060Y255169D01*
X225707Y254487D01*
X227455Y254139D01*
X229238D01*
X230986Y254487D01*
X232633Y255169D01*
X234116Y256159D01*
X235376Y257420D01*
X236367Y258902D01*
X237049Y260549D01*
X237397Y262298D01*
Y264080D01*
X237049Y265829D01*
X236367Y267476D01*
X235376Y268958D01*
X234116Y270219D01*
X232633Y271209D01*
X230986Y271891D01*
X229238Y272239D01*
D02*
G37*
G36*
X154238D02*
X152455D01*
X150707Y271891D01*
X149060Y271209D01*
X147577Y270219D01*
X146317Y268958D01*
X145326Y267476D01*
X144644Y265829D01*
X144297Y264080D01*
Y262298D01*
X144644Y260549D01*
X145326Y258902D01*
X146317Y257420D01*
X147577Y256159D01*
X149060Y255169D01*
X150707Y254487D01*
X152455Y254139D01*
X154238D01*
X155986Y254487D01*
X157633Y255169D01*
X159116Y256159D01*
X160376Y257420D01*
X161366Y258902D01*
X162049Y260549D01*
X162397Y262298D01*
Y264080D01*
X162049Y265829D01*
X161366Y267476D01*
X160376Y268958D01*
X159116Y270219D01*
X157633Y271209D01*
X155986Y271891D01*
X154238Y272239D01*
D02*
G37*
G36*
X38673Y239189D02*
X36008D01*
Y236720D01*
X38673D01*
Y239189D01*
D02*
G37*
G36*
Y235720D02*
X36008D01*
Y233252D01*
X38673D01*
Y235720D01*
D02*
G37*
G36*
X46508Y228843D02*
X45723D01*
X45166Y228732D01*
X44694Y228416D01*
X44378Y227944D01*
X44267Y227387D01*
Y226484D01*
X46508D01*
Y228843D01*
D02*
G37*
G36*
X80536Y225878D02*
X78295D01*
Y223519D01*
X79080D01*
X79637Y223630D01*
X80109Y223946D01*
X80425Y224418D01*
X80536Y224975D01*
Y225878D01*
D02*
G37*
G36*
X46508Y225484D02*
X44267D01*
Y224582D01*
X44378Y224024D01*
X44694Y223552D01*
X45166Y223236D01*
X45723Y223126D01*
X46508D01*
Y225484D01*
D02*
G37*
G36*
X239164Y215843D02*
X237804D01*
X236470Y215577D01*
X235213Y215057D01*
X234082Y214301D01*
X233120Y213339D01*
X232365Y212208D01*
X231844Y210951D01*
X231579Y209617D01*
Y208257D01*
X231844Y206923D01*
X232365Y205666D01*
X233120Y204535D01*
X234082Y203573D01*
X235213Y202817D01*
X236470Y202297D01*
X237804Y202031D01*
X239164D01*
X240498Y202297D01*
X241755Y202817D01*
X242886Y203573D01*
X243848Y204535D01*
X244604Y205666D01*
X245124Y206923D01*
X245390Y208257D01*
Y209617D01*
X245124Y210951D01*
X244604Y212208D01*
X243848Y213339D01*
X242886Y214301D01*
X241755Y215057D01*
X240498Y215577D01*
X239164Y215843D01*
D02*
G37*
G36*
X163771Y215449D02*
X162410D01*
X161076Y215183D01*
X159820Y214663D01*
X158689Y213907D01*
X157727Y212945D01*
X156971Y211814D01*
X156450Y210558D01*
X156185Y209223D01*
Y207863D01*
X156450Y206529D01*
X156971Y205272D01*
X157727Y204141D01*
X158689Y203179D01*
X159820Y202424D01*
X161076Y201903D01*
X162410Y201638D01*
X163771D01*
X165105Y201903D01*
X166361Y202424D01*
X167493Y203179D01*
X168454Y204141D01*
X169210Y205272D01*
X169731Y206529D01*
X169996Y207863D01*
Y209223D01*
X169731Y210558D01*
X169210Y211814D01*
X168454Y212945D01*
X167493Y213907D01*
X166361Y214663D01*
X165105Y215183D01*
X163771Y215449D01*
D02*
G37*
G36*
X313672Y215331D02*
X312312D01*
X310978Y215065D01*
X309721Y214545D01*
X308590Y213789D01*
X307628Y212827D01*
X306873Y211696D01*
X306352Y210439D01*
X306087Y209105D01*
Y207745D01*
X306352Y206411D01*
X306873Y205154D01*
X307628Y204023D01*
X308590Y203061D01*
X309721Y202306D01*
X310978Y201785D01*
X312312Y201520D01*
X313672D01*
X315006Y201785D01*
X316263Y202306D01*
X317394Y203061D01*
X318356Y204023D01*
X319112Y205154D01*
X319632Y206411D01*
X319898Y207745D01*
Y209105D01*
X319632Y210439D01*
X319112Y211696D01*
X318356Y212827D01*
X317394Y213789D01*
X316263Y214545D01*
X315006Y215065D01*
X313672Y215331D01*
D02*
G37*
G36*
X85979Y199425D02*
X85933D01*
Y195776D01*
X89583D01*
Y195822D01*
X89300Y196877D01*
X88754Y197824D01*
X87981Y198596D01*
X87035Y199142D01*
X85979Y199425D01*
D02*
G37*
G36*
X84933D02*
X84887D01*
X83831Y199142D01*
X82885Y198596D01*
X82113Y197824D01*
X81566Y196877D01*
X81283Y195822D01*
Y195776D01*
X84933D01*
Y199425D01*
D02*
G37*
G36*
X214164Y205842D02*
X212804D01*
X211470Y205577D01*
X210213Y205057D01*
X209082Y204301D01*
X208120Y203339D01*
X207365Y202208D01*
X206844Y200951D01*
X206579Y199617D01*
Y198257D01*
X206844Y196923D01*
X207365Y195666D01*
X208120Y194535D01*
X209082Y193573D01*
X210213Y192817D01*
X211470Y192297D01*
X212804Y192032D01*
X214164D01*
X215498Y192297D01*
X216755Y192817D01*
X217886Y193573D01*
X218848Y194535D01*
X219604Y195666D01*
X220124Y196923D01*
X220390Y198257D01*
Y199617D01*
X220124Y200951D01*
X219604Y202208D01*
X218848Y203339D01*
X217886Y204301D01*
X216755Y205057D01*
X215498Y205577D01*
X214164Y205842D01*
D02*
G37*
G36*
X138771Y205449D02*
X137410D01*
X136076Y205183D01*
X134820Y204663D01*
X133689Y203907D01*
X132727Y202945D01*
X131971Y201814D01*
X131450Y200558D01*
X131185Y199223D01*
Y197863D01*
X131450Y196529D01*
X131971Y195272D01*
X132727Y194141D01*
X133689Y193179D01*
X134820Y192424D01*
X136076Y191903D01*
X137410Y191638D01*
X138771D01*
X140105Y191903D01*
X141361Y192424D01*
X142493Y193179D01*
X143454Y194141D01*
X144210Y195272D01*
X144731Y196529D01*
X144996Y197863D01*
Y199223D01*
X144731Y200558D01*
X144210Y201814D01*
X143454Y202945D01*
X142493Y203907D01*
X141361Y204663D01*
X140105Y205183D01*
X138771Y205449D01*
D02*
G37*
G36*
X288672Y205331D02*
X287312D01*
X285978Y205065D01*
X284721Y204545D01*
X283590Y203789D01*
X282628Y202827D01*
X281873Y201696D01*
X281352Y200440D01*
X281087Y199105D01*
Y197745D01*
X281352Y196411D01*
X281873Y195154D01*
X282628Y194023D01*
X283590Y193061D01*
X284721Y192306D01*
X285978Y191785D01*
X287312Y191520D01*
X288672D01*
X290006Y191785D01*
X291263Y192306D01*
X292394Y193061D01*
X293356Y194023D01*
X294112Y195154D01*
X294632Y196411D01*
X294898Y197745D01*
Y199105D01*
X294632Y200440D01*
X294112Y201696D01*
X293356Y202827D01*
X292394Y203789D01*
X291263Y204545D01*
X290006Y205065D01*
X288672Y205331D01*
D02*
G37*
G36*
X89583Y194776D02*
X85933D01*
Y191126D01*
X85979D01*
X87035Y191409D01*
X87981Y191955D01*
X88754Y192728D01*
X89300Y193674D01*
X89583Y194729D01*
Y194776D01*
D02*
G37*
G36*
X84933D02*
X81283D01*
Y194729D01*
X81566Y193674D01*
X82113Y192728D01*
X82885Y191955D01*
X83831Y191409D01*
X84887Y191126D01*
X84933D01*
Y194776D01*
D02*
G37*
G36*
X304238Y197239D02*
X302455D01*
X300707Y196891D01*
X299060Y196209D01*
X297577Y195219D01*
X296317Y193958D01*
X295326Y192476D01*
X294644Y190829D01*
X294297Y189080D01*
Y187298D01*
X294644Y185549D01*
X295326Y183902D01*
X296317Y182420D01*
X297577Y181159D01*
X299060Y180169D01*
X300707Y179487D01*
X302455Y179139D01*
X304238D01*
X305986Y179487D01*
X307633Y180169D01*
X309116Y181159D01*
X310376Y182420D01*
X311367Y183902D01*
X312049Y185549D01*
X312397Y187298D01*
Y189080D01*
X312049Y190829D01*
X311367Y192476D01*
X310376Y193958D01*
X309116Y195219D01*
X307633Y196209D01*
X305986Y196891D01*
X304238Y197239D01*
D02*
G37*
G36*
X229238D02*
X227455D01*
X225707Y196891D01*
X224060Y196209D01*
X222577Y195219D01*
X221317Y193958D01*
X220326Y192476D01*
X219644Y190829D01*
X219297Y189080D01*
Y187298D01*
X219644Y185549D01*
X220326Y183902D01*
X221317Y182420D01*
X222577Y181159D01*
X224060Y180169D01*
X225707Y179487D01*
X227455Y179139D01*
X229238D01*
X230986Y179487D01*
X232633Y180169D01*
X234116Y181159D01*
X235376Y182420D01*
X236367Y183902D01*
X237049Y185549D01*
X237397Y187298D01*
Y189080D01*
X237049Y190829D01*
X236367Y192476D01*
X235376Y193958D01*
X234116Y195219D01*
X232633Y196209D01*
X230986Y196891D01*
X229238Y197239D01*
D02*
G37*
G36*
X154238D02*
X152455D01*
X150707Y196891D01*
X149060Y196209D01*
X147577Y195219D01*
X146317Y193958D01*
X145326Y192476D01*
X144644Y190829D01*
X144297Y189080D01*
Y187298D01*
X144644Y185549D01*
X145326Y183902D01*
X146317Y182420D01*
X147577Y181159D01*
X149060Y180169D01*
X150707Y179487D01*
X152455Y179139D01*
X154238D01*
X155986Y179487D01*
X157633Y180169D01*
X159116Y181159D01*
X160376Y182420D01*
X161366Y183902D01*
X162049Y185549D01*
X162397Y187298D01*
Y189080D01*
X162049Y190829D01*
X161366Y192476D01*
X160376Y193958D01*
X159116Y195219D01*
X157633Y196209D01*
X155986Y196891D01*
X154238Y197239D01*
D02*
G37*
G36*
X85979Y154150D02*
X85933D01*
Y150500D01*
X89583D01*
Y150546D01*
X89300Y151602D01*
X88754Y152548D01*
X87981Y153321D01*
X87035Y153867D01*
X85979Y154150D01*
D02*
G37*
G36*
X84933D02*
X84887D01*
X83831Y153867D01*
X82885Y153321D01*
X82113Y152548D01*
X81566Y151602D01*
X81283Y150546D01*
Y150500D01*
X84933D01*
Y154150D01*
D02*
G37*
G36*
X89583Y149500D02*
X85933D01*
Y145850D01*
X85979D01*
X87035Y146133D01*
X87981Y146679D01*
X88754Y147452D01*
X89300Y148398D01*
X89583Y149454D01*
Y149500D01*
D02*
G37*
G36*
X84933D02*
X81283D01*
Y149454D01*
X81566Y148398D01*
X82113Y147452D01*
X82885Y146679D01*
X83831Y146133D01*
X84887Y145850D01*
X84933D01*
Y149500D01*
D02*
G37*
G36*
X164164Y140646D02*
X162804D01*
X161470Y140380D01*
X160213Y139860D01*
X159082Y139104D01*
X158120Y138142D01*
X157365Y137011D01*
X156844Y135754D01*
X156579Y134420D01*
Y133060D01*
X156844Y131726D01*
X157365Y130469D01*
X158120Y129338D01*
X159082Y128376D01*
X160213Y127621D01*
X161470Y127100D01*
X162804Y126835D01*
X164164D01*
X165498Y127100D01*
X166755Y127621D01*
X167886Y128376D01*
X168848Y129338D01*
X169604Y130469D01*
X170124Y131726D01*
X170390Y133060D01*
Y134420D01*
X170124Y135754D01*
X169604Y137011D01*
X168848Y138142D01*
X167886Y139104D01*
X166755Y139860D01*
X165498Y140380D01*
X164164Y140646D01*
D02*
G37*
G36*
X314164Y140449D02*
X312804D01*
X311470Y140183D01*
X310213Y139663D01*
X309082Y138907D01*
X308120Y137945D01*
X307365Y136814D01*
X306844Y135558D01*
X306579Y134223D01*
Y132863D01*
X306844Y131529D01*
X307365Y130272D01*
X308120Y129141D01*
X309082Y128179D01*
X310213Y127424D01*
X311470Y126903D01*
X312804Y126638D01*
X314164D01*
X315498Y126903D01*
X316755Y127424D01*
X317886Y128179D01*
X318848Y129141D01*
X319604Y130272D01*
X320124Y131529D01*
X320390Y132863D01*
Y134223D01*
X320124Y135558D01*
X319604Y136814D01*
X318848Y137945D01*
X317886Y138907D01*
X316755Y139663D01*
X315498Y140183D01*
X314164Y140449D01*
D02*
G37*
G36*
X238979Y140386D02*
X237619D01*
X236285Y140120D01*
X235028Y139600D01*
X233897Y138844D01*
X232935Y137882D01*
X232180Y136751D01*
X231659Y135495D01*
X231394Y134160D01*
Y132800D01*
X231659Y131466D01*
X232180Y130209D01*
X232935Y129078D01*
X233897Y128117D01*
X235028Y127361D01*
X236285Y126840D01*
X237619Y126575D01*
X238979D01*
X240314Y126840D01*
X241570Y127361D01*
X242701Y128117D01*
X243663Y129078D01*
X244419Y130209D01*
X244939Y131466D01*
X245205Y132800D01*
Y134160D01*
X244939Y135495D01*
X244419Y136751D01*
X243663Y137882D01*
X242701Y138844D01*
X241570Y139600D01*
X240314Y140120D01*
X238979Y140386D01*
D02*
G37*
G36*
X41213Y126035D02*
X37744D01*
Y122567D01*
X37767D01*
X38776Y122837D01*
X39681Y123360D01*
X40420Y124099D01*
X40942Y125004D01*
X41213Y126013D01*
Y126035D01*
D02*
G37*
G36*
X36744D02*
X33276D01*
Y126013D01*
X33546Y125004D01*
X34069Y124099D01*
X34807Y123360D01*
X35712Y122837D01*
X36722Y122567D01*
X36744D01*
Y126035D01*
D02*
G37*
G36*
X65764Y119012D02*
X63295D01*
Y117035D01*
X65764D01*
Y119012D01*
D02*
G37*
G36*
X37767Y120504D02*
X37744D01*
Y117035D01*
X41213D01*
Y117058D01*
X40942Y118067D01*
X40420Y118972D01*
X39681Y119711D01*
X38776Y120234D01*
X37767Y120504D01*
D02*
G37*
G36*
X36744D02*
X36722D01*
X35712Y120234D01*
X34807Y119711D01*
X34069Y118972D01*
X33546Y118067D01*
X33276Y117058D01*
Y117035D01*
X36744D01*
Y120504D01*
D02*
G37*
G36*
X139164Y130646D02*
X137804D01*
X136470Y130380D01*
X135213Y129860D01*
X134082Y129104D01*
X133120Y128142D01*
X132365Y127011D01*
X131844Y125754D01*
X131579Y124420D01*
Y123060D01*
X131844Y121726D01*
X132365Y120469D01*
X133120Y119338D01*
X134082Y118376D01*
X135213Y117621D01*
X136470Y117100D01*
X137804Y116835D01*
X139164D01*
X140498Y117100D01*
X141755Y117621D01*
X142886Y118376D01*
X143848Y119338D01*
X144604Y120469D01*
X145124Y121726D01*
X145390Y123060D01*
Y124420D01*
X145124Y125754D01*
X144604Y127011D01*
X143848Y128142D01*
X142886Y129104D01*
X141755Y129860D01*
X140498Y130380D01*
X139164Y130646D01*
D02*
G37*
G36*
X289164Y130449D02*
X287804D01*
X286470Y130183D01*
X285213Y129663D01*
X284082Y128907D01*
X283120Y127945D01*
X282365Y126814D01*
X281844Y125558D01*
X281579Y124223D01*
Y122863D01*
X281844Y121529D01*
X282365Y120272D01*
X283120Y119141D01*
X284082Y118179D01*
X285213Y117424D01*
X286470Y116903D01*
X287804Y116638D01*
X289164D01*
X290498Y116903D01*
X291755Y117424D01*
X292886Y118179D01*
X293848Y119141D01*
X294604Y120272D01*
X295124Y121529D01*
X295390Y122863D01*
Y124223D01*
X295124Y125558D01*
X294604Y126814D01*
X293848Y127945D01*
X292886Y128907D01*
X291755Y129663D01*
X290498Y130183D01*
X289164Y130449D01*
D02*
G37*
G36*
X213979Y130386D02*
X212619D01*
X211285Y130121D01*
X210028Y129600D01*
X208897Y128844D01*
X207935Y127882D01*
X207180Y126751D01*
X206659Y125495D01*
X206394Y124160D01*
Y122800D01*
X206659Y121466D01*
X207180Y120209D01*
X207935Y119078D01*
X208897Y118116D01*
X210028Y117361D01*
X211285Y116840D01*
X212619Y116575D01*
X213979D01*
X215314Y116840D01*
X216570Y117361D01*
X217701Y118116D01*
X218663Y119078D01*
X219419Y120209D01*
X219939Y121466D01*
X220205Y122800D01*
Y124160D01*
X219939Y125495D01*
X219419Y126751D01*
X218663Y127882D01*
X217701Y128844D01*
X216570Y129600D01*
X215314Y130121D01*
X213979Y130386D01*
D02*
G37*
G36*
X65764Y116035D02*
X63295D01*
Y114059D01*
X65764D01*
Y116035D01*
D02*
G37*
G36*
X47767Y120504D02*
X46722D01*
X45712Y120234D01*
X44807Y119711D01*
X44069Y118972D01*
X43546Y118067D01*
X43276Y117058D01*
Y116013D01*
X43546Y115004D01*
X44069Y114099D01*
X44807Y113360D01*
X45712Y112837D01*
X46722Y112567D01*
X47767D01*
X48776Y112837D01*
X49681Y113360D01*
X50420Y114099D01*
X50942Y115004D01*
X50943Y115006D01*
X53921D01*
Y114059D01*
X62295D01*
Y116535D01*
Y119012D01*
X53921D01*
Y118065D01*
X50943D01*
X50942Y118067D01*
X50420Y118972D01*
X49681Y119711D01*
X48776Y120234D01*
X47767Y120504D01*
D02*
G37*
G36*
X304238Y122239D02*
X302455D01*
X300707Y121891D01*
X299060Y121209D01*
X297577Y120219D01*
X296317Y118958D01*
X295326Y117476D01*
X294644Y115829D01*
X294297Y114080D01*
Y112298D01*
X294644Y110549D01*
X295326Y108902D01*
X296317Y107420D01*
X297577Y106159D01*
X299060Y105169D01*
X300707Y104487D01*
X302455Y104139D01*
X304238D01*
X305986Y104487D01*
X307633Y105169D01*
X309116Y106159D01*
X310376Y107420D01*
X311367Y108902D01*
X312049Y110549D01*
X312397Y112298D01*
Y114080D01*
X312049Y115829D01*
X311367Y117476D01*
X310376Y118958D01*
X309116Y120219D01*
X307633Y121209D01*
X305986Y121891D01*
X304238Y122239D01*
D02*
G37*
G36*
X229238D02*
X227455D01*
X225707Y121891D01*
X224060Y121209D01*
X222577Y120219D01*
X221317Y118958D01*
X220326Y117476D01*
X219644Y115829D01*
X219297Y114080D01*
Y112298D01*
X219644Y110549D01*
X220326Y108902D01*
X221317Y107420D01*
X222577Y106159D01*
X224060Y105169D01*
X225707Y104487D01*
X227455Y104139D01*
X229238D01*
X230986Y104487D01*
X232633Y105169D01*
X234116Y106159D01*
X235376Y107420D01*
X236367Y108902D01*
X237049Y110549D01*
X237397Y112298D01*
Y114080D01*
X237049Y115829D01*
X236367Y117476D01*
X235376Y118958D01*
X234116Y120219D01*
X232633Y121209D01*
X230986Y121891D01*
X229238Y122239D01*
D02*
G37*
G36*
X154238D02*
X152455D01*
X150707Y121891D01*
X149060Y121209D01*
X147577Y120219D01*
X146317Y118958D01*
X145326Y117476D01*
X144644Y115829D01*
X144297Y114080D01*
Y112298D01*
X144644Y110549D01*
X145326Y108902D01*
X146317Y107420D01*
X147577Y106159D01*
X149060Y105169D01*
X150707Y104487D01*
X152455Y104139D01*
X154238D01*
X155986Y104487D01*
X157633Y105169D01*
X159116Y106159D01*
X160376Y107420D01*
X161366Y108902D01*
X162049Y110549D01*
X162397Y112298D01*
Y114080D01*
X162049Y115829D01*
X161366Y117476D01*
X160376Y118958D01*
X159116Y120219D01*
X157633Y121209D01*
X155986Y121891D01*
X154238Y122239D01*
D02*
G37*
G36*
X41213Y106035D02*
X37744D01*
Y102567D01*
X37767D01*
X38776Y102837D01*
X39681Y103360D01*
X40420Y104099D01*
X40942Y105004D01*
X41213Y106013D01*
Y106035D01*
D02*
G37*
G36*
X36744D02*
X33276D01*
Y106013D01*
X33546Y105004D01*
X34069Y104099D01*
X34807Y103360D01*
X35712Y102837D01*
X36722Y102567D01*
X36744D01*
Y106035D01*
D02*
G37*
G36*
X37767Y100504D02*
X37744D01*
Y97035D01*
X41213D01*
Y97058D01*
X40942Y98067D01*
X40420Y98972D01*
X39681Y99711D01*
X38776Y100233D01*
X37767Y100504D01*
D02*
G37*
G36*
X36744D02*
X36722D01*
X35712Y100233D01*
X34807Y99711D01*
X34069Y98972D01*
X33546Y98067D01*
X33276Y97058D01*
Y97035D01*
X36744D01*
Y100504D01*
D02*
G37*
G36*
X41213Y96035D02*
X37744D01*
Y92567D01*
X37767D01*
X38776Y92837D01*
X39681Y93360D01*
X40420Y94099D01*
X40942Y95004D01*
X41213Y96013D01*
Y96035D01*
D02*
G37*
G36*
X36744D02*
X33276D01*
Y96013D01*
X33546Y95004D01*
X34069Y94099D01*
X34807Y93360D01*
X35712Y92837D01*
X36722Y92567D01*
X36744D01*
Y96035D01*
D02*
G37*
G36*
X66158Y89091D02*
X63689D01*
Y87114D01*
X66158D01*
Y89091D01*
D02*
G37*
G36*
X37767Y90504D02*
X37744D01*
Y87035D01*
X41213D01*
Y87058D01*
X40942Y88067D01*
X40420Y88972D01*
X39681Y89711D01*
X38776Y90233D01*
X37767Y90504D01*
D02*
G37*
G36*
X36744D02*
X36722D01*
X35712Y90233D01*
X34807Y89711D01*
X34069Y88972D01*
X33546Y88067D01*
X33276Y87058D01*
Y87035D01*
X36744D01*
Y90504D01*
D02*
G37*
G36*
X66158Y86114D02*
X63689D01*
Y84138D01*
X66158D01*
Y86114D01*
D02*
G37*
G36*
X47767Y90504D02*
X46722D01*
X45712Y90233D01*
X44807Y89711D01*
X44069Y88972D01*
X43546Y88067D01*
X43276Y87058D01*
Y86013D01*
X43546Y85004D01*
X44069Y84099D01*
X44807Y83360D01*
X45712Y82837D01*
X46722Y82567D01*
X47767D01*
X48776Y82837D01*
X49681Y83360D01*
X50420Y84099D01*
X50942Y85004D01*
X50953Y85045D01*
X54315D01*
Y84138D01*
X62689D01*
Y86614D01*
Y89091D01*
X54315D01*
Y88104D01*
X50921D01*
X50420Y88972D01*
X49681Y89711D01*
X48776Y90233D01*
X47767Y90504D01*
D02*
G37*
G36*
X41213Y86035D02*
X37744D01*
Y82567D01*
X37767D01*
X38776Y82837D01*
X39681Y83360D01*
X40420Y84099D01*
X40942Y85004D01*
X41213Y86013D01*
Y86035D01*
D02*
G37*
G36*
X36744D02*
X33276D01*
Y86013D01*
X33546Y85004D01*
X34069Y84099D01*
X34807Y83360D01*
X35712Y82837D01*
X36722Y82567D01*
X36744D01*
Y86035D01*
D02*
G37*
G36*
X37767Y80504D02*
X37744D01*
Y77035D01*
X41213D01*
Y77058D01*
X40942Y78067D01*
X40420Y78972D01*
X39681Y79711D01*
X38776Y80234D01*
X37767Y80504D01*
D02*
G37*
G36*
X36744D02*
X36722D01*
X35712Y80234D01*
X34807Y79711D01*
X34069Y78972D01*
X33546Y78067D01*
X33276Y77058D01*
Y77035D01*
X36744D01*
Y80504D01*
D02*
G37*
G36*
X66158Y78854D02*
X63689D01*
Y76878D01*
X66158D01*
Y78854D01*
D02*
G37*
G36*
X17582Y80421D02*
X17535D01*
Y76772D01*
X21185D01*
Y76818D01*
X20902Y77873D01*
X20356Y78820D01*
X19583Y79592D01*
X18637Y80138D01*
X17582Y80421D01*
D02*
G37*
G36*
X16535D02*
X16489D01*
X15434Y80138D01*
X14488Y79592D01*
X13715Y78820D01*
X13169Y77873D01*
X12886Y76818D01*
Y76772D01*
X16535D01*
Y80421D01*
D02*
G37*
G36*
X66158Y75878D02*
X63689D01*
Y73902D01*
X66158D01*
Y75878D01*
D02*
G37*
G36*
X47767Y80504D02*
X46722D01*
X45712Y80234D01*
X44807Y79711D01*
X44069Y78972D01*
X43546Y78067D01*
X43276Y77058D01*
Y76013D01*
X43546Y75004D01*
X44069Y74099D01*
X44807Y73360D01*
X45712Y72837D01*
X46722Y72567D01*
X47767D01*
X48776Y72837D01*
X49681Y73360D01*
X50420Y74099D01*
X50898Y74927D01*
X54315D01*
Y73902D01*
X62689D01*
Y76378D01*
Y78854D01*
X54315D01*
Y77986D01*
X50964D01*
X50942Y78067D01*
X50420Y78972D01*
X49681Y79711D01*
X48776Y80234D01*
X47767Y80504D01*
D02*
G37*
G36*
X41213Y76035D02*
X37744D01*
Y72567D01*
X37767D01*
X38776Y72837D01*
X39681Y73360D01*
X40420Y74099D01*
X40942Y75004D01*
X41213Y76013D01*
Y76035D01*
D02*
G37*
G36*
X36744D02*
X33276D01*
Y76013D01*
X33546Y75004D01*
X34069Y74099D01*
X34807Y73360D01*
X35712Y72837D01*
X36722Y72567D01*
X36744D01*
Y76035D01*
D02*
G37*
G36*
X21185Y75772D02*
X17535D01*
Y72122D01*
X17582D01*
X18637Y72405D01*
X19583Y72951D01*
X20356Y73724D01*
X20902Y74670D01*
X21185Y75725D01*
Y75772D01*
D02*
G37*
G36*
X16535D02*
X12886D01*
Y75725D01*
X13169Y74670D01*
X13715Y73724D01*
X14488Y72951D01*
X15434Y72405D01*
X16489Y72122D01*
X16535D01*
Y75772D01*
D02*
G37*
G36*
X314164Y65646D02*
X312804D01*
X311470Y65380D01*
X310213Y64860D01*
X309082Y64104D01*
X308120Y63142D01*
X307365Y62011D01*
X306844Y60754D01*
X306579Y59420D01*
Y58060D01*
X306844Y56726D01*
X307365Y55469D01*
X308120Y54338D01*
X309082Y53376D01*
X310213Y52621D01*
X311470Y52100D01*
X312804Y51835D01*
X314164D01*
X315498Y52100D01*
X316755Y52621D01*
X317886Y53376D01*
X318848Y54338D01*
X319604Y55469D01*
X320124Y56726D01*
X320390Y58060D01*
Y59420D01*
X320124Y60754D01*
X319604Y62011D01*
X318848Y63142D01*
X317886Y64104D01*
X316755Y64860D01*
X315498Y65380D01*
X314164Y65646D01*
D02*
G37*
G36*
X164263D02*
X162902D01*
X161568Y65380D01*
X160312Y64860D01*
X159181Y64104D01*
X158219Y63142D01*
X157463Y62011D01*
X156943Y60754D01*
X156677Y59420D01*
Y58060D01*
X156943Y56726D01*
X157463Y55469D01*
X158219Y54338D01*
X159181Y53376D01*
X160312Y52621D01*
X161568Y52100D01*
X162902Y51835D01*
X164263D01*
X165597Y52100D01*
X166854Y52621D01*
X167985Y53376D01*
X168947Y54338D01*
X169702Y55469D01*
X170223Y56726D01*
X170488Y58060D01*
Y59420D01*
X170223Y60754D01*
X169702Y62011D01*
X168947Y63142D01*
X167985Y64104D01*
X166854Y64860D01*
X165597Y65380D01*
X164263Y65646D01*
D02*
G37*
G36*
X238869Y65449D02*
X237509D01*
X236175Y65183D01*
X234918Y64663D01*
X233787Y63907D01*
X232825Y62945D01*
X232069Y61814D01*
X231549Y60558D01*
X231283Y59223D01*
Y57863D01*
X231549Y56529D01*
X232069Y55272D01*
X232825Y54141D01*
X233787Y53179D01*
X234918Y52424D01*
X236175Y51903D01*
X237509Y51638D01*
X238869D01*
X240203Y51903D01*
X241460Y52424D01*
X242591Y53179D01*
X243553Y54141D01*
X244309Y55272D01*
X244829Y56529D01*
X245094Y57863D01*
Y59223D01*
X244829Y60558D01*
X244309Y61814D01*
X243553Y62945D01*
X242591Y63907D01*
X241460Y64663D01*
X240203Y65183D01*
X238869Y65449D01*
D02*
G37*
G36*
X289164Y55646D02*
X287804D01*
X286470Y55380D01*
X285213Y54860D01*
X284082Y54104D01*
X283120Y53142D01*
X282365Y52011D01*
X281844Y50754D01*
X281579Y49420D01*
Y48060D01*
X281844Y46726D01*
X282365Y45469D01*
X283120Y44338D01*
X284082Y43376D01*
X285213Y42621D01*
X286470Y42100D01*
X287804Y41835D01*
X289164D01*
X290498Y42100D01*
X291755Y42621D01*
X292886Y43376D01*
X293848Y44338D01*
X294604Y45469D01*
X295124Y46726D01*
X295390Y48060D01*
Y49420D01*
X295124Y50754D01*
X294604Y52011D01*
X293848Y53142D01*
X292886Y54104D01*
X291755Y54860D01*
X290498Y55380D01*
X289164Y55646D01*
D02*
G37*
G36*
X139263D02*
X137902D01*
X136568Y55380D01*
X135312Y54860D01*
X134181Y54104D01*
X133219Y53142D01*
X132463Y52011D01*
X131943Y50754D01*
X131677Y49420D01*
Y48060D01*
X131943Y46726D01*
X132463Y45469D01*
X133219Y44338D01*
X134181Y43376D01*
X135312Y42621D01*
X136568Y42100D01*
X137902Y41835D01*
X139263D01*
X140597Y42100D01*
X141854Y42621D01*
X142985Y43376D01*
X143947Y44338D01*
X144702Y45469D01*
X145223Y46726D01*
X145488Y48060D01*
Y49420D01*
X145223Y50754D01*
X144702Y52011D01*
X143947Y53142D01*
X142985Y54104D01*
X141854Y54860D01*
X140597Y55380D01*
X139263Y55646D01*
D02*
G37*
G36*
X213869Y55449D02*
X212509D01*
X211175Y55183D01*
X209918Y54663D01*
X208787Y53907D01*
X207825Y52945D01*
X207069Y51814D01*
X206549Y50558D01*
X206283Y49223D01*
Y47863D01*
X206549Y46529D01*
X207069Y45272D01*
X207825Y44141D01*
X208787Y43180D01*
X209918Y42424D01*
X211175Y41903D01*
X212509Y41638D01*
X213869D01*
X215203Y41903D01*
X216460Y42424D01*
X217591Y43180D01*
X218553Y44141D01*
X219309Y45272D01*
X219829Y46529D01*
X220094Y47863D01*
Y49223D01*
X219829Y50558D01*
X219309Y51814D01*
X218553Y52945D01*
X217591Y53907D01*
X216460Y54663D01*
X215203Y55183D01*
X213869Y55449D01*
D02*
G37*
G36*
X304238Y47239D02*
X302455D01*
X300707Y46891D01*
X299060Y46209D01*
X297577Y45219D01*
X296317Y43958D01*
X295326Y42476D01*
X294644Y40829D01*
X294297Y39080D01*
Y37298D01*
X294644Y35549D01*
X295326Y33902D01*
X296317Y32420D01*
X297577Y31159D01*
X299060Y30169D01*
X300707Y29487D01*
X302455Y29139D01*
X304238D01*
X305986Y29487D01*
X307633Y30169D01*
X309116Y31159D01*
X310376Y32420D01*
X311367Y33902D01*
X312049Y35549D01*
X312397Y37298D01*
Y39080D01*
X312049Y40829D01*
X311367Y42476D01*
X310376Y43958D01*
X309116Y45219D01*
X307633Y46209D01*
X305986Y46891D01*
X304238Y47239D01*
D02*
G37*
G36*
X229238D02*
X227455D01*
X225707Y46891D01*
X224060Y46209D01*
X222577Y45219D01*
X221317Y43958D01*
X220326Y42476D01*
X219644Y40829D01*
X219297Y39080D01*
Y37298D01*
X219644Y35549D01*
X220326Y33902D01*
X221317Y32420D01*
X222577Y31159D01*
X224060Y30169D01*
X225707Y29487D01*
X227455Y29139D01*
X229238D01*
X230986Y29487D01*
X232633Y30169D01*
X234116Y31159D01*
X235376Y32420D01*
X236367Y33902D01*
X237049Y35549D01*
X237397Y37298D01*
Y39080D01*
X237049Y40829D01*
X236367Y42476D01*
X235376Y43958D01*
X234116Y45219D01*
X232633Y46209D01*
X230986Y46891D01*
X229238Y47239D01*
D02*
G37*
G36*
X154238D02*
X152455D01*
X150707Y46891D01*
X149060Y46209D01*
X147577Y45219D01*
X146317Y43958D01*
X145326Y42476D01*
X144644Y40829D01*
X144297Y39080D01*
Y37298D01*
X144644Y35549D01*
X145326Y33902D01*
X146317Y32420D01*
X147577Y31159D01*
X149060Y30169D01*
X150707Y29487D01*
X152455Y29139D01*
X154238D01*
X155986Y29487D01*
X157633Y30169D01*
X159116Y31159D01*
X160376Y32420D01*
X161366Y33902D01*
X162049Y35549D01*
X162397Y37298D01*
Y39080D01*
X162049Y40829D01*
X161366Y42476D01*
X160376Y43958D01*
X159116Y45219D01*
X157633Y46209D01*
X155986Y46891D01*
X154238Y47239D01*
D02*
G37*
G36*
X357230Y27575D02*
X355368D01*
X353530Y27284D01*
X351759Y26708D01*
X350101Y25863D01*
X348595Y24769D01*
X347278Y23453D01*
X346184Y21947D01*
X345339Y20288D01*
X344764Y18518D01*
X344472Y16679D01*
Y14817D01*
X344764Y12979D01*
X345339Y11208D01*
X346184Y9550D01*
X347278Y8043D01*
X348595Y6727D01*
X350101Y5633D01*
X351759Y4788D01*
X353530Y4213D01*
X355368Y3921D01*
X357230D01*
X359069Y4213D01*
X360839Y4788D01*
X362498Y5633D01*
X364004Y6727D01*
X365320Y8043D01*
X366414Y9550D01*
X367260Y11208D01*
X367835Y12979D01*
X368126Y14817D01*
Y16679D01*
X367835Y18518D01*
X367260Y20288D01*
X366414Y21947D01*
X365320Y23453D01*
X364004Y24769D01*
X362498Y25863D01*
X360839Y26708D01*
X359069Y27284D01*
X357230Y27575D01*
D02*
G37*
G36*
X16679D02*
X14817D01*
X12979Y27284D01*
X11208Y26708D01*
X9550Y25863D01*
X8043Y24769D01*
X6727Y23453D01*
X5633Y21947D01*
X4788Y20288D01*
X4213Y18518D01*
X3921Y16679D01*
Y14817D01*
X4213Y12979D01*
X4788Y11208D01*
X5633Y9550D01*
X6727Y8043D01*
X8043Y6727D01*
X9550Y5633D01*
X11208Y4788D01*
X12979Y4213D01*
X14817Y3921D01*
X16679D01*
X18518Y4213D01*
X20288Y4788D01*
X21947Y5633D01*
X23453Y6727D01*
X24769Y8043D01*
X25863Y9550D01*
X26708Y11208D01*
X27284Y12979D01*
X27575Y14817D01*
Y16679D01*
X27284Y18518D01*
X26708Y20288D01*
X25863Y21947D01*
X24769Y23453D01*
X23453Y24769D01*
X21947Y25863D01*
X20288Y26708D01*
X18518Y27284D01*
X16679Y27575D01*
D02*
G37*
%LPD*%
G36*
X57329Y310749D02*
Y298084D01*
X56329Y297506D01*
X56039Y297674D01*
X54983Y297957D01*
X54937D01*
Y293807D01*
Y289657D01*
X54983D01*
X56039Y289940D01*
X56329Y290108D01*
X57329Y289530D01*
Y277772D01*
X55299D01*
Y274410D01*
X54544D01*
Y277772D01*
X53525D01*
X52747Y278550D01*
X52969Y279375D01*
Y280468D01*
X52686Y281523D01*
X52139Y282469D01*
X51367Y283242D01*
X50421Y283788D01*
X49365Y284071D01*
X48635D01*
Y285614D01*
X49819D01*
Y291507D01*
X50819Y291775D01*
X51117Y291259D01*
X51889Y290487D01*
X52835Y289940D01*
X53891Y289657D01*
X53937D01*
Y293807D01*
Y297957D01*
X53891D01*
X52835Y297674D01*
X51889Y297128D01*
X51117Y296355D01*
X50819Y295840D01*
X49819Y296108D01*
Y298638D01*
X48380D01*
Y303107D01*
X56405Y311132D01*
X57329Y310749D01*
D02*
G37*
G36*
X75284Y271047D02*
X75627Y271047D01*
X75871Y270982D01*
X76312Y270811D01*
X76432Y270724D01*
X76520Y270603D01*
X76691Y270162D01*
X76756Y269918D01*
X76756Y269625D01*
Y267307D01*
X79349D01*
X79435Y267249D01*
X80118Y267113D01*
Y266551D01*
X76756D01*
Y265339D01*
Y261402D01*
Y257465D01*
Y253528D01*
Y249591D01*
X76756Y246537D01*
X76756Y246223D01*
X76691Y245979D01*
X76520Y245538D01*
X76432Y245418D01*
X76312Y245331D01*
X75871Y245160D01*
X75627Y245094D01*
X75334Y245094D01*
X67110D01*
Y242518D01*
X67021Y242384D01*
X66891Y241732D01*
X66355D01*
Y245094D01*
X52262D01*
X51932Y245094D01*
X51688Y245160D01*
X51247Y245331D01*
X51127Y245418D01*
X51039Y245538D01*
X50868Y245979D01*
X50803Y246223D01*
X50803Y246537D01*
Y248835D01*
X48217D01*
X48111Y248905D01*
X47441Y249039D01*
Y249590D01*
X50803D01*
Y251559D01*
Y255496D01*
Y259433D01*
Y263370D01*
Y267457D01*
X50923Y267625D01*
X51803Y268189D01*
X51968Y268156D01*
X56304D01*
X56889Y268272D01*
X57385Y268604D01*
X57971Y269189D01*
X58303Y269686D01*
X58419Y270271D01*
Y271047D01*
X75284D01*
D02*
G37*
G36*
X44079Y256647D02*
X41354D01*
Y257594D01*
X32980D01*
Y255118D01*
Y252642D01*
X41354D01*
Y253589D01*
X44079D01*
Y250999D01*
X43099Y250565D01*
X42153Y251111D01*
X41098Y251394D01*
X40005D01*
X38949Y251111D01*
X38003Y250565D01*
X37231Y249792D01*
X36804Y249054D01*
X33884D01*
X33201Y248918D01*
X32622Y248531D01*
X32622Y248531D01*
X25904Y241813D01*
X25517Y241234D01*
X25381Y240551D01*
Y203937D01*
X25517Y203254D01*
X25904Y202675D01*
X33778Y194801D01*
X33778Y194801D01*
X34357Y194414D01*
X35039Y194279D01*
X35039Y194279D01*
X52804D01*
X60224Y186859D01*
Y169504D01*
X58843D01*
Y169504D01*
X58480D01*
Y169504D01*
X52150D01*
Y169504D01*
X51213Y169656D01*
Y170504D01*
X43276D01*
Y168065D01*
X40943D01*
X40942Y168067D01*
X40420Y168972D01*
X39681Y169711D01*
X38776Y170234D01*
X37767Y170504D01*
X36722D01*
X35712Y170234D01*
X34807Y169711D01*
X34069Y168972D01*
X33546Y168067D01*
X33276Y167058D01*
Y166013D01*
X33546Y165004D01*
X33929Y164340D01*
X33643Y163607D01*
X33413Y163340D01*
X31736D01*
X23183Y171893D01*
Y245277D01*
X24183Y245855D01*
X24383Y245740D01*
X25438Y245457D01*
X25484D01*
Y249606D01*
Y253756D01*
X25438D01*
X24969Y253630D01*
X23935Y254219D01*
X23868Y254331D01*
X23816Y254724D01*
X30555Y261463D01*
X44079D01*
Y256647D01*
D02*
G37*
G36*
X14219Y245312D02*
Y156693D01*
X14335Y156108D01*
X14667Y155612D01*
X19785Y150493D01*
X20281Y150162D01*
X20866Y150045D01*
X33728D01*
X34142Y149045D01*
X34069Y148972D01*
X33546Y148067D01*
X33276Y147058D01*
Y147035D01*
X37244D01*
X41213D01*
Y147058D01*
X40942Y148067D01*
X40789Y148333D01*
X41296Y149454D01*
X41625Y149519D01*
X43447Y147697D01*
X43276Y147058D01*
Y146013D01*
X43546Y145004D01*
X44069Y144099D01*
X44807Y143360D01*
X45712Y142837D01*
X46722Y142567D01*
X47767D01*
X48776Y142837D01*
X49681Y143360D01*
X50420Y144099D01*
X50942Y145004D01*
X51213Y146013D01*
Y147058D01*
X50942Y148067D01*
X50420Y148972D01*
X49681Y149711D01*
X48776Y150233D01*
X47767Y150504D01*
X46722D01*
X45712Y150233D01*
X45411Y150059D01*
X42814Y152656D01*
X42318Y152988D01*
X41732Y153104D01*
X40839D01*
X40420Y154099D01*
X40942Y155004D01*
X41213Y156013D01*
Y156035D01*
X37244D01*
X33276D01*
Y156013D01*
X33546Y155004D01*
X34069Y154099D01*
X33649Y153104D01*
X21500D01*
X17277Y157326D01*
Y160469D01*
X18277Y160922D01*
X18319Y160886D01*
X18291Y160783D01*
Y159690D01*
X18574Y158634D01*
X19120Y157688D01*
X19893Y156916D01*
X20839Y156369D01*
X21895Y156087D01*
X22987D01*
X24043Y156369D01*
X24989Y156916D01*
X25762Y157688D01*
X26308Y158634D01*
X26590Y159690D01*
Y160783D01*
X26308Y161838D01*
X25762Y162784D01*
X24989Y163557D01*
X24043Y164103D01*
X22987Y164386D01*
X21895D01*
X20839Y164103D01*
X20525Y163921D01*
X19640Y164807D01*
Y169774D01*
X20353Y170083D01*
X20640Y170111D01*
X30021Y160730D01*
X30517Y160398D01*
X31102Y160282D01*
X33964D01*
X34378Y159282D01*
X34069Y158972D01*
X33546Y158067D01*
X33276Y157058D01*
Y157035D01*
X37244D01*
X41213D01*
Y157058D01*
X40942Y158067D01*
X40420Y158972D01*
X40248Y159144D01*
X40612Y160074D01*
X41448Y160168D01*
X43547Y158069D01*
X43546Y158067D01*
X43276Y157058D01*
Y156013D01*
X43546Y155004D01*
X44069Y154099D01*
X44807Y153360D01*
X45712Y152837D01*
X46722Y152567D01*
X47767D01*
X48776Y152837D01*
X49681Y153360D01*
X50420Y154099D01*
X50942Y155004D01*
X51213Y156013D01*
Y157058D01*
X50942Y158067D01*
X50420Y158972D01*
X49681Y159711D01*
X48776Y160233D01*
X47767Y160504D01*
X46722D01*
X45712Y160233D01*
X45710Y160232D01*
X44299Y161643D01*
X44682Y162567D01*
X51213D01*
Y163415D01*
X52150Y163567D01*
Y163567D01*
X58480D01*
Y163567D01*
X58843D01*
Y163567D01*
X60519D01*
Y139091D01*
X53724D01*
Y138104D01*
X50921D01*
X50420Y138972D01*
X49681Y139711D01*
X48776Y140234D01*
X47767Y140504D01*
X46722D01*
X45712Y140234D01*
X45710Y140232D01*
X43129Y142814D01*
X42632Y143145D01*
X42047Y143262D01*
X40997D01*
X40706Y143683D01*
X40514Y144262D01*
X40942Y145004D01*
X41213Y146013D01*
Y146035D01*
X37244D01*
X33276D01*
Y146013D01*
X33546Y145004D01*
X33974Y144262D01*
X33782Y143683D01*
X33491Y143262D01*
X19531D01*
X11372Y151421D01*
Y244145D01*
X11444Y244165D01*
X12390Y244711D01*
X13163Y245484D01*
X13219Y245580D01*
X14219Y245312D01*
D02*
G37*
G36*
X8241Y244165D02*
X8313Y244145D01*
Y150787D01*
X8430Y150202D01*
X8761Y149706D01*
X17816Y140651D01*
X18312Y140319D01*
X18898Y140203D01*
X33885D01*
X34299Y139203D01*
X34069Y138972D01*
X33546Y138067D01*
X33276Y137058D01*
Y137035D01*
X37244D01*
X41213D01*
Y137058D01*
X40942Y138067D01*
X40420Y138972D01*
X40327Y139065D01*
X40691Y139995D01*
X41527Y140090D01*
X43547Y138069D01*
X43546Y138067D01*
X43276Y137058D01*
Y136013D01*
X43546Y135004D01*
X44069Y134099D01*
X44807Y133360D01*
X45712Y132837D01*
X46722Y132567D01*
X47767D01*
X48776Y132837D01*
X49681Y133360D01*
X50420Y134099D01*
X50942Y135004D01*
X50953Y135045D01*
X53724D01*
Y134138D01*
X60913D01*
Y129248D01*
X53921D01*
Y128183D01*
X50875D01*
X50420Y128972D01*
X49681Y129711D01*
X48776Y130234D01*
X47767Y130504D01*
X46722D01*
X45712Y130234D01*
X45710Y130232D01*
X43365Y132578D01*
X42869Y132909D01*
X42283Y133026D01*
X40761D01*
X40346Y134026D01*
X40420Y134099D01*
X40942Y135004D01*
X41213Y136013D01*
Y136035D01*
X37244D01*
X33276D01*
Y136013D01*
X33546Y135004D01*
X34069Y134099D01*
X34142Y134026D01*
X33728Y133026D01*
X11263D01*
X6449Y137840D01*
Y244143D01*
X6892Y244440D01*
X7449Y244622D01*
X8241Y244165D01*
D02*
G37*
%LPC*%
G36*
X31980Y257594D02*
X29512D01*
Y255618D01*
X31980D01*
Y257594D01*
D02*
G37*
G36*
Y254618D02*
X29512D01*
Y253361D01*
X28532Y252927D01*
X27586Y253473D01*
X26531Y253756D01*
X26484D01*
Y250106D01*
X30134D01*
Y250153D01*
X29851Y251208D01*
X29601Y251642D01*
X30178Y252642D01*
X31980D01*
Y254618D01*
D02*
G37*
G36*
X30134Y249106D02*
X26484D01*
Y245457D01*
X26531D01*
X27586Y245740D01*
X28532Y246286D01*
X29305Y247058D01*
X29851Y248005D01*
X30134Y249060D01*
Y249106D01*
D02*
G37*
G36*
X55664Y155331D02*
X55618D01*
Y151681D01*
X59268D01*
Y151727D01*
X58985Y152783D01*
X58439Y153729D01*
X57666Y154502D01*
X56720Y155048D01*
X55664Y155331D01*
D02*
G37*
G36*
X54618D02*
X54572D01*
X53516Y155048D01*
X52570Y154502D01*
X51798Y153729D01*
X51251Y152783D01*
X50968Y151727D01*
Y151681D01*
X54618D01*
Y155331D01*
D02*
G37*
G36*
X59268Y150681D02*
X55618D01*
Y147031D01*
X55664D01*
X56720Y147314D01*
X57666Y147861D01*
X58439Y148633D01*
X58985Y149579D01*
X59268Y150635D01*
Y150681D01*
D02*
G37*
G36*
X54618D02*
X50968D01*
Y150635D01*
X51251Y149579D01*
X51798Y148633D01*
X52570Y147861D01*
X53516Y147314D01*
X54572Y147031D01*
X54618D01*
Y150681D01*
D02*
G37*
%LPD*%
G36*
X66929Y358849D02*
Y357444D01*
X65551D01*
Y363584D01*
X66929D01*
Y358849D01*
D02*
G37*
G36*
X48130Y358197D02*
Y356791D01*
X46752D01*
Y362931D01*
X48130D01*
Y358197D01*
D02*
G37*
D14*
X24999Y111417D02*
X42362D01*
X22047Y114369D02*
X24999Y111417D01*
X22047Y114369D02*
Y115748D01*
X15748Y156693D02*
X20866Y151575D01*
X15748Y156693D02*
Y255512D01*
X20866Y151575D02*
X41732D01*
X15748Y255512D02*
X27165Y266929D01*
X22047Y160236D02*
X22441D01*
X18110Y164173D02*
X22047Y160236D01*
X18110Y164173D02*
Y254724D01*
X61838Y362013D02*
Y371681D01*
X62205Y372047D01*
X61748Y361923D02*
X61838Y362013D01*
X50027Y371681D02*
X50394Y372047D01*
X50027Y362013D02*
Y371681D01*
X49937Y361923D02*
X50027Y362013D01*
X46850Y303740D02*
X58858Y315748D01*
X46850Y295472D02*
Y303740D01*
X58858Y315748D02*
Y327425D01*
X63169Y331735D01*
X58858Y274409D02*
Y315748D01*
X60827Y307347D02*
X85216Y331735D01*
X60827Y274409D02*
Y307347D01*
X79944Y346850D02*
X85216Y341578D01*
X64961Y346850D02*
X79944D01*
X59779Y352032D02*
X64961Y346850D01*
X59779Y352032D02*
Y361923D01*
X55842Y348904D02*
Y358465D01*
Y348904D02*
X63169Y341578D01*
X55842Y358465D02*
X57134D01*
X67716Y298031D02*
Y300000D01*
Y298031D02*
X70866Y294882D01*
X56102Y278150D02*
Y279134D01*
X54921Y276969D02*
X56102Y278150D01*
X80118Y266929D02*
X83071D01*
X84646Y265354D01*
X75197Y246654D02*
X77874Y243976D01*
X75094Y269385D02*
X77771Y272062D01*
X73819Y246654D02*
X75197D01*
X54921Y274409D02*
Y276969D01*
X49700Y243991D02*
X52377Y246669D01*
X44819Y361923D02*
X44882Y361860D01*
X57134Y358465D02*
X57811Y359141D01*
X53874D02*
X54550Y358465D01*
X55842D01*
X53874Y359141D02*
Y361923D01*
X57811Y359141D02*
Y361923D01*
X47378D02*
X47441Y361860D01*
Y354035D02*
Y361860D01*
X47378Y361923D02*
X47968D01*
X56693Y366142D02*
X59055D01*
X59779Y365418D01*
Y361923D02*
Y365418D01*
X55905Y365354D02*
X56693Y366142D01*
X55905Y361986D02*
Y365354D01*
X55842Y361923D02*
X55905Y361986D01*
X18898Y141732D02*
X42047D01*
X47244Y136535D01*
X9843Y150787D02*
X18898Y141732D01*
X42362Y111417D02*
X47244Y106535D01*
X9843Y150787D02*
Y248031D01*
X4919Y137207D02*
X10630Y131496D01*
X42283D01*
X47244Y126535D01*
X41732Y151575D02*
X46772Y146535D01*
X47244D01*
X21654Y171260D02*
Y254724D01*
Y171260D02*
X31102Y161811D01*
X41969D01*
X47244Y156535D01*
X4919Y137207D02*
Y249801D01*
X24016Y268898D01*
X18110Y254724D02*
X28346Y264961D01*
X92126Y231102D02*
X96063Y227165D01*
Y110236D02*
Y227165D01*
X82362Y96535D02*
X96063Y110236D01*
X47244Y96535D02*
X82362D01*
X56417Y106614D02*
X56496Y106693D01*
X47323Y106614D02*
X56417D01*
X47244Y106535D02*
X47323Y106614D01*
X47244Y116535D02*
X56890D01*
X56772Y126654D02*
X56890Y126772D01*
X47362Y126654D02*
X56772D01*
X47244Y126535D02*
X47362Y126654D01*
X56653Y136575D02*
X56693Y136614D01*
X47284Y136575D02*
X56653D01*
X47244Y136535D02*
X47284Y136575D01*
X37244Y166535D02*
X47244D01*
X55315D01*
X47244Y76535D02*
X47323Y76457D01*
X57205D01*
X57284Y76378D01*
X47244Y86535D02*
X47284Y86575D01*
X57244D01*
X57284Y86614D01*
X47441Y268898D02*
X47441Y268898D01*
X24016Y268898D02*
X47441D01*
X29921Y262992D02*
X47441D01*
X21654Y254724D02*
X29921Y262992D01*
X27165Y266929D02*
X47441D01*
X46787Y361923D02*
X47378D01*
X100394Y23622D02*
Y238583D01*
X80118Y247244D02*
X91732D01*
X100394Y238583D01*
X105315Y95472D02*
Y237992D01*
X80118Y249213D02*
X94095D01*
X105315Y237992D01*
X96063Y251181D02*
X110236Y237008D01*
X80118Y251181D02*
X96063D01*
X110236Y161417D02*
Y237008D01*
X159248Y301181D02*
X234429D01*
X307087D01*
X113386Y269685D02*
Y292126D01*
X122441Y301181D02*
X159248D01*
X98819Y255118D02*
X113386Y269685D01*
Y292126D02*
X122441Y301181D01*
X80118Y255118D02*
X98819D01*
X108465Y351843D02*
X118518Y361896D01*
X108465Y311614D02*
Y351843D01*
X104921Y312008D02*
Y359646D01*
X119783Y374508D01*
X187303D01*
X101206Y312624D02*
Y363017D01*
X120079Y381890D02*
X256299D01*
X101206Y363017D02*
X120079Y381890D01*
X72638Y279724D02*
X104921Y312008D01*
X72638Y274409D02*
Y279724D01*
X74606Y277756D02*
X108465Y311614D01*
X74606Y274409D02*
Y277756D01*
X70669Y274409D02*
Y282087D01*
X101206Y312624D01*
X187303Y374508D02*
X192520Y369291D01*
X121063Y150591D02*
X155512D01*
X110236Y161417D02*
X121063Y150591D01*
X98632Y253150D02*
X125404Y226378D01*
X80118Y253150D02*
X98632D01*
X125404Y226378D02*
X161589D01*
X161831Y226620D01*
X266594Y371557D02*
Y371595D01*
X256299Y381890D02*
X266594Y371595D01*
X125000Y75787D02*
X158465D01*
X105315Y95472D02*
X125000Y75787D01*
X52953Y274409D02*
Y276181D01*
X80118Y268898D02*
X80118Y268898D01*
X48819Y279921D02*
X49213D01*
X52953Y276181D01*
X42456Y247269D02*
X42469Y247257D01*
X68669Y241701D02*
X68701Y241732D01*
X47428Y247257D02*
X47441Y247244D01*
X10441Y264961D02*
X18709Y273228D01*
X48425D01*
X51968Y269685D02*
X56304D01*
X48425Y273228D02*
X51968Y269685D01*
X70898Y227134D02*
X71653Y226378D01*
X70898Y227134D02*
Y228709D01*
X64764Y238386D02*
X72047Y231102D01*
X62795Y236811D02*
X70898Y228709D01*
X75090Y213214D02*
X80744D01*
X71653Y216651D02*
X75090Y213214D01*
X71653Y216651D02*
Y226378D01*
X72047Y231102D02*
X92126D01*
X43342Y213214D02*
X49713D01*
X53150Y216651D01*
X52953Y237992D02*
Y241732D01*
X45866Y236221D02*
X51181D01*
X52953Y237992D01*
X60827Y236463D02*
Y241732D01*
X62795Y236811D02*
Y241732D01*
X64764Y238386D02*
Y241732D01*
X10236Y264961D02*
X10441D01*
X28346Y264961D02*
X47441D01*
X38386Y255118D02*
X47441D01*
X56304Y269685D02*
X56890Y270271D01*
Y274409D01*
X53669Y225984D02*
Y229305D01*
X53150Y216651D02*
Y225984D01*
X53669Y229305D02*
X60827Y236463D01*
X38386Y255118D02*
X38386Y255118D01*
X233609Y227092D02*
X234623Y228106D01*
X231707Y227092D02*
X233609D01*
X161831Y226772D02*
X231387D01*
X231707Y227092D01*
X234623Y227362D02*
X308071D01*
X155512Y150591D02*
X235236D01*
X311024D01*
X158465Y75787D02*
X234252D01*
X311725D01*
X312709Y76772D02*
X312992D01*
X311725Y75787D02*
X312709Y76772D01*
D15*
X47008Y225984D02*
D03*
X77795Y226378D02*
D03*
X71653D02*
D03*
X53150Y225984D02*
D03*
D16*
X39173Y236221D02*
D03*
X55315Y166535D02*
D03*
X62008D02*
D03*
X45866Y236221D02*
D03*
D17*
X47441Y249213D02*
D03*
X80118Y266929D02*
D03*
X47441Y255118D02*
D03*
X80118Y268898D02*
D03*
X47441Y247244D02*
D03*
X80118Y253150D02*
D03*
Y255118D02*
D03*
Y257087D02*
D03*
Y259055D02*
D03*
Y264961D02*
D03*
Y262992D02*
D03*
Y261024D02*
D03*
X47441Y251181D02*
D03*
Y253150D02*
D03*
Y257087D02*
D03*
Y259055D02*
D03*
Y268898D02*
D03*
Y266929D02*
D03*
Y264961D02*
D03*
Y262992D02*
D03*
Y261024D02*
D03*
X80118Y251181D02*
D03*
Y247244D02*
D03*
Y249213D02*
D03*
D18*
X66732Y241732D02*
D03*
X54921Y274409D02*
D03*
X52953D02*
D03*
X68701Y241732D02*
D03*
X52953D02*
D03*
X54921D02*
D03*
X56890D02*
D03*
X58858D02*
D03*
X64764D02*
D03*
X70669D02*
D03*
X72638D02*
D03*
X74606D02*
D03*
Y274409D02*
D03*
X72638D02*
D03*
X70669D02*
D03*
X68701D02*
D03*
X66732D02*
D03*
X64764D02*
D03*
X62795D02*
D03*
X60827D02*
D03*
X58858D02*
D03*
X56890D02*
D03*
X60827Y241732D02*
D03*
X62795D02*
D03*
D19*
X70016Y361923D02*
D03*
X43638D02*
D03*
X44819D02*
D03*
X68835D02*
D03*
X49937D02*
D03*
X61748D02*
D03*
X65685D02*
D03*
X63716D02*
D03*
X59779D02*
D03*
X53874D02*
D03*
X47968D02*
D03*
X46787D02*
D03*
X51905D02*
D03*
X55842D02*
D03*
X57811D02*
D03*
X66866D02*
D03*
D20*
X76945Y379659D02*
D03*
X36709D02*
D03*
X76945Y364187D02*
D03*
X36709D02*
D03*
D21*
X46850Y295472D02*
D03*
Y288779D02*
D03*
D38*
X32480Y255118D02*
D03*
X62795Y116535D02*
D03*
X63189Y86614D02*
D03*
Y76378D02*
D03*
X57284D02*
D03*
Y86614D02*
D03*
X56496Y106693D02*
D03*
X62402D02*
D03*
X56890Y116535D02*
D03*
X62795Y126772D02*
D03*
X56890D02*
D03*
X56693Y136614D02*
D03*
X62598D02*
D03*
X38386Y255118D02*
D03*
D39*
X80744Y213214D02*
D03*
X43342D02*
D03*
D40*
X66142Y359547D02*
X66240Y359646D01*
X66142Y353937D02*
Y359547D01*
X46850Y283188D02*
Y288779D01*
Y283188D02*
X48819Y281220D01*
Y279921D02*
Y281220D01*
X64014Y125553D02*
X72835Y116732D01*
X62402Y106693D02*
X71260D01*
X72835Y108268D01*
X63287Y126772D02*
X64014Y126045D01*
X72835Y108268D02*
Y116732D01*
X62795Y126772D02*
X63287D01*
X64014Y125553D02*
Y126045D01*
X62697Y126870D02*
X62795Y126772D01*
X27165Y203937D02*
X35039Y196063D01*
X53543D01*
X62008Y187598D01*
Y166535D02*
Y187598D01*
X27165Y203937D02*
Y240551D01*
X62697Y126870D02*
Y136516D01*
X62598Y136614D02*
X62697Y136516D01*
X62303Y136909D02*
X62598Y136614D01*
X62303Y136909D02*
Y166240D01*
X62008Y166535D02*
X62303Y166240D01*
X80118Y268898D02*
X88189D01*
X69548Y237795D02*
X84646D01*
X68669Y238674D02*
X69548Y237795D01*
X42469Y247257D02*
X47428D01*
X68669Y238674D02*
Y241701D01*
X33884Y247269D02*
X42456D01*
X27165Y240551D02*
X33884Y247269D01*
D41*
X37244Y76535D02*
D03*
Y86535D02*
D03*
Y96535D02*
D03*
Y126535D02*
D03*
Y116535D02*
D03*
Y106535D02*
D03*
Y156535D02*
D03*
Y146535D02*
D03*
Y136535D02*
D03*
X47244D02*
D03*
Y146535D02*
D03*
Y156535D02*
D03*
X37244Y166535D02*
D03*
X47244Y106535D02*
D03*
Y116535D02*
D03*
Y126535D02*
D03*
Y96535D02*
D03*
Y86535D02*
D03*
Y76535D02*
D03*
D42*
Y166535D02*
D03*
D43*
X45449Y366155D02*
D03*
X68204D02*
D03*
D44*
X15748Y370079D02*
D03*
X356299D02*
D03*
Y15748D02*
D03*
X15748D02*
D03*
D45*
X153347Y338189D02*
D03*
X228346D02*
D03*
X303346D02*
D03*
X153347Y263189D02*
D03*
X228346D02*
D03*
X303346D02*
D03*
X153347Y188189D02*
D03*
X228346D02*
D03*
X303346D02*
D03*
X153347Y113189D02*
D03*
X228346D02*
D03*
X303346D02*
D03*
X153347Y38189D02*
D03*
X228346D02*
D03*
X303346D02*
D03*
D46*
X313484Y358937D02*
D03*
X288484Y348937D02*
D03*
X238484Y208937D02*
D03*
X213484Y198937D02*
D03*
X163484Y283543D02*
D03*
X138484Y273543D02*
D03*
X238299Y133480D02*
D03*
X213299Y123480D02*
D03*
X238090Y283937D02*
D03*
X213090Y273937D02*
D03*
X313583Y283425D02*
D03*
X288583Y273425D02*
D03*
X163583Y58740D02*
D03*
X138583Y48740D02*
D03*
X163386Y358425D02*
D03*
X138386Y348425D02*
D03*
X163091Y208543D02*
D03*
X138091Y198543D02*
D03*
X238189Y58543D02*
D03*
X213189Y48543D02*
D03*
X163484Y133740D02*
D03*
X138484Y123740D02*
D03*
X313484Y133543D02*
D03*
X288484Y123543D02*
D03*
X312992Y208425D02*
D03*
X287992Y198425D02*
D03*
X238091Y358937D02*
D03*
X213091Y348937D02*
D03*
X313484Y58740D02*
D03*
X288484Y48740D02*
D03*
D47*
X22047Y115748D02*
D03*
X22441Y160236D02*
D03*
X85433Y150000D02*
D03*
X55118Y151181D02*
D03*
X62205Y372047D02*
D03*
X50394D02*
D03*
X80709Y309842D02*
D03*
X54437Y293807D02*
D03*
X17035Y76272D02*
D03*
X85433Y195276D02*
D03*
X98032Y287795D02*
D03*
X18898Y285039D02*
D03*
X25984Y249606D02*
D03*
X18504Y313779D02*
D03*
X63169Y341578D02*
D03*
X85216D02*
D03*
Y331735D02*
D03*
X63169D02*
D03*
X66142Y353937D02*
D03*
X47441Y354035D02*
D03*
X100394Y23622D02*
D03*
X48819Y279921D02*
D03*
X88189Y268898D02*
D03*
X84646Y237795D02*
D03*
X40551Y247244D02*
D03*
X9843Y248031D02*
D03*
X10236Y264961D02*
D03*
X92126Y231102D02*
D03*
X118518Y361896D02*
D03*
X312851Y76772D02*
D03*
X234252Y75787D02*
D03*
X158465D02*
D03*
X155512Y150591D02*
D03*
X235850Y150276D02*
D03*
X310644Y150212D02*
D03*
X308383Y227137D02*
D03*
X234623Y228106D02*
D03*
X161831Y226620D02*
D03*
X159248Y301091D02*
D03*
X234429Y301091D02*
D03*
X307673Y300962D02*
D03*
X266594Y371557D02*
D03*
X192520Y369291D02*
D03*
M02*
