G04*
G04 #@! TF.GenerationSoftware,Altium Limited,Altium Designer,26.1.1 (7)*
G04*
G04 Layer_Color=8421504*
%FSLAX25Y25*%
%MOIN*%
G70*
G04*
G04 #@! TF.SameCoordinates,DDB61D4A-7B62-475A-B33E-85BEADE60F6A*
G04*
G04*
G04 #@! TF.FilePolarity,Positive*
G04*
G01*
G75*
G04:AMPARAMS|DCode=15|XSize=34.25mil|YSize=36.61mil|CornerRadius=4.28mil|HoleSize=0mil|Usage=FLASHONLY|Rotation=0.000|XOffset=0mil|YOffset=0mil|HoleType=Round|Shape=RoundedRectangle|*
%AMROUNDEDRECTD15*
21,1,0.03425,0.02805,0,0,0.0*
21,1,0.02569,0.03661,0,0,0.0*
1,1,0.00856,0.01284,-0.01403*
1,1,0.00856,-0.01284,-0.01403*
1,1,0.00856,-0.01284,0.01403*
1,1,0.00856,0.01284,0.01403*
%
%ADD15ROUNDEDRECTD15*%
%ADD16R,0.04331X0.03937*%
%ADD17R,0.04724X0.01181*%
%ADD18R,0.01181X0.04724*%
%ADD19R,0.01181X0.04528*%
%ADD20R,0.08583X0.07874*%
%ADD21R,0.03937X0.04331*%
G36*
X59252Y77854D02*
Y74902D01*
X55315D01*
Y77854D01*
X59252D01*
D02*
G37*
G36*
X65158D02*
Y74902D01*
X61221D01*
Y77854D01*
X65158D01*
D02*
G37*
G36*
X59252Y88090D02*
Y85138D01*
X55315D01*
Y88090D01*
X59252D01*
D02*
G37*
G36*
X65158D02*
Y85138D01*
X61221D01*
Y88090D01*
X65158D01*
D02*
G37*
G36*
X54528Y105217D02*
Y108169D01*
X58465D01*
Y105217D01*
X54528D01*
D02*
G37*
G36*
X60433D02*
Y108169D01*
X64370D01*
Y105217D01*
X60433D01*
D02*
G37*
G36*
X58858Y118012D02*
Y115059D01*
X54921D01*
Y118012D01*
X58858D01*
D02*
G37*
G36*
X64764D02*
Y115059D01*
X60827D01*
Y118012D01*
X64764D01*
D02*
G37*
G36*
X54921Y125295D02*
Y128248D01*
X58858D01*
Y125295D01*
X54921D01*
D02*
G37*
G36*
X60827D02*
Y128248D01*
X64764D01*
Y125295D01*
X60827D01*
D02*
G37*
G36*
X54724Y135138D02*
Y138091D01*
X58661D01*
Y135138D01*
X54724D01*
D02*
G37*
G36*
X60630D02*
Y138091D01*
X64567D01*
Y135138D01*
X60630D01*
D02*
G37*
G36*
X34449Y256594D02*
Y253642D01*
X30512D01*
Y256594D01*
X34449D01*
D02*
G37*
G36*
X40354D02*
Y253642D01*
X36417D01*
Y256594D01*
X40354D01*
D02*
G37*
G36*
X32516Y209277D02*
Y217151D01*
X54169D01*
Y209277D01*
X32516D01*
D02*
G37*
G36*
X69917D02*
Y217151D01*
X91571D01*
Y209277D01*
X69917D01*
D02*
G37*
D15*
X47008Y225984D02*
D03*
X77795Y226378D02*
D03*
X71653D02*
D03*
X53150Y225984D02*
D03*
D16*
X39173Y236221D02*
D03*
X55315Y166535D02*
D03*
X62008D02*
D03*
X45866Y236221D02*
D03*
D17*
X47441Y249213D02*
D03*
X80118Y266929D02*
D03*
X47441Y255118D02*
D03*
X80118Y268898D02*
D03*
X47441Y247244D02*
D03*
X80118Y253150D02*
D03*
Y255118D02*
D03*
Y257087D02*
D03*
Y259055D02*
D03*
Y264961D02*
D03*
Y262992D02*
D03*
Y261024D02*
D03*
X47441Y251181D02*
D03*
Y253150D02*
D03*
Y257087D02*
D03*
Y259055D02*
D03*
Y268898D02*
D03*
Y266929D02*
D03*
Y264961D02*
D03*
Y262992D02*
D03*
Y261024D02*
D03*
X80118Y251181D02*
D03*
Y247244D02*
D03*
Y249213D02*
D03*
D18*
X66732Y241732D02*
D03*
X54921Y274409D02*
D03*
X52953D02*
D03*
X68701Y241732D02*
D03*
X52953D02*
D03*
X54921D02*
D03*
X56890D02*
D03*
X58858D02*
D03*
X64764D02*
D03*
X70669D02*
D03*
X72638D02*
D03*
X74606D02*
D03*
Y274409D02*
D03*
X72638D02*
D03*
X70669D02*
D03*
X68701D02*
D03*
X66732D02*
D03*
X64764D02*
D03*
X62795D02*
D03*
X60827D02*
D03*
X58858D02*
D03*
X56890D02*
D03*
X60827Y241732D02*
D03*
X62795D02*
D03*
D19*
X70016Y361923D02*
D03*
X43638D02*
D03*
X44819D02*
D03*
X68835D02*
D03*
X49937D02*
D03*
X61748D02*
D03*
X65685D02*
D03*
X63716D02*
D03*
X59779D02*
D03*
X53874D02*
D03*
X47968D02*
D03*
X46787D02*
D03*
X51905D02*
D03*
X55842D02*
D03*
X57811D02*
D03*
X66866D02*
D03*
D20*
X76945Y379659D02*
D03*
X36709D02*
D03*
X76945Y364187D02*
D03*
X36709D02*
D03*
D21*
X46850Y295472D02*
D03*
Y288779D02*
D03*
M02*
