G04*
G04 #@! TF.GenerationSoftware,Altium Limited,Altium Designer,25.8.1 (18)*
G04*
G04 Layer_Physical_Order=1*
G04 Layer_Color=255*
%FSLAX25Y25*%
%MOIN*%
G70*
G04*
G04 #@! TF.SameCoordinates,34421379-5E54-4FD2-9159-38C30053C8C8*
G04*
G04*
G04 #@! TF.FilePolarity,Positive*
G04*
G01*
G75*
%ADD11C,0.01000*%
G04:AMPARAMS|DCode=16|XSize=34.25mil|YSize=36.61mil|CornerRadius=4.28mil|HoleSize=0mil|Usage=FLASHONLY|Rotation=180.000|XOffset=0mil|YOffset=0mil|HoleType=Round|Shape=RoundedRectangle|*
%AMROUNDEDRECTD16*
21,1,0.03425,0.02805,0,0,180.0*
21,1,0.02569,0.03661,0,0,180.0*
1,1,0.00856,-0.01284,0.01403*
1,1,0.00856,0.01284,0.01403*
1,1,0.00856,0.01284,-0.01403*
1,1,0.00856,-0.01284,-0.01403*
%
%ADD16ROUNDEDRECTD16*%
%ADD17R,0.01870X0.01968*%
G04:AMPARAMS|DCode=18|XSize=21.26mil|YSize=23.62mil|CornerRadius=2.66mil|HoleSize=0mil|Usage=FLASHONLY|Rotation=90.000|XOffset=0mil|YOffset=0mil|HoleType=Round|Shape=RoundedRectangle|*
%AMROUNDEDRECTD18*
21,1,0.02126,0.01831,0,0,90.0*
21,1,0.01595,0.02362,0,0,90.0*
1,1,0.00532,0.00915,0.00797*
1,1,0.00532,0.00915,-0.00797*
1,1,0.00532,-0.00915,-0.00797*
1,1,0.00532,-0.00915,0.00797*
%
%ADD18ROUNDEDRECTD18*%
%ADD19R,0.04331X0.03937*%
%ADD20R,0.01181X0.04724*%
%ADD21R,0.04724X0.01181*%
%ADD22R,0.02362X0.04724*%
%ADD23R,0.01181X0.04528*%
%ADD24R,0.08583X0.07874*%
%ADD44R,0.03937X0.02953*%
%ADD45R,0.21654X0.07874*%
%ADD46C,0.01500*%
%ADD47C,0.05937*%
%ADD48C,0.01280*%
%ADD49C,0.21654*%
%ADD50R,0.05937X0.05937*%
%ADD51C,0.08051*%
%ADD52C,0.11811*%
%ADD53C,0.02362*%
%ADD54C,0.01575*%
G36*
X201693Y407480D02*
X202185D01*
X203151Y407288D01*
X204061Y406911D01*
X204880Y406364D01*
X205577Y405668D01*
X206124Y404849D01*
X206501Y403939D01*
X206693Y402973D01*
Y402480D01*
X206693D01*
Y390827D01*
X206717Y390337D01*
X206908Y389375D01*
X207283Y388470D01*
X207828Y387655D01*
X208521Y386962D01*
X209336Y386417D01*
X210242Y386042D01*
X211203Y385851D01*
X211693Y385827D01*
X487126Y385827D01*
X487618D01*
X488584Y385635D01*
X489494Y385258D01*
X490313Y384711D01*
X491010Y384014D01*
X491557Y383195D01*
X491934Y382285D01*
X492126Y381319D01*
Y380827D01*
X492126D01*
Y3032D01*
Y2733D01*
X492009Y2147D01*
X491781Y1595D01*
X491449Y1099D01*
X491027Y677D01*
X490530Y345D01*
X489979Y117D01*
X489393Y0D01*
X437208D01*
X437009Y1000D01*
X437259Y1104D01*
X437873Y1717D01*
X438205Y2519D01*
Y3387D01*
X437873Y4188D01*
X437259Y4802D01*
X436457Y5134D01*
X435590D01*
X434788Y4802D01*
X434469Y4482D01*
X351949D01*
X351629Y4802D01*
X350828Y5134D01*
X349960D01*
X349158Y4802D01*
X348838Y4482D01*
X279114D01*
X278795Y4802D01*
X277993Y5134D01*
X277125D01*
X276324Y4802D01*
X276004Y4482D01*
X241775D01*
X222002Y24256D01*
Y256890D01*
X221885Y257475D01*
X221554Y257971D01*
X209511Y270014D01*
X209840Y271099D01*
X209978Y271127D01*
X223864Y257241D01*
Y95472D01*
X223981Y94887D01*
X224312Y94391D01*
X243997Y74706D01*
X244494Y74374D01*
X245079Y74258D01*
X276988D01*
X277308Y73938D01*
X278110Y73606D01*
X278977D01*
X279779Y73938D01*
X280099Y74258D01*
X352776D01*
X353095Y73938D01*
X353897Y73606D01*
X354765D01*
X355566Y73938D01*
X355886Y74258D01*
X431804D01*
X432389Y74374D01*
X432713Y74590D01*
X433505D01*
X434306Y74923D01*
X434920Y75536D01*
X435252Y76338D01*
Y77205D01*
X434920Y78007D01*
X434306Y78621D01*
X433505Y78953D01*
X432637D01*
X431835Y78621D01*
X431222Y78007D01*
X430936Y77317D01*
X355886D01*
X355566Y77636D01*
X354765Y77969D01*
X353897D01*
X353095Y77636D01*
X352776Y77317D01*
X280099D01*
X279779Y77636D01*
X278977Y77969D01*
X278110D01*
X277308Y77636D01*
X276988Y77317D01*
X245712D01*
X226923Y96106D01*
Y257874D01*
X226807Y258459D01*
X226475Y258956D01*
X212687Y272744D01*
X213070Y273668D01*
X215311D01*
X228786Y260193D01*
Y161417D01*
X228902Y160832D01*
X229234Y160336D01*
X240060Y149509D01*
X240556Y149178D01*
X241142Y149061D01*
X274035D01*
X274355Y148741D01*
X275157Y148409D01*
X276024D01*
X276826Y148741D01*
X277146Y149061D01*
X353760D01*
X354080Y148741D01*
X354881Y148409D01*
X355749D01*
X356551Y148741D01*
X356870Y149061D01*
X429547D01*
X429867Y148741D01*
X430668Y148409D01*
X431536D01*
X432338Y148741D01*
X432951Y149355D01*
X433284Y150157D01*
Y151024D01*
X432951Y151826D01*
X432338Y152440D01*
X431536Y152772D01*
X430668D01*
X429867Y152440D01*
X429547Y152120D01*
X356870D01*
X356551Y152440D01*
X355749Y152772D01*
X354881D01*
X354080Y152440D01*
X353760Y152120D01*
X277146D01*
X276826Y152440D01*
X276024Y152772D01*
X275157D01*
X274355Y152440D01*
X274035Y152120D01*
X241775D01*
X231844Y162051D01*
Y260827D01*
X231728Y261412D01*
X231396Y261908D01*
X218593Y274712D01*
X218975Y275636D01*
X221217D01*
X233707Y263146D01*
Y235236D01*
X233823Y234651D01*
X234155Y234155D01*
X243013Y225296D01*
X243509Y224965D01*
X244094Y224849D01*
X280229D01*
X280814Y224965D01*
X281138Y225181D01*
X281930D01*
X282732Y225513D01*
X283051Y225833D01*
X352776D01*
X353095Y225513D01*
X353897Y225181D01*
X354765D01*
X355566Y225513D01*
X355886Y225833D01*
X426594D01*
X426914Y225513D01*
X427716Y225181D01*
X428583D01*
X429385Y225513D01*
X429999Y226127D01*
X430331Y226928D01*
Y227796D01*
X429999Y228598D01*
X429385Y229211D01*
X428583Y229543D01*
X427716D01*
X426914Y229211D01*
X426594Y228892D01*
X355886D01*
X355566Y229211D01*
X354765Y229543D01*
X353897D01*
X353095Y229211D01*
X352776Y228892D01*
X283051D01*
X282732Y229211D01*
X281930Y229543D01*
X281062D01*
X280261Y229211D01*
X279647Y228598D01*
X279361Y227907D01*
X244728D01*
X236766Y235870D01*
Y263779D01*
X236649Y264365D01*
X236318Y264861D01*
X222932Y278247D01*
X222879Y278787D01*
X243744Y299652D01*
X277972D01*
X278292Y299332D01*
X279094Y299000D01*
X279961D01*
X280763Y299332D01*
X281083Y299652D01*
X352776D01*
X353095Y299332D01*
X353897Y299000D01*
X354765D01*
X355566Y299332D01*
X355886Y299652D01*
X425610D01*
X425930Y299332D01*
X426731Y299000D01*
X427599D01*
X428401Y299332D01*
X429014Y299946D01*
X429347Y300747D01*
Y301615D01*
X429014Y302417D01*
X428401Y303030D01*
X427599Y303362D01*
X426731D01*
X425930Y303030D01*
X425610Y302711D01*
X355886D01*
X355566Y303030D01*
X354765Y303362D01*
X353897D01*
X353095Y303030D01*
X352776Y302711D01*
X281083D01*
X280763Y303030D01*
X279961Y303362D01*
X279094D01*
X278292Y303030D01*
X277972Y302711D01*
X243110D01*
X242525Y302594D01*
X242029Y302262D01*
X220429Y280663D01*
X201591D01*
Y285417D01*
Y290074D01*
X202554Y290757D01*
X203422D01*
X204223Y291090D01*
X204837Y291703D01*
X205169Y292505D01*
Y293372D01*
X204837Y294174D01*
X204223Y294788D01*
X203422Y295120D01*
X202554D01*
X201752Y294788D01*
X201675Y294710D01*
X198241D01*
X197558Y294574D01*
X197453Y294504D01*
X195076D01*
X194631Y294828D01*
X194307Y295272D01*
Y301787D01*
X194246D01*
Y315383D01*
X238578Y359715D01*
X239030D01*
X239832Y360048D01*
X240446Y360661D01*
X240778Y361463D01*
Y362330D01*
X240446Y363132D01*
X239832Y363746D01*
X239030Y364078D01*
X238163D01*
X237361Y363746D01*
X236723Y364481D01*
X245220Y372978D01*
X305764D01*
X316224Y362518D01*
Y362066D01*
X316557Y361264D01*
X317170Y360651D01*
X317972Y360319D01*
X318839D01*
X319641Y360651D01*
X320255Y361264D01*
X320587Y362066D01*
Y362934D01*
X320255Y363736D01*
X319641Y364349D01*
X318839Y364681D01*
X318387D01*
X307479Y375589D01*
X306983Y375921D01*
X306398Y376037D01*
X244587D01*
X244001Y375921D01*
X243505Y375589D01*
X191994Y324078D01*
X190909Y324407D01*
X190881Y324545D01*
X246696Y380360D01*
X375351D01*
X392504Y363207D01*
Y362755D01*
X392836Y361953D01*
X393449Y361340D01*
X394251Y361008D01*
X395119D01*
X395920Y361340D01*
X396534Y361953D01*
X396866Y362755D01*
Y363623D01*
X396534Y364424D01*
X395920Y365038D01*
X395119Y365370D01*
X394667D01*
X377066Y382971D01*
X376570Y383303D01*
X375984Y383419D01*
X246063D01*
X245478Y383303D01*
X244982Y382971D01*
X187698Y325688D01*
X187367Y325192D01*
X187250Y324606D01*
Y313312D01*
X186275Y312873D01*
X185539Y313177D01*
Y311024D01*
Y308870D01*
X186275Y309175D01*
X187250Y308736D01*
Y301787D01*
X180466D01*
Y304967D01*
X182581Y307081D01*
X182913Y307577D01*
X183029Y308163D01*
Y308535D01*
X183307Y308765D01*
X184029Y309081D01*
X184539Y308870D01*
Y311024D01*
Y313177D01*
X184029Y312966D01*
X183307Y313282D01*
X183029Y313512D01*
Y315068D01*
X183681D01*
Y321793D01*
X178259D01*
Y318431D01*
Y315068D01*
X179970D01*
Y308796D01*
X178037Y306863D01*
X175524Y309377D01*
Y315068D01*
X177259D01*
Y318431D01*
Y321793D01*
X171838D01*
Y315733D01*
X171807Y315703D01*
X155526D01*
Y316158D01*
X152494D01*
X151655Y316158D01*
X150655Y316158D01*
X147624D01*
Y312189D01*
X147683D01*
Y309836D01*
X147800Y309250D01*
X148131Y308754D01*
X148397Y308488D01*
Y308036D01*
X148729Y307234D01*
X149343Y306621D01*
X150145Y306289D01*
X151012D01*
X151583Y306525D01*
X151917Y306585D01*
X152864Y306257D01*
X152883Y306229D01*
X153355Y305914D01*
X153912Y305803D01*
X154697D01*
Y308661D01*
X155697D01*
Y305803D01*
X156481D01*
X157038Y305914D01*
X157511Y306229D01*
X157721Y306543D01*
X158268Y306631D01*
X158815Y306543D01*
X159025Y306229D01*
X159497Y305914D01*
X160054Y305803D01*
X162623D01*
X163180Y305914D01*
X163653Y306229D01*
X163968Y306702D01*
X164058Y307152D01*
X164544Y307248D01*
X165041Y307580D01*
X166058Y308597D01*
X166510D01*
X167312Y308929D01*
X167925Y309543D01*
X168257Y310345D01*
Y311212D01*
X168079Y311644D01*
X168552Y312548D01*
X168664Y312644D01*
X172441D01*
X172465Y312624D01*
Y308743D01*
X172582Y308158D01*
X172913Y307662D01*
X175439Y305136D01*
Y301787D01*
X173621D01*
X173181Y302446D01*
Y303313D01*
X172849Y304115D01*
X172235Y304729D01*
X171434Y305061D01*
X170566D01*
X169764Y304729D01*
X169151Y304115D01*
X168819Y303313D01*
Y302446D01*
X169151Y301644D01*
X169247Y301548D01*
Y298457D01*
X169333Y298023D01*
X168480Y297462D01*
X167617Y298325D01*
X167121Y298657D01*
X166535Y298774D01*
X136819D01*
X136234Y298657D01*
X135738Y298325D01*
X130021Y292609D01*
X129689Y292112D01*
X129573Y291527D01*
Y289350D01*
X129253Y289031D01*
X128921Y288229D01*
Y287361D01*
X129253Y286560D01*
X129867Y285946D01*
X130668Y285614D01*
X131536D01*
X131719Y285690D01*
X132286Y284842D01*
X126478Y279034D01*
X126146Y278538D01*
X126030Y277953D01*
Y179921D01*
X126146Y179336D01*
X126478Y178840D01*
X154273Y151044D01*
X154769Y150713D01*
X155354Y150597D01*
X167167D01*
X167168Y150594D01*
X167691Y149689D01*
X168429Y148950D01*
X169334Y148428D01*
X170344Y148158D01*
X171389D01*
X172398Y148428D01*
X173303Y148950D01*
X174042Y149689D01*
X174564Y150594D01*
X174835Y151603D01*
Y152648D01*
X174564Y153658D01*
X174042Y154563D01*
X173303Y155302D01*
X172398Y155824D01*
X171389Y156095D01*
X170344D01*
X169334Y155824D01*
X168429Y155302D01*
X167691Y154563D01*
X167168Y153658D01*
X167167Y153655D01*
X155988D01*
X129088Y180555D01*
Y183554D01*
X129802Y183863D01*
X130088Y183890D01*
X152856Y161123D01*
X153352Y160792D01*
X153937Y160675D01*
X156770D01*
X157165Y160597D01*
X167167D01*
X167168Y160594D01*
X167691Y159689D01*
X168429Y158950D01*
X169334Y158428D01*
X170344Y158158D01*
X171389D01*
X172398Y158428D01*
X173303Y158950D01*
X174042Y159689D01*
X174564Y160594D01*
X174835Y161603D01*
Y162648D01*
X174564Y163658D01*
X174042Y164563D01*
X173303Y165302D01*
X172398Y165824D01*
X171389Y166095D01*
X170344D01*
X169334Y165824D01*
X168429Y165302D01*
X167691Y164563D01*
X167168Y163658D01*
X167167Y163655D01*
X157482D01*
X157087Y163734D01*
X154570D01*
X132632Y185673D01*
Y186691D01*
X133626Y186816D01*
X133958Y186320D01*
X149233Y171045D01*
X149730Y170713D01*
X150315Y170597D01*
X167167D01*
X167168Y170594D01*
X167691Y169689D01*
X168429Y168950D01*
X169334Y168428D01*
X170344Y168157D01*
X171389D01*
X172398Y168428D01*
X173303Y168950D01*
X174042Y169689D01*
X174564Y170594D01*
X174835Y171604D01*
Y172648D01*
X174564Y173658D01*
X174042Y174563D01*
X173303Y175302D01*
X172398Y175824D01*
X171389Y176094D01*
X170344D01*
X169334Y175824D01*
X168429Y175302D01*
X167691Y174563D01*
X167168Y173658D01*
X167167Y173655D01*
X150949D01*
X148969Y175635D01*
X149283Y176735D01*
X149661Y176891D01*
X150274Y177505D01*
X150606Y178306D01*
Y179174D01*
X150274Y179976D01*
X150209Y180040D01*
Y186889D01*
X150274Y186953D01*
X150606Y187755D01*
Y188623D01*
X150274Y189425D01*
X149661Y190038D01*
X148859Y190370D01*
X147991D01*
X147190Y190038D01*
X146576Y189425D01*
X146244Y188623D01*
Y187755D01*
X146576Y186953D01*
X146641Y186889D01*
Y180040D01*
X146576Y179976D01*
X146420Y179598D01*
X145320Y179284D01*
X136569Y188035D01*
Y190035D01*
X137569Y190449D01*
X137741Y190277D01*
X138542Y189945D01*
X139410D01*
X140212Y190277D01*
X140825Y190891D01*
X141157Y191692D01*
Y192560D01*
X140825Y193361D01*
X140506Y193681D01*
Y208987D01*
X141219Y209296D01*
X141506Y209324D01*
X167169Y183660D01*
X167168Y183658D01*
X166898Y182648D01*
Y181604D01*
X167168Y180594D01*
X167691Y179689D01*
X168429Y178950D01*
X169334Y178428D01*
X170344Y178157D01*
X171389D01*
X172398Y178428D01*
X173303Y178950D01*
X174042Y179689D01*
X174564Y180594D01*
X174835Y181604D01*
Y182648D01*
X174564Y183658D01*
X174042Y184563D01*
X173303Y185302D01*
X172398Y185824D01*
X171389Y186094D01*
X170344D01*
X169334Y185824D01*
X169332Y185823D01*
X167921Y187234D01*
X168304Y188157D01*
X174835D01*
Y196095D01*
X166898D01*
Y189564D01*
X165974Y189181D01*
X144049Y211106D01*
Y214903D01*
X145049Y215317D01*
X145198Y215168D01*
X146000Y214836D01*
X146867D01*
X147669Y215168D01*
X148283Y215782D01*
X148615Y216583D01*
Y217451D01*
X148283Y218253D01*
X148218Y218318D01*
Y264986D01*
X152733Y269501D01*
X159266D01*
X159331Y269436D01*
X160133Y269104D01*
X161001D01*
X161802Y269436D01*
X161854Y269488D01*
X165539D01*
X166221Y269624D01*
X166289Y269669D01*
X168704D01*
X169149Y269346D01*
X169473Y268901D01*
Y262580D01*
X168658Y261766D01*
X167142D01*
Y263205D01*
X161449D01*
X160811Y263205D01*
X159811Y263205D01*
X157783D01*
Y260236D01*
Y257268D01*
X159811D01*
X160449Y257268D01*
X161449Y257268D01*
X167142D01*
Y258707D01*
X169291D01*
X169877Y258823D01*
X170373Y259155D01*
X172144Y260927D01*
X172476Y261423D01*
X172592Y262008D01*
Y262386D01*
X177408D01*
Y259498D01*
X170698Y252788D01*
X170366Y252292D01*
X170250Y251707D01*
Y249254D01*
X149626D01*
Y239380D01*
X149626D01*
X150274Y238395D01*
Y237527D01*
X150606Y236725D01*
X150833Y236499D01*
Y234319D01*
X150534Y234119D01*
X150254Y233701D01*
X150156Y233207D01*
Y231612D01*
X150254Y231118D01*
X150528Y230709D01*
X150254Y230299D01*
X150156Y229805D01*
Y229508D01*
X152362D01*
X154568D01*
Y229805D01*
X154470Y230299D01*
X154196Y230709D01*
X154470Y231118D01*
X154568Y231612D01*
Y233207D01*
X154470Y233701D01*
X154190Y234119D01*
X153892Y234319D01*
Y236313D01*
X154305Y236725D01*
X154637Y237527D01*
Y238395D01*
X155311Y239380D01*
X173279D01*
Y247606D01*
X173309Y247754D01*
Y251073D01*
X179998Y257762D01*
X186998Y250762D01*
Y247754D01*
X187027Y247606D01*
Y239380D01*
X204463D01*
X205132Y238380D01*
X205097Y238296D01*
Y237429D01*
X205429Y236627D01*
X205951Y236105D01*
Y233531D01*
X205652Y233332D01*
X205373Y232913D01*
X205274Y232419D01*
Y230825D01*
X205373Y230331D01*
X205646Y229921D01*
X205373Y229512D01*
X205274Y229018D01*
Y228720D01*
X207480D01*
X209686D01*
Y229018D01*
X209588Y229512D01*
X209314Y229921D01*
X209588Y230331D01*
X209686Y230825D01*
Y232419D01*
X209588Y232913D01*
X209308Y233332D01*
X209010Y233531D01*
Y236509D01*
X209127Y236627D01*
X209459Y237429D01*
Y238296D01*
X209425Y238380D01*
X210093Y239380D01*
X210681D01*
Y249254D01*
X190057D01*
Y251395D01*
X189940Y251980D01*
X189609Y252477D01*
X184037Y258049D01*
X184271Y259228D01*
X184440Y259298D01*
X185025Y259884D01*
X185512Y259397D01*
X186314Y259065D01*
X187182D01*
X187983Y259397D01*
X188597Y260010D01*
X188929Y260812D01*
Y261680D01*
X189401Y262386D01*
X194307D01*
Y268901D01*
X194631Y269346D01*
X195076Y269669D01*
X201591D01*
Y269730D01*
X205469D01*
X218943Y256256D01*
Y23622D01*
X219059Y23037D01*
X219391Y22541D01*
X240060Y1871D01*
X240556Y1540D01*
X241142Y1423D01*
X275746D01*
X276148Y1000D01*
X275718Y0D01*
X124586D01*
X123620Y192D01*
X122710Y569D01*
X121891Y1116D01*
X121195Y1813D01*
X120648Y2632D01*
X120271Y3542D01*
X120079Y4507D01*
Y5000D01*
X120079Y5000D01*
X120079Y380827D01*
Y381319D01*
X120271Y382285D01*
X120648Y383195D01*
X121195Y384014D01*
X121891Y384711D01*
X122710Y385258D01*
X123620Y385635D01*
X124586Y385827D01*
X125079D01*
Y385827D01*
X142638D01*
X143128Y385851D01*
X144089Y386042D01*
X144995Y386417D01*
X145810Y386962D01*
X146503Y387655D01*
X147047Y388470D01*
X147423Y389375D01*
X147614Y390337D01*
X147638Y390827D01*
X147638Y402973D01*
X147830Y403939D01*
X148207Y404849D01*
X148754Y405668D01*
X149451Y406364D01*
X150269Y406911D01*
X151179Y407288D01*
X152145Y407480D01*
X152638D01*
Y407480D01*
X201693Y407480D01*
D02*
G37*
G36*
X236748Y363132D02*
X236416Y362330D01*
Y361878D01*
X193201Y318664D01*
X192277Y319047D01*
Y320036D01*
X236012Y363770D01*
X236748Y363132D01*
D02*
G37*
G36*
X194543Y294739D02*
X194866Y294295D01*
Y291323D01*
X197490D01*
X197558Y291277D01*
X198228Y291144D01*
Y290567D01*
X194866D01*
Y289354D01*
Y285417D01*
Y281480D01*
Y277543D01*
Y273606D01*
Y269879D01*
X194543Y269434D01*
X194098Y269110D01*
X185220D01*
Y266533D01*
X185131Y266399D01*
X185001Y265748D01*
X184476D01*
X184465Y265805D01*
Y269110D01*
X169682D01*
X169237Y269434D01*
X168913Y269879D01*
Y271638D01*
Y272851D01*
X166327D01*
X166221Y272921D01*
X165551Y273054D01*
Y273606D01*
X168913D01*
Y275575D01*
Y279512D01*
Y283449D01*
Y287386D01*
Y291473D01*
X169033Y291641D01*
X169913Y292204D01*
X170079Y292171D01*
X174414D01*
X174999Y292288D01*
X175496Y292619D01*
X176082Y293205D01*
X176413Y293701D01*
X176529Y294287D01*
Y295063D01*
X194098D01*
X194543Y294739D01*
D02*
G37*
G36*
X165366Y295504D02*
X164832Y294504D01*
X162189D01*
Y294443D01*
X142520D01*
X141934Y294326D01*
X141438Y293995D01*
X134055Y286612D01*
X133208Y287178D01*
X133283Y287361D01*
Y288229D01*
X132951Y289031D01*
X132632Y289350D01*
Y290894D01*
X137453Y295715D01*
X165225D01*
X165366Y295504D01*
D02*
G37*
G36*
X162189Y280663D02*
X159465D01*
Y281610D01*
X151091D01*
Y279134D01*
Y276658D01*
X159465D01*
Y277605D01*
X162189D01*
Y274054D01*
X161417Y273438D01*
X161189Y273388D01*
X161001Y273466D01*
X160133D01*
X159331Y273134D01*
X159266Y273069D01*
X151994D01*
X151994Y273069D01*
X151311Y272934D01*
X150732Y272547D01*
X150732Y272547D01*
X145172Y266986D01*
X145049Y266803D01*
X144049Y267106D01*
Y280863D01*
X148665Y285478D01*
X162189D01*
Y280663D01*
D02*
G37*
G36*
X434612Y1000D02*
X434183Y0D01*
X352235D01*
X351805Y1000D01*
X352207Y1423D01*
X434210D01*
X434612Y1000D01*
D02*
G37*
G36*
X348982D02*
X348553Y0D01*
X279400D01*
X278970Y1000D01*
X279372Y1423D01*
X348580D01*
X348982Y1000D01*
D02*
G37*
%LPC*%
G36*
X181209Y402154D02*
Y400500D01*
X182862D01*
X182558Y401235D01*
X181944Y401849D01*
X181209Y402154D01*
D02*
G37*
G36*
X180209D02*
X179473Y401849D01*
X178860Y401235D01*
X178555Y400500D01*
X180209D01*
Y402154D01*
D02*
G37*
G36*
X169004Y401760D02*
Y400106D01*
X170658D01*
X170353Y400842D01*
X169739Y401455D01*
X169004Y401760D01*
D02*
G37*
G36*
X168004D02*
X167269Y401455D01*
X166655Y400842D01*
X166350Y400106D01*
X168004D01*
Y401760D01*
D02*
G37*
G36*
X182862Y399500D02*
X181209D01*
Y397846D01*
X181944Y398151D01*
X182558Y398764D01*
X182862Y399500D01*
D02*
G37*
G36*
X180209D02*
X178555D01*
X178860Y398764D01*
X179473Y398151D01*
X180209Y397846D01*
Y399500D01*
D02*
G37*
G36*
X170658Y399106D02*
X169004D01*
Y397453D01*
X169739Y397757D01*
X170353Y398371D01*
X170658Y399106D01*
D02*
G37*
G36*
X168004D02*
X166350D01*
X166655Y398371D01*
X167269Y397757D01*
X168004Y397453D01*
Y399106D01*
D02*
G37*
G36*
X200740Y401525D02*
X195949D01*
Y397088D01*
X200740D01*
Y401525D01*
D02*
G37*
G36*
X160504D02*
X155712D01*
Y397088D01*
X160504D01*
Y401525D01*
D02*
G37*
G36*
X154712D02*
X149921D01*
Y397088D01*
X154712D01*
Y401525D01*
D02*
G37*
G36*
X194949D02*
X190157D01*
Y397088D01*
X194949D01*
Y401525D01*
D02*
G37*
G36*
X200740Y396088D02*
X195949D01*
Y391651D01*
X200740D01*
Y396088D01*
D02*
G37*
G36*
X194949D02*
X190157D01*
Y391651D01*
X194949D01*
Y396088D01*
D02*
G37*
G36*
X160504D02*
X155712D01*
Y391651D01*
X160504D01*
Y396088D01*
D02*
G37*
G36*
X154712D02*
X149921D01*
Y391651D01*
X154712D01*
Y396088D01*
D02*
G37*
G36*
X180686Y387344D02*
X179818D01*
X179016Y387012D01*
X178403Y386399D01*
X178071Y385597D01*
Y384729D01*
X178403Y383927D01*
X178722Y383608D01*
Y382116D01*
X169970D01*
Y383116D01*
X170290Y383435D01*
X170622Y384237D01*
Y385105D01*
X170290Y385906D01*
X169676Y386520D01*
X168875Y386852D01*
X168007D01*
X167205Y386520D01*
X166592Y385906D01*
X166351Y385324D01*
X165626Y385039D01*
X165260Y385001D01*
X165244Y385017D01*
X164406Y385364D01*
X163499D01*
X162661Y385017D01*
X162020Y384376D01*
X161673Y383538D01*
Y383347D01*
X161153Y382910D01*
X160638Y383058D01*
X160504Y383169D01*
Y386053D01*
X155712D01*
Y381116D01*
Y376179D01*
X159796D01*
X160551Y375588D01*
X161259Y375588D01*
X161642D01*
Y378852D01*
X162642D01*
Y375588D01*
X163762D01*
Y375020D01*
X163878Y374435D01*
X164210Y373939D01*
X164795Y373353D01*
X164844Y373321D01*
Y369395D01*
X164525Y369076D01*
X164193Y368274D01*
Y367406D01*
X164525Y366605D01*
X165138Y365991D01*
X165940Y365659D01*
X166808D01*
X167609Y365991D01*
X168223Y366605D01*
X168555Y367406D01*
Y368274D01*
X168223Y369076D01*
X167903Y369395D01*
Y375588D01*
X170848D01*
Y358391D01*
X170965Y357806D01*
X171296Y357310D01*
X172490Y356116D01*
Y330848D01*
X171838D01*
Y324124D01*
X183681D01*
Y330848D01*
X183413D01*
Y345233D01*
X183459Y345465D01*
Y355686D01*
X183719Y355945D01*
X183739Y355976D01*
X184283Y356520D01*
X184906Y356778D01*
X185409Y357280D01*
X185681Y357937D01*
Y358648D01*
X185409Y359305D01*
X184906Y359808D01*
X184249Y360080D01*
X183538D01*
X182881Y359808D01*
X182503Y359430D01*
X181925Y359360D01*
X181347Y359430D01*
X180969Y359808D01*
X180312Y360080D01*
X179601D01*
X178944Y359808D01*
X178844Y359708D01*
X177844Y360123D01*
Y362041D01*
X177985Y362135D01*
X178696D01*
X179353Y362407D01*
X179856Y362910D01*
X180128Y363567D01*
Y364278D01*
X179856Y364935D01*
X179841Y364949D01*
Y375588D01*
X182659D01*
Y374632D01*
X182776Y374046D01*
X183107Y373550D01*
X183841Y372817D01*
Y370639D01*
X183616Y370415D01*
X183164D01*
X182363Y370083D01*
X181749Y369469D01*
X181417Y368668D01*
Y367800D01*
X181749Y366998D01*
X182363Y366385D01*
X183164Y366053D01*
X184032D01*
X184834Y366385D01*
X185447Y366998D01*
X185779Y367800D01*
Y368252D01*
X186451Y368924D01*
X186783Y369420D01*
X186899Y370005D01*
Y373450D01*
Y375588D01*
X188020D01*
Y378852D01*
X189020D01*
Y375588D01*
X190110D01*
X190865Y376179D01*
X191110D01*
X194949D01*
Y381116D01*
Y386053D01*
X190157D01*
Y383169D01*
X190023Y383058D01*
X189508Y382910D01*
X188988Y383347D01*
Y383538D01*
X188641Y384376D01*
X188000Y385017D01*
X187162Y385364D01*
X186255D01*
X185417Y385017D01*
X184776Y384376D01*
X184429Y383538D01*
Y382631D01*
X184085Y382116D01*
X181781D01*
Y383608D01*
X182101Y383927D01*
X182433Y384729D01*
Y385597D01*
X182101Y386399D01*
X181487Y387012D01*
X180686Y387344D01*
D02*
G37*
G36*
X200740Y386053D02*
X195949D01*
Y381616D01*
X200740D01*
Y386053D01*
D02*
G37*
G36*
X154712D02*
X149921D01*
Y381616D01*
X154712D01*
Y386053D01*
D02*
G37*
G36*
X200740Y380616D02*
X195949D01*
Y376179D01*
X200740D01*
Y380616D01*
D02*
G37*
G36*
X154712D02*
X149921D01*
Y376179D01*
X154712D01*
Y380616D01*
D02*
G37*
G36*
X358849Y365843D02*
X357489D01*
X356155Y365577D01*
X354898Y365057D01*
X353767Y364301D01*
X352805Y363339D01*
X352050Y362208D01*
X351529Y360951D01*
X351264Y359617D01*
Y358257D01*
X351529Y356923D01*
X352050Y355666D01*
X352805Y354535D01*
X353767Y353573D01*
X354898Y352817D01*
X356155Y352297D01*
X357489Y352031D01*
X358849D01*
X360184Y352297D01*
X361440Y352817D01*
X362571Y353573D01*
X363533Y354535D01*
X364289Y355666D01*
X364809Y356923D01*
X365075Y358257D01*
Y359617D01*
X364809Y360951D01*
X364289Y362208D01*
X363533Y363339D01*
X362571Y364301D01*
X361440Y365057D01*
X360184Y365577D01*
X358849Y365843D01*
D02*
G37*
G36*
X434243Y365843D02*
X432883D01*
X431549Y365577D01*
X430292Y365057D01*
X429161Y364301D01*
X428199Y363339D01*
X427443Y362208D01*
X426923Y360951D01*
X426657Y359617D01*
Y358257D01*
X426923Y356923D01*
X427443Y355666D01*
X428199Y354535D01*
X429161Y353573D01*
X430292Y352817D01*
X431549Y352297D01*
X432883Y352031D01*
X434243D01*
X435577Y352297D01*
X436834Y352817D01*
X437965Y353573D01*
X438927Y354535D01*
X439683Y355666D01*
X440203Y356923D01*
X440469Y358257D01*
Y359617D01*
X440203Y360951D01*
X439683Y362208D01*
X438927Y363339D01*
X437965Y364301D01*
X436834Y365057D01*
X435577Y365577D01*
X434243Y365843D01*
D02*
G37*
G36*
X284145Y365331D02*
X282784D01*
X281450Y365065D01*
X280194Y364545D01*
X279063Y363789D01*
X278101Y362827D01*
X277345Y361696D01*
X276824Y360439D01*
X276559Y359105D01*
Y357745D01*
X276824Y356411D01*
X277345Y355154D01*
X278101Y354023D01*
X279063Y353061D01*
X280194Y352306D01*
X281450Y351785D01*
X282784Y351520D01*
X284145D01*
X285479Y351785D01*
X286736Y352306D01*
X287867Y353061D01*
X288828Y354023D01*
X289584Y355154D01*
X290105Y356411D01*
X290370Y357745D01*
Y359105D01*
X290105Y360439D01*
X289584Y361696D01*
X288828Y362827D01*
X287867Y363789D01*
X286736Y364545D01*
X285479Y365065D01*
X284145Y365331D01*
D02*
G37*
G36*
X477309Y372063D02*
X475447D01*
X473608Y371772D01*
X471838Y371197D01*
X470179Y370351D01*
X468673Y369257D01*
X467357Y367941D01*
X466263Y366435D01*
X465418Y364776D01*
X464842Y363006D01*
X464551Y361167D01*
Y359305D01*
X464842Y357467D01*
X465418Y355696D01*
X466263Y354038D01*
X467357Y352532D01*
X468673Y351215D01*
X470179Y350121D01*
X471838Y349276D01*
X473608Y348701D01*
X475447Y348410D01*
X477309D01*
X479147Y348701D01*
X480918Y349276D01*
X482577Y350121D01*
X484083Y351215D01*
X485399Y352532D01*
X486493Y354038D01*
X487338Y355696D01*
X487914Y357467D01*
X488205Y359305D01*
Y361167D01*
X487914Y363006D01*
X487338Y364776D01*
X486493Y366435D01*
X485399Y367941D01*
X484083Y369257D01*
X482577Y370351D01*
X480918Y371197D01*
X479147Y371772D01*
X477309Y372063D01*
D02*
G37*
G36*
X136758D02*
X134896D01*
X133057Y371772D01*
X131287Y371197D01*
X129628Y370351D01*
X128122Y369257D01*
X126806Y367941D01*
X125712Y366435D01*
X124866Y364776D01*
X124291Y363006D01*
X124000Y361167D01*
Y359305D01*
X124291Y357467D01*
X124866Y355696D01*
X125712Y354038D01*
X126806Y352532D01*
X128122Y351215D01*
X129628Y350121D01*
X131287Y349276D01*
X133057Y348701D01*
X134896Y348410D01*
X136758D01*
X138596Y348701D01*
X140367Y349276D01*
X142025Y350121D01*
X143531Y351215D01*
X144848Y352532D01*
X145942Y354038D01*
X146787Y355696D01*
X147362Y357467D01*
X147653Y359305D01*
Y361167D01*
X147362Y363006D01*
X146787Y364776D01*
X145942Y366435D01*
X144848Y367941D01*
X143531Y369257D01*
X142025Y370351D01*
X140367Y371197D01*
X138596Y371772D01*
X136758Y372063D01*
D02*
G37*
G36*
X333849Y355842D02*
X332489D01*
X331155Y355577D01*
X329898Y355057D01*
X328767Y354301D01*
X327805Y353339D01*
X327050Y352208D01*
X326529Y350951D01*
X326264Y349617D01*
Y348257D01*
X326529Y346923D01*
X327050Y345666D01*
X327805Y344535D01*
X328767Y343573D01*
X329898Y342817D01*
X331155Y342297D01*
X332489Y342032D01*
X333849D01*
X335184Y342297D01*
X336440Y342817D01*
X337571Y343573D01*
X338533Y344535D01*
X339289Y345666D01*
X339809Y346923D01*
X340075Y348257D01*
Y349617D01*
X339809Y350951D01*
X339289Y352208D01*
X338533Y353339D01*
X337571Y354301D01*
X336440Y355057D01*
X335184Y355577D01*
X333849Y355842D01*
D02*
G37*
G36*
X409243Y355842D02*
X407883D01*
X406549Y355577D01*
X405292Y355057D01*
X404161Y354301D01*
X403199Y353339D01*
X402443Y352208D01*
X401923Y350951D01*
X401657Y349617D01*
Y348257D01*
X401923Y346923D01*
X402443Y345666D01*
X403199Y344535D01*
X404161Y343573D01*
X405292Y342817D01*
X406549Y342297D01*
X407883Y342032D01*
X409243D01*
X410577Y342297D01*
X411834Y342817D01*
X412965Y343573D01*
X413927Y344535D01*
X414683Y345666D01*
X415203Y346923D01*
X415469Y348257D01*
Y349617D01*
X415203Y350951D01*
X414683Y352208D01*
X413927Y353339D01*
X412965Y354301D01*
X411834Y355057D01*
X410577Y355577D01*
X409243Y355842D01*
D02*
G37*
G36*
X259145Y355331D02*
X257784D01*
X256450Y355065D01*
X255194Y354545D01*
X254063Y353789D01*
X253101Y352827D01*
X252345Y351696D01*
X251824Y350440D01*
X251559Y349105D01*
Y347745D01*
X251824Y346411D01*
X252345Y345154D01*
X253101Y344023D01*
X254063Y343061D01*
X255194Y342306D01*
X256450Y341785D01*
X257784Y341520D01*
X259145D01*
X260479Y341785D01*
X261736Y342306D01*
X262867Y343061D01*
X263828Y344023D01*
X264584Y345154D01*
X265105Y346411D01*
X265370Y347745D01*
Y349105D01*
X265105Y350440D01*
X264584Y351696D01*
X263828Y352827D01*
X262867Y353789D01*
X261736Y354545D01*
X260479Y355065D01*
X259145Y355331D01*
D02*
G37*
G36*
X424317Y347239D02*
X422534D01*
X420785Y346891D01*
X419138Y346209D01*
X417656Y345219D01*
X416396Y343958D01*
X415405Y342476D01*
X414723Y340829D01*
X414375Y339080D01*
Y337298D01*
X414723Y335549D01*
X415405Y333902D01*
X416396Y332420D01*
X417656Y331159D01*
X419138Y330169D01*
X420785Y329487D01*
X422534Y329139D01*
X424317D01*
X426065Y329487D01*
X427712Y330169D01*
X429194Y331159D01*
X430455Y332420D01*
X431445Y333902D01*
X432127Y335549D01*
X432475Y337298D01*
Y339080D01*
X432127Y340829D01*
X431445Y342476D01*
X430455Y343958D01*
X429194Y345219D01*
X427712Y346209D01*
X426065Y346891D01*
X424317Y347239D01*
D02*
G37*
G36*
X349317D02*
X347534D01*
X345785Y346891D01*
X344138Y346209D01*
X342656Y345219D01*
X341396Y343958D01*
X340405Y342476D01*
X339723Y340829D01*
X339375Y339080D01*
Y337298D01*
X339723Y335549D01*
X340405Y333902D01*
X341396Y332420D01*
X342656Y331159D01*
X344138Y330169D01*
X345785Y329487D01*
X347534Y329139D01*
X349317D01*
X351065Y329487D01*
X352712Y330169D01*
X354194Y331159D01*
X355455Y332420D01*
X356445Y333902D01*
X357127Y335549D01*
X357475Y337298D01*
Y339080D01*
X357127Y340829D01*
X356445Y342476D01*
X355455Y343958D01*
X354194Y345219D01*
X352712Y346209D01*
X351065Y346891D01*
X349317Y347239D01*
D02*
G37*
G36*
X274317D02*
X272534D01*
X270785Y346891D01*
X269138Y346209D01*
X267656Y345219D01*
X266396Y343958D01*
X265405Y342476D01*
X264723Y340829D01*
X264375Y339080D01*
Y337298D01*
X264723Y335549D01*
X265405Y333902D01*
X266396Y332420D01*
X267656Y331159D01*
X269138Y330169D01*
X270785Y329487D01*
X272534Y329139D01*
X274317D01*
X276065Y329487D01*
X277712Y330169D01*
X279194Y331159D01*
X280455Y332420D01*
X281445Y333902D01*
X282127Y335549D01*
X282475Y337298D01*
Y339080D01*
X282127Y340829D01*
X281445Y342476D01*
X280455Y343958D01*
X279194Y345219D01*
X277712Y346209D01*
X276065Y346891D01*
X274317Y347239D01*
D02*
G37*
G36*
X143413Y304516D02*
Y302862D01*
X145067D01*
X144762Y303598D01*
X144149Y304211D01*
X143413Y304516D01*
D02*
G37*
G36*
X142413D02*
X141678Y304211D01*
X141064Y303598D01*
X140760Y302862D01*
X142413D01*
Y304516D01*
D02*
G37*
G36*
X221760Y303335D02*
Y301681D01*
X223413D01*
X223109Y302417D01*
X222495Y303030D01*
X221760Y303335D01*
D02*
G37*
G36*
X220760D02*
X220024Y303030D01*
X219411Y302417D01*
X219106Y301681D01*
X220760D01*
Y303335D01*
D02*
G37*
G36*
X145067Y301862D02*
X143413D01*
Y300208D01*
X144149Y300513D01*
X144762Y301127D01*
X145067Y301862D01*
D02*
G37*
G36*
X142413D02*
X140760D01*
X141064Y301127D01*
X141678Y300513D01*
X142413Y300208D01*
Y301862D01*
D02*
G37*
G36*
X223413Y300681D02*
X221760D01*
Y299027D01*
X222495Y299332D01*
X223109Y299946D01*
X223413Y300681D01*
D02*
G37*
G36*
X220760D02*
X219106D01*
X219411Y299946D01*
X220024Y299332D01*
X220760Y299027D01*
Y300681D01*
D02*
G37*
G36*
X358849Y290843D02*
X357489D01*
X356155Y290577D01*
X354898Y290057D01*
X353767Y289301D01*
X352805Y288339D01*
X352050Y287208D01*
X351529Y285951D01*
X351264Y284617D01*
Y283257D01*
X351529Y281923D01*
X352050Y280666D01*
X352805Y279535D01*
X353767Y278573D01*
X354898Y277817D01*
X356155Y277297D01*
X357489Y277031D01*
X358849D01*
X360184Y277297D01*
X361440Y277817D01*
X362571Y278573D01*
X363533Y279535D01*
X364289Y280666D01*
X364809Y281923D01*
X365075Y283257D01*
Y284617D01*
X364809Y285951D01*
X364289Y287208D01*
X363533Y288339D01*
X362571Y289301D01*
X361440Y290057D01*
X360184Y290577D01*
X358849Y290843D01*
D02*
G37*
G36*
X284243Y290449D02*
X282883D01*
X281549Y290183D01*
X280292Y289663D01*
X279161Y288907D01*
X278199Y287945D01*
X277443Y286814D01*
X276923Y285558D01*
X276658Y284223D01*
Y282863D01*
X276923Y281529D01*
X277443Y280272D01*
X278199Y279141D01*
X279161Y278179D01*
X280292Y277424D01*
X281549Y276903D01*
X282883Y276638D01*
X284243D01*
X285577Y276903D01*
X286834Y277424D01*
X287965Y278179D01*
X288927Y279141D01*
X289683Y280272D01*
X290203Y281529D01*
X290469Y282863D01*
Y284223D01*
X290203Y285558D01*
X289683Y286814D01*
X288927Y287945D01*
X287965Y288907D01*
X286834Y289663D01*
X285577Y290183D01*
X284243Y290449D01*
D02*
G37*
G36*
X434342Y290331D02*
X432981D01*
X431647Y290065D01*
X430390Y289545D01*
X429259Y288789D01*
X428298Y287827D01*
X427542Y286696D01*
X427021Y285439D01*
X426756Y284105D01*
Y282745D01*
X427021Y281411D01*
X427542Y280154D01*
X428298Y279023D01*
X429259Y278061D01*
X430390Y277306D01*
X431647Y276785D01*
X432981Y276520D01*
X434342D01*
X435676Y276785D01*
X436932Y277306D01*
X438063Y278061D01*
X439025Y279023D01*
X439781Y280154D01*
X440302Y281411D01*
X440567Y282745D01*
Y284105D01*
X440302Y285439D01*
X439781Y286696D01*
X439025Y287827D01*
X438063Y288789D01*
X436932Y289545D01*
X435676Y290065D01*
X434342Y290331D01*
D02*
G37*
G36*
X333849Y280842D02*
X332489D01*
X331155Y280577D01*
X329898Y280057D01*
X328767Y279301D01*
X327805Y278339D01*
X327050Y277208D01*
X326529Y275951D01*
X326264Y274617D01*
Y273257D01*
X326529Y271923D01*
X327050Y270666D01*
X327805Y269535D01*
X328767Y268573D01*
X329898Y267817D01*
X331155Y267297D01*
X332489Y267032D01*
X333849D01*
X335184Y267297D01*
X336440Y267817D01*
X337571Y268573D01*
X338533Y269535D01*
X339289Y270666D01*
X339809Y271923D01*
X340075Y273257D01*
Y274617D01*
X339809Y275951D01*
X339289Y277208D01*
X338533Y278339D01*
X337571Y279301D01*
X336440Y280057D01*
X335184Y280577D01*
X333849Y280842D01*
D02*
G37*
G36*
X259243Y280449D02*
X257883D01*
X256549Y280183D01*
X255292Y279663D01*
X254161Y278907D01*
X253199Y277945D01*
X252443Y276814D01*
X251923Y275558D01*
X251658Y274223D01*
Y272863D01*
X251923Y271529D01*
X252443Y270272D01*
X253199Y269141D01*
X254161Y268179D01*
X255292Y267424D01*
X256549Y266903D01*
X257883Y266638D01*
X259243D01*
X260577Y266903D01*
X261834Y267424D01*
X262965Y268179D01*
X263927Y269141D01*
X264683Y270272D01*
X265203Y271529D01*
X265469Y272863D01*
Y274223D01*
X265203Y275558D01*
X264683Y276814D01*
X263927Y277945D01*
X262965Y278907D01*
X261834Y279663D01*
X260577Y280183D01*
X259243Y280449D01*
D02*
G37*
G36*
X409342Y280331D02*
X407981D01*
X406647Y280065D01*
X405390Y279545D01*
X404259Y278789D01*
X403298Y277827D01*
X402542Y276696D01*
X402021Y275440D01*
X401756Y274105D01*
Y272745D01*
X402021Y271411D01*
X402542Y270154D01*
X403298Y269023D01*
X404259Y268061D01*
X405390Y267306D01*
X406647Y266785D01*
X407981Y266520D01*
X409342D01*
X410676Y266785D01*
X411932Y267306D01*
X413063Y268061D01*
X414025Y269023D01*
X414781Y270154D01*
X415302Y271411D01*
X415567Y272745D01*
Y274105D01*
X415302Y275440D01*
X414781Y276696D01*
X414025Y277827D01*
X413063Y278789D01*
X411932Y279545D01*
X410676Y280065D01*
X409342Y280331D01*
D02*
G37*
G36*
X156783Y263205D02*
X154118D01*
Y260736D01*
X156783D01*
Y263205D01*
D02*
G37*
G36*
X203047Y259134D02*
Y257480D01*
X204701D01*
X204397Y258216D01*
X203783Y258829D01*
X203047Y259134D01*
D02*
G37*
G36*
X202047D02*
X201312Y258829D01*
X200698Y258216D01*
X200394Y257480D01*
X202047D01*
Y259134D01*
D02*
G37*
G36*
X156783Y259736D02*
X154118D01*
Y257268D01*
X156783D01*
Y259736D01*
D02*
G37*
G36*
X204701Y256480D02*
X203047D01*
Y254827D01*
X203783Y255131D01*
X204397Y255745D01*
X204701Y256480D01*
D02*
G37*
G36*
X202047D02*
X200394D01*
X200698Y255745D01*
X201312Y255131D01*
X202047Y254827D01*
Y256480D01*
D02*
G37*
G36*
X152469Y256091D02*
Y254437D01*
X154122D01*
X153818Y255172D01*
X153204Y255786D01*
X152469Y256091D01*
D02*
G37*
G36*
X151469D02*
X150733Y255786D01*
X150119Y255172D01*
X149815Y254437D01*
X151469D01*
Y256091D01*
D02*
G37*
G36*
X424317Y272239D02*
X422534D01*
X420785Y271891D01*
X419138Y271209D01*
X417656Y270219D01*
X416396Y268958D01*
X415405Y267476D01*
X414723Y265829D01*
X414375Y264080D01*
Y262298D01*
X414723Y260549D01*
X415405Y258902D01*
X416396Y257420D01*
X417656Y256159D01*
X419138Y255169D01*
X420785Y254487D01*
X422534Y254139D01*
X424317D01*
X426065Y254487D01*
X427712Y255169D01*
X429194Y256159D01*
X430455Y257420D01*
X431445Y258902D01*
X432127Y260549D01*
X432475Y262298D01*
Y264080D01*
X432127Y265829D01*
X431445Y267476D01*
X430455Y268958D01*
X429194Y270219D01*
X427712Y271209D01*
X426065Y271891D01*
X424317Y272239D01*
D02*
G37*
G36*
X349317D02*
X347534D01*
X345785Y271891D01*
X344138Y271209D01*
X342656Y270219D01*
X341396Y268958D01*
X340405Y267476D01*
X339723Y265829D01*
X339375Y264080D01*
Y262298D01*
X339723Y260549D01*
X340405Y258902D01*
X341396Y257420D01*
X342656Y256159D01*
X344138Y255169D01*
X345785Y254487D01*
X347534Y254139D01*
X349317D01*
X351065Y254487D01*
X352712Y255169D01*
X354194Y256159D01*
X355455Y257420D01*
X356445Y258902D01*
X357127Y260549D01*
X357475Y262298D01*
Y264080D01*
X357127Y265829D01*
X356445Y267476D01*
X355455Y268958D01*
X354194Y270219D01*
X352712Y271209D01*
X351065Y271891D01*
X349317Y272239D01*
D02*
G37*
G36*
X274317D02*
X272534D01*
X270785Y271891D01*
X269138Y271209D01*
X267656Y270219D01*
X266396Y268958D01*
X265405Y267476D01*
X264723Y265829D01*
X264375Y264080D01*
Y262298D01*
X264723Y260549D01*
X265405Y258902D01*
X266396Y257420D01*
X267656Y256159D01*
X269138Y255169D01*
X270785Y254487D01*
X272534Y254139D01*
X274317D01*
X276065Y254487D01*
X277712Y255169D01*
X279194Y256159D01*
X280455Y257420D01*
X281445Y258902D01*
X282127Y260549D01*
X282475Y262298D01*
Y264080D01*
X282127Y265829D01*
X281445Y267476D01*
X280455Y268958D01*
X279194Y270219D01*
X277712Y271209D01*
X276065Y271891D01*
X274317Y272239D01*
D02*
G37*
G36*
X154122Y253437D02*
X152469D01*
Y251783D01*
X153204Y252088D01*
X153818Y252701D01*
X154122Y253437D01*
D02*
G37*
G36*
X151469D02*
X149815D01*
X150119Y252701D01*
X150733Y252088D01*
X151469Y251783D01*
Y253437D01*
D02*
G37*
G36*
X199713Y230500D02*
Y228847D01*
X201366D01*
X201062Y229582D01*
X200448Y230195D01*
X199713Y230500D01*
D02*
G37*
G36*
X198713D02*
X197977Y230195D01*
X197364Y229582D01*
X197059Y228847D01*
X198713D01*
Y230500D01*
D02*
G37*
G36*
X161130D02*
Y228847D01*
X162784D01*
X162479Y229582D01*
X161865Y230195D01*
X161130Y230500D01*
D02*
G37*
G36*
X160130D02*
X159394Y230195D01*
X158781Y229582D01*
X158476Y228847D01*
X160130D01*
Y230500D01*
D02*
G37*
G36*
X154568Y228508D02*
X152862D01*
Y226920D01*
X153278D01*
X153771Y227018D01*
X154190Y227298D01*
X154470Y227717D01*
X154568Y228211D01*
Y228508D01*
D02*
G37*
G36*
X151862D02*
X150156D01*
Y228211D01*
X150254Y227717D01*
X150534Y227298D01*
X150953Y227018D01*
X151447Y226920D01*
X151862D01*
Y228508D01*
D02*
G37*
G36*
X201366Y227847D02*
X199713D01*
Y226193D01*
X200448Y226497D01*
X201062Y227111D01*
X201366Y227847D01*
D02*
G37*
G36*
X198713D02*
X197059D01*
X197364Y227111D01*
X197977Y226497D01*
X198713Y226193D01*
Y227847D01*
D02*
G37*
G36*
X162784D02*
X161130D01*
Y226193D01*
X161865Y226497D01*
X162479Y227111D01*
X162784Y227847D01*
D02*
G37*
G36*
X160130D02*
X158476D01*
X158781Y227111D01*
X159394Y226497D01*
X160130Y226193D01*
Y227847D01*
D02*
G37*
G36*
X209686Y227720D02*
X207980D01*
Y226133D01*
X208396D01*
X208890Y226231D01*
X209308Y226511D01*
X209588Y226929D01*
X209686Y227423D01*
Y227720D01*
D02*
G37*
G36*
X206980D02*
X205274D01*
Y227423D01*
X205373Y226929D01*
X205652Y226511D01*
X206071Y226231D01*
X206565Y226133D01*
X206980D01*
Y227720D01*
D02*
G37*
G36*
X359243Y215843D02*
X357883D01*
X356549Y215577D01*
X355292Y215057D01*
X354161Y214301D01*
X353199Y213339D01*
X352443Y212208D01*
X351923Y210951D01*
X351658Y209617D01*
Y208257D01*
X351923Y206923D01*
X352443Y205666D01*
X353199Y204535D01*
X354161Y203573D01*
X355292Y202817D01*
X356549Y202297D01*
X357883Y202031D01*
X359243D01*
X360577Y202297D01*
X361834Y202817D01*
X362965Y203573D01*
X363927Y204535D01*
X364683Y205666D01*
X365203Y206923D01*
X365469Y208257D01*
Y209617D01*
X365203Y210951D01*
X364683Y212208D01*
X363927Y213339D01*
X362965Y214301D01*
X361834Y215057D01*
X360577Y215577D01*
X359243Y215843D01*
D02*
G37*
G36*
X283849Y215449D02*
X282489D01*
X281155Y215183D01*
X279898Y214663D01*
X278767Y213907D01*
X277805Y212945D01*
X277050Y211814D01*
X276529Y210558D01*
X276264Y209223D01*
Y207863D01*
X276529Y206529D01*
X277050Y205272D01*
X277805Y204141D01*
X278767Y203179D01*
X279898Y202424D01*
X281155Y201903D01*
X282489Y201638D01*
X283849D01*
X285184Y201903D01*
X286440Y202424D01*
X287571Y203179D01*
X288533Y204141D01*
X289289Y205272D01*
X289809Y206529D01*
X290075Y207863D01*
Y209223D01*
X289809Y210558D01*
X289289Y211814D01*
X288533Y212945D01*
X287571Y213907D01*
X286440Y214663D01*
X285184Y215183D01*
X283849Y215449D01*
D02*
G37*
G36*
X433751Y215331D02*
X432391D01*
X431057Y215065D01*
X429800Y214545D01*
X428669Y213789D01*
X427707Y212827D01*
X426951Y211696D01*
X426431Y210439D01*
X426165Y209105D01*
Y207745D01*
X426431Y206411D01*
X426951Y205154D01*
X427707Y204023D01*
X428669Y203061D01*
X429800Y202306D01*
X431057Y201785D01*
X432391Y201520D01*
X433751D01*
X435085Y201785D01*
X436342Y202306D01*
X437473Y203061D01*
X438435Y204023D01*
X439190Y205154D01*
X439711Y206411D01*
X439976Y207745D01*
Y209105D01*
X439711Y210439D01*
X439190Y211696D01*
X438435Y212827D01*
X437473Y213789D01*
X436342Y214545D01*
X435085Y215065D01*
X433751Y215331D01*
D02*
G37*
G36*
X334243Y205842D02*
X332883D01*
X331549Y205577D01*
X330292Y205057D01*
X329161Y204301D01*
X328199Y203339D01*
X327443Y202208D01*
X326923Y200951D01*
X326658Y199617D01*
Y198257D01*
X326923Y196923D01*
X327443Y195666D01*
X328199Y194535D01*
X329161Y193573D01*
X330292Y192817D01*
X331549Y192297D01*
X332883Y192032D01*
X334243D01*
X335577Y192297D01*
X336834Y192817D01*
X337965Y193573D01*
X338927Y194535D01*
X339683Y195666D01*
X340203Y196923D01*
X340469Y198257D01*
Y199617D01*
X340203Y200951D01*
X339683Y202208D01*
X338927Y203339D01*
X337965Y204301D01*
X336834Y205057D01*
X335577Y205577D01*
X334243Y205842D01*
D02*
G37*
G36*
X258849Y205449D02*
X257489D01*
X256155Y205183D01*
X254898Y204663D01*
X253767Y203907D01*
X252805Y202945D01*
X252050Y201814D01*
X251529Y200558D01*
X251264Y199223D01*
Y197863D01*
X251529Y196529D01*
X252050Y195272D01*
X252805Y194141D01*
X253767Y193179D01*
X254898Y192424D01*
X256155Y191903D01*
X257489Y191638D01*
X258849D01*
X260184Y191903D01*
X261440Y192424D01*
X262571Y193179D01*
X263533Y194141D01*
X264289Y195272D01*
X264809Y196529D01*
X265075Y197863D01*
Y199223D01*
X264809Y200558D01*
X264289Y201814D01*
X263533Y202945D01*
X262571Y203907D01*
X261440Y204663D01*
X260184Y205183D01*
X258849Y205449D01*
D02*
G37*
G36*
X408751Y205331D02*
X407391D01*
X406057Y205065D01*
X404800Y204545D01*
X403669Y203789D01*
X402707Y202827D01*
X401951Y201696D01*
X401431Y200440D01*
X401165Y199105D01*
Y197745D01*
X401431Y196411D01*
X401951Y195154D01*
X402707Y194023D01*
X403669Y193061D01*
X404800Y192306D01*
X406057Y191785D01*
X407391Y191520D01*
X408751D01*
X410085Y191785D01*
X411342Y192306D01*
X412473Y193061D01*
X413435Y194023D01*
X414190Y195154D01*
X414711Y196411D01*
X414976Y197745D01*
Y199105D01*
X414711Y200440D01*
X414190Y201696D01*
X413435Y202827D01*
X412473Y203789D01*
X411342Y204545D01*
X410085Y205065D01*
X408751Y205331D01*
D02*
G37*
G36*
X181389Y196095D02*
X180344D01*
X179334Y195824D01*
X178429Y195302D01*
X177691Y194563D01*
X177168Y193658D01*
X176898Y192648D01*
Y191604D01*
X177168Y190594D01*
X177691Y189689D01*
X178429Y188950D01*
X179334Y188428D01*
X180344Y188157D01*
X181389D01*
X182398Y188428D01*
X183303Y188950D01*
X184042Y189689D01*
X184564Y190594D01*
X184835Y191604D01*
Y192648D01*
X184564Y193658D01*
X184042Y194563D01*
X183303Y195302D01*
X182398Y195824D01*
X181389Y196095D01*
D02*
G37*
G36*
Y186094D02*
X181366D01*
Y182626D01*
X184835D01*
Y182648D01*
X184564Y183658D01*
X184042Y184563D01*
X183303Y185302D01*
X182398Y185824D01*
X181389Y186094D01*
D02*
G37*
G36*
X180366D02*
X180344D01*
X179334Y185824D01*
X178429Y185302D01*
X177691Y184563D01*
X177168Y183658D01*
X176898Y182648D01*
Y182626D01*
X180366D01*
Y186094D01*
D02*
G37*
G36*
X202862Y182862D02*
Y181209D01*
X204516D01*
X204211Y181944D01*
X203598Y182558D01*
X202862Y182862D01*
D02*
G37*
G36*
X201862D02*
X201127Y182558D01*
X200513Y181944D01*
X200208Y181209D01*
X201862D01*
Y182862D01*
D02*
G37*
G36*
X424317Y197239D02*
X422534D01*
X420785Y196891D01*
X419138Y196209D01*
X417656Y195219D01*
X416396Y193958D01*
X415405Y192476D01*
X414723Y190829D01*
X414375Y189080D01*
Y187298D01*
X414723Y185549D01*
X415405Y183902D01*
X416396Y182420D01*
X417656Y181159D01*
X419138Y180169D01*
X420785Y179487D01*
X422534Y179139D01*
X424317D01*
X426065Y179487D01*
X427712Y180169D01*
X429194Y181159D01*
X430455Y182420D01*
X431445Y183902D01*
X432127Y185549D01*
X432475Y187298D01*
Y189080D01*
X432127Y190829D01*
X431445Y192476D01*
X430455Y193958D01*
X429194Y195219D01*
X427712Y196209D01*
X426065Y196891D01*
X424317Y197239D01*
D02*
G37*
G36*
X349317D02*
X347534D01*
X345785Y196891D01*
X344138Y196209D01*
X342656Y195219D01*
X341396Y193958D01*
X340405Y192476D01*
X339723Y190829D01*
X339375Y189080D01*
Y187298D01*
X339723Y185549D01*
X340405Y183902D01*
X341396Y182420D01*
X342656Y181159D01*
X344138Y180169D01*
X345785Y179487D01*
X347534Y179139D01*
X349317D01*
X351065Y179487D01*
X352712Y180169D01*
X354194Y181159D01*
X355455Y182420D01*
X356445Y183902D01*
X357127Y185549D01*
X357475Y187298D01*
Y189080D01*
X357127Y190829D01*
X356445Y192476D01*
X355455Y193958D01*
X354194Y195219D01*
X352712Y196209D01*
X351065Y196891D01*
X349317Y197239D01*
D02*
G37*
G36*
X274317D02*
X272534D01*
X270785Y196891D01*
X269138Y196209D01*
X267656Y195219D01*
X266396Y193958D01*
X265405Y192476D01*
X264723Y190829D01*
X264375Y189080D01*
Y187298D01*
X264723Y185549D01*
X265405Y183902D01*
X266396Y182420D01*
X267656Y181159D01*
X269138Y180169D01*
X270785Y179487D01*
X272534Y179139D01*
X274317D01*
X276065Y179487D01*
X277712Y180169D01*
X279194Y181159D01*
X280455Y182420D01*
X281445Y183902D01*
X282127Y185549D01*
X282475Y187298D01*
Y189080D01*
X282127Y190829D01*
X281445Y192476D01*
X280455Y193958D01*
X279194Y195219D01*
X277712Y196209D01*
X276065Y196891D01*
X274317Y197239D01*
D02*
G37*
G36*
X204516Y180209D02*
X202862D01*
Y178555D01*
X203598Y178860D01*
X204211Y179473D01*
X204516Y180209D01*
D02*
G37*
G36*
X201862D02*
X200208D01*
X200513Y179473D01*
X201127Y178860D01*
X201862Y178555D01*
Y180209D01*
D02*
G37*
G36*
X184835Y181626D02*
X181366D01*
Y178157D01*
X181389D01*
X182398Y178428D01*
X183303Y178950D01*
X184042Y179689D01*
X184564Y180594D01*
X184835Y181604D01*
Y181626D01*
D02*
G37*
G36*
X180366D02*
X176898D01*
Y181604D01*
X177168Y180594D01*
X177691Y179689D01*
X178429Y178950D01*
X179334Y178428D01*
X180344Y178157D01*
X180366D01*
Y181626D01*
D02*
G37*
G36*
X181389Y176094D02*
X181366D01*
Y172626D01*
X184835D01*
Y172648D01*
X184564Y173658D01*
X184042Y174563D01*
X183303Y175302D01*
X182398Y175824D01*
X181389Y176094D01*
D02*
G37*
G36*
X180366D02*
X180344D01*
X179334Y175824D01*
X178429Y175302D01*
X177691Y174563D01*
X177168Y173658D01*
X176898Y172648D01*
Y172626D01*
X180366D01*
Y176094D01*
D02*
G37*
G36*
X184835Y171626D02*
X181366D01*
Y168157D01*
X181389D01*
X182398Y168428D01*
X183303Y168950D01*
X184042Y169689D01*
X184564Y170594D01*
X184835Y171604D01*
Y171626D01*
D02*
G37*
G36*
X180366D02*
X176898D01*
Y171604D01*
X177168Y170594D01*
X177691Y169689D01*
X178429Y168950D01*
X179334Y168428D01*
X180344Y168157D01*
X180366D01*
Y171626D01*
D02*
G37*
G36*
X181389Y166095D02*
X181366D01*
Y162626D01*
X184835D01*
Y162648D01*
X184564Y163658D01*
X184042Y164563D01*
X183303Y165302D01*
X182398Y165824D01*
X181389Y166095D01*
D02*
G37*
G36*
X180366D02*
X180344D01*
X179334Y165824D01*
X178429Y165302D01*
X177691Y164563D01*
X177168Y163658D01*
X176898Y162648D01*
Y162626D01*
X180366D01*
Y166095D01*
D02*
G37*
G36*
X184835Y161626D02*
X181366D01*
Y158158D01*
X181389D01*
X182398Y158428D01*
X183303Y158950D01*
X184042Y159689D01*
X184564Y160594D01*
X184835Y161603D01*
Y161626D01*
D02*
G37*
G36*
X180366D02*
X176898D01*
Y161603D01*
X177168Y160594D01*
X177691Y159689D01*
X178429Y158950D01*
X179334Y158428D01*
X180344Y158158D01*
X180366D01*
Y161626D01*
D02*
G37*
G36*
X181389Y156095D02*
X181366D01*
Y152626D01*
X184835D01*
Y152648D01*
X184564Y153658D01*
X184042Y154563D01*
X183303Y155302D01*
X182398Y155824D01*
X181389Y156095D01*
D02*
G37*
G36*
X180366D02*
X180344D01*
X179334Y155824D01*
X178429Y155302D01*
X177691Y154563D01*
X177168Y153658D01*
X176898Y152648D01*
Y152626D01*
X180366D01*
Y156095D01*
D02*
G37*
G36*
X184835Y151626D02*
X181366D01*
Y148158D01*
X181389D01*
X182398Y148428D01*
X183303Y148950D01*
X184042Y149689D01*
X184564Y150594D01*
X184835Y151603D01*
Y151626D01*
D02*
G37*
G36*
X180366D02*
X176898D01*
Y151603D01*
X177168Y150594D01*
X177691Y149689D01*
X178429Y148950D01*
X179334Y148428D01*
X180344Y148158D01*
X180366D01*
Y151626D01*
D02*
G37*
G36*
X181389Y146095D02*
X181366D01*
Y142626D01*
X184835D01*
Y142648D01*
X184564Y143658D01*
X184042Y144563D01*
X183303Y145302D01*
X182398Y145824D01*
X181389Y146095D01*
D02*
G37*
G36*
X180366D02*
X180344D01*
X179334Y145824D01*
X178429Y145302D01*
X177691Y144563D01*
X177168Y143658D01*
X176898Y142648D01*
Y142626D01*
X180366D01*
Y146095D01*
D02*
G37*
G36*
X184835Y141626D02*
X181366D01*
Y138157D01*
X181389D01*
X182398Y138428D01*
X183303Y138950D01*
X184042Y139689D01*
X184564Y140594D01*
X184835Y141604D01*
Y141626D01*
D02*
G37*
G36*
X180366D02*
X176898D01*
Y141604D01*
X177168Y140594D01*
X177691Y139689D01*
X178429Y138950D01*
X179334Y138428D01*
X180344Y138157D01*
X180366D01*
Y141626D01*
D02*
G37*
G36*
X171389Y146095D02*
X170344D01*
X169334Y145824D01*
X168429Y145302D01*
X167691Y144563D01*
X167168Y143658D01*
X166898Y142648D01*
Y141604D01*
X167168Y140594D01*
X167691Y139689D01*
X168429Y138950D01*
X169334Y138428D01*
X170344Y138157D01*
X171389D01*
X172398Y138428D01*
X173303Y138950D01*
X174042Y139689D01*
X174564Y140594D01*
X174835Y141604D01*
Y142648D01*
X174564Y143658D01*
X174042Y144563D01*
X173303Y145302D01*
X172398Y145824D01*
X171389Y146095D01*
D02*
G37*
G36*
X181389Y136094D02*
X181366D01*
Y132626D01*
X184835D01*
Y132648D01*
X184564Y133658D01*
X184042Y134563D01*
X183303Y135302D01*
X182398Y135824D01*
X181389Y136094D01*
D02*
G37*
G36*
X180366D02*
X180344D01*
X179334Y135824D01*
X178429Y135302D01*
X177691Y134563D01*
X177168Y133658D01*
X176898Y132648D01*
Y132626D01*
X180366D01*
Y136094D01*
D02*
G37*
G36*
X184835Y131626D02*
X181366D01*
Y128157D01*
X181389D01*
X182398Y128428D01*
X183303Y128950D01*
X184042Y129689D01*
X184564Y130594D01*
X184835Y131604D01*
Y131626D01*
D02*
G37*
G36*
X180366D02*
X176898D01*
Y131604D01*
X177168Y130594D01*
X177691Y129689D01*
X178429Y128950D01*
X179334Y128428D01*
X180344Y128157D01*
X180366D01*
Y131626D01*
D02*
G37*
G36*
X139410Y141945D02*
X138542D01*
X137741Y141613D01*
X137127Y140999D01*
X136795Y140198D01*
Y139330D01*
X137127Y138528D01*
X137741Y137915D01*
X138542Y137583D01*
X138995D01*
X145533Y131044D01*
X146029Y130713D01*
X146614Y130597D01*
X167167D01*
X167168Y130594D01*
X167691Y129689D01*
X168429Y128950D01*
X169334Y128428D01*
X170344Y128157D01*
X171389D01*
X172398Y128428D01*
X173303Y128950D01*
X174042Y129689D01*
X174564Y130594D01*
X174835Y131604D01*
Y132648D01*
X174564Y133658D01*
X174042Y134563D01*
X173303Y135302D01*
X172398Y135824D01*
X171389Y136094D01*
X170344D01*
X169334Y135824D01*
X168429Y135302D01*
X167691Y134563D01*
X167168Y133658D01*
X167167Y133655D01*
X147248D01*
X141157Y139746D01*
Y140198D01*
X140825Y140999D01*
X140212Y141613D01*
X139410Y141945D01*
D02*
G37*
G36*
X284243Y140646D02*
X282883D01*
X281549Y140380D01*
X280292Y139860D01*
X279161Y139104D01*
X278199Y138142D01*
X277443Y137011D01*
X276923Y135754D01*
X276658Y134420D01*
Y133060D01*
X276923Y131726D01*
X277443Y130469D01*
X278199Y129338D01*
X279161Y128376D01*
X280292Y127621D01*
X281549Y127100D01*
X282883Y126835D01*
X284243D01*
X285577Y127100D01*
X286834Y127621D01*
X287965Y128376D01*
X288927Y129338D01*
X289683Y130469D01*
X290203Y131726D01*
X290469Y133060D01*
Y134420D01*
X290203Y135754D01*
X289683Y137011D01*
X288927Y138142D01*
X287965Y139104D01*
X286834Y139860D01*
X285577Y140380D01*
X284243Y140646D01*
D02*
G37*
G36*
X434243Y140449D02*
X432883D01*
X431549Y140183D01*
X430292Y139663D01*
X429161Y138907D01*
X428199Y137945D01*
X427443Y136814D01*
X426923Y135558D01*
X426657Y134223D01*
Y132863D01*
X426923Y131529D01*
X427443Y130272D01*
X428199Y129141D01*
X429161Y128179D01*
X430292Y127424D01*
X431549Y126903D01*
X432883Y126638D01*
X434243D01*
X435577Y126903D01*
X436834Y127424D01*
X437965Y128179D01*
X438927Y129141D01*
X439683Y130272D01*
X440203Y131529D01*
X440469Y132863D01*
Y134223D01*
X440203Y135558D01*
X439683Y136814D01*
X438927Y137945D01*
X437965Y138907D01*
X436834Y139663D01*
X435577Y140183D01*
X434243Y140449D01*
D02*
G37*
G36*
X359058Y140386D02*
X357698D01*
X356364Y140120D01*
X355107Y139600D01*
X353976Y138844D01*
X353014Y137882D01*
X352258Y136751D01*
X351738Y135495D01*
X351472Y134160D01*
Y132800D01*
X351738Y131466D01*
X352258Y130209D01*
X353014Y129078D01*
X353976Y128117D01*
X355107Y127361D01*
X356364Y126840D01*
X357698Y126575D01*
X359058D01*
X360392Y126840D01*
X361649Y127361D01*
X362780Y128117D01*
X363742Y129078D01*
X364497Y130209D01*
X365018Y131466D01*
X365283Y132800D01*
Y134160D01*
X365018Y135495D01*
X364497Y136751D01*
X363742Y137882D01*
X362780Y138844D01*
X361649Y139600D01*
X360392Y140120D01*
X359058Y140386D01*
D02*
G37*
G36*
X181389Y126094D02*
X181366D01*
Y122626D01*
X184835D01*
Y122648D01*
X184564Y123658D01*
X184042Y124563D01*
X183303Y125302D01*
X182398Y125824D01*
X181389Y126094D01*
D02*
G37*
G36*
X180366D02*
X180344D01*
X179334Y125824D01*
X178429Y125302D01*
X177691Y124563D01*
X177168Y123658D01*
X176898Y122648D01*
Y122626D01*
X180366D01*
Y126094D01*
D02*
G37*
G36*
X184835Y121626D02*
X181366D01*
Y118157D01*
X181389D01*
X182398Y118428D01*
X183303Y118950D01*
X184042Y119689D01*
X184564Y120594D01*
X184835Y121604D01*
Y121626D01*
D02*
G37*
G36*
X180366D02*
X176898D01*
Y121604D01*
X177168Y120594D01*
X177691Y119689D01*
X178429Y118950D01*
X179334Y118428D01*
X180344Y118157D01*
X180366D01*
Y121626D01*
D02*
G37*
G36*
X171389Y126094D02*
X170344D01*
X169334Y125824D01*
X168429Y125302D01*
X167691Y124563D01*
X167168Y123658D01*
X166898Y122648D01*
Y121604D01*
X167168Y120594D01*
X167691Y119689D01*
X168429Y118950D01*
X169334Y118428D01*
X170344Y118157D01*
X171389D01*
X172398Y118428D01*
X173303Y118950D01*
X174042Y119689D01*
X174564Y120594D01*
X174835Y121604D01*
Y122648D01*
X174564Y123658D01*
X174042Y124563D01*
X173303Y125302D01*
X172398Y125824D01*
X171389Y126094D01*
D02*
G37*
G36*
X259243Y130646D02*
X257883D01*
X256549Y130380D01*
X255292Y129860D01*
X254161Y129104D01*
X253199Y128142D01*
X252443Y127011D01*
X251923Y125754D01*
X251658Y124420D01*
Y123060D01*
X251923Y121726D01*
X252443Y120469D01*
X253199Y119338D01*
X254161Y118376D01*
X255292Y117621D01*
X256549Y117100D01*
X257883Y116835D01*
X259243D01*
X260577Y117100D01*
X261834Y117621D01*
X262965Y118376D01*
X263927Y119338D01*
X264683Y120469D01*
X265203Y121726D01*
X265469Y123060D01*
Y124420D01*
X265203Y125754D01*
X264683Y127011D01*
X263927Y128142D01*
X262965Y129104D01*
X261834Y129860D01*
X260577Y130380D01*
X259243Y130646D01*
D02*
G37*
G36*
X409243Y130449D02*
X407883D01*
X406549Y130183D01*
X405292Y129663D01*
X404161Y128907D01*
X403199Y127945D01*
X402443Y126814D01*
X401923Y125558D01*
X401657Y124223D01*
Y122863D01*
X401923Y121529D01*
X402443Y120272D01*
X403199Y119141D01*
X404161Y118179D01*
X405292Y117424D01*
X406549Y116903D01*
X407883Y116638D01*
X409243D01*
X410577Y116903D01*
X411834Y117424D01*
X412965Y118179D01*
X413927Y119141D01*
X414683Y120272D01*
X415203Y121529D01*
X415469Y122863D01*
Y124223D01*
X415203Y125558D01*
X414683Y126814D01*
X413927Y127945D01*
X412965Y128907D01*
X411834Y129663D01*
X410577Y130183D01*
X409243Y130449D01*
D02*
G37*
G36*
X334058Y130386D02*
X332698D01*
X331364Y130121D01*
X330107Y129600D01*
X328976Y128844D01*
X328014Y127882D01*
X327258Y126751D01*
X326738Y125495D01*
X326472Y124160D01*
Y122800D01*
X326738Y121466D01*
X327258Y120209D01*
X328014Y119078D01*
X328976Y118116D01*
X330107Y117361D01*
X331364Y116840D01*
X332698Y116575D01*
X334058D01*
X335392Y116840D01*
X336649Y117361D01*
X337780Y118116D01*
X338742Y119078D01*
X339497Y120209D01*
X340018Y121466D01*
X340283Y122800D01*
Y124160D01*
X340018Y125495D01*
X339497Y126751D01*
X338742Y127882D01*
X337780Y128844D01*
X336649Y129600D01*
X335392Y130121D01*
X334058Y130386D01*
D02*
G37*
G36*
X203047Y117402D02*
Y115748D01*
X204701D01*
X204397Y116483D01*
X203783Y117097D01*
X203047Y117402D01*
D02*
G37*
G36*
X202047D02*
X201312Y117097D01*
X200698Y116483D01*
X200394Y115748D01*
X202047D01*
Y117402D01*
D02*
G37*
G36*
X204701Y114748D02*
X203047D01*
Y113094D01*
X203783Y113399D01*
X204397Y114013D01*
X204701Y114748D01*
D02*
G37*
G36*
X202047D02*
X200394D01*
X200698Y114013D01*
X201312Y113399D01*
X202047Y113094D01*
Y114748D01*
D02*
G37*
G36*
X181389Y116095D02*
X181366D01*
Y112626D01*
X184835D01*
Y112648D01*
X184564Y113658D01*
X184042Y114563D01*
X183303Y115302D01*
X182398Y115824D01*
X181389Y116095D01*
D02*
G37*
G36*
X180366D02*
X180344D01*
X179334Y115824D01*
X178429Y115302D01*
X177691Y114563D01*
X177168Y113658D01*
X176898Y112648D01*
Y112626D01*
X180366D01*
Y116095D01*
D02*
G37*
G36*
X184835Y111626D02*
X181366D01*
Y108158D01*
X181389D01*
X182398Y108428D01*
X183303Y108950D01*
X184042Y109689D01*
X184564Y110594D01*
X184835Y111603D01*
Y111626D01*
D02*
G37*
G36*
X180366D02*
X176898D01*
Y111603D01*
X177168Y110594D01*
X177691Y109689D01*
X178429Y108950D01*
X179334Y108428D01*
X180344Y108158D01*
X180366D01*
Y111626D01*
D02*
G37*
G36*
X171389Y116095D02*
X170344D01*
X169334Y115824D01*
X168429Y115302D01*
X167691Y114563D01*
X167168Y113658D01*
X166898Y112648D01*
Y111603D01*
X167168Y110594D01*
X167691Y109689D01*
X168429Y108950D01*
X169334Y108428D01*
X170344Y108158D01*
X171389D01*
X172398Y108428D01*
X173303Y108950D01*
X174042Y109689D01*
X174564Y110594D01*
X174835Y111603D01*
Y112648D01*
X174564Y113658D01*
X174042Y114563D01*
X173303Y115302D01*
X172398Y115824D01*
X171389Y116095D01*
D02*
G37*
G36*
X146563Y109634D02*
Y107980D01*
X148217D01*
X147912Y108716D01*
X147299Y109329D01*
X146563Y109634D01*
D02*
G37*
G36*
X145563D02*
X144827Y109329D01*
X144214Y108716D01*
X143909Y107980D01*
X145563D01*
Y109634D01*
D02*
G37*
G36*
X148217Y106980D02*
X146563D01*
Y105327D01*
X147299Y105631D01*
X147912Y106245D01*
X148217Y106980D01*
D02*
G37*
G36*
X145563D02*
X143909D01*
X144214Y106245D01*
X144827Y105631D01*
X145563Y105327D01*
Y106980D01*
D02*
G37*
G36*
X424317Y122239D02*
X422534D01*
X420785Y121891D01*
X419138Y121209D01*
X417656Y120219D01*
X416396Y118958D01*
X415405Y117476D01*
X414723Y115829D01*
X414375Y114080D01*
Y112298D01*
X414723Y110549D01*
X415405Y108902D01*
X416396Y107420D01*
X417656Y106159D01*
X419138Y105169D01*
X420785Y104487D01*
X422534Y104139D01*
X424317D01*
X426065Y104487D01*
X427712Y105169D01*
X429194Y106159D01*
X430455Y107420D01*
X431445Y108902D01*
X432127Y110549D01*
X432475Y112298D01*
Y114080D01*
X432127Y115829D01*
X431445Y117476D01*
X430455Y118958D01*
X429194Y120219D01*
X427712Y121209D01*
X426065Y121891D01*
X424317Y122239D01*
D02*
G37*
G36*
X349317D02*
X347534D01*
X345785Y121891D01*
X344138Y121209D01*
X342656Y120219D01*
X341396Y118958D01*
X340405Y117476D01*
X339723Y115829D01*
X339375Y114080D01*
Y112298D01*
X339723Y110549D01*
X340405Y108902D01*
X341396Y107420D01*
X342656Y106159D01*
X344138Y105169D01*
X345785Y104487D01*
X347534Y104139D01*
X349317D01*
X351065Y104487D01*
X352712Y105169D01*
X354194Y106159D01*
X355455Y107420D01*
X356445Y108902D01*
X357127Y110549D01*
X357475Y112298D01*
Y114080D01*
X357127Y115829D01*
X356445Y117476D01*
X355455Y118958D01*
X354194Y120219D01*
X352712Y121209D01*
X351065Y121891D01*
X349317Y122239D01*
D02*
G37*
G36*
X274317D02*
X272534D01*
X270785Y121891D01*
X269138Y121209D01*
X267656Y120219D01*
X266396Y118958D01*
X265405Y117476D01*
X264723Y115829D01*
X264375Y114080D01*
Y112298D01*
X264723Y110549D01*
X265405Y108902D01*
X266396Y107420D01*
X267656Y106159D01*
X269138Y105169D01*
X270785Y104487D01*
X272534Y104139D01*
X274317D01*
X276065Y104487D01*
X277712Y105169D01*
X279194Y106159D01*
X280455Y107420D01*
X281445Y108902D01*
X282127Y110549D01*
X282475Y112298D01*
Y114080D01*
X282127Y115829D01*
X281445Y117476D01*
X280455Y118958D01*
X279194Y120219D01*
X277712Y121209D01*
X276065Y121891D01*
X274317Y122239D01*
D02*
G37*
G36*
X181389Y106095D02*
X181366D01*
Y102626D01*
X184835D01*
Y102648D01*
X184564Y103658D01*
X184042Y104563D01*
X183303Y105302D01*
X182398Y105824D01*
X181389Y106095D01*
D02*
G37*
G36*
X180366D02*
X180344D01*
X179334Y105824D01*
X178429Y105302D01*
X177691Y104563D01*
X177168Y103658D01*
X176898Y102648D01*
Y102626D01*
X180366D01*
Y106095D01*
D02*
G37*
G36*
X184835Y101626D02*
X181366D01*
Y98158D01*
X181389D01*
X182398Y98428D01*
X183303Y98950D01*
X184042Y99689D01*
X184564Y100594D01*
X184835Y101603D01*
Y101626D01*
D02*
G37*
G36*
X180366D02*
X176898D01*
Y101603D01*
X177168Y100594D01*
X177691Y99689D01*
X178429Y98950D01*
X179334Y98428D01*
X180344Y98158D01*
X180366D01*
Y101626D01*
D02*
G37*
G36*
X171389Y106095D02*
X170344D01*
X169334Y105824D01*
X168429Y105302D01*
X167691Y104563D01*
X167168Y103658D01*
X166898Y102648D01*
Y101603D01*
X167168Y100594D01*
X167691Y99689D01*
X168429Y98950D01*
X169334Y98428D01*
X170344Y98158D01*
X171389D01*
X172398Y98428D01*
X173303Y98950D01*
X174042Y99689D01*
X174564Y100594D01*
X174835Y101603D01*
Y102648D01*
X174564Y103658D01*
X174042Y104563D01*
X173303Y105302D01*
X172398Y105824D01*
X171389Y106095D01*
D02*
G37*
G36*
X434243Y65646D02*
X432883D01*
X431549Y65380D01*
X430292Y64860D01*
X429161Y64104D01*
X428199Y63142D01*
X427443Y62011D01*
X426923Y60754D01*
X426657Y59420D01*
Y58060D01*
X426923Y56726D01*
X427443Y55469D01*
X428199Y54338D01*
X429161Y53376D01*
X430292Y52621D01*
X431549Y52100D01*
X432883Y51835D01*
X434243D01*
X435577Y52100D01*
X436834Y52621D01*
X437965Y53376D01*
X438927Y54338D01*
X439683Y55469D01*
X440203Y56726D01*
X440469Y58060D01*
Y59420D01*
X440203Y60754D01*
X439683Y62011D01*
X438927Y63142D01*
X437965Y64104D01*
X436834Y64860D01*
X435577Y65380D01*
X434243Y65646D01*
D02*
G37*
G36*
X284342D02*
X282981D01*
X281647Y65380D01*
X280390Y64860D01*
X279259Y64104D01*
X278298Y63142D01*
X277542Y62011D01*
X277021Y60754D01*
X276756Y59420D01*
Y58060D01*
X277021Y56726D01*
X277542Y55469D01*
X278298Y54338D01*
X279259Y53376D01*
X280390Y52621D01*
X281647Y52100D01*
X282981Y51835D01*
X284342D01*
X285676Y52100D01*
X286932Y52621D01*
X288063Y53376D01*
X289025Y54338D01*
X289781Y55469D01*
X290301Y56726D01*
X290567Y58060D01*
Y59420D01*
X290301Y60754D01*
X289781Y62011D01*
X289025Y63142D01*
X288063Y64104D01*
X286932Y64860D01*
X285676Y65380D01*
X284342Y65646D01*
D02*
G37*
G36*
X358948Y65449D02*
X357588D01*
X356254Y65183D01*
X354997Y64663D01*
X353866Y63907D01*
X352904Y62945D01*
X352148Y61814D01*
X351628Y60558D01*
X351362Y59223D01*
Y57863D01*
X351628Y56529D01*
X352148Y55272D01*
X352904Y54141D01*
X353866Y53179D01*
X354997Y52424D01*
X356254Y51903D01*
X357588Y51638D01*
X358948D01*
X360282Y51903D01*
X361539Y52424D01*
X362670Y53179D01*
X363632Y54141D01*
X364387Y55272D01*
X364908Y56529D01*
X365173Y57863D01*
Y59223D01*
X364908Y60558D01*
X364387Y61814D01*
X363632Y62945D01*
X362670Y63907D01*
X361539Y64663D01*
X360282Y65183D01*
X358948Y65449D01*
D02*
G37*
G36*
X409243Y55646D02*
X407883D01*
X406549Y55380D01*
X405292Y54860D01*
X404161Y54104D01*
X403199Y53142D01*
X402443Y52011D01*
X401923Y50754D01*
X401657Y49420D01*
Y48060D01*
X401923Y46726D01*
X402443Y45469D01*
X403199Y44338D01*
X404161Y43376D01*
X405292Y42621D01*
X406549Y42100D01*
X407883Y41835D01*
X409243D01*
X410577Y42100D01*
X411834Y42621D01*
X412965Y43376D01*
X413927Y44338D01*
X414683Y45469D01*
X415203Y46726D01*
X415469Y48060D01*
Y49420D01*
X415203Y50754D01*
X414683Y52011D01*
X413927Y53142D01*
X412965Y54104D01*
X411834Y54860D01*
X410577Y55380D01*
X409243Y55646D01*
D02*
G37*
G36*
X259342D02*
X257981D01*
X256647Y55380D01*
X255390Y54860D01*
X254259Y54104D01*
X253298Y53142D01*
X252542Y52011D01*
X252021Y50754D01*
X251756Y49420D01*
Y48060D01*
X252021Y46726D01*
X252542Y45469D01*
X253298Y44338D01*
X254259Y43376D01*
X255390Y42621D01*
X256647Y42100D01*
X257981Y41835D01*
X259342D01*
X260676Y42100D01*
X261932Y42621D01*
X263063Y43376D01*
X264025Y44338D01*
X264781Y45469D01*
X265301Y46726D01*
X265567Y48060D01*
Y49420D01*
X265301Y50754D01*
X264781Y52011D01*
X264025Y53142D01*
X263063Y54104D01*
X261932Y54860D01*
X260676Y55380D01*
X259342Y55646D01*
D02*
G37*
G36*
X333948Y55449D02*
X332588D01*
X331254Y55183D01*
X329997Y54663D01*
X328866Y53907D01*
X327904Y52945D01*
X327148Y51814D01*
X326628Y50558D01*
X326362Y49223D01*
Y47863D01*
X326628Y46529D01*
X327148Y45272D01*
X327904Y44141D01*
X328866Y43180D01*
X329997Y42424D01*
X331254Y41903D01*
X332588Y41638D01*
X333948D01*
X335282Y41903D01*
X336539Y42424D01*
X337670Y43180D01*
X338632Y44141D01*
X339387Y45272D01*
X339908Y46529D01*
X340173Y47863D01*
Y49223D01*
X339908Y50558D01*
X339387Y51814D01*
X338632Y52945D01*
X337670Y53907D01*
X336539Y54663D01*
X335282Y55183D01*
X333948Y55449D01*
D02*
G37*
G36*
X424317Y47239D02*
X422534D01*
X420785Y46891D01*
X419138Y46209D01*
X417656Y45219D01*
X416396Y43958D01*
X415405Y42476D01*
X414723Y40829D01*
X414375Y39080D01*
Y37298D01*
X414723Y35549D01*
X415405Y33902D01*
X416396Y32420D01*
X417656Y31159D01*
X419138Y30169D01*
X420785Y29487D01*
X422534Y29139D01*
X424317D01*
X426065Y29487D01*
X427712Y30169D01*
X429194Y31159D01*
X430455Y32420D01*
X431445Y33902D01*
X432127Y35549D01*
X432475Y37298D01*
Y39080D01*
X432127Y40829D01*
X431445Y42476D01*
X430455Y43958D01*
X429194Y45219D01*
X427712Y46209D01*
X426065Y46891D01*
X424317Y47239D01*
D02*
G37*
G36*
X349317D02*
X347534D01*
X345785Y46891D01*
X344138Y46209D01*
X342656Y45219D01*
X341396Y43958D01*
X340405Y42476D01*
X339723Y40829D01*
X339375Y39080D01*
Y37298D01*
X339723Y35549D01*
X340405Y33902D01*
X341396Y32420D01*
X342656Y31159D01*
X344138Y30169D01*
X345785Y29487D01*
X347534Y29139D01*
X349317D01*
X351065Y29487D01*
X352712Y30169D01*
X354194Y31159D01*
X355455Y32420D01*
X356445Y33902D01*
X357127Y35549D01*
X357475Y37298D01*
Y39080D01*
X357127Y40829D01*
X356445Y42476D01*
X355455Y43958D01*
X354194Y45219D01*
X352712Y46209D01*
X351065Y46891D01*
X349317Y47239D01*
D02*
G37*
G36*
X274317D02*
X272534D01*
X270785Y46891D01*
X269138Y46209D01*
X267656Y45219D01*
X266396Y43958D01*
X265405Y42476D01*
X264723Y40829D01*
X264375Y39080D01*
Y37298D01*
X264723Y35549D01*
X265405Y33902D01*
X266396Y32420D01*
X267656Y31159D01*
X269138Y30169D01*
X270785Y29487D01*
X272534Y29139D01*
X274317D01*
X276065Y29487D01*
X277712Y30169D01*
X279194Y31159D01*
X280455Y32420D01*
X281445Y33902D01*
X282127Y35549D01*
X282475Y37298D01*
Y39080D01*
X282127Y40829D01*
X281445Y42476D01*
X280455Y43958D01*
X279194Y45219D01*
X277712Y46209D01*
X276065Y46891D01*
X274317Y47239D01*
D02*
G37*
G36*
X477309Y27575D02*
X475447D01*
X473608Y27284D01*
X471838Y26708D01*
X470179Y25863D01*
X468673Y24769D01*
X467357Y23453D01*
X466263Y21947D01*
X465418Y20288D01*
X464842Y18518D01*
X464551Y16679D01*
Y14817D01*
X464842Y12979D01*
X465418Y11208D01*
X466263Y9550D01*
X467357Y8043D01*
X468673Y6727D01*
X470179Y5633D01*
X471838Y4788D01*
X473608Y4213D01*
X475447Y3921D01*
X477309D01*
X479147Y4213D01*
X480918Y4788D01*
X482577Y5633D01*
X484083Y6727D01*
X485399Y8043D01*
X486493Y9550D01*
X487338Y11208D01*
X487914Y12979D01*
X488205Y14817D01*
Y16679D01*
X487914Y18518D01*
X487338Y20288D01*
X486493Y21947D01*
X485399Y23453D01*
X484083Y24769D01*
X482577Y25863D01*
X480918Y26708D01*
X479147Y27284D01*
X477309Y27575D01*
D02*
G37*
G36*
X136758D02*
X134896D01*
X133057Y27284D01*
X131287Y26708D01*
X129628Y25863D01*
X128122Y24769D01*
X126806Y23453D01*
X125712Y21947D01*
X124866Y20288D01*
X124291Y18518D01*
X124000Y16679D01*
Y14817D01*
X124291Y12979D01*
X124866Y11208D01*
X125712Y9550D01*
X126806Y8043D01*
X128122Y6727D01*
X129628Y5633D01*
X131287Y4788D01*
X133057Y4213D01*
X134896Y3921D01*
X136758D01*
X138596Y4213D01*
X140367Y4788D01*
X142025Y5633D01*
X143531Y6727D01*
X144848Y8043D01*
X145942Y9550D01*
X146787Y11208D01*
X147362Y12979D01*
X147653Y14817D01*
Y16679D01*
X147362Y18518D01*
X146787Y20288D01*
X145942Y21947D01*
X144848Y23453D01*
X143531Y24769D01*
X142025Y25863D01*
X140367Y26708D01*
X138596Y27284D01*
X136758Y27575D01*
D02*
G37*
%LPD*%
G36*
X177956Y357719D02*
X178327Y357557D01*
X178441Y357280D01*
X178944Y356778D01*
X179567Y356520D01*
X180401Y355686D01*
Y345652D01*
X180354Y345419D01*
Y339854D01*
X179354Y339440D01*
X179125Y339669D01*
X178323Y340002D01*
X177456D01*
X176654Y339669D01*
X176549Y339564D01*
X175549Y339978D01*
Y356116D01*
X177228Y357796D01*
X177297Y357806D01*
X177956Y357719D01*
D02*
G37*
%LPC*%
G36*
X150091Y281610D02*
X147622D01*
Y279634D01*
X150091D01*
Y281610D01*
D02*
G37*
G36*
Y278634D02*
X147622D01*
X147622Y276904D01*
X147122Y276314D01*
X146844Y276123D01*
X146221Y275865D01*
X145608Y275251D01*
X145303Y274516D01*
X149610D01*
X149306Y275251D01*
X148899Y275658D01*
X149182Y276620D01*
X149206Y276658D01*
X150091D01*
Y278634D01*
D02*
G37*
G36*
X149610Y273516D02*
X147957D01*
Y271862D01*
X148692Y272167D01*
X149306Y272780D01*
X149610Y273516D01*
D02*
G37*
G36*
X146957D02*
X145303D01*
X145608Y272780D01*
X146221Y272167D01*
X146957Y271862D01*
Y273516D01*
D02*
G37*
%LPD*%
D11*
X163959Y308661D02*
X166076Y310778D01*
X161339Y308661D02*
X163959D01*
X149213Y313827D02*
X149559Y314173D01*
X149213Y309836D02*
Y313827D01*
X153591Y314173D02*
X172441D01*
X174019Y315752D01*
X149213Y309836D02*
X150578Y308470D01*
X173995Y315752D02*
Y318406D01*
X180252Y378852D02*
Y385163D01*
X167810Y268007D02*
X170487Y270684D01*
X173031Y298425D02*
Y300984D01*
X191929Y270669D02*
X193307D01*
X193204Y293401D02*
X195881Y296078D01*
X193307Y270669D02*
X195984Y267992D01*
X201181Y290945D02*
X202756Y289370D01*
X198228Y290945D02*
X201181D01*
X173031Y300984D02*
X174213Y302165D01*
Y303150D01*
X187338Y374866D02*
Y378852D01*
Y374866D02*
X187402Y374803D01*
X163323Y373953D02*
Y378852D01*
X162992Y373622D02*
X163323Y373953D01*
X202362Y180315D02*
Y180709D01*
X173995Y308743D02*
Y315752D01*
X142520Y210472D02*
Y281496D01*
Y210472D02*
X170866Y182126D01*
X175000Y294287D02*
Y298425D01*
X174414Y293701D02*
X175000Y294287D01*
X166535Y297244D02*
X170079Y293701D01*
X174414D01*
X136819Y297244D02*
X166535D01*
X131102Y291527D02*
X136819Y297244D01*
X131102Y287795D02*
Y291527D01*
Y185039D02*
Y273622D01*
Y185039D02*
X153937Y162205D01*
X157087D01*
X157165Y162126D01*
X170866D01*
X127559Y179921D02*
Y277953D01*
Y179921D02*
X155354Y152126D01*
X127559Y277953D02*
X142520Y292913D01*
X155354Y152126D02*
X170866D01*
X142520Y292913D02*
X165551D01*
X135039Y280709D02*
X145276Y290945D01*
X135039Y187402D02*
Y280709D01*
Y187402D02*
X150315Y172126D01*
X138976Y192126D02*
Y281496D01*
X146614Y132126D02*
X170866D01*
X138976Y139764D02*
X146614Y132126D01*
X138976Y281496D02*
X146457Y288976D01*
X165551D01*
X145276Y290945D02*
X165551D01*
X142520Y281496D02*
X148031Y287008D01*
X156496Y279134D02*
X165551D01*
X156496Y279134D02*
X156496Y279134D01*
X148031Y287008D02*
X165551D01*
X176315Y359045D02*
Y378852D01*
X173995Y318406D02*
X174019Y318431D01*
X180905Y259017D02*
X188527Y251395D01*
X183598Y368234D02*
X185370Y370005D01*
X205560Y242598D02*
X207278Y240880D01*
X174375Y363951D02*
X174404Y363922D01*
X166382Y378761D02*
X166472Y378852D01*
X181500Y308163D02*
Y318431D01*
X165877Y374435D02*
X166374D01*
X182874Y265748D02*
X182965Y265657D01*
X188527Y247754D02*
Y251395D01*
X172378Y358391D02*
Y378852D01*
X178937Y298425D02*
Y305600D01*
X166374Y374435D02*
Y376606D01*
X198228Y292913D02*
X198241Y292926D01*
X174019Y327486D02*
Y356750D01*
X176969Y298425D02*
Y305769D01*
X184189Y374632D02*
Y378852D01*
X186748Y261246D02*
X186779Y261277D01*
X165539Y271272D02*
X165551Y271260D01*
X165291Y378852D02*
X166472D01*
X181930Y356319D02*
X182637Y357026D01*
X191964Y244317D02*
X198854D01*
X178283Y378852D02*
X178312Y378823D01*
X207278Y237862D02*
Y240880D01*
X172378Y358391D02*
X174019Y356750D01*
X165291Y375020D02*
X165877Y374435D01*
X161453Y244317D02*
X168342D01*
X188527Y247754D02*
X191964Y244317D01*
X166382Y376614D02*
Y378761D01*
X181884Y345419D02*
X181930Y345465D01*
Y356319D01*
X168441Y378852D02*
Y384671D01*
X152455Y240880D02*
X155893Y244317D01*
X160567Y271285D02*
X160579Y271272D01*
X182965Y261387D02*
X183204Y261147D01*
X171000Y302880D02*
X171031Y302848D01*
X182965Y261387D02*
Y265657D01*
X174019Y356750D02*
X176315Y359045D01*
X165291Y375020D02*
Y377088D01*
X174375Y363951D02*
Y378823D01*
X185370Y373450D02*
Y378852D01*
X177759Y327486D02*
X178017Y327743D01*
X182637Y357037D02*
X183894Y358293D01*
X174346Y378852D02*
X174375Y378823D01*
X166374Y376606D02*
X166382Y376614D01*
X168342Y244317D02*
X171779Y247754D01*
X166374Y367840D02*
Y374435D01*
X173995Y308743D02*
X176969Y305769D01*
X178017Y327743D02*
Y337693D01*
X171031Y298457D02*
X171063Y298425D01*
X178312Y363951D02*
Y378823D01*
Y363951D02*
X178340Y363922D01*
X202975Y292926D02*
X202988Y292939D01*
X181500Y327486D02*
X181884Y327870D01*
X184189Y374632D02*
X185370Y373450D01*
X186779Y265717D02*
X186811Y265748D01*
X182637Y357026D02*
Y357037D01*
X180905Y259017D02*
Y265748D01*
X177890Y337821D02*
X178017Y337693D01*
X178937Y258864D02*
Y265748D01*
X185370Y370005D02*
Y373450D01*
X181884Y327870D02*
Y345419D01*
X179956Y358293D02*
X181930Y356319D01*
X171779Y247754D02*
Y251707D01*
X152455Y237961D02*
Y240880D01*
X178937Y305600D02*
X181500Y308163D01*
X171779Y251707D02*
X178937Y258864D01*
X188779Y298425D02*
Y324606D01*
X246063Y381890D01*
X375984D02*
X394685Y363189D01*
X246063Y381890D02*
X375984D01*
X169291Y260236D02*
X171063Y262008D01*
X163976Y260236D02*
X169291D01*
X171063Y262008D02*
Y265748D01*
X198228Y273228D02*
X210039D01*
X225394Y257874D01*
X245079Y75787D02*
X278543D01*
X431804D02*
X432788Y76772D01*
X433071D01*
X225394Y95472D02*
Y257874D01*
Y95472D02*
X245079Y75787D01*
X354331D02*
X431804D01*
X278543D02*
X354331D01*
X150315Y172126D02*
X170866D01*
X174019Y315752D02*
Y318431D01*
X354331Y301181D02*
X427165D01*
X279528D02*
X354331D01*
X198228Y279134D02*
X221063D01*
X243110Y301181D02*
X279528D01*
X221063Y279134D02*
X243110Y301181D01*
X207480Y231622D02*
Y237660D01*
X207278Y237862D02*
X207480Y237660D01*
X241142Y2953D02*
X277559D01*
X350394D02*
X436024D01*
X277559D02*
X350394D01*
X198228Y271260D02*
X206102D01*
X220472Y23622D02*
Y256890D01*
Y23622D02*
X241142Y2953D01*
X206102Y271260D02*
X220472Y256890D01*
X192717Y298425D02*
Y316017D01*
X238597Y361896D01*
X165551Y292913D02*
X165551Y292913D01*
X354331Y227362D02*
X428150D01*
X198228Y277165D02*
X221850D01*
X235236Y263779D01*
X281213Y227362D02*
X354331D01*
X244094Y226378D02*
X280229D01*
X281213Y227362D01*
X235236Y235236D02*
X244094Y226378D01*
X235236Y235236D02*
Y263779D01*
X306398Y374508D02*
X318406Y362500D01*
X244587Y374508D02*
X306398D01*
X190748Y298425D02*
Y320669D01*
X244587Y374508D01*
X152362Y237868D02*
X152455Y237961D01*
X152362Y232410D02*
Y237868D01*
X241142Y150591D02*
X275590D01*
X355315D02*
X431102D01*
X275590D02*
X355315D01*
X198228Y275197D02*
X215945D01*
X230315Y161417D02*
X241142Y150591D01*
X230315Y161417D02*
Y260827D01*
X215945Y275197D02*
X230315Y260827D01*
D16*
X161339Y308661D02*
D03*
X155197D02*
D03*
D17*
X153591Y314173D02*
D03*
X149559D02*
D03*
D18*
X152362Y229008D02*
D03*
X207480Y228221D02*
D03*
Y231622D02*
D03*
X152362Y232410D02*
D03*
D19*
X157283Y260236D02*
D03*
X163976D02*
D03*
D20*
X173031Y298425D02*
D03*
X184843Y265748D02*
D03*
X171063Y298425D02*
D03*
X186811Y265748D02*
D03*
X171063D02*
D03*
X173031D02*
D03*
X175000D02*
D03*
X176969D02*
D03*
X182874D02*
D03*
X188779D02*
D03*
X190748D02*
D03*
X192717D02*
D03*
Y298425D02*
D03*
X190748D02*
D03*
X188779D02*
D03*
X186811D02*
D03*
X184843D02*
D03*
X182874D02*
D03*
X180905D02*
D03*
X178937D02*
D03*
X176969D02*
D03*
X175000D02*
D03*
X178937Y265748D02*
D03*
X180905D02*
D03*
D21*
X198228Y290945D02*
D03*
X165551Y273228D02*
D03*
Y279134D02*
D03*
X198228Y292913D02*
D03*
X165551Y271260D02*
D03*
X198228Y277165D02*
D03*
Y279134D02*
D03*
Y281102D02*
D03*
Y283071D02*
D03*
Y288976D02*
D03*
Y287008D02*
D03*
Y285039D02*
D03*
X165551Y275197D02*
D03*
Y277165D02*
D03*
Y281102D02*
D03*
Y283071D02*
D03*
Y292913D02*
D03*
Y290945D02*
D03*
Y288976D02*
D03*
Y287008D02*
D03*
Y285039D02*
D03*
X198228Y275197D02*
D03*
Y271260D02*
D03*
Y273228D02*
D03*
D22*
X177759Y318431D02*
D03*
Y327486D02*
D03*
X174019D02*
D03*
Y318431D02*
D03*
X181500D02*
D03*
Y327486D02*
D03*
D23*
X188520Y378852D02*
D03*
X162142D02*
D03*
X163323D02*
D03*
X187338D02*
D03*
X185370D02*
D03*
X176315D02*
D03*
X174346D02*
D03*
X170409D02*
D03*
X165291D02*
D03*
X166472D02*
D03*
X172378D02*
D03*
X178283D02*
D03*
X182220D02*
D03*
X184189D02*
D03*
X180252D02*
D03*
X168441D02*
D03*
D24*
X195449Y396588D02*
D03*
X155212D02*
D03*
X195449Y381116D02*
D03*
X155212D02*
D03*
D44*
X150591Y279134D02*
D03*
X156496D02*
D03*
D45*
X198854Y244317D02*
D03*
X161453D02*
D03*
D46*
X148425Y178740D02*
Y188189D01*
X146433Y217017D02*
Y265725D01*
X151994Y271285D01*
X160567D01*
X160579Y271272D02*
X165539D01*
X171031Y298457D02*
Y302848D01*
X198241Y292926D02*
X202975D01*
X186779Y261277D02*
Y265717D01*
D47*
X180866Y182126D02*
D03*
Y172126D02*
D03*
Y162126D02*
D03*
Y152126D02*
D03*
Y142126D02*
D03*
Y132126D02*
D03*
Y122126D02*
D03*
Y112126D02*
D03*
Y102126D02*
D03*
X170866Y122126D02*
D03*
Y172126D02*
D03*
Y162126D02*
D03*
Y152126D02*
D03*
Y182126D02*
D03*
Y132126D02*
D03*
Y102126D02*
D03*
Y112126D02*
D03*
Y142126D02*
D03*
X180866Y192126D02*
D03*
D48*
X186708Y383084D02*
D03*
X163953D02*
D03*
D49*
X135827Y360236D02*
D03*
X476378D02*
D03*
Y15748D02*
D03*
X135827D02*
D03*
D50*
X170866Y192126D02*
D03*
D51*
X273425Y338189D02*
D03*
X348425D02*
D03*
X423425D02*
D03*
X273425Y263189D02*
D03*
X348425D02*
D03*
X423425D02*
D03*
X273425Y188189D02*
D03*
X348425D02*
D03*
X423425D02*
D03*
X273425Y113189D02*
D03*
X348425D02*
D03*
X423425D02*
D03*
X273425Y38189D02*
D03*
X348425D02*
D03*
X423425D02*
D03*
D52*
X433563Y358937D02*
D03*
X408563Y348937D02*
D03*
X358563Y208937D02*
D03*
X333563Y198937D02*
D03*
X283563Y283543D02*
D03*
X258563Y273543D02*
D03*
X358378Y133480D02*
D03*
X333378Y123480D02*
D03*
X358169Y283937D02*
D03*
X333169Y273937D02*
D03*
X433661Y283425D02*
D03*
X408661Y273425D02*
D03*
X283661Y58740D02*
D03*
X258661Y48740D02*
D03*
X283465Y358425D02*
D03*
X258465Y348425D02*
D03*
X283169Y208543D02*
D03*
X258169Y198543D02*
D03*
X358268Y58543D02*
D03*
X333268Y48543D02*
D03*
X283563Y133740D02*
D03*
X258563Y123740D02*
D03*
X433563Y133543D02*
D03*
X408563Y123543D02*
D03*
X433071Y208425D02*
D03*
X408071Y198425D02*
D03*
X358169Y358937D02*
D03*
X333169Y348937D02*
D03*
X433563Y58740D02*
D03*
X408563Y48740D02*
D03*
D53*
X180252Y385163D02*
D03*
X185039Y311024D02*
D03*
X142913Y302362D02*
D03*
X202547Y256980D02*
D03*
X221260Y301181D02*
D03*
X168504Y399606D02*
D03*
X180709Y400000D02*
D03*
X147457Y274016D02*
D03*
X151969Y253937D02*
D03*
X160630Y228346D02*
D03*
X199213D02*
D03*
X202362Y180709D02*
D03*
X146063Y107480D02*
D03*
X202547Y115248D02*
D03*
X148425Y188189D02*
D03*
Y178740D02*
D03*
X146433Y217017D02*
D03*
X131102Y287795D02*
D03*
Y273622D02*
D03*
X138976Y192126D02*
D03*
Y139764D02*
D03*
X177890Y337821D02*
D03*
X207278Y237862D02*
D03*
X160567Y271285D02*
D03*
X183598Y368234D02*
D03*
X186748Y261246D02*
D03*
X152455Y237961D02*
D03*
X166374Y367840D02*
D03*
X202988Y292939D02*
D03*
X166076Y310778D02*
D03*
X171000Y302880D02*
D03*
X183204Y261147D02*
D03*
X168441Y384671D02*
D03*
X394685Y363189D02*
D03*
X433071Y76772D02*
D03*
X354331Y75787D02*
D03*
X278543D02*
D03*
X427165Y301181D02*
D03*
X354331D02*
D03*
X279528D02*
D03*
X436024Y2953D02*
D03*
X350394D02*
D03*
X277559D02*
D03*
X238597Y361896D02*
D03*
X428150Y227362D02*
D03*
X354331D02*
D03*
X281496D02*
D03*
X150578Y308470D02*
D03*
X318406Y362500D02*
D03*
X431102Y150591D02*
D03*
X355315D02*
D03*
X275590D02*
D03*
D54*
X183894Y358293D02*
D03*
X179956D02*
D03*
X174404Y363922D02*
D03*
X178340D02*
D03*
M02*
