G04*
G04 #@! TF.GenerationSoftware,Altium Limited,Altium Designer,25.8.1 (18)*
G04*
G04 Layer_Physical_Order=1*
G04 Layer_Color=255*
%FSLAX44Y44*%
%MOMM*%
G71*
G04*
G04 #@! TF.SameCoordinates,26A691C8-8527-417C-A7E6-5B3A698584CC*
G04*
G04*
G04 #@! TF.FilePolarity,Positive*
G04*
G01*
G75*
%ADD10C,0.2540*%
%ADD14R,0.9300X1.4200*%
%ADD15R,1.2000X0.3000*%
%ADD16R,0.3000X1.2000*%
%ADD17R,0.6000X1.2000*%
%ADD18R,0.4000X0.3500*%
%ADD19R,0.3000X1.1500*%
%ADD20R,2.1800X2.0000*%
%ADD35R,5.5000X2.0000*%
%ADD36C,0.3250*%
%ADD37C,2.0450*%
%ADD38C,5.5000*%
%ADD39C,3.0000*%
%ADD40C,0.6000*%
%ADD41C,0.4000*%
G36*
X512300Y1035000D02*
X513551D01*
X516004Y1034512D01*
X518316Y1033555D01*
X520396Y1032165D01*
X522165Y1030396D01*
X523555Y1028316D01*
X524512Y1026004D01*
X525000Y1023551D01*
Y1022300D01*
X525000D01*
Y992700D01*
X525061Y991455D01*
X525547Y989013D01*
X526500Y986713D01*
X527883Y984643D01*
X529643Y982883D01*
X531713Y981500D01*
X534013Y980547D01*
X536455Y980061D01*
X537700Y980000D01*
X1237300Y980000D01*
X1238551D01*
X1241004Y979512D01*
X1243316Y978555D01*
X1245396Y977165D01*
X1247165Y975396D01*
X1248555Y973316D01*
X1249512Y971004D01*
X1250000Y968551D01*
Y967300D01*
X1250000D01*
Y7700D01*
Y6942D01*
X1249704Y5454D01*
X1249124Y4053D01*
X1248281Y2792D01*
X1247208Y1719D01*
X1245947Y876D01*
X1244546Y296D01*
X1243058Y0D01*
X1110507D01*
X1110002Y2540D01*
X1110638Y2803D01*
X1112197Y4362D01*
X1113040Y6398D01*
Y8602D01*
X1112197Y10638D01*
X1110638Y12197D01*
X1108602Y13040D01*
X1106398D01*
X1104362Y12197D01*
X1103550Y11385D01*
X893950D01*
X893138Y12197D01*
X891102Y13040D01*
X888898D01*
X886862Y12197D01*
X886050Y11385D01*
X708950D01*
X708138Y12197D01*
X706102Y13040D01*
X703898D01*
X701862Y12197D01*
X701050Y11385D01*
X614109D01*
X563885Y61609D01*
Y652500D01*
X563589Y653987D01*
X562747Y655247D01*
X532158Y685836D01*
X532994Y688592D01*
X533344Y688662D01*
X568615Y653391D01*
Y242500D01*
X568911Y241013D01*
X569753Y239753D01*
X619753Y189753D01*
X621013Y188911D01*
X622500Y188615D01*
X703550D01*
X704362Y187803D01*
X706398Y186960D01*
X708602D01*
X710638Y187803D01*
X711450Y188615D01*
X896050D01*
X896862Y187803D01*
X898898Y186960D01*
X901102D01*
X903138Y187803D01*
X903950Y188615D01*
X1096782D01*
X1098269Y188911D01*
X1099090Y189460D01*
X1101102D01*
X1103138Y190303D01*
X1104697Y191862D01*
X1105540Y193898D01*
Y196102D01*
X1104697Y198138D01*
X1103138Y199697D01*
X1101102Y200540D01*
X1098898D01*
X1096862Y199697D01*
X1095303Y198138D01*
X1094577Y196385D01*
X903950D01*
X903138Y197197D01*
X901102Y198040D01*
X898898D01*
X896862Y197197D01*
X896050Y196385D01*
X711450D01*
X710638Y197197D01*
X708602Y198040D01*
X706398D01*
X704362Y197197D01*
X703550Y196385D01*
X624109D01*
X576385Y244109D01*
Y655000D01*
X576089Y656487D01*
X575247Y657747D01*
X540225Y692769D01*
X541197Y695115D01*
X546891D01*
X581115Y660891D01*
Y410000D01*
X581411Y408513D01*
X582253Y407253D01*
X609753Y379753D01*
X611013Y378911D01*
X612500Y378615D01*
X696050D01*
X696862Y377803D01*
X698898Y376960D01*
X701102D01*
X703138Y377803D01*
X703950Y378615D01*
X898550D01*
X899362Y377803D01*
X901398Y376960D01*
X903602D01*
X905638Y377803D01*
X906450Y378615D01*
X1091050D01*
X1091862Y377803D01*
X1093898Y376960D01*
X1096102D01*
X1098138Y377803D01*
X1099697Y379362D01*
X1100540Y381398D01*
Y383602D01*
X1099697Y385638D01*
X1098138Y387197D01*
X1096102Y388040D01*
X1093898D01*
X1091862Y387197D01*
X1091050Y386385D01*
X906450D01*
X905638Y387197D01*
X903602Y388040D01*
X901398D01*
X899362Y387197D01*
X898550Y386385D01*
X703950D01*
X703138Y387197D01*
X701102Y388040D01*
X698898D01*
X696862Y387197D01*
X696050Y386385D01*
X614109D01*
X588885Y411609D01*
Y662500D01*
X588589Y663987D01*
X587747Y665247D01*
X555225Y697769D01*
X556197Y700115D01*
X561891D01*
X593615Y668391D01*
Y597500D01*
X593911Y596013D01*
X594753Y594753D01*
X617253Y572253D01*
X618513Y571411D01*
X620000Y571115D01*
X711782D01*
X713269Y571411D01*
X714090Y571960D01*
X716102D01*
X718138Y572803D01*
X718950Y573615D01*
X896050D01*
X896862Y572803D01*
X898898Y571960D01*
X901102D01*
X903138Y572803D01*
X903950Y573615D01*
X1083550D01*
X1084362Y572803D01*
X1086398Y571960D01*
X1088602D01*
X1090638Y572803D01*
X1092197Y574362D01*
X1093040Y576398D01*
Y578602D01*
X1092197Y580638D01*
X1090638Y582197D01*
X1088602Y583040D01*
X1086398D01*
X1084362Y582197D01*
X1083550Y581385D01*
X903950D01*
X903138Y582197D01*
X901102Y583040D01*
X898898D01*
X896862Y582197D01*
X896050Y581385D01*
X718950D01*
X718138Y582197D01*
X716102Y583040D01*
X713898D01*
X711862Y582197D01*
X710303Y580638D01*
X709577Y578885D01*
X621609D01*
X601385Y599109D01*
Y670000D01*
X601089Y671487D01*
X600247Y672747D01*
X566247Y706747D01*
X566112Y708118D01*
X619109Y761115D01*
X706050D01*
X706862Y760303D01*
X708898Y759460D01*
X711102D01*
X713138Y760303D01*
X713950Y761115D01*
X896050D01*
X896862Y760303D01*
X898898Y759460D01*
X901102D01*
X903138Y760303D01*
X903950Y761115D01*
X1081050D01*
X1081862Y760303D01*
X1083898Y759460D01*
X1086102D01*
X1088138Y760303D01*
X1089697Y761862D01*
X1090540Y763898D01*
Y766102D01*
X1089697Y768138D01*
X1088138Y769697D01*
X1086102Y770540D01*
X1083898D01*
X1081862Y769697D01*
X1081050Y768885D01*
X903950D01*
X903138Y769697D01*
X901102Y770540D01*
X898898D01*
X896862Y769697D01*
X896050Y768885D01*
X713950D01*
X713138Y769697D01*
X711102Y770540D01*
X708898D01*
X706862Y769697D01*
X706050Y768885D01*
X617500D01*
X616013Y768589D01*
X614753Y767747D01*
X559891Y712885D01*
X512040D01*
Y717657D01*
X512686Y718221D01*
X514580Y719074D01*
X515993Y718488D01*
X518197D01*
X520233Y719332D01*
X521792Y720890D01*
X522635Y722926D01*
Y725130D01*
X521792Y727167D01*
X520233Y728725D01*
X518197Y729568D01*
X515993D01*
X514580Y728983D01*
X512940Y729614D01*
X512040Y730400D01*
Y736788D01*
X514488Y738524D01*
X516692D01*
X518728Y739367D01*
X520286Y740926D01*
X521129Y742962D01*
Y745166D01*
X520286Y747202D01*
X518728Y748761D01*
X516692Y749604D01*
X514487D01*
X512451Y748761D01*
X511731Y748040D01*
X495492D01*
X494362Y748862D01*
X493540Y749992D01*
Y766540D01*
X493385D01*
Y801073D01*
X605989Y913677D01*
X607137D01*
X609173Y914521D01*
X610732Y916079D01*
X611575Y918115D01*
Y920319D01*
X610732Y922355D01*
X609173Y923914D01*
X607137Y924757D01*
X604933D01*
X602897Y923914D01*
X601276Y925782D01*
X622859Y947365D01*
X776641D01*
X803210Y920796D01*
Y919648D01*
X804053Y917612D01*
X805612Y916053D01*
X807648Y915210D01*
X809852D01*
X811888Y916053D01*
X813447Y917612D01*
X814290Y919648D01*
Y921852D01*
X813447Y923888D01*
X811888Y925447D01*
X809852Y926290D01*
X808704D01*
X780997Y953997D01*
X779737Y954839D01*
X778250Y955135D01*
X621250D01*
X619763Y954839D01*
X618503Y953997D01*
X487664Y823158D01*
X484908Y823994D01*
X484838Y824344D01*
X626609Y966115D01*
X953391D01*
X996960Y922546D01*
Y921398D01*
X997803Y919362D01*
X999362Y917803D01*
X1001398Y916960D01*
X1003602D01*
X1005638Y917803D01*
X1007197Y919362D01*
X1008040Y921398D01*
Y923602D01*
X1007197Y925638D01*
X1005638Y927197D01*
X1003602Y928040D01*
X1002454D01*
X957747Y972747D01*
X956487Y973589D01*
X955000Y973885D01*
X625000D01*
X623513Y973589D01*
X622253Y972747D01*
X476753Y827247D01*
X475911Y825987D01*
X475615Y824500D01*
Y795811D01*
X473138Y794697D01*
X471270Y795470D01*
Y790000D01*
Y784530D01*
X473138Y785303D01*
X475615Y784189D01*
Y766540D01*
X458385D01*
Y774615D01*
X463756Y779986D01*
X464598Y781247D01*
X464893Y782733D01*
Y783680D01*
X465601Y784263D01*
X467434Y785067D01*
X468730Y784530D01*
Y790000D01*
Y795470D01*
X467434Y794933D01*
X465601Y795737D01*
X464893Y796320D01*
Y800274D01*
X466549D01*
Y817354D01*
X452779D01*
Y808814D01*
Y800274D01*
X457124D01*
Y784342D01*
X452215Y779433D01*
X445831Y785816D01*
Y800274D01*
X450239D01*
Y808814D01*
Y817354D01*
X436469D01*
Y802885D01*
X405980D01*
Y809640D01*
X391600D01*
Y790360D01*
X405980D01*
Y795115D01*
X416145D01*
X417197Y792575D01*
X417137Y792515D01*
X416294Y790479D01*
Y788275D01*
X417137Y786239D01*
X417669Y785707D01*
X417450Y783167D01*
X417044D01*
Y774587D01*
Y774147D01*
X421584D01*
X426124D01*
Y774587D01*
Y783167D01*
X426124D01*
X425998Y785707D01*
X426530Y786239D01*
X427374Y788275D01*
Y790479D01*
X426530Y792515D01*
X426470Y792575D01*
X427523Y795115D01*
X438061D01*
Y784208D01*
X438357Y782721D01*
X439199Y781461D01*
X445615Y775044D01*
Y766540D01*
X440997D01*
X439879Y768212D01*
Y770416D01*
X439036Y772452D01*
X437478Y774011D01*
X435442Y774854D01*
X433237D01*
X431201Y774011D01*
X429643Y772452D01*
X428800Y770416D01*
Y768212D01*
X429643Y766176D01*
X430460Y765359D01*
Y749992D01*
X429638Y748862D01*
X428508Y748040D01*
X411960D01*
Y739960D01*
Y734960D01*
Y724960D01*
Y712885D01*
X407589D01*
X406103Y712589D01*
X404843Y711747D01*
X397093Y703997D01*
X396251Y702737D01*
X395955Y701250D01*
Y677764D01*
X395143Y676952D01*
X394300Y674916D01*
Y672712D01*
X395143Y670676D01*
X396701Y669117D01*
X398737Y668274D01*
X400942D01*
X402978Y669117D01*
X404536Y670676D01*
X405379Y672712D01*
Y674916D01*
X404536Y676952D01*
X403724Y677764D01*
Y682026D01*
X406264Y683720D01*
X406738Y683524D01*
X408941D01*
X410978Y684367D01*
X410978Y684368D01*
X411960Y684960D01*
X428508D01*
X429638Y684138D01*
X430460Y683008D01*
Y666460D01*
X450615D01*
Y659124D01*
X433573Y642081D01*
X432731Y640821D01*
X432435Y639335D01*
Y633104D01*
X380050D01*
Y608024D01*
X380050D01*
X381697Y605523D01*
Y603319D01*
X382540Y601283D01*
X384099Y599724D01*
X386135Y598881D01*
X388339D01*
X390375Y599724D01*
X391933Y601283D01*
X392777Y603319D01*
Y605523D01*
X394490Y608024D01*
X440130D01*
Y628919D01*
X440204Y629294D01*
Y637725D01*
X457194Y654716D01*
X474975Y636935D01*
Y629294D01*
X475050Y628919D01*
Y608024D01*
X519337D01*
X521034Y605484D01*
X520947Y605273D01*
Y603069D01*
X521790Y601033D01*
X523349Y599474D01*
X525385Y598631D01*
X527589D01*
X529625Y599474D01*
X531183Y601033D01*
X532027Y603069D01*
Y605273D01*
X531939Y605484D01*
X533637Y608024D01*
X535130D01*
Y633104D01*
X482744D01*
Y638544D01*
X482449Y640031D01*
X481606Y641291D01*
X467453Y655444D01*
X468049Y658440D01*
X468478Y658617D01*
X469964Y660104D01*
X471201Y658867D01*
X473237Y658024D01*
X475442D01*
X477478Y658867D01*
X479036Y660426D01*
X479879Y662462D01*
Y664666D01*
X481078Y666460D01*
X493540D01*
Y683008D01*
X494362Y684138D01*
X495492Y684960D01*
X512040D01*
Y685115D01*
X521891D01*
X556115Y650891D01*
Y60000D01*
X556411Y58513D01*
X557253Y57253D01*
X609753Y4753D01*
X611013Y3911D01*
X612500Y3615D01*
X700394D01*
X701415Y2540D01*
X700324Y0D01*
X316449D01*
X313995Y488D01*
X311684Y1445D01*
X309604Y2835D01*
X307835Y4604D01*
X306445Y6684D01*
X305488Y8996D01*
X305000Y11449D01*
Y12700D01*
X305000Y12700D01*
X305000Y967300D01*
Y968551D01*
X305488Y971004D01*
X306445Y973316D01*
X307835Y975396D01*
X309604Y977165D01*
X311684Y978555D01*
X313995Y979512D01*
X316449Y980000D01*
X317700D01*
Y980000D01*
X362300D01*
X363545Y980061D01*
X365987Y980547D01*
X368287Y981500D01*
X370357Y982883D01*
X372117Y984643D01*
X373500Y986713D01*
X374453Y989013D01*
X374939Y991455D01*
X375000Y992700D01*
X375000Y1023551D01*
X375488Y1026004D01*
X376445Y1028316D01*
X377835Y1030396D01*
X379604Y1032165D01*
X381684Y1033555D01*
X383996Y1034512D01*
X386449Y1035000D01*
X387700D01*
Y1035000D01*
X512300Y1035000D01*
D02*
G37*
G36*
X601339Y922355D02*
X600495Y920319D01*
Y919171D01*
X490731Y809407D01*
X488385Y810379D01*
Y812891D01*
X599470Y923977D01*
X601339Y922355D01*
D02*
G37*
G36*
X440460Y749460D02*
X493008D01*
X494138Y748638D01*
X494960Y747508D01*
Y739959D01*
X503500D01*
Y738040D01*
X494960D01*
Y734960D01*
Y724960D01*
Y714960D01*
Y704960D01*
Y694960D01*
Y685492D01*
X494138Y684362D01*
X493008Y683540D01*
X470460D01*
Y675000D01*
X468569D01*
X468541Y675145D01*
Y683540D01*
X430992D01*
X429862Y684362D01*
X429040Y685492D01*
Y693040D01*
X420500D01*
Y694959D01*
X429040D01*
Y694960D01*
Y704960D01*
Y714960D01*
Y724960D01*
Y734960D01*
Y747508D01*
X429862Y748638D01*
X430992Y749460D01*
X438541D01*
Y758000D01*
X440460D01*
Y749460D01*
D02*
G37*
G36*
X1103915Y2540D02*
X1102824Y0D01*
X894676D01*
X893585Y2540D01*
X894606Y3615D01*
X1102894D01*
X1103915Y2540D01*
D02*
G37*
G36*
X886415D02*
X885324Y0D01*
X709676D01*
X708585Y2540D01*
X709606Y3615D01*
X885394D01*
X886415Y2540D01*
D02*
G37*
%LPC*%
G36*
X460270Y1021470D02*
Y1017270D01*
X464470D01*
X463697Y1019138D01*
X462138Y1020697D01*
X460270Y1021470D01*
D02*
G37*
G36*
X457730D02*
X455862Y1020697D01*
X454303Y1019138D01*
X453530Y1017270D01*
X457730D01*
Y1021470D01*
D02*
G37*
G36*
X429270Y1020470D02*
Y1016270D01*
X433470D01*
X432697Y1018138D01*
X431138Y1019697D01*
X429270Y1020470D01*
D02*
G37*
G36*
X426730D02*
X424862Y1019697D01*
X423303Y1018138D01*
X422530Y1016270D01*
X426730D01*
Y1020470D01*
D02*
G37*
G36*
X464470Y1014730D02*
X460270D01*
Y1010530D01*
X462138Y1011303D01*
X463697Y1012862D01*
X464470Y1014730D01*
D02*
G37*
G36*
X457730D02*
X453530D01*
X454303Y1012862D01*
X455862Y1011303D01*
X457730Y1010530D01*
Y1014730D01*
D02*
G37*
G36*
X433470Y1013730D02*
X429270D01*
Y1009530D01*
X431138Y1010303D01*
X432697Y1011862D01*
X433470Y1013730D01*
D02*
G37*
G36*
X426730D02*
X422530D01*
X423303Y1011862D01*
X424862Y1010303D01*
X426730Y1009530D01*
Y1013730D01*
D02*
G37*
G36*
X509879Y1019874D02*
X497710D01*
Y1008604D01*
X509879D01*
Y1019874D01*
D02*
G37*
G36*
X407679D02*
X395509D01*
Y1008604D01*
X407679D01*
Y1019874D01*
D02*
G37*
G36*
X392970D02*
X380799D01*
Y1008604D01*
X392970D01*
Y1019874D01*
D02*
G37*
G36*
X495170D02*
X482999D01*
Y1008604D01*
X495170D01*
Y1019874D01*
D02*
G37*
G36*
X509879Y1006064D02*
X497710D01*
Y994794D01*
X509879D01*
Y1006064D01*
D02*
G37*
G36*
X495170D02*
X482999D01*
Y994794D01*
X495170D01*
Y1006064D01*
D02*
G37*
G36*
X407679D02*
X395509D01*
Y994794D01*
X407679D01*
Y1006064D01*
D02*
G37*
G36*
X392970D02*
X380799D01*
Y994794D01*
X392970D01*
Y1006064D01*
D02*
G37*
G36*
X458941Y983854D02*
X456738D01*
X454701Y983011D01*
X453143Y981452D01*
X452299Y979416D01*
Y977212D01*
X453143Y975176D01*
X453955Y974364D01*
Y970574D01*
X431724D01*
Y973114D01*
X432536Y973926D01*
X433380Y975962D01*
Y978166D01*
X432536Y980202D01*
X430978Y981761D01*
X428941Y982604D01*
X426738D01*
X424701Y981761D01*
X423143Y980202D01*
X422530Y978724D01*
X420689Y977999D01*
X419759Y977902D01*
X419719Y977943D01*
X417591Y978824D01*
X415288D01*
X413160Y977943D01*
X411531Y976314D01*
X410649Y974186D01*
Y973702D01*
X409328Y972592D01*
X408021Y972966D01*
X407679Y973248D01*
Y980574D01*
X395509D01*
Y968034D01*
Y955494D01*
X405881D01*
X407799Y953994D01*
X409598Y953994D01*
X410569D01*
Y962284D01*
X413110D01*
Y953994D01*
X415955D01*
Y952552D01*
X416251Y951065D01*
X417093Y949805D01*
X418581Y948317D01*
X418705Y948234D01*
Y938264D01*
X417893Y937452D01*
X417049Y935416D01*
Y933212D01*
X417893Y931176D01*
X419451Y929617D01*
X421488Y928774D01*
X423691D01*
X425728Y929617D01*
X427286Y931176D01*
X428130Y933212D01*
Y935416D01*
X427286Y937452D01*
X426474Y938264D01*
Y953994D01*
X433955D01*
Y910314D01*
X434251Y908827D01*
X435093Y907567D01*
X438124Y904536D01*
Y840354D01*
X436469D01*
Y823274D01*
X466549D01*
Y840354D01*
X465869D01*
Y876891D01*
X465987Y877482D01*
Y903442D01*
X466645Y904100D01*
X466697Y904178D01*
X468079Y905560D01*
X469661Y906215D01*
X470938Y907492D01*
X471629Y909161D01*
Y910967D01*
X470938Y912636D01*
X469661Y913913D01*
X467993Y914604D01*
X466186D01*
X464518Y913913D01*
X463557Y912952D01*
X462090Y912775D01*
X460622Y912952D01*
X459661Y913913D01*
X457993Y914604D01*
X456186D01*
X454518Y913913D01*
X454264Y913659D01*
X451724Y914711D01*
Y919584D01*
X452082Y919823D01*
X453888D01*
X455557Y920514D01*
X456834Y921791D01*
X457525Y923460D01*
Y925266D01*
X456834Y926935D01*
X456797Y926972D01*
Y953994D01*
X463955D01*
Y951564D01*
X464251Y950077D01*
X465093Y948817D01*
X466955Y946955D01*
Y941423D01*
X466386Y940854D01*
X465238D01*
X463201Y940011D01*
X461643Y938452D01*
X460799Y936416D01*
Y934212D01*
X461643Y932176D01*
X463201Y930617D01*
X465238Y929774D01*
X467441D01*
X469478Y930617D01*
X471036Y932176D01*
X471880Y934212D01*
Y935360D01*
X473586Y937067D01*
X474428Y938327D01*
X474724Y939814D01*
Y948564D01*
Y953994D01*
X477570D01*
Y962284D01*
X480110D01*
Y953994D01*
X482879D01*
X484798Y955494D01*
X485420D01*
X495170D01*
Y968034D01*
Y980574D01*
X482999D01*
Y973248D01*
X482658Y972966D01*
X481351Y972592D01*
X480029Y973702D01*
Y974186D01*
X479148Y976314D01*
X477519Y977943D01*
X475391Y978824D01*
X473088D01*
X470960Y977943D01*
X469331Y976314D01*
X468450Y974186D01*
Y971882D01*
X467575Y970574D01*
X461724D01*
Y974364D01*
X462536Y975176D01*
X463380Y977212D01*
Y979416D01*
X462536Y981452D01*
X460978Y983011D01*
X458941Y983854D01*
D02*
G37*
G36*
X509879Y980574D02*
X497710D01*
Y969304D01*
X509879D01*
Y980574D01*
D02*
G37*
G36*
X392970D02*
X380799D01*
Y969304D01*
X392970D01*
Y980574D01*
D02*
G37*
G36*
X509879Y966764D02*
X497710D01*
Y955494D01*
X509879D01*
Y966764D01*
D02*
G37*
G36*
X392970D02*
X380799D01*
Y955494D01*
X392970D01*
Y966764D01*
D02*
G37*
G36*
X911478Y929240D02*
X908023D01*
X904634Y928566D01*
X901442Y927244D01*
X898569Y925324D01*
X896126Y922881D01*
X894206Y920008D01*
X892884Y916816D01*
X892210Y913428D01*
Y909973D01*
X892884Y906584D01*
X894206Y903392D01*
X896126Y900519D01*
X898569Y898076D01*
X901442Y896156D01*
X904634Y894834D01*
X908023Y894160D01*
X911478D01*
X914866Y894834D01*
X918058Y896156D01*
X920931Y898076D01*
X923374Y900519D01*
X925294Y903392D01*
X926616Y906584D01*
X927290Y909973D01*
Y913428D01*
X926616Y916816D01*
X925294Y920008D01*
X923374Y922881D01*
X920931Y925324D01*
X918058Y927244D01*
X914866Y928566D01*
X911478Y929240D01*
D02*
G37*
G36*
X1102978Y929240D02*
X1099522D01*
X1096134Y928566D01*
X1092942Y927244D01*
X1090069Y925324D01*
X1087626Y922881D01*
X1085706Y920008D01*
X1084384Y916816D01*
X1083710Y913428D01*
Y909973D01*
X1084384Y906584D01*
X1085706Y903392D01*
X1087626Y900519D01*
X1090069Y898076D01*
X1092942Y896156D01*
X1096134Y894834D01*
X1099522Y894160D01*
X1102978D01*
X1106366Y894834D01*
X1109558Y896156D01*
X1112431Y898076D01*
X1114874Y900519D01*
X1116794Y903392D01*
X1118116Y906584D01*
X1118790Y909973D01*
Y913428D01*
X1118116Y916816D01*
X1116794Y920008D01*
X1114874Y922881D01*
X1112431Y925324D01*
X1109558Y927244D01*
X1106366Y928566D01*
X1102978Y929240D01*
D02*
G37*
G36*
X721728Y927940D02*
X718272D01*
X714884Y927266D01*
X711692Y925944D01*
X708819Y924024D01*
X706376Y921581D01*
X704456Y918708D01*
X703134Y915516D01*
X702460Y912128D01*
Y908672D01*
X703134Y905284D01*
X704456Y902092D01*
X706376Y899219D01*
X708819Y896776D01*
X711692Y894856D01*
X714884Y893534D01*
X718272Y892860D01*
X721728D01*
X725116Y893534D01*
X728308Y894856D01*
X731181Y896776D01*
X733624Y899219D01*
X735544Y902092D01*
X736866Y905284D01*
X737540Y908672D01*
Y912128D01*
X736866Y915516D01*
X735544Y918708D01*
X733624Y921581D01*
X731181Y924024D01*
X728308Y925944D01*
X725116Y927266D01*
X721728Y927940D01*
D02*
G37*
G36*
X1212364Y945040D02*
X1207636D01*
X1202966Y944300D01*
X1198469Y942839D01*
X1194256Y940693D01*
X1190430Y937913D01*
X1187087Y934570D01*
X1184307Y930744D01*
X1182161Y926531D01*
X1180700Y922034D01*
X1179960Y917364D01*
Y912636D01*
X1180700Y907966D01*
X1182161Y903469D01*
X1184307Y899256D01*
X1187087Y895430D01*
X1190430Y892087D01*
X1194256Y889307D01*
X1198469Y887161D01*
X1202966Y885700D01*
X1207636Y884960D01*
X1212364D01*
X1217034Y885700D01*
X1221531Y887161D01*
X1225744Y889307D01*
X1229570Y892087D01*
X1232913Y895430D01*
X1235693Y899256D01*
X1237839Y903469D01*
X1239300Y907966D01*
X1240040Y912636D01*
Y917364D01*
X1239300Y922034D01*
X1237839Y926531D01*
X1235693Y930744D01*
X1232913Y934570D01*
X1229570Y937913D01*
X1225744Y940693D01*
X1221531Y942839D01*
X1217034Y944300D01*
X1212364Y945040D01*
D02*
G37*
G36*
X347364D02*
X342636D01*
X337966Y944300D01*
X333469Y942839D01*
X329256Y940693D01*
X325430Y937913D01*
X322087Y934570D01*
X319307Y930744D01*
X317161Y926531D01*
X315700Y922034D01*
X314960Y917364D01*
Y912636D01*
X315700Y907966D01*
X317161Y903469D01*
X319307Y899256D01*
X322087Y895430D01*
X325430Y892087D01*
X329256Y889307D01*
X333469Y887161D01*
X337966Y885700D01*
X342636Y884960D01*
X347364D01*
X352034Y885700D01*
X356531Y887161D01*
X360744Y889307D01*
X364570Y892087D01*
X367913Y895430D01*
X370692Y899256D01*
X372839Y903469D01*
X374300Y907966D01*
X375040Y912636D01*
Y917364D01*
X374300Y922034D01*
X372839Y926531D01*
X370692Y930744D01*
X367913Y934570D01*
X364570Y937913D01*
X360744Y940693D01*
X356531Y942839D01*
X352034Y944300D01*
X347364Y945040D01*
D02*
G37*
G36*
X847978Y903840D02*
X844522D01*
X841134Y903166D01*
X837942Y901844D01*
X835069Y899924D01*
X832626Y897481D01*
X830706Y894608D01*
X829384Y891416D01*
X828710Y888028D01*
Y884573D01*
X829384Y881184D01*
X830706Y877992D01*
X832626Y875119D01*
X835069Y872676D01*
X837942Y870756D01*
X841134Y869434D01*
X844522Y868760D01*
X847978D01*
X851366Y869434D01*
X854558Y870756D01*
X857431Y872676D01*
X859874Y875119D01*
X861794Y877992D01*
X863116Y881184D01*
X863790Y884573D01*
Y888028D01*
X863116Y891416D01*
X861794Y894608D01*
X859874Y897481D01*
X857431Y899924D01*
X854558Y901844D01*
X851366Y903166D01*
X847978Y903840D01*
D02*
G37*
G36*
X1039477Y903840D02*
X1036022D01*
X1032634Y903166D01*
X1029442Y901844D01*
X1026569Y899924D01*
X1024126Y897481D01*
X1022206Y894608D01*
X1020884Y891416D01*
X1020210Y888027D01*
Y884573D01*
X1020884Y881184D01*
X1022206Y877992D01*
X1024126Y875119D01*
X1026569Y872676D01*
X1029442Y870756D01*
X1032634Y869434D01*
X1036022Y868760D01*
X1039477D01*
X1042866Y869434D01*
X1046058Y870756D01*
X1048931Y872676D01*
X1051374Y875119D01*
X1053294Y877992D01*
X1054616Y881184D01*
X1055290Y884573D01*
Y888027D01*
X1054616Y891416D01*
X1053294Y894608D01*
X1051374Y897481D01*
X1048931Y899924D01*
X1046058Y901844D01*
X1042866Y903166D01*
X1039477Y903840D01*
D02*
G37*
G36*
X658227Y902540D02*
X654772D01*
X651384Y901866D01*
X648192Y900544D01*
X645319Y898624D01*
X642876Y896181D01*
X640956Y893308D01*
X639634Y890116D01*
X638960Y886728D01*
Y883272D01*
X639634Y879884D01*
X640956Y876692D01*
X642876Y873819D01*
X645319Y871376D01*
X648192Y869456D01*
X651384Y868134D01*
X654772Y867460D01*
X658227D01*
X661616Y868134D01*
X664808Y869456D01*
X667681Y871376D01*
X670124Y873819D01*
X672044Y876692D01*
X673366Y879884D01*
X674040Y883272D01*
Y886728D01*
X673366Y890116D01*
X672044Y893308D01*
X670124Y896181D01*
X667681Y898624D01*
X664808Y900544D01*
X661616Y901866D01*
X658227Y902540D01*
D02*
G37*
G36*
X1077764Y881987D02*
X1073236D01*
X1068795Y881104D01*
X1064612Y879371D01*
X1060847Y876855D01*
X1057645Y873653D01*
X1055129Y869888D01*
X1053396Y865705D01*
X1052513Y861264D01*
Y856736D01*
X1053396Y852295D01*
X1055129Y848112D01*
X1057645Y844347D01*
X1060847Y841145D01*
X1064612Y838629D01*
X1068795Y836896D01*
X1073236Y836013D01*
X1077764D01*
X1082205Y836896D01*
X1086388Y838629D01*
X1090153Y841145D01*
X1093355Y844347D01*
X1095871Y848112D01*
X1097604Y852295D01*
X1098487Y856736D01*
Y861264D01*
X1097604Y865705D01*
X1095871Y869888D01*
X1093355Y873653D01*
X1090153Y876855D01*
X1086388Y879371D01*
X1082205Y881104D01*
X1077764Y881987D01*
D02*
G37*
G36*
X887264D02*
X882736D01*
X878295Y881104D01*
X874112Y879371D01*
X870347Y876855D01*
X867145Y873653D01*
X864629Y869888D01*
X862896Y865705D01*
X862013Y861264D01*
Y856736D01*
X862896Y852295D01*
X864629Y848112D01*
X867145Y844347D01*
X870347Y841145D01*
X874112Y838629D01*
X878295Y836896D01*
X882736Y836013D01*
X887264D01*
X891705Y836896D01*
X895888Y838629D01*
X899653Y841145D01*
X902855Y844347D01*
X905371Y848112D01*
X907104Y852295D01*
X907987Y856736D01*
Y861264D01*
X907104Y865705D01*
X905371Y869888D01*
X902855Y873653D01*
X899653Y876855D01*
X895888Y879371D01*
X891705Y881104D01*
X887264Y881987D01*
D02*
G37*
G36*
X696764D02*
X692236D01*
X687795Y881104D01*
X683612Y879371D01*
X679847Y876855D01*
X676645Y873653D01*
X674129Y869888D01*
X672396Y865705D01*
X671513Y861264D01*
Y856736D01*
X672396Y852295D01*
X674129Y848112D01*
X676645Y844347D01*
X679847Y841145D01*
X683612Y838629D01*
X687795Y836896D01*
X692236Y836013D01*
X696764D01*
X701205Y836896D01*
X705388Y838629D01*
X709153Y841145D01*
X712355Y844347D01*
X714871Y848112D01*
X716604Y852295D01*
X717487Y856736D01*
Y861264D01*
X716604Y865705D01*
X714871Y869888D01*
X712355Y873653D01*
X709153Y876855D01*
X705388Y879371D01*
X701205Y881104D01*
X696764Y881987D01*
D02*
G37*
G36*
X386400Y809640D02*
X372020D01*
Y790360D01*
X375115D01*
Y789000D01*
X375411Y787513D01*
X376253Y786253D01*
X377460Y785046D01*
Y783898D01*
X378303Y781862D01*
X379862Y780303D01*
X381898Y779460D01*
X384102D01*
X386138Y780303D01*
X387697Y781862D01*
X388540Y783898D01*
Y786102D01*
X387697Y788138D01*
X387542Y788293D01*
X386400Y790360D01*
Y809640D01*
D02*
G37*
G36*
X364270Y773470D02*
Y769270D01*
X368470D01*
X367697Y771138D01*
X366138Y772697D01*
X364270Y773470D01*
D02*
G37*
G36*
X361730D02*
X359862Y772697D01*
X358303Y771138D01*
X357530Y769270D01*
X361730D01*
Y773470D01*
D02*
G37*
G36*
X426124Y771607D02*
X422854D01*
Y768587D01*
X426124D01*
Y771607D01*
D02*
G37*
G36*
X420314D02*
X417044D01*
Y768587D01*
X420314D01*
Y771607D01*
D02*
G37*
G36*
X563270Y770470D02*
Y766270D01*
X567470D01*
X566697Y768138D01*
X565138Y769697D01*
X563270Y770470D01*
D02*
G37*
G36*
X560730D02*
X558862Y769697D01*
X557303Y768138D01*
X556530Y766270D01*
X560730D01*
Y770470D01*
D02*
G37*
G36*
X368470Y766730D02*
X364270D01*
Y762530D01*
X366138Y763303D01*
X367697Y764862D01*
X368470Y766730D01*
D02*
G37*
G36*
X361730D02*
X357530D01*
X358303Y764862D01*
X359862Y763303D01*
X361730Y762530D01*
Y766730D01*
D02*
G37*
G36*
X567470Y763730D02*
X563270D01*
Y759530D01*
X565138Y760303D01*
X566697Y761862D01*
X567470Y763730D01*
D02*
G37*
G36*
X560730D02*
X556530D01*
X557303Y761862D01*
X558862Y760303D01*
X560730Y759530D01*
Y763730D01*
D02*
G37*
G36*
X371270Y740470D02*
Y736270D01*
X375470D01*
X374697Y738138D01*
X373138Y739697D01*
X371270Y740470D01*
D02*
G37*
G36*
X368730D02*
X366862Y739697D01*
X365303Y738138D01*
X364530Y736270D01*
X368730D01*
Y740470D01*
D02*
G37*
G36*
X375470Y733730D02*
X371270D01*
Y729530D01*
X373138Y730303D01*
X374697Y731862D01*
X375470Y733730D01*
D02*
G37*
G36*
X368730D02*
X364530D01*
X365303Y731862D01*
X366862Y730303D01*
X368730Y729530D01*
Y733730D01*
D02*
G37*
G36*
X911478Y738740D02*
X908023D01*
X904634Y738066D01*
X901442Y736744D01*
X898569Y734824D01*
X896126Y732381D01*
X894206Y729508D01*
X892884Y726316D01*
X892210Y722927D01*
Y719473D01*
X892884Y716084D01*
X894206Y712892D01*
X896126Y710019D01*
X898569Y707576D01*
X901442Y705656D01*
X904634Y704334D01*
X908023Y703660D01*
X911478D01*
X914866Y704334D01*
X918058Y705656D01*
X920931Y707576D01*
X923374Y710019D01*
X925294Y712892D01*
X926616Y716084D01*
X927290Y719473D01*
Y722927D01*
X926616Y726316D01*
X925294Y729508D01*
X923374Y732381D01*
X920931Y734824D01*
X918058Y736744D01*
X914866Y738066D01*
X911478Y738740D01*
D02*
G37*
G36*
X721978Y737740D02*
X718522D01*
X715134Y737066D01*
X711942Y735744D01*
X709069Y733824D01*
X706626Y731381D01*
X704706Y728508D01*
X703384Y725316D01*
X702710Y721927D01*
Y718473D01*
X703384Y715084D01*
X704706Y711892D01*
X706626Y709019D01*
X709069Y706576D01*
X711942Y704656D01*
X715134Y703334D01*
X718522Y702660D01*
X721978D01*
X725366Y703334D01*
X728558Y704656D01*
X731431Y706576D01*
X733874Y709019D01*
X735794Y711892D01*
X737116Y715084D01*
X737790Y718473D01*
Y721927D01*
X737116Y725316D01*
X735794Y728508D01*
X733874Y731381D01*
X731431Y733824D01*
X728558Y735744D01*
X725366Y737066D01*
X721978Y737740D01*
D02*
G37*
G36*
X1103227Y737440D02*
X1099772D01*
X1096384Y736766D01*
X1093192Y735444D01*
X1090319Y733524D01*
X1087876Y731081D01*
X1085956Y728208D01*
X1084634Y725016D01*
X1083960Y721628D01*
Y718173D01*
X1084634Y714784D01*
X1085956Y711592D01*
X1087876Y708719D01*
X1090319Y706276D01*
X1093192Y704356D01*
X1096384Y703034D01*
X1099772Y702360D01*
X1103227D01*
X1106616Y703034D01*
X1109808Y704356D01*
X1112681Y706276D01*
X1115124Y708719D01*
X1117044Y711592D01*
X1118366Y714784D01*
X1119040Y718173D01*
Y721628D01*
X1118366Y725016D01*
X1117044Y728208D01*
X1115124Y731081D01*
X1112681Y733524D01*
X1109808Y735444D01*
X1106616Y736766D01*
X1103227Y737440D01*
D02*
G37*
G36*
X847978Y713340D02*
X844522D01*
X841134Y712666D01*
X837942Y711344D01*
X835069Y709424D01*
X832626Y706981D01*
X830706Y704108D01*
X829384Y700916D01*
X828710Y697527D01*
Y694072D01*
X829384Y690684D01*
X830706Y687492D01*
X832626Y684619D01*
X835069Y682176D01*
X837942Y680256D01*
X841134Y678934D01*
X844522Y678260D01*
X847978D01*
X851366Y678934D01*
X854558Y680256D01*
X857431Y682176D01*
X859874Y684619D01*
X861794Y687492D01*
X863116Y690684D01*
X863790Y694072D01*
Y697527D01*
X863116Y700916D01*
X861794Y704108D01*
X859874Y706981D01*
X857431Y709424D01*
X854558Y711344D01*
X851366Y712666D01*
X847978Y713340D01*
D02*
G37*
G36*
X658478Y712340D02*
X655023D01*
X651634Y711666D01*
X648442Y710344D01*
X645569Y708424D01*
X643126Y705981D01*
X641206Y703108D01*
X639884Y699916D01*
X639210Y696527D01*
Y693073D01*
X639884Y689684D01*
X641206Y686492D01*
X643126Y683619D01*
X645569Y681176D01*
X648442Y679256D01*
X651634Y677934D01*
X655023Y677260D01*
X658478D01*
X661866Y677934D01*
X665058Y679256D01*
X667931Y681176D01*
X670374Y683619D01*
X672294Y686492D01*
X673616Y689684D01*
X674290Y693073D01*
Y696527D01*
X673616Y699916D01*
X672294Y703108D01*
X670374Y705981D01*
X667931Y708424D01*
X665058Y710344D01*
X661866Y711666D01*
X658478Y712340D01*
D02*
G37*
G36*
X1039727Y712040D02*
X1036273D01*
X1032884Y711366D01*
X1029692Y710044D01*
X1026819Y708124D01*
X1024376Y705681D01*
X1022456Y702808D01*
X1021134Y699616D01*
X1020460Y696227D01*
Y692773D01*
X1021134Y689384D01*
X1022456Y686192D01*
X1024376Y683319D01*
X1026819Y680876D01*
X1029692Y678956D01*
X1032884Y677634D01*
X1036273Y676960D01*
X1039727D01*
X1043116Y677634D01*
X1046308Y678956D01*
X1049181Y680876D01*
X1051624Y683319D01*
X1053544Y686192D01*
X1054866Y689384D01*
X1055540Y692773D01*
Y696227D01*
X1054866Y699616D01*
X1053544Y702808D01*
X1051624Y705681D01*
X1049181Y708124D01*
X1046308Y710044D01*
X1043116Y711366D01*
X1039727Y712040D01*
D02*
G37*
G36*
X521270Y670470D02*
Y666270D01*
X525470D01*
X524697Y668138D01*
X523138Y669697D01*
X521270Y670470D01*
D02*
G37*
G36*
X518730D02*
X516862Y669697D01*
X515303Y668138D01*
X514530Y666270D01*
X518730D01*
Y670470D01*
D02*
G37*
G36*
X525470Y663730D02*
X521270D01*
Y659530D01*
X523138Y660303D01*
X524697Y661862D01*
X525470Y663730D01*
D02*
G37*
G36*
X518730D02*
X514530D01*
X515303Y661862D01*
X516862Y660303D01*
X518730Y659530D01*
Y663730D01*
D02*
G37*
G36*
X405800Y659200D02*
Y655000D01*
X410000D01*
X409226Y656868D01*
X407668Y658427D01*
X405800Y659200D01*
D02*
G37*
G36*
X403260D02*
X401391Y658427D01*
X399833Y656868D01*
X399059Y655000D01*
X403260D01*
Y659200D01*
D02*
G37*
G36*
X410000Y652460D02*
X405800D01*
Y648260D01*
X407668Y649033D01*
X409226Y650592D01*
X410000Y652460D01*
D02*
G37*
G36*
X403260D02*
X399059D01*
X399833Y650592D01*
X401391Y649033D01*
X403260Y648260D01*
Y652460D01*
D02*
G37*
G36*
X1077764Y691487D02*
X1073236D01*
X1068795Y690604D01*
X1064612Y688871D01*
X1060847Y686355D01*
X1057645Y683153D01*
X1055129Y679388D01*
X1053396Y675205D01*
X1052513Y670764D01*
Y666236D01*
X1053396Y661795D01*
X1055129Y657612D01*
X1057645Y653847D01*
X1060847Y650645D01*
X1064612Y648129D01*
X1068795Y646396D01*
X1073236Y645513D01*
X1077764D01*
X1082205Y646396D01*
X1086388Y648129D01*
X1090153Y650645D01*
X1093355Y653847D01*
X1095871Y657612D01*
X1097604Y661795D01*
X1098487Y666236D01*
Y670764D01*
X1097604Y675205D01*
X1095871Y679388D01*
X1093355Y683153D01*
X1090153Y686355D01*
X1086388Y688871D01*
X1082205Y690604D01*
X1077764Y691487D01*
D02*
G37*
G36*
X887264D02*
X882736D01*
X878295Y690604D01*
X874112Y688871D01*
X870347Y686355D01*
X867145Y683153D01*
X864629Y679388D01*
X862896Y675205D01*
X862013Y670764D01*
Y666236D01*
X862896Y661795D01*
X864629Y657612D01*
X867145Y653847D01*
X870347Y650645D01*
X874112Y648129D01*
X878295Y646396D01*
X882736Y645513D01*
X887264D01*
X891705Y646396D01*
X895888Y648129D01*
X899653Y650645D01*
X902855Y653847D01*
X905371Y657612D01*
X907104Y661795D01*
X907987Y666236D01*
Y670764D01*
X907104Y675205D01*
X905371Y679388D01*
X902855Y683153D01*
X899653Y686355D01*
X895888Y688871D01*
X891705Y690604D01*
X887264Y691487D01*
D02*
G37*
G36*
X696764D02*
X692236D01*
X687795Y690604D01*
X683612Y688871D01*
X679847Y686355D01*
X676645Y683153D01*
X674129Y679388D01*
X672396Y675205D01*
X671513Y670764D01*
Y666236D01*
X672396Y661795D01*
X674129Y657612D01*
X676645Y653847D01*
X679847Y650645D01*
X683612Y648129D01*
X687795Y646396D01*
X692236Y645513D01*
X696764D01*
X701205Y646396D01*
X705388Y648129D01*
X709153Y650645D01*
X712355Y653847D01*
X714871Y657612D01*
X716604Y661795D01*
X717487Y666236D01*
Y670764D01*
X716604Y675205D01*
X714871Y679388D01*
X712355Y683153D01*
X709153Y686355D01*
X705388Y688871D01*
X701205Y690604D01*
X696764Y691487D01*
D02*
G37*
G36*
X912478Y548240D02*
X909023D01*
X905634Y547566D01*
X902442Y546244D01*
X899569Y544324D01*
X897126Y541881D01*
X895206Y539008D01*
X893884Y535816D01*
X893210Y532427D01*
Y528973D01*
X893884Y525584D01*
X895206Y522392D01*
X897126Y519519D01*
X899569Y517076D01*
X902442Y515156D01*
X905634Y513834D01*
X909023Y513160D01*
X912478D01*
X915866Y513834D01*
X919058Y515156D01*
X921931Y517076D01*
X924374Y519519D01*
X926294Y522392D01*
X927616Y525584D01*
X928290Y528973D01*
Y532427D01*
X927616Y535816D01*
X926294Y539008D01*
X924374Y541881D01*
X921931Y544324D01*
X919058Y546244D01*
X915866Y547566D01*
X912478Y548240D01*
D02*
G37*
G36*
X720978Y547240D02*
X717523D01*
X714134Y546566D01*
X710942Y545244D01*
X708069Y543324D01*
X705626Y540881D01*
X703706Y538008D01*
X702384Y534816D01*
X701710Y531427D01*
Y527972D01*
X702384Y524584D01*
X703706Y521392D01*
X705626Y518519D01*
X708069Y516076D01*
X710942Y514156D01*
X714134Y512834D01*
X717523Y512160D01*
X720978D01*
X724366Y512834D01*
X727558Y514156D01*
X730431Y516076D01*
X732874Y518519D01*
X734794Y521392D01*
X736116Y524584D01*
X736790Y527972D01*
Y531427D01*
X736116Y534816D01*
X734794Y538008D01*
X732874Y540881D01*
X730431Y543324D01*
X727558Y545244D01*
X724366Y546566D01*
X720978Y547240D01*
D02*
G37*
G36*
X1101728Y546940D02*
X1098272D01*
X1094884Y546266D01*
X1091692Y544944D01*
X1088819Y543024D01*
X1086376Y540581D01*
X1084456Y537708D01*
X1083134Y534516D01*
X1082460Y531128D01*
Y527673D01*
X1083134Y524284D01*
X1084456Y521092D01*
X1086376Y518219D01*
X1088819Y515776D01*
X1091692Y513856D01*
X1094884Y512534D01*
X1098272Y511860D01*
X1101728D01*
X1105116Y512534D01*
X1108308Y513856D01*
X1111181Y515776D01*
X1113624Y518219D01*
X1115544Y521092D01*
X1116866Y524284D01*
X1117540Y527673D01*
Y531128D01*
X1116866Y534516D01*
X1115544Y537708D01*
X1113624Y540581D01*
X1111181Y543024D01*
X1108308Y544944D01*
X1105116Y546266D01*
X1101728Y546940D01*
D02*
G37*
G36*
X848978Y522840D02*
X845523D01*
X842134Y522166D01*
X838942Y520844D01*
X836069Y518924D01*
X833626Y516481D01*
X831706Y513608D01*
X830384Y510416D01*
X829710Y507028D01*
Y503573D01*
X830384Y500184D01*
X831706Y496992D01*
X833626Y494119D01*
X836069Y491676D01*
X838942Y489756D01*
X842134Y488434D01*
X845523Y487760D01*
X848978D01*
X852366Y488434D01*
X855558Y489756D01*
X858431Y491676D01*
X860874Y494119D01*
X862794Y496992D01*
X864116Y500184D01*
X864790Y503573D01*
Y507028D01*
X864116Y510416D01*
X862794Y513608D01*
X860874Y516481D01*
X858431Y518924D01*
X855558Y520844D01*
X852366Y522166D01*
X848978Y522840D01*
D02*
G37*
G36*
X657478Y521840D02*
X654023D01*
X650634Y521166D01*
X647442Y519844D01*
X644569Y517924D01*
X642126Y515481D01*
X640206Y512608D01*
X638884Y509416D01*
X638210Y506027D01*
Y502573D01*
X638884Y499184D01*
X640206Y495992D01*
X642126Y493119D01*
X644569Y490676D01*
X647442Y488756D01*
X650634Y487434D01*
X654023Y486760D01*
X657478D01*
X660866Y487434D01*
X664058Y488756D01*
X666931Y490676D01*
X669374Y493119D01*
X671294Y495992D01*
X672616Y499184D01*
X673290Y502573D01*
Y506027D01*
X672616Y509416D01*
X671294Y512608D01*
X669374Y515481D01*
X666931Y517924D01*
X664058Y519844D01*
X660866Y521166D01*
X657478Y521840D01*
D02*
G37*
G36*
X1038227Y521540D02*
X1034772D01*
X1031384Y520866D01*
X1028192Y519544D01*
X1025319Y517624D01*
X1022876Y515181D01*
X1020956Y512308D01*
X1019634Y509116D01*
X1018960Y505728D01*
Y502272D01*
X1019634Y498884D01*
X1020956Y495692D01*
X1022876Y492819D01*
X1025319Y490376D01*
X1028192Y488456D01*
X1031384Y487134D01*
X1034772Y486460D01*
X1038227D01*
X1041616Y487134D01*
X1044808Y488456D01*
X1047681Y490376D01*
X1050124Y492819D01*
X1052044Y495692D01*
X1053366Y498884D01*
X1054040Y502272D01*
Y505728D01*
X1053366Y509116D01*
X1052044Y512308D01*
X1050124Y515181D01*
X1047681Y517624D01*
X1044808Y519544D01*
X1041616Y520866D01*
X1038227Y521540D01*
D02*
G37*
G36*
X1077764Y500987D02*
X1073236D01*
X1068795Y500104D01*
X1064612Y498371D01*
X1060847Y495855D01*
X1057645Y492653D01*
X1055129Y488888D01*
X1053396Y484705D01*
X1052513Y480264D01*
Y475736D01*
X1053396Y471295D01*
X1055129Y467112D01*
X1057645Y463347D01*
X1060847Y460145D01*
X1064612Y457629D01*
X1068795Y455896D01*
X1073236Y455013D01*
X1077764D01*
X1082205Y455896D01*
X1086388Y457629D01*
X1090153Y460145D01*
X1093355Y463347D01*
X1095871Y467112D01*
X1097604Y471295D01*
X1098487Y475736D01*
Y480264D01*
X1097604Y484705D01*
X1095871Y488888D01*
X1093355Y492653D01*
X1090153Y495855D01*
X1086388Y498371D01*
X1082205Y500104D01*
X1077764Y500987D01*
D02*
G37*
G36*
X887264D02*
X882736D01*
X878295Y500104D01*
X874112Y498371D01*
X870347Y495855D01*
X867145Y492653D01*
X864629Y488888D01*
X862896Y484705D01*
X862013Y480264D01*
Y475736D01*
X862896Y471295D01*
X864629Y467112D01*
X867145Y463347D01*
X870347Y460145D01*
X874112Y457629D01*
X878295Y455896D01*
X882736Y455013D01*
X887264D01*
X891705Y455896D01*
X895888Y457629D01*
X899653Y460145D01*
X902855Y463347D01*
X905371Y467112D01*
X907104Y471295D01*
X907987Y475736D01*
Y480264D01*
X907104Y484705D01*
X905371Y488888D01*
X902855Y492653D01*
X899653Y495855D01*
X895888Y498371D01*
X891705Y500104D01*
X887264Y500987D01*
D02*
G37*
G36*
X696764D02*
X692236D01*
X687795Y500104D01*
X683612Y498371D01*
X679847Y495855D01*
X676645Y492653D01*
X674129Y488888D01*
X672396Y484705D01*
X671513Y480264D01*
Y475736D01*
X672396Y471295D01*
X674129Y467112D01*
X676645Y463347D01*
X679847Y460145D01*
X683612Y457629D01*
X687795Y455896D01*
X692236Y455013D01*
X696764D01*
X701205Y455896D01*
X705388Y457629D01*
X709153Y460145D01*
X712355Y463347D01*
X714871Y467112D01*
X716604Y471295D01*
X717487Y475736D01*
Y480264D01*
X716604Y484705D01*
X714871Y488888D01*
X712355Y492653D01*
X709153Y495855D01*
X705388Y498371D01*
X701205Y500104D01*
X696764Y500987D01*
D02*
G37*
G36*
X721977Y357240D02*
X718522D01*
X715134Y356566D01*
X711942Y355244D01*
X709069Y353324D01*
X706626Y350881D01*
X704706Y348008D01*
X703384Y344816D01*
X702710Y341427D01*
Y337972D01*
X703384Y334584D01*
X704706Y331392D01*
X706626Y328519D01*
X709069Y326076D01*
X711942Y324156D01*
X715134Y322834D01*
X718522Y322160D01*
X721977D01*
X725366Y322834D01*
X728558Y324156D01*
X731431Y326076D01*
X733874Y328519D01*
X735794Y331392D01*
X737116Y334584D01*
X737790Y337972D01*
Y341427D01*
X737116Y344816D01*
X735794Y348008D01*
X733874Y350881D01*
X731431Y353324D01*
X728558Y355244D01*
X725366Y356566D01*
X721977Y357240D01*
D02*
G37*
G36*
X1102978Y356740D02*
X1099522D01*
X1096134Y356066D01*
X1092942Y354744D01*
X1090069Y352824D01*
X1087626Y350381D01*
X1085706Y347508D01*
X1084384Y344316D01*
X1083710Y340928D01*
Y337472D01*
X1084384Y334084D01*
X1085706Y330892D01*
X1087626Y328019D01*
X1090069Y325576D01*
X1092942Y323656D01*
X1096134Y322334D01*
X1099522Y321660D01*
X1102978D01*
X1106366Y322334D01*
X1109558Y323656D01*
X1112431Y325576D01*
X1114874Y328019D01*
X1116794Y330892D01*
X1118116Y334084D01*
X1118790Y337472D01*
Y340928D01*
X1118116Y344316D01*
X1116794Y347508D01*
X1114874Y350381D01*
X1112431Y352824D01*
X1109558Y354744D01*
X1106366Y356066D01*
X1102978Y356740D01*
D02*
G37*
G36*
X912008Y356580D02*
X908552D01*
X905164Y355906D01*
X901972Y354584D01*
X899099Y352664D01*
X896656Y350221D01*
X894736Y347348D01*
X893414Y344156D01*
X892740Y340768D01*
Y337313D01*
X893414Y333924D01*
X894736Y330732D01*
X896656Y327859D01*
X899099Y325416D01*
X901972Y323496D01*
X905164Y322174D01*
X908552Y321500D01*
X912008D01*
X915396Y322174D01*
X918588Y323496D01*
X921461Y325416D01*
X923904Y327859D01*
X925824Y330732D01*
X927146Y333924D01*
X927820Y337313D01*
Y340768D01*
X927146Y344156D01*
X925824Y347348D01*
X923904Y350221D01*
X921461Y352664D01*
X918588Y354584D01*
X915396Y355906D01*
X912008Y356580D01*
D02*
G37*
G36*
X658477Y331840D02*
X655023D01*
X651634Y331166D01*
X648442Y329844D01*
X645569Y327924D01*
X643126Y325481D01*
X641206Y322608D01*
X639884Y319416D01*
X639210Y316028D01*
Y312572D01*
X639884Y309184D01*
X641206Y305992D01*
X643126Y303119D01*
X645569Y300676D01*
X648442Y298756D01*
X651634Y297434D01*
X655023Y296760D01*
X658477D01*
X661866Y297434D01*
X665058Y298756D01*
X667931Y300676D01*
X670374Y303119D01*
X672294Y305992D01*
X673616Y309184D01*
X674290Y312572D01*
Y316028D01*
X673616Y319416D01*
X672294Y322608D01*
X670374Y325481D01*
X667931Y327924D01*
X665058Y329844D01*
X661866Y331166D01*
X658477Y331840D01*
D02*
G37*
G36*
X1039478Y331340D02*
X1036022D01*
X1032634Y330666D01*
X1029442Y329344D01*
X1026569Y327424D01*
X1024126Y324981D01*
X1022206Y322108D01*
X1020884Y318916D01*
X1020210Y315527D01*
Y312073D01*
X1020884Y308684D01*
X1022206Y305492D01*
X1024126Y302619D01*
X1026569Y300176D01*
X1029442Y298256D01*
X1032634Y296934D01*
X1036022Y296260D01*
X1039478D01*
X1042866Y296934D01*
X1046058Y298256D01*
X1048931Y300176D01*
X1051374Y302619D01*
X1053294Y305492D01*
X1054616Y308684D01*
X1055290Y312073D01*
Y315527D01*
X1054616Y318916D01*
X1053294Y322108D01*
X1051374Y324981D01*
X1048931Y327424D01*
X1046058Y329344D01*
X1042866Y330666D01*
X1039478Y331340D01*
D02*
G37*
G36*
X848508Y331180D02*
X845052D01*
X841664Y330506D01*
X838472Y329184D01*
X835599Y327264D01*
X833156Y324821D01*
X831236Y321948D01*
X829914Y318756D01*
X829240Y315368D01*
Y311912D01*
X829914Y308524D01*
X831236Y305332D01*
X833156Y302459D01*
X835599Y300016D01*
X838472Y298096D01*
X841664Y296774D01*
X845052Y296100D01*
X848508D01*
X851896Y296774D01*
X855088Y298096D01*
X857961Y300016D01*
X860404Y302459D01*
X862324Y305332D01*
X863646Y308524D01*
X864320Y311912D01*
Y315368D01*
X863646Y318756D01*
X862324Y321948D01*
X860404Y324821D01*
X857961Y327264D01*
X855088Y329184D01*
X851896Y330506D01*
X848508Y331180D01*
D02*
G37*
G36*
X1077764Y310487D02*
X1073236D01*
X1068795Y309604D01*
X1064612Y307871D01*
X1060847Y305355D01*
X1057645Y302153D01*
X1055129Y298388D01*
X1053396Y294205D01*
X1052513Y289764D01*
Y285236D01*
X1053396Y280795D01*
X1055129Y276612D01*
X1057645Y272847D01*
X1060847Y269645D01*
X1064612Y267129D01*
X1068795Y265396D01*
X1073236Y264513D01*
X1077764D01*
X1082205Y265396D01*
X1086388Y267129D01*
X1090153Y269645D01*
X1093355Y272847D01*
X1095871Y276612D01*
X1097604Y280795D01*
X1098487Y285236D01*
Y289764D01*
X1097604Y294205D01*
X1095871Y298388D01*
X1093355Y302153D01*
X1090153Y305355D01*
X1086388Y307871D01*
X1082205Y309604D01*
X1077764Y310487D01*
D02*
G37*
G36*
X887264D02*
X882736D01*
X878295Y309604D01*
X874112Y307871D01*
X870347Y305355D01*
X867145Y302153D01*
X864629Y298388D01*
X862896Y294205D01*
X862013Y289764D01*
Y285236D01*
X862896Y280795D01*
X864629Y276612D01*
X867145Y272847D01*
X870347Y269645D01*
X874112Y267129D01*
X878295Y265396D01*
X882736Y264513D01*
X887264D01*
X891705Y265396D01*
X895888Y267129D01*
X899653Y269645D01*
X902855Y272847D01*
X905371Y276612D01*
X907104Y280795D01*
X907987Y285236D01*
Y289764D01*
X907104Y294205D01*
X905371Y298388D01*
X902855Y302153D01*
X899653Y305355D01*
X895888Y307871D01*
X891705Y309604D01*
X887264Y310487D01*
D02*
G37*
G36*
X696764D02*
X692236D01*
X687795Y309604D01*
X683612Y307871D01*
X679847Y305355D01*
X676645Y302153D01*
X674129Y298388D01*
X672396Y294205D01*
X671513Y289764D01*
Y285236D01*
X672396Y280795D01*
X674129Y276612D01*
X676645Y272847D01*
X679847Y269645D01*
X683612Y267129D01*
X687795Y265396D01*
X692236Y264513D01*
X696764D01*
X701205Y265396D01*
X705388Y267129D01*
X709153Y269645D01*
X712355Y272847D01*
X714871Y276612D01*
X716604Y280795D01*
X717487Y285236D01*
Y289764D01*
X716604Y294205D01*
X714871Y298388D01*
X712355Y302153D01*
X709153Y305355D01*
X705388Y307871D01*
X701205Y309604D01*
X696764Y310487D01*
D02*
G37*
G36*
X1102978Y166740D02*
X1099522D01*
X1096134Y166066D01*
X1092942Y164744D01*
X1090069Y162824D01*
X1087626Y160381D01*
X1085706Y157508D01*
X1084384Y154316D01*
X1083710Y150927D01*
Y147472D01*
X1084384Y144084D01*
X1085706Y140892D01*
X1087626Y138019D01*
X1090069Y135576D01*
X1092942Y133656D01*
X1096134Y132334D01*
X1099522Y131660D01*
X1102978D01*
X1106366Y132334D01*
X1109558Y133656D01*
X1112431Y135576D01*
X1114874Y138019D01*
X1116794Y140892D01*
X1118116Y144084D01*
X1118790Y147472D01*
Y150927D01*
X1118116Y154316D01*
X1116794Y157508D01*
X1114874Y160381D01*
X1112431Y162824D01*
X1109558Y164744D01*
X1106366Y166066D01*
X1102978Y166740D01*
D02*
G37*
G36*
X722227D02*
X718773D01*
X715384Y166066D01*
X712192Y164744D01*
X709319Y162824D01*
X706876Y160381D01*
X704956Y157508D01*
X703634Y154316D01*
X702960Y150927D01*
Y147472D01*
X703634Y144084D01*
X704956Y140892D01*
X706876Y138019D01*
X709319Y135576D01*
X712192Y133656D01*
X715384Y132334D01*
X718773Y131660D01*
X722227D01*
X725616Y132334D01*
X728808Y133656D01*
X731681Y135576D01*
X734124Y138019D01*
X736044Y140892D01*
X737366Y144084D01*
X738040Y147472D01*
Y150927D01*
X737366Y154316D01*
X736044Y157508D01*
X734124Y160381D01*
X731681Y162824D01*
X728808Y164744D01*
X725616Y166066D01*
X722227Y166740D01*
D02*
G37*
G36*
X911728Y166240D02*
X908272D01*
X904884Y165566D01*
X901692Y164244D01*
X898819Y162324D01*
X896376Y159881D01*
X894456Y157008D01*
X893134Y153816D01*
X892460Y150428D01*
Y146973D01*
X893134Y143584D01*
X894456Y140392D01*
X896376Y137519D01*
X898819Y135076D01*
X901692Y133156D01*
X904884Y131834D01*
X908272Y131160D01*
X911728D01*
X915116Y131834D01*
X918308Y133156D01*
X921181Y135076D01*
X923624Y137519D01*
X925544Y140392D01*
X926866Y143584D01*
X927540Y146973D01*
Y150428D01*
X926866Y153816D01*
X925544Y157008D01*
X923624Y159881D01*
X921181Y162324D01*
X918308Y164244D01*
X915116Y165566D01*
X911728Y166240D01*
D02*
G37*
G36*
X1039478Y141340D02*
X1036022D01*
X1032634Y140666D01*
X1029442Y139344D01*
X1026569Y137424D01*
X1024126Y134981D01*
X1022206Y132108D01*
X1020884Y128916D01*
X1020210Y125527D01*
Y122072D01*
X1020884Y118684D01*
X1022206Y115492D01*
X1024126Y112619D01*
X1026569Y110176D01*
X1029442Y108256D01*
X1032634Y106934D01*
X1036022Y106260D01*
X1039478D01*
X1042866Y106934D01*
X1046058Y108256D01*
X1048931Y110176D01*
X1051374Y112619D01*
X1053294Y115492D01*
X1054616Y118684D01*
X1055290Y122072D01*
Y125527D01*
X1054616Y128916D01*
X1053294Y132108D01*
X1051374Y134981D01*
X1048931Y137424D01*
X1046058Y139344D01*
X1042866Y140666D01*
X1039478Y141340D01*
D02*
G37*
G36*
X658727D02*
X655273D01*
X651884Y140666D01*
X648692Y139344D01*
X645819Y137424D01*
X643376Y134981D01*
X641456Y132108D01*
X640134Y128916D01*
X639460Y125527D01*
Y122072D01*
X640134Y118684D01*
X641456Y115492D01*
X643376Y112619D01*
X645819Y110176D01*
X648692Y108256D01*
X651884Y106934D01*
X655273Y106260D01*
X658727D01*
X662116Y106934D01*
X665308Y108256D01*
X668181Y110176D01*
X670624Y112619D01*
X672544Y115492D01*
X673866Y118684D01*
X674540Y122072D01*
Y125527D01*
X673866Y128916D01*
X672544Y132108D01*
X670624Y134981D01*
X668181Y137424D01*
X665308Y139344D01*
X662116Y140666D01*
X658727Y141340D01*
D02*
G37*
G36*
X848227Y140840D02*
X844772D01*
X841384Y140166D01*
X838192Y138844D01*
X835319Y136924D01*
X832876Y134481D01*
X830956Y131608D01*
X829634Y128416D01*
X828960Y125028D01*
Y121573D01*
X829634Y118184D01*
X830956Y114992D01*
X832876Y112119D01*
X835319Y109676D01*
X838192Y107756D01*
X841384Y106434D01*
X844772Y105760D01*
X848227D01*
X851616Y106434D01*
X854808Y107756D01*
X857681Y109676D01*
X860124Y112119D01*
X862044Y114992D01*
X863366Y118184D01*
X864040Y121573D01*
Y125028D01*
X863366Y128416D01*
X862044Y131608D01*
X860124Y134481D01*
X857681Y136924D01*
X854808Y138844D01*
X851616Y140166D01*
X848227Y140840D01*
D02*
G37*
G36*
X1077764Y119987D02*
X1073236D01*
X1068795Y119104D01*
X1064612Y117371D01*
X1060847Y114855D01*
X1057645Y111653D01*
X1055129Y107888D01*
X1053396Y103705D01*
X1052513Y99264D01*
Y94736D01*
X1053396Y90295D01*
X1055129Y86112D01*
X1057645Y82347D01*
X1060847Y79145D01*
X1064612Y76629D01*
X1068795Y74896D01*
X1073236Y74013D01*
X1077764D01*
X1082205Y74896D01*
X1086388Y76629D01*
X1090153Y79145D01*
X1093355Y82347D01*
X1095871Y86112D01*
X1097604Y90295D01*
X1098487Y94736D01*
Y99264D01*
X1097604Y103705D01*
X1095871Y107888D01*
X1093355Y111653D01*
X1090153Y114855D01*
X1086388Y117371D01*
X1082205Y119104D01*
X1077764Y119987D01*
D02*
G37*
G36*
X887264D02*
X882736D01*
X878295Y119104D01*
X874112Y117371D01*
X870347Y114855D01*
X867145Y111653D01*
X864629Y107888D01*
X862896Y103705D01*
X862013Y99264D01*
Y94736D01*
X862896Y90295D01*
X864629Y86112D01*
X867145Y82347D01*
X870347Y79145D01*
X874112Y76629D01*
X878295Y74896D01*
X882736Y74013D01*
X887264D01*
X891705Y74896D01*
X895888Y76629D01*
X899653Y79145D01*
X902855Y82347D01*
X905371Y86112D01*
X907104Y90295D01*
X907987Y94736D01*
Y99264D01*
X907104Y103705D01*
X905371Y107888D01*
X902855Y111653D01*
X899653Y114855D01*
X895888Y117371D01*
X891705Y119104D01*
X887264Y119987D01*
D02*
G37*
G36*
X696764D02*
X692236D01*
X687795Y119104D01*
X683612Y117371D01*
X679847Y114855D01*
X676645Y111653D01*
X674129Y107888D01*
X672396Y103705D01*
X671513Y99264D01*
Y94736D01*
X672396Y90295D01*
X674129Y86112D01*
X676645Y82347D01*
X679847Y79145D01*
X683612Y76629D01*
X687795Y74896D01*
X692236Y74013D01*
X696764D01*
X701205Y74896D01*
X705388Y76629D01*
X709153Y79145D01*
X712355Y82347D01*
X714871Y86112D01*
X716604Y90295D01*
X717487Y94736D01*
Y99264D01*
X716604Y103705D01*
X714871Y107888D01*
X712355Y111653D01*
X709153Y114855D01*
X705388Y117371D01*
X701205Y119104D01*
X696764Y119987D01*
D02*
G37*
G36*
X1212364Y70040D02*
X1207636D01*
X1202966Y69300D01*
X1198469Y67839D01*
X1194256Y65693D01*
X1190430Y62913D01*
X1187087Y59570D01*
X1184307Y55744D01*
X1182161Y51531D01*
X1180700Y47034D01*
X1179960Y42364D01*
Y37636D01*
X1180700Y32966D01*
X1182161Y28469D01*
X1184307Y24256D01*
X1187087Y20430D01*
X1190430Y17087D01*
X1194256Y14308D01*
X1198469Y12161D01*
X1202966Y10700D01*
X1207636Y9960D01*
X1212364D01*
X1217034Y10700D01*
X1221531Y12161D01*
X1225744Y14308D01*
X1229570Y17087D01*
X1232913Y20430D01*
X1235693Y24256D01*
X1237839Y28469D01*
X1239300Y32966D01*
X1240040Y37636D01*
Y42364D01*
X1239300Y47034D01*
X1237839Y51531D01*
X1235693Y55744D01*
X1232913Y59570D01*
X1229570Y62913D01*
X1225744Y65693D01*
X1221531Y67839D01*
X1217034Y69300D01*
X1212364Y70040D01*
D02*
G37*
G36*
X347364D02*
X342636D01*
X337966Y69300D01*
X333469Y67839D01*
X329256Y65693D01*
X325430Y62913D01*
X322087Y59570D01*
X319307Y55744D01*
X317161Y51531D01*
X315700Y47034D01*
X314960Y42364D01*
Y37636D01*
X315700Y32966D01*
X317161Y28469D01*
X319307Y24256D01*
X322087Y20430D01*
X325430Y17087D01*
X329256Y14308D01*
X333469Y12161D01*
X337966Y10700D01*
X342636Y9960D01*
X347364D01*
X352034Y10700D01*
X356531Y12161D01*
X360744Y14308D01*
X364570Y17087D01*
X367913Y20430D01*
X370692Y24256D01*
X372839Y28469D01*
X374300Y32966D01*
X375040Y37636D01*
Y42364D01*
X374300Y47034D01*
X372839Y51531D01*
X370692Y55744D01*
X367913Y59570D01*
X364570Y62913D01*
X360744Y65693D01*
X356531Y67839D01*
X352034Y69300D01*
X347364Y70040D01*
D02*
G37*
%LPD*%
G36*
X452008Y908606D02*
X452950Y908194D01*
X453241Y907492D01*
X454518Y906215D01*
X456100Y905560D01*
X458218Y903442D01*
Y877955D01*
X458100Y877364D01*
Y863230D01*
X455560Y862178D01*
X454978Y862761D01*
X452942Y863604D01*
X450738D01*
X448701Y862761D01*
X448433Y862493D01*
X445894Y863545D01*
Y904536D01*
X450159Y908801D01*
X450335Y908827D01*
X452008Y908606D01*
D02*
G37*
D10*
X379000Y789000D02*
X383000Y785000D01*
X379000Y789000D02*
Y799790D01*
X379210Y800000D01*
X398790D02*
X399790Y799000D01*
X439000D01*
X442009Y802009D01*
X441946Y784208D02*
Y808751D01*
X442009Y802009D02*
Y808814D01*
X452912Y924436D02*
Y962211D01*
X437840Y910314D02*
Y962284D01*
X407840Y689064D02*
X407872Y689032D01*
X420468D02*
X420500Y689000D01*
X454500Y758000D02*
Y776225D01*
X452840Y962284D02*
X452912Y962211D01*
X407872Y689032D02*
X420468D01*
X421327Y951064D02*
X422589D01*
X462102Y877482D02*
Y905051D01*
X434339Y769314D02*
X434420Y769234D01*
X474420Y663644D02*
Y674920D01*
X526487Y604171D02*
Y611834D01*
X387237D02*
X395967Y620564D01*
X464500Y675000D02*
X464730Y674770D01*
X451839Y858064D02*
X452162Y857741D01*
X419840Y952552D02*
Y957804D01*
Y962284D02*
X422840D01*
X399840Y673814D02*
Y701250D01*
X421709Y789252D02*
X421834Y789377D01*
X457840Y962284D02*
Y978314D01*
X442912Y924436D02*
X442985Y924363D01*
X407589Y709000D02*
X420500D01*
X517067Y724000D02*
X517095Y724028D01*
X463899Y906847D02*
Y906873D01*
X427840Y962284D02*
Y977064D01*
X457090Y910064D02*
X462102Y905051D01*
X441946Y784208D02*
X449500Y776653D01*
X436320Y629294D02*
Y639335D01*
X461985Y832790D02*
Y877364D01*
X427589Y620564D02*
X436320Y629294D01*
X463899Y906873D02*
X467090Y910064D01*
X467840Y951564D02*
Y962284D01*
X422589Y951064D02*
Y956580D01*
X461009Y831814D02*
X461985Y832790D01*
X478859Y629294D02*
X487589Y620564D01*
X410089D02*
X427589D01*
X437840Y910314D02*
X442009Y906145D01*
X421709Y779002D02*
Y789252D01*
X522122Y616199D02*
X526487Y611834D01*
X447840Y911975D02*
Y962284D01*
X478859Y629294D02*
Y638544D01*
X487589Y620564D02*
X505089D01*
X422609Y956600D02*
Y962054D01*
X470840Y948564D02*
Y962284D01*
X452162Y832467D02*
Y857741D01*
X464730Y663923D02*
X465340Y663314D01*
X451509Y831814D02*
X452162Y832467D01*
X452912Y924436D02*
X452985Y924363D01*
X474420Y674920D02*
X474500Y675000D01*
X442912Y924436D02*
Y962211D01*
X454500Y657515D02*
Y675000D01*
X441946Y808751D02*
X442009Y808814D01*
X459500Y657904D02*
X478859Y638544D01*
X462102Y905051D02*
X463899Y906847D01*
X442009Y906145D02*
X447840Y911975D01*
X454500Y776225D02*
X461009Y782733D01*
X470840Y939814D02*
Y948564D01*
X467840Y951564D02*
X470840Y948564D01*
X387237Y604421D02*
Y611834D01*
X474339Y663564D02*
X474420Y663644D01*
X442840Y962284D02*
X442912Y962211D01*
X461985Y877364D02*
X462102Y877482D01*
X422589Y956580D02*
X422609Y956600D01*
X466339Y935314D02*
X470840Y939814D01*
X464730Y663923D02*
Y674770D01*
X399840Y701250D02*
X407589Y709000D01*
X419840Y952552D02*
X421327Y951064D01*
X461009Y782733D02*
Y808814D01*
X503500Y724000D02*
X517067D01*
X421584Y778877D02*
X421709Y779002D01*
X434420Y758080D02*
Y769234D01*
X503532Y744032D02*
X515558D01*
X422609Y962054D02*
X422840Y962284D01*
X515558Y744032D02*
X515589Y744064D01*
X459500Y657904D02*
Y675000D01*
X434420Y758080D02*
X434500Y758000D01*
X436320Y639335D02*
X454500Y657515D01*
X449500Y758000D02*
Y776653D01*
X422589Y934314D02*
Y951064D01*
X503500Y744000D02*
X503532Y744032D01*
X442009Y831814D02*
Y906145D01*
X548500Y699000D02*
X585000Y662500D01*
Y410000D02*
Y662500D01*
Y410000D02*
X612500Y382500D01*
X503500Y699000D02*
X548500D01*
X700000Y382500D02*
X902500D01*
X1095000D01*
X612500D02*
X700000D01*
X426238Y680738D02*
X433038Y687538D01*
X426462Y752038D02*
X433262Y745238D01*
X439500Y758000D02*
Y764500D01*
X487500Y687500D02*
X491000D01*
X490738Y745238D02*
X497538Y752038D01*
X491000Y687500D02*
X497800Y680700D01*
X511000Y739000D02*
X515000Y735000D01*
X503500Y739000D02*
X511000D01*
X439500Y764500D02*
X442500Y767500D01*
Y770000D01*
X475840Y952160D02*
Y962284D01*
Y952160D02*
X476000Y952000D01*
X414840Y949839D02*
Y962284D01*
X414000Y949000D02*
X414840Y949839D01*
X625000Y970000D02*
X955000D01*
X1002500Y922500D01*
X479500Y824500D02*
X625000Y970000D01*
X479500Y758000D02*
Y824500D01*
X707500Y192500D02*
X900000D01*
X1096782D01*
X572500Y242500D02*
X622500Y192500D01*
X572500Y242500D02*
Y655000D01*
X1099282Y195000D02*
X1100000D01*
X1096782Y192500D02*
X1099282Y195000D01*
X622500Y192500D02*
X707500D01*
X533500Y694000D02*
X572500Y655000D01*
X503500Y694000D02*
X533500D01*
X561500Y709000D02*
X617500Y765000D01*
X710000D01*
X503500Y709000D02*
X561500D01*
X710000Y765000D02*
X900000D01*
X1085000D01*
X489500Y802682D02*
X606035Y919217D01*
X489500Y758000D02*
Y802682D01*
X523500Y689000D02*
X560000Y652500D01*
Y60000D02*
X612500Y7500D01*
X560000Y60000D02*
Y652500D01*
X503500Y689000D02*
X523500D01*
X705000Y7500D02*
X890000D01*
X1107500D01*
X612500D02*
X705000D01*
X597500Y597500D02*
Y670000D01*
Y597500D02*
X620000Y575000D01*
X711782D02*
X714282Y577500D01*
X620000Y575000D02*
X711782D01*
X714282Y577500D02*
X900000D01*
X563500Y704000D02*
X597500Y670000D01*
X503500Y704000D02*
X563500D01*
X900000Y577500D02*
X1087500D01*
X484500Y814500D02*
X621250Y951250D01*
X484500Y758000D02*
Y814500D01*
X621250Y951250D02*
X778250D01*
X808750Y920750D01*
D14*
X398790Y800000D02*
D03*
X379210D02*
D03*
D15*
X503500Y694000D02*
D03*
Y689000D02*
D03*
Y699000D02*
D03*
X420500Y724000D02*
D03*
Y729000D02*
D03*
Y734000D02*
D03*
Y739000D02*
D03*
Y744000D02*
D03*
Y719000D02*
D03*
Y714000D02*
D03*
Y704000D02*
D03*
Y699000D02*
D03*
X503500Y724000D02*
D03*
Y729000D02*
D03*
Y734000D02*
D03*
Y719000D02*
D03*
Y714000D02*
D03*
Y709000D02*
D03*
Y704000D02*
D03*
X420500Y689000D02*
D03*
X503500Y744000D02*
D03*
Y739000D02*
D03*
X420500Y694000D02*
D03*
Y709000D02*
D03*
D16*
X459500Y675000D02*
D03*
X454500D02*
D03*
X444500Y758000D02*
D03*
X449500D02*
D03*
X454500D02*
D03*
X459500D02*
D03*
X464500D02*
D03*
X469500D02*
D03*
X474500D02*
D03*
X479500D02*
D03*
X484500D02*
D03*
X489500D02*
D03*
Y675000D02*
D03*
X484500D02*
D03*
X479500D02*
D03*
X464500D02*
D03*
X449500D02*
D03*
X444500D02*
D03*
X439500D02*
D03*
X434500D02*
D03*
X474500D02*
D03*
X434500Y758000D02*
D03*
X439500D02*
D03*
X469500Y675000D02*
D03*
D17*
X461009Y831814D02*
D03*
Y808814D02*
D03*
X442009D02*
D03*
Y831814D02*
D03*
X451509D02*
D03*
Y808814D02*
D03*
D18*
X421584Y778877D02*
D03*
Y772877D02*
D03*
D19*
X427840Y962284D02*
D03*
X457840D02*
D03*
X467840D02*
D03*
X462840D02*
D03*
X452840D02*
D03*
X437840D02*
D03*
X422840D02*
D03*
X419840D02*
D03*
X432840D02*
D03*
X442840D02*
D03*
X447840D02*
D03*
X470840D02*
D03*
X478839D02*
D03*
X411839D02*
D03*
X414840D02*
D03*
X475840D02*
D03*
D20*
X496440Y1007334D02*
D03*
X394240D02*
D03*
X496440Y968034D02*
D03*
X394240D02*
D03*
D35*
X410089Y620564D02*
D03*
X505089D02*
D03*
D36*
X416440Y973034D02*
D03*
X474240D02*
D03*
D37*
X694500Y859000D02*
D03*
X885000D02*
D03*
X1075500D02*
D03*
X694500Y668500D02*
D03*
X885000D02*
D03*
X1075500D02*
D03*
X694500Y478000D02*
D03*
X885000D02*
D03*
X1075500D02*
D03*
X694500Y287500D02*
D03*
X885000D02*
D03*
X1075500D02*
D03*
X694500Y97000D02*
D03*
X885000D02*
D03*
X1075500D02*
D03*
D38*
X1210000Y915000D02*
D03*
X345000D02*
D03*
X1210000Y40000D02*
D03*
X345000D02*
D03*
D39*
X1101250Y911700D02*
D03*
X1037750Y886300D02*
D03*
X910750Y530700D02*
D03*
X847250Y505300D02*
D03*
X720250Y720200D02*
D03*
X656750Y694800D02*
D03*
X910280Y339040D02*
D03*
X846780Y313640D02*
D03*
X909750Y721200D02*
D03*
X846250Y695800D02*
D03*
X1101500Y719900D02*
D03*
X1038000Y694500D02*
D03*
X720500Y149200D02*
D03*
X657000Y123800D02*
D03*
X720000Y910400D02*
D03*
X656500Y885000D02*
D03*
X719250Y529700D02*
D03*
X655750Y504300D02*
D03*
X910000Y148700D02*
D03*
X846500Y123300D02*
D03*
X720250Y339700D02*
D03*
X656750Y314300D02*
D03*
X1101250Y339200D02*
D03*
X1037750Y313800D02*
D03*
X1100000Y529400D02*
D03*
X1036500Y504000D02*
D03*
X909750Y911700D02*
D03*
X846250Y886300D02*
D03*
X1101250Y149200D02*
D03*
X1037750Y123800D02*
D03*
D40*
X383000Y785000D02*
D03*
X407840Y689064D02*
D03*
X387237Y604421D02*
D03*
X517095Y724028D02*
D03*
X434339Y769314D02*
D03*
X451839Y858064D02*
D03*
X474339Y663564D02*
D03*
X457840Y978314D02*
D03*
X465340Y663314D02*
D03*
X466339Y935314D02*
D03*
X421834Y789377D02*
D03*
X399840Y673814D02*
D03*
X515589Y744064D02*
D03*
X422589Y934314D02*
D03*
X526487Y604171D02*
D03*
X427840Y977064D02*
D03*
X700000Y382500D02*
D03*
X902500D02*
D03*
X1095000D02*
D03*
X470000Y790000D02*
D03*
X363000Y768000D02*
D03*
X370000Y735000D02*
D03*
X520000Y665000D02*
D03*
X404530Y653730D02*
D03*
X562000Y765000D02*
D03*
X428000Y1015000D02*
D03*
X459000Y1016000D02*
D03*
X1002500Y922500D02*
D03*
X707500Y192500D02*
D03*
X900000D02*
D03*
X1100000Y195000D02*
D03*
X710000Y765000D02*
D03*
X900000D02*
D03*
X1085000D02*
D03*
X606035Y919217D02*
D03*
X705000Y7500D02*
D03*
X890000D02*
D03*
X1107500D02*
D03*
X715000Y577500D02*
D03*
X900000D02*
D03*
X1087500D02*
D03*
X808750Y920750D02*
D03*
D41*
X457090Y910064D02*
D03*
X467090D02*
D03*
X452985Y924363D02*
D03*
X442985D02*
D03*
M02*
