G04*
G04 #@! TF.GenerationSoftware,Altium Limited,Altium Designer,25.8.1 (18)*
G04*
G04 Layer_Color=128*
%FSLAX44Y44*%
%MOMM*%
G71*
G04*
G04 #@! TF.SameCoordinates,69063981-3850-437B-816B-5615AFDD25F8*
G04*
G04*
G04 #@! TF.FilePolarity,Positive*
G04*
G01*
G75*
%ADD17R,1.1000X1.0000*%
%ADD55R,0.6000X0.5000*%
%ADD56R,1.0000X1.1000*%
G04:AMPARAMS|DCode=58|XSize=0.67mm|YSize=1.17mm|CornerRadius=0.0402mm|HoleSize=0mm|Usage=FLASHONLY|Rotation=0.000|XOffset=0mm|YOffset=0mm|HoleType=Round|Shape=RoundedRectangle|*
%AMROUNDEDRECTD58*
21,1,0.6700,1.0896,0,0,0.0*
21,1,0.5896,1.1700,0,0,0.0*
1,1,0.0804,0.2948,-0.5448*
1,1,0.0804,-0.2948,-0.5448*
1,1,0.0804,-0.2948,0.5448*
1,1,0.0804,0.2948,0.5448*
%
%ADD58ROUNDEDRECTD58*%
%ADD59R,0.9500X1.0300*%
%ADD60R,0.5600X0.6000*%
%ADD61R,0.5000X0.5000*%
%ADD62R,2.5500X2.5000*%
%ADD63R,0.6900X0.5600*%
G36*
X426834Y860127D02*
X416834D01*
Y872127D01*
X426834D01*
Y860127D01*
D02*
G37*
G36*
X406834D02*
X396834D01*
Y872127D01*
X406834D01*
Y860127D01*
D02*
G37*
G36*
X479205Y627168D02*
X469205D01*
Y634668D01*
X479205D01*
Y627168D01*
D02*
G37*
G36*
X464205D02*
X454205D01*
Y634668D01*
X464205D01*
Y627168D01*
D02*
G37*
G36*
X439270Y625000D02*
X429270D01*
Y637000D01*
X439270D01*
Y625000D01*
D02*
G37*
G36*
X419270D02*
X409270D01*
Y637000D01*
X419270D01*
Y625000D01*
D02*
G37*
G36*
X415000Y408250D02*
X405000D01*
Y415750D01*
X415000D01*
Y408250D01*
D02*
G37*
G36*
X400000D02*
X390000D01*
Y415750D01*
X400000D01*
Y408250D01*
D02*
G37*
G36*
X414500Y383250D02*
X404500D01*
Y390750D01*
X414500D01*
Y383250D01*
D02*
G37*
G36*
X399500D02*
X389500D01*
Y390750D01*
X399500D01*
Y383250D01*
D02*
G37*
G36*
X414500Y357250D02*
X404500D01*
Y364750D01*
X414500D01*
Y357250D01*
D02*
G37*
G36*
X399500D02*
X389500D01*
Y364750D01*
X399500D01*
Y357250D01*
D02*
G37*
G36*
X415500Y332250D02*
X405500D01*
Y339750D01*
X415500D01*
Y332250D01*
D02*
G37*
G36*
X400500D02*
X390500D01*
Y339750D01*
X400500D01*
Y332250D01*
D02*
G37*
G36*
X413500Y281250D02*
X403500D01*
Y288750D01*
X413500D01*
Y281250D01*
D02*
G37*
G36*
X398500D02*
X388500D01*
Y288750D01*
X398500D01*
Y281250D01*
D02*
G37*
G36*
X413500Y255250D02*
X403500D01*
Y262750D01*
X413500D01*
Y255250D01*
D02*
G37*
G36*
X398500D02*
X388500D01*
Y262750D01*
X398500D01*
Y255250D01*
D02*
G37*
D17*
X385864Y767897D02*
D03*
X404334Y845127D02*
D03*
X491090Y649064D02*
D03*
X451590Y781814D02*
D03*
X466090Y600987D02*
D03*
X449090D02*
D03*
X434590Y781814D02*
D03*
X474090Y649064D02*
D03*
X421334Y845127D02*
D03*
X402864Y767897D02*
D03*
D55*
X458000Y991450D02*
D03*
Y1000550D02*
D03*
X428000Y999550D02*
D03*
Y990450D02*
D03*
D56*
X527589Y762064D02*
D03*
X394840Y705564D02*
D03*
Y688564D02*
D03*
X527589Y745064D02*
D03*
D58*
X412084Y826577D02*
D03*
X402684Y802177D02*
D03*
Y826577D02*
D03*
X421484D02*
D03*
Y802177D02*
D03*
D59*
X386704Y747877D02*
D03*
X402464D02*
D03*
D60*
X405650Y463000D02*
D03*
X414350D02*
D03*
X400650Y488000D02*
D03*
X409350D02*
D03*
D61*
X422340Y887814D02*
D03*
Y897814D02*
D03*
D62*
X1002250Y123800D02*
D03*
X1002250Y886300D02*
D03*
X1001000Y504000D02*
D03*
X1002250Y313800D02*
D03*
X1002500Y694500D02*
D03*
X620250Y504300D02*
D03*
X621500Y123800D02*
D03*
X621250Y694800D02*
D03*
X621250Y314300D02*
D03*
X621000Y885000D02*
D03*
X811000Y123300D02*
D03*
X811280Y313640D02*
D03*
X810750Y695800D02*
D03*
X811750Y505300D02*
D03*
X810750Y886300D02*
D03*
X1136750Y911700D02*
D03*
X946250Y530700D02*
D03*
X755750Y720200D02*
D03*
X945780Y339040D02*
D03*
X945250Y721200D02*
D03*
X1137000Y719900D02*
D03*
X756000Y149200D02*
D03*
X755500Y910400D02*
D03*
X754750Y529700D02*
D03*
X945500Y148700D02*
D03*
X755750Y339700D02*
D03*
X1136750Y339200D02*
D03*
X1135500Y529400D02*
D03*
X945250Y911700D02*
D03*
X1136750Y149200D02*
D03*
D63*
X947000Y288300D02*
D03*
X757500Y286300D02*
D03*
X1137500Y284300D02*
D03*
X1138500Y854800D02*
D03*
X755500Y856800D02*
D03*
X948000Y858000D02*
D03*
X945250Y92550D02*
D03*
X1139500Y89550D02*
D03*
X755000Y87550D02*
D03*
X757500Y665300D02*
D03*
X1140500Y666300D02*
D03*
X948000Y665300D02*
D03*
X1138500Y473800D02*
D03*
X757500Y475800D02*
D03*
X948000Y475800D02*
D03*
X757500Y500200D02*
D03*
X755500Y881200D02*
D03*
X1137500Y308700D02*
D03*
X1140500Y690700D02*
D03*
X1139500Y113950D02*
D03*
X948000Y689700D02*
D03*
X755000Y111950D02*
D03*
X757500Y689700D02*
D03*
X948000Y882400D02*
D03*
X1138500Y879200D02*
D03*
X945250Y116950D02*
D03*
X948000Y500200D02*
D03*
X1138500Y498200D02*
D03*
X757500Y310700D02*
D03*
X947000Y312700D02*
D03*
M02*
