G04*
G04 #@! TF.GenerationSoftware,Altium Limited,Altium Designer,26.1.1 (7)*
G04*
G04 Layer_Color=8388736*
%FSLAX25Y25*%
%MOIN*%
G70*
G04*
G04 #@! TF.SameCoordinates,DDB61D4A-7B62-475A-B33E-85BEADE60F6A*
G04*
G04*
G04 #@! TF.FilePolarity,Negative*
G04*
G01*
G75*
%ADD22R,0.04737X0.03753*%
G04:AMPARAMS|DCode=23|XSize=42.25mil|YSize=44.61mil|CornerRadius=8.28mil|HoleSize=0mil|Usage=FLASHONLY|Rotation=0.000|XOffset=0mil|YOffset=0mil|HoleType=Round|Shape=RoundedRectangle|*
%AMROUNDEDRECTD23*
21,1,0.04225,0.02805,0,0,0.0*
21,1,0.02569,0.04461,0,0,0.0*
1,1,0.01656,0.01284,-0.01403*
1,1,0.01656,-0.01284,-0.01403*
1,1,0.01656,-0.01284,0.01403*
1,1,0.01656,0.01284,0.01403*
%
%ADD23ROUNDEDRECTD23*%
%ADD24R,0.05131X0.04737*%
%ADD25R,0.05524X0.01981*%
%ADD26R,0.01981X0.05524*%
%ADD27R,0.01981X0.05328*%
%ADD28R,0.09383X0.08674*%
%ADD29R,0.04737X0.05131*%
%ADD30R,0.22453X0.08674*%
%ADD31C,0.06331*%
%ADD32R,0.06331X0.06331*%
%ADD33C,0.02080*%
%ADD34C,0.22453*%
%ADD35C,0.08851*%
%ADD36C,0.12611*%
%ADD37C,0.07099*%
D22*
X32480Y255118D02*
D03*
X62795Y116535D02*
D03*
X63189Y86614D02*
D03*
Y76378D02*
D03*
X57284D02*
D03*
Y86614D02*
D03*
X56496Y106693D02*
D03*
X62402D02*
D03*
X56890Y116535D02*
D03*
X62795Y126772D02*
D03*
X56890D02*
D03*
X56693Y136614D02*
D03*
X62598D02*
D03*
X38386Y255118D02*
D03*
D23*
X47008Y225984D02*
D03*
X77795Y226378D02*
D03*
X71653D02*
D03*
X53150Y225984D02*
D03*
D24*
X39173Y236221D02*
D03*
X55315Y166535D02*
D03*
X62008D02*
D03*
X45866Y236221D02*
D03*
D25*
X47441Y249213D02*
D03*
X80118Y266929D02*
D03*
X47441Y255118D02*
D03*
X80118Y268898D02*
D03*
X47441Y247244D02*
D03*
X80118Y253150D02*
D03*
Y255118D02*
D03*
Y257087D02*
D03*
Y259055D02*
D03*
Y264961D02*
D03*
Y262992D02*
D03*
Y261024D02*
D03*
X47441Y251181D02*
D03*
Y253150D02*
D03*
Y257087D02*
D03*
Y259055D02*
D03*
Y268898D02*
D03*
Y266929D02*
D03*
Y264961D02*
D03*
Y262992D02*
D03*
Y261024D02*
D03*
X80118Y251181D02*
D03*
Y247244D02*
D03*
Y249213D02*
D03*
D26*
X66732Y241732D02*
D03*
X54921Y274409D02*
D03*
X52953D02*
D03*
X68701Y241732D02*
D03*
X52953D02*
D03*
X54921D02*
D03*
X56890D02*
D03*
X58858D02*
D03*
X64764D02*
D03*
X70669D02*
D03*
X72638D02*
D03*
X74606D02*
D03*
Y274409D02*
D03*
X72638D02*
D03*
X70669D02*
D03*
X68701D02*
D03*
X66732D02*
D03*
X64764D02*
D03*
X62795D02*
D03*
X60827D02*
D03*
X58858D02*
D03*
X56890D02*
D03*
X60827Y241732D02*
D03*
X62795D02*
D03*
D27*
X70016Y361923D02*
D03*
X43638D02*
D03*
X44819D02*
D03*
X68835D02*
D03*
X49937D02*
D03*
X61748D02*
D03*
X65685D02*
D03*
X63716D02*
D03*
X59779D02*
D03*
X53874D02*
D03*
X47968D02*
D03*
X46787D02*
D03*
X51905D02*
D03*
X55842D02*
D03*
X57811D02*
D03*
X66866D02*
D03*
D28*
X76945Y379659D02*
D03*
X36709D02*
D03*
X76945Y364187D02*
D03*
X36709D02*
D03*
D29*
X46850Y295472D02*
D03*
Y288779D02*
D03*
D30*
X80744Y213214D02*
D03*
X43342D02*
D03*
D31*
X37244Y76535D02*
D03*
Y86535D02*
D03*
Y96535D02*
D03*
Y126535D02*
D03*
Y116535D02*
D03*
Y106535D02*
D03*
Y156535D02*
D03*
Y146535D02*
D03*
Y136535D02*
D03*
X47244D02*
D03*
Y146535D02*
D03*
Y156535D02*
D03*
X37244Y166535D02*
D03*
X47244Y106535D02*
D03*
Y116535D02*
D03*
Y126535D02*
D03*
Y96535D02*
D03*
Y86535D02*
D03*
Y76535D02*
D03*
D32*
Y166535D02*
D03*
D33*
X45449Y366155D02*
D03*
X68204D02*
D03*
D34*
X15748Y370079D02*
D03*
X356299D02*
D03*
Y15748D02*
D03*
X15748D02*
D03*
D35*
X153347Y338189D02*
D03*
X228346D02*
D03*
X303346D02*
D03*
X153347Y263189D02*
D03*
X228346D02*
D03*
X303346D02*
D03*
X153347Y188189D02*
D03*
X228346D02*
D03*
X303346D02*
D03*
X153347Y113189D02*
D03*
X228346D02*
D03*
X303346D02*
D03*
X153347Y38189D02*
D03*
X228346D02*
D03*
X303346D02*
D03*
D36*
X313484Y358937D02*
D03*
X288484Y348937D02*
D03*
X238484Y208937D02*
D03*
X213484Y198937D02*
D03*
X163484Y283543D02*
D03*
X138484Y273543D02*
D03*
X238299Y133480D02*
D03*
X213299Y123480D02*
D03*
X238090Y283937D02*
D03*
X213090Y273937D02*
D03*
X313583Y283425D02*
D03*
X288583Y273425D02*
D03*
X163583Y58740D02*
D03*
X138583Y48740D02*
D03*
X163386Y358425D02*
D03*
X138386Y348425D02*
D03*
X163091Y208543D02*
D03*
X138091Y198543D02*
D03*
X238189Y58543D02*
D03*
X213189Y48543D02*
D03*
X163484Y133740D02*
D03*
X138484Y123740D02*
D03*
X313484Y133543D02*
D03*
X288484Y123543D02*
D03*
X312992Y208425D02*
D03*
X287992Y198425D02*
D03*
X238091Y358937D02*
D03*
X213091Y348937D02*
D03*
X313484Y58740D02*
D03*
X288484Y48740D02*
D03*
D37*
X22047Y115748D02*
D03*
X22441Y160236D02*
D03*
X85433Y150000D02*
D03*
X55118Y151181D02*
D03*
X62205Y372047D02*
D03*
X50394D02*
D03*
X80709Y309842D02*
D03*
X54437Y293807D02*
D03*
X17035Y76272D02*
D03*
X85433Y195276D02*
D03*
X98032Y287795D02*
D03*
X18898Y285039D02*
D03*
X25984Y249606D02*
D03*
X18504Y313779D02*
D03*
X63169Y341578D02*
D03*
X85216D02*
D03*
Y331735D02*
D03*
X63169D02*
D03*
X66142Y353937D02*
D03*
X47441Y354035D02*
D03*
X100394Y23622D02*
D03*
X48819Y279921D02*
D03*
X88189Y268898D02*
D03*
X84646Y237795D02*
D03*
X40551Y247244D02*
D03*
X9843Y248031D02*
D03*
X10236Y264961D02*
D03*
X92126Y231102D02*
D03*
X118518Y361896D02*
D03*
X312851Y76772D02*
D03*
X234252Y75787D02*
D03*
X158465D02*
D03*
X155512Y150591D02*
D03*
X235850Y150276D02*
D03*
X310644Y150212D02*
D03*
X308383Y227137D02*
D03*
X234623Y228106D02*
D03*
X161831Y226620D02*
D03*
X159248Y301091D02*
D03*
X234429Y301091D02*
D03*
X307673Y300962D02*
D03*
X266594Y371557D02*
D03*
X192520Y369291D02*
D03*
M02*
