M48
;Layer_Color=9474304
;FILE_FORMAT=2:5
INCH
;TYPE=NON_PLATED
T03F00S00C0.02559
T04F00S00C0.11811
T05F00S00C0.13780
T06F00S00C0.16100
%
T03
X0045449Y0366155
X0068204
T04
X0138583Y0048740
X0163583Y0058740
X0163484Y0133740
X0138484Y0123740
X0213299Y0123480
X0238299Y0133480
X0288484Y0123543
X0313484Y0133543
Y0058740
X0288484Y0048740
X0238189Y0058543
X0213189Y0048543
X0213484Y0198937
X0238484Y0208937
X0287992Y0198425
X0312992Y0208425
X0313583Y0283425
X0288583Y0273425
X0238090Y0283937
X0213090Y0273937
X0163484Y0283543
X0138484Y0273543
X0138091Y0198543
X0163091Y0208543
X0163386Y0358425
X0138386Y0348425
X0213091Y0348937
X0238091Y0358937
X0288484Y0348937
X0313484Y0358937
T05
X0015748Y0015748
X0356299
X0015748Y0370079
X0356299
T06
X0153347Y0038189
Y0113189
X0228346
X0303346
Y0038189
X0228346
Y0188189
Y0263189
X0303346
Y0188189
X0153347
Y0263189
Y0338189
X0228346
X0303346
M30
