G04*
G04 #@! TF.GenerationSoftware,Altium Limited,Altium Designer,26.1.1 (7)*
G04*
G04 Layer_Color=32896*
%FSLAX25Y25*%
%MOIN*%
G70*
G04*
G04 #@! TF.SameCoordinates,DDB61D4A-7B62-475A-B33E-85BEADE60F6A*
G04*
G04*
G04 #@! TF.FilePolarity,Positive*
G04*
G01*
G75*
%ADD10C,0.00787*%
%ADD11C,0.00200*%
%ADD12C,0.00394*%
%ADD13C,0.00197*%
%ADD14C,0.01000*%
%ADD64C,0.00500*%
%ADD65R,0.07087X0.02756*%
%ADD66R,0.07087X0.02756*%
%ADD67R,0.07087X0.02756*%
%ADD68R,0.07087X0.02756*%
D10*
X61823Y166535D02*
G03*
X61823Y166535I-394J0D01*
G01*
X267520Y348819D02*
G03*
X267520Y348819I-394J0D01*
G01*
X192520Y198819D02*
G03*
X192520Y198819I-394J0D01*
G01*
X117520Y273425D02*
G03*
X117520Y273425I-394J0D01*
G01*
X192335Y123362D02*
G03*
X192335Y123362I-394J0D01*
G01*
X192126Y273819D02*
G03*
X192126Y273819I-394J0D01*
G01*
X267618Y273307D02*
G03*
X267618Y273307I-394J0D01*
G01*
X117618Y48622D02*
G03*
X117618Y48622I-394J0D01*
G01*
X117421Y348307D02*
G03*
X117421Y348307I-394J0D01*
G01*
X117126Y198425D02*
G03*
X117126Y198425I-394J0D01*
G01*
X192224Y48425D02*
G03*
X192224Y48425I-394J0D01*
G01*
X117520Y123622D02*
G03*
X117520Y123622I-394J0D01*
G01*
X267520Y123425D02*
G03*
X267520Y123425I-394J0D01*
G01*
X267028Y198307D02*
G03*
X267028Y198307I-394J0D01*
G01*
X192126Y348819D02*
G03*
X192126Y348819I-394J0D01*
G01*
X267520Y48622D02*
G03*
X267520Y48622I-394J0D01*
G01*
X255512Y31398D02*
Y48622D01*
X248524D02*
X255512D01*
X248524Y31398D02*
Y48622D01*
Y31398D02*
X255512D01*
X67303Y327799D02*
Y345515D01*
X81082D01*
Y327799D02*
Y345515D01*
X67303Y327799D02*
X81082D01*
X325000Y30217D02*
X331988D01*
X325000D02*
Y47441D01*
X331988D01*
Y30217D02*
Y47441D01*
X173622Y29429D02*
X180610D01*
X173622D02*
Y46654D01*
X180610D01*
Y29429D02*
Y46654D01*
X324213Y106890D02*
X331201D01*
X324213D02*
Y124114D01*
X331201D01*
Y106890D02*
Y124114D01*
X249213Y108465D02*
X256201D01*
X249213D02*
Y125689D01*
X256201D01*
Y108465D02*
Y125689D01*
X174606Y107677D02*
X181595D01*
X174606D02*
Y124902D01*
X181595D01*
Y107677D02*
Y124902D01*
X324606Y181496D02*
X331594D01*
X324606D02*
Y198721D01*
X331594D01*
Y181496D02*
Y198721D01*
X249606Y182283D02*
X256594D01*
X249606D02*
Y199508D01*
X256594D01*
Y182283D02*
Y199508D01*
X174606Y182283D02*
X181595D01*
X174606D02*
Y199508D01*
X181595D01*
Y182283D02*
Y199508D01*
X325394Y257283D02*
X332382D01*
X325394D02*
Y274508D01*
X332382D01*
Y257283D02*
Y274508D01*
X249606Y256890D02*
X256594D01*
X249606D02*
Y274114D01*
X256594D01*
Y256890D02*
Y274114D01*
X174606Y256890D02*
X181595D01*
X174606D02*
Y274114D01*
X181595D01*
Y256890D02*
Y274114D01*
X324606Y331496D02*
X331594D01*
X324606D02*
Y348721D01*
X331594D01*
Y331496D02*
Y348721D01*
X249606Y332756D02*
X256594D01*
X249606D02*
Y349980D01*
X256594D01*
Y332756D02*
Y349980D01*
X173819Y332283D02*
X180807D01*
X173819D02*
Y349508D01*
X180807D01*
Y332283D02*
Y349508D01*
X30545Y267275D02*
X43931D01*
Y273574D01*
X30545D02*
X43931D01*
X30545Y267275D02*
Y273574D01*
X51509Y313042D02*
Y320523D01*
X36155D02*
X51509D01*
X36155Y313042D02*
Y320523D01*
Y313042D02*
X51509D01*
X65551Y213090D02*
Y226181D01*
X71457D01*
Y213090D02*
Y226181D01*
X65551Y213090D02*
X71457D01*
X60236Y212205D02*
Y227559D01*
X52756Y212205D02*
X60236D01*
X52756D02*
Y227559D01*
X60236D01*
X80411Y325393D02*
Y321129D01*
X79559Y320276D01*
X77853D01*
X77000Y321129D01*
Y325393D01*
X75295Y320276D02*
X73589D01*
X74442D01*
Y325393D01*
X75295Y324540D01*
X67620Y325393D02*
X71031D01*
Y322835D01*
X69326Y323687D01*
X68473D01*
X67620Y322835D01*
Y321129D01*
X68473Y320276D01*
X70178D01*
X71031Y321129D01*
X79527Y224014D02*
X74804D01*
Y221653D01*
X75591Y220866D01*
X77165D01*
X77952Y221653D01*
Y224014D01*
Y222440D02*
X79527Y220866D01*
X75591Y219292D02*
X74804Y218504D01*
Y216930D01*
X75591Y216143D01*
X76378D01*
X77165Y216930D01*
X77952Y216143D01*
X78740D01*
X79527Y216930D01*
Y218504D01*
X78740Y219292D01*
X77952D01*
X77165Y218504D01*
X76378Y219292D01*
X75591D01*
X77165Y218504D02*
Y216930D01*
X24408Y279724D02*
X25196Y280511D01*
X26770D01*
X27557Y279724D01*
Y276575D01*
X26770Y275788D01*
X25196D01*
X24408Y276575D01*
X22834Y275788D02*
X21260D01*
X22047D01*
Y280511D01*
X22834Y279724D01*
X18899D02*
X18111Y280511D01*
X16537D01*
X15750Y279724D01*
Y278937D01*
X16537Y278150D01*
X17324D01*
X16537D01*
X15750Y277362D01*
Y276575D01*
X16537Y275788D01*
X18111D01*
X18899Y276575D01*
X32283Y310236D02*
X33070Y311023D01*
X34644D01*
X35431Y310236D01*
Y307087D01*
X34644Y306300D01*
X33070D01*
X32283Y307087D01*
X30708Y306300D02*
X29134D01*
X29921D01*
Y311023D01*
X30708Y310236D01*
X26772D02*
X25985Y311023D01*
X24411D01*
X23624Y310236D01*
Y307087D01*
X24411Y306300D01*
X25985D01*
X26772Y307087D01*
Y310236D01*
X109413Y241313D02*
X110201Y242100D01*
X111775D01*
X112562Y241313D01*
Y238164D01*
X111775Y237377D01*
X110201D01*
X109413Y238164D01*
X104690Y242100D02*
X106265Y241313D01*
X107839Y239739D01*
Y238164D01*
X107052Y237377D01*
X105478D01*
X104690Y238164D01*
Y238951D01*
X105478Y239739D01*
X107839D01*
D11*
X53610Y346169D02*
Y359343D01*
Y346169D02*
X59776D01*
Y359343D01*
X53610D02*
X59776D01*
X30564Y275223D02*
X43738D01*
Y281389D01*
X30564D02*
X43738D01*
X30564Y275223D02*
Y281389D01*
X69185Y276839D02*
Y283004D01*
X56012Y276839D02*
X69185D01*
X56012D02*
Y283004D01*
X69185D01*
X94555Y265854D02*
Y279028D01*
Y265854D02*
X100721D01*
Y279028D01*
X94555D02*
X100721D01*
X44776Y372508D02*
Y377886D01*
X32390Y372508D02*
X44776D01*
X32390D02*
Y377886D01*
X44776D01*
X45476Y335647D02*
X50854D01*
Y323261D02*
Y335647D01*
X45476Y323261D02*
X50854D01*
X45476D02*
Y335647D01*
X37836Y305629D02*
X51009D01*
Y311794D01*
X37836D02*
X51009D01*
X37836Y305629D02*
Y311794D01*
X68610Y372508D02*
Y377886D01*
X80996D01*
Y372508D02*
Y377886D01*
X68610Y372508D02*
X80996D01*
X29594Y244201D02*
Y257374D01*
Y244201D02*
X35760D01*
Y257374D01*
X29594D02*
X35760D01*
X103437Y236287D02*
Y242453D01*
X90264Y236287D02*
X103437D01*
X90264D02*
Y242453D01*
X103437D01*
D12*
X39206Y304479D02*
Y304479D01*
X37238Y303495D02*
X38222Y304479D01*
X37238Y288731D02*
Y303495D01*
X38222Y304479D02*
X51017D01*
Y288731D02*
Y304479D01*
X51017Y288731D02*
X51017Y288731D01*
X37238Y288731D02*
X51017D01*
D13*
X51713Y289035D02*
X63248D01*
X51713Y283405D02*
X63248D01*
X51713D02*
Y289035D01*
X63248Y283405D02*
Y289035D01*
X333465Y341358D02*
Y366516D01*
X268504Y341358D02*
X333465D01*
X268504D02*
Y366516D01*
X333465D01*
X258465Y191358D02*
Y216516D01*
X193504Y191358D02*
X258465D01*
X193504D02*
Y216516D01*
X258465D01*
X183465Y265965D02*
Y291122D01*
X118504Y265965D02*
X183465D01*
X118504D02*
Y291122D01*
X183465D01*
X258279Y115902D02*
Y141059D01*
X193319Y115902D02*
X258279D01*
X193319D02*
Y141059D01*
X258279D01*
X258071Y266358D02*
Y291516D01*
X193110Y266358D02*
X258071D01*
X193110D02*
Y291516D01*
X258071D01*
X333563Y265846D02*
Y291004D01*
X268602Y265846D02*
X333563D01*
X268602D02*
Y291004D01*
X333563D01*
X183563Y41161D02*
Y66319D01*
X118602Y41161D02*
X183563D01*
X118602D02*
Y66319D01*
X183563D01*
X183366Y340846D02*
Y366004D01*
X118405Y340846D02*
X183366D01*
X118405D02*
Y366004D01*
X183366D01*
X183071Y190965D02*
Y216122D01*
X118110Y190965D02*
X183071D01*
X118110D02*
Y216122D01*
X183071D01*
X258169Y40965D02*
Y66122D01*
X193209Y40965D02*
X258169D01*
X193209D02*
Y66122D01*
X258169D01*
X183465Y116161D02*
Y141319D01*
X118504Y116161D02*
X183465D01*
X118504D02*
Y141319D01*
X183465D01*
X333465Y115965D02*
Y141122D01*
X268504Y115965D02*
X333465D01*
X268504D02*
Y141122D01*
X333465D01*
X332972Y190847D02*
Y216004D01*
X268012Y190847D02*
X332972D01*
X268012D02*
Y216004D01*
X332972D01*
X258071Y341358D02*
Y366516D01*
X193110Y341358D02*
X258071D01*
X193110D02*
Y366516D01*
X258071D01*
X333465Y41161D02*
Y66319D01*
X268504Y41161D02*
X333465D01*
X268504D02*
Y66319D01*
X333465D01*
D14*
X70846Y347877D02*
G03*
X70846Y347877I-394J0D01*
G01*
X37238Y304971D02*
G03*
X37238Y304971I-197J0D01*
G01*
X56299Y367354D02*
X57299Y368353D01*
X59298D01*
X60298Y367354D01*
Y363355D01*
X59298Y362355D01*
X57299D01*
X56299Y363355D01*
X54300Y362355D02*
X52301D01*
X53300D01*
Y368353D01*
X54300Y367354D01*
X272064Y36464D02*
Y30465D01*
X269065D01*
X268066Y31465D01*
Y35464D01*
X269065Y36464D01*
X272064D01*
X266066Y30465D02*
X264067D01*
X265067D01*
Y36464D01*
X266066Y35464D01*
X258069Y30465D02*
Y36464D01*
X261068Y33465D01*
X257069D01*
X35221Y297850D02*
X33221D01*
X34221D01*
Y303849D01*
X35221Y302849D01*
X74546Y289795D02*
X75546Y290794D01*
X77545D01*
X78545Y289795D01*
Y285796D01*
X77545Y284796D01*
X75546D01*
X74546Y285796D01*
X72547Y284796D02*
X70548D01*
X71547D01*
Y290794D01*
X72547Y289795D01*
X67549Y284796D02*
X65549D01*
X66549D01*
Y290794D01*
X67549Y289795D01*
X42794Y363536D02*
Y369534D01*
X39795D01*
X38795Y368535D01*
Y366535D01*
X39795Y365536D01*
X42794D01*
X40794D02*
X38795Y363536D01*
X32797D02*
X36796D01*
X32797Y367535D01*
Y368535D01*
X33797Y369534D01*
X35796D01*
X36796Y368535D01*
X78802Y363930D02*
Y369928D01*
X75803D01*
X74803Y368929D01*
Y366929D01*
X75803Y365929D01*
X78802D01*
X76802D02*
X74803Y363930D01*
X72804D02*
X70804D01*
X71804D01*
Y369928D01*
X72804Y368929D01*
X55118Y193550D02*
X57117D01*
X56118D01*
Y188552D01*
X57117Y187552D01*
X58117D01*
X59117Y188552D01*
X53119Y187552D02*
X51119D01*
X52119D01*
Y193550D01*
X53119Y192551D01*
X36041Y294928D02*
Y289930D01*
X35041Y288930D01*
X33042D01*
X32042Y289930D01*
Y294928D01*
X30043Y288930D02*
X28043D01*
X29043D01*
Y294928D01*
X30043Y293929D01*
X25044Y289930D02*
X24045Y288930D01*
X22045D01*
X21046Y289930D01*
Y293929D01*
X22045Y294928D01*
X24045D01*
X25044Y293929D01*
Y292929D01*
X24045Y291929D01*
X21046D01*
X302773Y75834D02*
Y70835D01*
X301774Y69836D01*
X299774D01*
X298774Y70835D01*
Y75834D01*
X296775Y69836D02*
X294776D01*
X295775D01*
Y75834D01*
X296775Y74834D01*
X291777D02*
X290777Y75834D01*
X288778D01*
X287778Y74834D01*
Y73834D01*
X288778Y72835D01*
X287778Y71835D01*
Y70835D01*
X288778Y69836D01*
X290777D01*
X291777Y70835D01*
Y71835D01*
X290777Y72835D01*
X291777Y73834D01*
Y74834D01*
X290777Y72835D02*
X288778D01*
X224033Y75834D02*
Y70835D01*
X223033Y69836D01*
X221034D01*
X220034Y70835D01*
Y75834D01*
X218035Y69836D02*
X216036D01*
X217035D01*
Y75834D01*
X218035Y74834D01*
X213037Y75834D02*
X209038D01*
Y74834D01*
X213037Y70835D01*
Y69836D01*
X151198Y75834D02*
Y70835D01*
X150199Y69836D01*
X148199D01*
X147200Y70835D01*
Y75834D01*
X145200Y69836D02*
X143201D01*
X144201D01*
Y75834D01*
X145200Y74834D01*
X136203Y75834D02*
X138203Y74834D01*
X140202Y72835D01*
Y70835D01*
X139202Y69836D01*
X137203D01*
X136203Y70835D01*
Y71835D01*
X137203Y72835D01*
X140202D01*
X300805Y150637D02*
Y145638D01*
X299805Y144639D01*
X297806D01*
X296806Y145638D01*
Y150637D01*
X294807Y144639D02*
X292807D01*
X293807D01*
Y150637D01*
X294807Y149637D01*
X286809Y144639D02*
Y150637D01*
X289808Y147638D01*
X285809D01*
X226002Y150637D02*
Y145638D01*
X225002Y144639D01*
X223003D01*
X222003Y145638D01*
Y150637D01*
X220004Y144639D02*
X218004D01*
X219004D01*
Y150637D01*
X220004Y149637D01*
X215005D02*
X214005Y150637D01*
X212006D01*
X211006Y149637D01*
Y148637D01*
X212006Y147638D01*
X213006D01*
X212006D01*
X211006Y146638D01*
Y145638D01*
X212006Y144639D01*
X214005D01*
X215005Y145638D01*
X149230Y150637D02*
Y145638D01*
X148230Y144639D01*
X146231D01*
X145231Y145638D01*
Y150637D01*
X143232Y144639D02*
X141232D01*
X142232D01*
Y150637D01*
X143232Y149637D01*
X134235Y144639D02*
X138233D01*
X134235Y148637D01*
Y149637D01*
X135234Y150637D01*
X137234D01*
X138233Y149637D01*
X299805Y225440D02*
Y220442D01*
X298805Y219442D01*
X296806D01*
X295806Y220442D01*
Y225440D01*
X293807Y219442D02*
X291808D01*
X292807D01*
Y225440D01*
X293807Y224440D01*
X288808Y219442D02*
X286809D01*
X287809D01*
Y225440D01*
X288808Y224440D01*
X227970Y225440D02*
Y220442D01*
X226970Y219442D01*
X224971D01*
X223971Y220442D01*
Y225440D01*
X221972Y219442D02*
X219973D01*
X220972D01*
Y225440D01*
X221972Y224440D01*
X216974D02*
X215974Y225440D01*
X213974D01*
X212975Y224440D01*
Y220442D01*
X213974Y219442D01*
X215974D01*
X216974Y220442D01*
Y224440D01*
X150668Y225440D02*
Y220442D01*
X149668Y219442D01*
X147669D01*
X146669Y220442D01*
Y225440D01*
X144670Y220442D02*
X143670Y219442D01*
X141671D01*
X140671Y220442D01*
Y224440D01*
X141671Y225440D01*
X143670D01*
X144670Y224440D01*
Y223441D01*
X143670Y222441D01*
X140671D01*
X298306Y300243D02*
Y295245D01*
X297306Y294245D01*
X295306D01*
X294307Y295245D01*
Y300243D01*
X292307Y299243D02*
X291308Y300243D01*
X289308D01*
X288309Y299243D01*
Y298244D01*
X289308Y297244D01*
X288309Y296244D01*
Y295245D01*
X289308Y294245D01*
X291308D01*
X292307Y295245D01*
Y296244D01*
X291308Y297244D01*
X292307Y298244D01*
Y299243D01*
X291308Y297244D02*
X289308D01*
X225471Y300243D02*
Y295245D01*
X224471Y294245D01*
X222472D01*
X221472Y295245D01*
Y300243D01*
X219473D02*
X215474D01*
Y299243D01*
X219473Y295245D01*
Y294245D01*
X152636Y300243D02*
Y295245D01*
X151637Y294245D01*
X149637D01*
X148637Y295245D01*
Y300243D01*
X142639D02*
X144639Y299243D01*
X146638Y297244D01*
Y295245D01*
X145638Y294245D01*
X143639D01*
X142639Y295245D01*
Y296244D01*
X143639Y297244D01*
X146638D01*
X306179Y375440D02*
Y370442D01*
X305180Y369442D01*
X303181D01*
X302181Y370442D01*
Y375440D01*
X297182Y369442D02*
Y375440D01*
X300181Y372441D01*
X296183D01*
X231376Y377015D02*
Y372016D01*
X230377Y371017D01*
X228377D01*
X227378Y372016D01*
Y377015D01*
X225378Y376015D02*
X224379Y377015D01*
X222379D01*
X221380Y376015D01*
Y375015D01*
X222379Y374016D01*
X223379D01*
X222379D01*
X221380Y373016D01*
Y372016D01*
X222379Y371017D01*
X224379D01*
X225378Y372016D01*
X154605Y375046D02*
Y370048D01*
X153605Y369048D01*
X151606D01*
X150606Y370048D01*
Y375046D01*
X144608Y369048D02*
X148607D01*
X144608Y373047D01*
Y374047D01*
X145608Y375046D01*
X147607D01*
X148607Y374047D01*
X36765Y329134D02*
Y333133D01*
X39764D01*
Y331133D01*
Y333133D01*
X42763D01*
Y327134D02*
Y325135D01*
Y326135D01*
X36765D01*
X37764Y327134D01*
X350017Y36464D02*
Y30465D01*
X347018D01*
X346019Y31465D01*
Y35464D01*
X347018Y36464D01*
X350017D01*
X344019Y30465D02*
X342020D01*
X343020D01*
Y36464D01*
X344019Y35464D01*
X335022Y36464D02*
X339021D01*
Y33465D01*
X337021Y34464D01*
X336022D01*
X335022Y33465D01*
Y31465D01*
X336022Y30465D01*
X338021D01*
X339021Y31465D01*
X198442Y34495D02*
Y28497D01*
X195443D01*
X194444Y29497D01*
Y33495D01*
X195443Y34495D01*
X198442D01*
X192444Y28497D02*
X190445D01*
X191445D01*
Y34495D01*
X192444Y33495D01*
X187446D02*
X186446Y34495D01*
X184447D01*
X183447Y33495D01*
Y32496D01*
X184447Y31496D01*
X185447D01*
X184447D01*
X183447Y30496D01*
Y29497D01*
X184447Y28497D01*
X186446D01*
X187446Y29497D01*
X348049Y111267D02*
Y105269D01*
X345050D01*
X344050Y106268D01*
Y110267D01*
X345050Y111267D01*
X348049D01*
X342051Y105269D02*
X340051D01*
X341051D01*
Y111267D01*
X342051Y110267D01*
X333054Y105269D02*
X337052D01*
X333054Y109267D01*
Y110267D01*
X334053Y111267D01*
X336053D01*
X337052Y110267D01*
X270277Y113235D02*
Y107237D01*
X267278D01*
X266279Y108237D01*
Y112236D01*
X267278Y113235D01*
X270277D01*
X264279Y107237D02*
X262280D01*
X263280D01*
Y113235D01*
X264279Y112236D01*
X259281Y107237D02*
X257282D01*
X258281D01*
Y113235D01*
X259281Y112236D01*
X198442Y111267D02*
Y105269D01*
X195443D01*
X194444Y106268D01*
Y110267D01*
X195443Y111267D01*
X198442D01*
X192444Y105269D02*
X190445D01*
X191445D01*
Y111267D01*
X192444Y110267D01*
X187446D02*
X186446Y111267D01*
X184447D01*
X183447Y110267D01*
Y106268D01*
X184447Y105269D01*
X186446D01*
X187446Y106268D01*
Y110267D01*
X345550Y186070D02*
Y180072D01*
X342550D01*
X341551Y181071D01*
Y185070D01*
X342550Y186070D01*
X345550D01*
X339551Y181071D02*
X338552Y180072D01*
X336553D01*
X335553Y181071D01*
Y185070D01*
X336553Y186070D01*
X338552D01*
X339551Y185070D01*
Y184071D01*
X338552Y183071D01*
X335553D01*
X268778Y186070D02*
Y180072D01*
X265779D01*
X264779Y181071D01*
Y185070D01*
X265779Y186070D01*
X268778D01*
X262780Y185070D02*
X261780Y186070D01*
X259781D01*
X258781Y185070D01*
Y184071D01*
X259781Y183071D01*
X258781Y182071D01*
Y181071D01*
X259781Y180072D01*
X261780D01*
X262780Y181071D01*
Y182071D01*
X261780Y183071D01*
X262780Y184071D01*
Y185070D01*
X261780Y183071D02*
X259781D01*
X193975Y188038D02*
Y182040D01*
X190976D01*
X189976Y183040D01*
Y187039D01*
X190976Y188038D01*
X193975D01*
X187977D02*
X183978D01*
Y187039D01*
X187977Y183040D01*
Y182040D01*
X345550Y262842D02*
Y256843D01*
X342550D01*
X341551Y257843D01*
Y261842D01*
X342550Y262842D01*
X345550D01*
X335553D02*
X337552Y261842D01*
X339551Y259842D01*
Y257843D01*
X338552Y256843D01*
X336553D01*
X335553Y257843D01*
Y258843D01*
X336553Y259842D01*
X339551D01*
X268778Y262842D02*
Y256843D01*
X265779D01*
X264779Y257843D01*
Y261842D01*
X265779Y262842D01*
X268778D01*
X258781D02*
X262780D01*
Y259842D01*
X260781Y260842D01*
X259781D01*
X258781Y259842D01*
Y257843D01*
X259781Y256843D01*
X261780D01*
X262780Y257843D01*
X193975Y260873D02*
Y254875D01*
X190976D01*
X189976Y255875D01*
Y259873D01*
X190976Y260873D01*
X193975D01*
X184978Y254875D02*
Y260873D01*
X187977Y257874D01*
X183978D01*
X343581Y337645D02*
Y331647D01*
X340582D01*
X339582Y332646D01*
Y336645D01*
X340582Y337645D01*
X343581D01*
X337583Y336645D02*
X336583Y337645D01*
X334584D01*
X333584Y336645D01*
Y335645D01*
X334584Y334646D01*
X335584D01*
X334584D01*
X333584Y333646D01*
Y332646D01*
X334584Y331647D01*
X336583D01*
X337583Y332646D01*
X268778Y337645D02*
Y331647D01*
X265779D01*
X264779Y332646D01*
Y336645D01*
X265779Y337645D01*
X268778D01*
X258781Y331647D02*
X262780D01*
X258781Y335645D01*
Y336645D01*
X259781Y337645D01*
X261780D01*
X262780Y336645D01*
X191007Y337645D02*
Y331647D01*
X188007D01*
X187008Y332646D01*
Y336645D01*
X188007Y337645D01*
X191007D01*
X185009Y331647D02*
X183009D01*
X184009D01*
Y337645D01*
X185009Y336645D01*
X25152Y272275D02*
X26152Y273275D01*
X28151D01*
X29151Y272275D01*
Y268276D01*
X28151Y267277D01*
X26152D01*
X25152Y268276D01*
X23153Y267277D02*
X21154D01*
X22153D01*
Y273275D01*
X23153Y272275D01*
X14156Y267277D02*
X18155D01*
X14156Y271275D01*
Y272275D01*
X15156Y273275D01*
X17155D01*
X18155Y272275D01*
X30527Y318535D02*
X31527Y319534D01*
X33526D01*
X34526Y318535D01*
Y314536D01*
X33526Y313536D01*
X31527D01*
X30527Y314536D01*
X28528D02*
X27528Y313536D01*
X25529D01*
X24529Y314536D01*
Y318535D01*
X25529Y319534D01*
X27528D01*
X28528Y318535D01*
Y317535D01*
X27528Y316535D01*
X24529D01*
X44064Y223184D02*
X43064Y224184D01*
Y226183D01*
X44064Y227183D01*
X48062D01*
X49062Y226183D01*
Y224184D01*
X48062Y223184D01*
X49062Y221184D02*
Y219185D01*
Y220185D01*
X43064D01*
X44064Y221184D01*
X49062Y213187D02*
X43064D01*
X46063Y216186D01*
Y212187D01*
X103477Y274006D02*
X102478Y275006D01*
Y277005D01*
X103477Y278005D01*
X107476D01*
X108476Y277005D01*
Y275006D01*
X107476Y274006D01*
X102478Y268008D02*
Y272007D01*
X105477D01*
X104477Y270007D01*
Y269008D01*
X105477Y268008D01*
X107476D01*
X108476Y269008D01*
Y271007D01*
X107476Y272007D01*
X63204Y274047D02*
X64204Y275046D01*
X66203D01*
X67203Y274047D01*
Y270048D01*
X66203Y269048D01*
X64204D01*
X63204Y270048D01*
X58206Y269048D02*
Y275046D01*
X61205Y272047D01*
X57206D01*
X30678Y238401D02*
X29678Y239401D01*
Y241400D01*
X30678Y242400D01*
X34677D01*
X35676Y241400D01*
Y239401D01*
X34677Y238401D01*
X30678Y236402D02*
X29678Y235402D01*
Y233403D01*
X30678Y232403D01*
X31677D01*
X32677Y233403D01*
Y234402D01*
Y233403D01*
X33677Y232403D01*
X34677D01*
X35676Y233403D01*
Y235402D01*
X34677Y236402D01*
D64*
X286122Y365531D02*
G03*
X279528Y358937I0J-6594D01*
G01*
X292421Y342342D02*
G03*
X294390Y344311I0J1969D01*
G01*
X299862Y349783D02*
G03*
X294390Y344311I0J-5472D01*
G01*
X320472Y349783D02*
G03*
X322441Y351752I0J1969D01*
G01*
X211122Y215531D02*
G03*
X204528Y208937I0J-6594D01*
G01*
X217421Y192342D02*
G03*
X219390Y194311I0J1969D01*
G01*
X224862Y199784D02*
G03*
X219390Y194311I0J-5472D01*
G01*
X245472Y199784D02*
G03*
X247441Y201752I0J1969D01*
G01*
X136122Y290138D02*
G03*
X129528Y283543I0J-6594D01*
G01*
X142421Y266949D02*
G03*
X144390Y268917I0J1969D01*
G01*
X149862Y274390D02*
G03*
X144390Y268917I0J-5472D01*
G01*
X170473Y274390D02*
G03*
X172441Y276358I0J1969D01*
G01*
X210937Y140075D02*
G03*
X204343Y133480I0J-6594D01*
G01*
X217236Y116886D02*
G03*
X219205Y118854I0J1969D01*
G01*
X224677Y124327D02*
G03*
X219205Y118854I0J-5472D01*
G01*
X245287Y124327D02*
G03*
X247256Y126295I0J1969D01*
G01*
X210728Y290531D02*
G03*
X204134Y283937I0J-6594D01*
G01*
X217028Y267342D02*
G03*
X218996Y269311I0J1969D01*
G01*
X224468Y274783D02*
G03*
X218996Y269311I0J-5472D01*
G01*
X245079Y274783D02*
G03*
X247047Y276752I0J1969D01*
G01*
X286221Y290020D02*
G03*
X279626Y283425I0J-6594D01*
G01*
X292520Y266831D02*
G03*
X294488Y268799I0J1969D01*
G01*
X299961Y274272D02*
G03*
X294488Y268799I0J-5472D01*
G01*
X320571Y274272D02*
G03*
X322539Y276240I0J1969D01*
G01*
X136221Y65335D02*
G03*
X129626Y58740I0J-6594D01*
G01*
X142520Y42146D02*
G03*
X144488Y44114I0J1969D01*
G01*
X149961Y49587D02*
G03*
X144488Y44114I0J-5472D01*
G01*
X170571Y49587D02*
G03*
X172539Y51555I0J1969D01*
G01*
X136024Y365020D02*
G03*
X129429Y358425I0J-6594D01*
G01*
X142323Y341831D02*
G03*
X144291Y343799I0J1969D01*
G01*
X149764Y349272D02*
G03*
X144291Y343799I0J-5472D01*
G01*
X170374Y349272D02*
G03*
X172343Y351240I0J1969D01*
G01*
X135728Y215138D02*
G03*
X129134Y208543I0J-6594D01*
G01*
X142028Y191949D02*
G03*
X143996Y193917I0J1969D01*
G01*
X149469Y199390D02*
G03*
X143996Y193917I0J-5472D01*
G01*
X170079Y199390D02*
G03*
X172047Y201358I0J1969D01*
G01*
X210827Y65138D02*
G03*
X204232Y58543I0J-6594D01*
G01*
X217126Y41949D02*
G03*
X219094Y43917I0J1969D01*
G01*
X224567Y49390D02*
G03*
X219094Y43917I0J-5472D01*
G01*
X245177Y49390D02*
G03*
X247146Y51358I0J1969D01*
G01*
X136122Y140335D02*
G03*
X129528Y133740I0J-6594D01*
G01*
X142421Y117146D02*
G03*
X144390Y119114I0J1969D01*
G01*
X149862Y124587D02*
G03*
X144390Y119114I0J-5472D01*
G01*
X170472Y124587D02*
G03*
X172441Y126555I0J1969D01*
G01*
X286122Y140138D02*
G03*
X279528Y133543I0J-6594D01*
G01*
X292421Y116949D02*
G03*
X294390Y118917I0J1969D01*
G01*
X299862Y124390D02*
G03*
X294390Y118917I0J-5472D01*
G01*
X320472Y124390D02*
G03*
X322441Y126358I0J1969D01*
G01*
X285630Y215020D02*
G03*
X279035Y208425I0J-6594D01*
G01*
X291929Y191831D02*
G03*
X293898Y193799I0J1969D01*
G01*
X299370Y199272D02*
G03*
X293898Y193799I0J-5472D01*
G01*
X319980Y199272D02*
G03*
X321949Y201240I0J1969D01*
G01*
X210728Y365531D02*
G03*
X204134Y358937I0J-6594D01*
G01*
X217028Y342342D02*
G03*
X218996Y344311I0J1969D01*
G01*
X224468Y349783D02*
G03*
X218996Y344311I0J-5472D01*
G01*
X245079Y349783D02*
G03*
X247047Y351752I0J1969D01*
G01*
X286122Y65335D02*
G03*
X279528Y58740I0J-6594D01*
G01*
X292421Y42146D02*
G03*
X294390Y44114I0J1969D01*
G01*
X299862Y49587D02*
G03*
X294390Y44114I0J-5472D01*
G01*
X320472Y49587D02*
G03*
X322441Y51555I0J1969D01*
G01*
X905Y56772D02*
Y186299D01*
X59067D01*
Y56772D02*
Y186299D01*
X905Y56772D02*
X59067D01*
X286122Y365531D02*
X309547D01*
X279528Y355118D02*
Y358937D01*
X299862Y349783D02*
X320472D01*
X322441Y351752D02*
Y352756D01*
X211122Y215531D02*
X234547D01*
X204528Y205118D02*
Y208937D01*
X224862Y199784D02*
X245472D01*
X247441Y201752D02*
Y202756D01*
X136122Y290138D02*
X159547D01*
X129528Y279724D02*
Y283543D01*
X149862Y274390D02*
X170473D01*
X172441Y276358D02*
Y277362D01*
X210937Y140075D02*
X234362D01*
X204343Y129661D02*
Y133480D01*
X224677Y124327D02*
X245287D01*
X247256Y126295D02*
Y127299D01*
X210728Y290531D02*
X234154D01*
X204134Y280118D02*
Y283937D01*
X224468Y274783D02*
X245079D01*
X247047Y276752D02*
Y277756D01*
X286221Y290020D02*
X309646D01*
X279626Y279606D02*
Y283425D01*
X299961Y274272D02*
X320571D01*
X322539Y276240D02*
Y277244D01*
X136221Y65335D02*
X159646D01*
X129626Y54921D02*
Y58740D01*
X149961Y49587D02*
X170571D01*
X172539Y51555D02*
Y52559D01*
X136024Y365020D02*
X159449D01*
X129429Y354606D02*
Y358425D01*
X149764Y349272D02*
X170374D01*
X172343Y351240D02*
Y352244D01*
X135728Y215138D02*
X159153D01*
X129134Y204724D02*
Y208543D01*
X149469Y199390D02*
X170079D01*
X172047Y201358D02*
Y202362D01*
X210827Y65138D02*
X234252D01*
X204232Y54724D02*
Y58543D01*
X224567Y49390D02*
X245177D01*
X247146Y51358D02*
Y52362D01*
X136122Y140335D02*
X159547D01*
X129528Y129921D02*
Y133740D01*
X149862Y124587D02*
X170472D01*
X172441Y126555D02*
Y127559D01*
X286122Y140138D02*
X309547D01*
X279528Y129724D02*
Y133543D01*
X299862Y124390D02*
X320472D01*
X322441Y126358D02*
Y127362D01*
X285630Y215020D02*
X309055D01*
X279035Y204606D02*
Y208425D01*
X299370Y199272D02*
X319980D01*
X321949Y201240D02*
Y202244D01*
X210728Y365531D02*
X234154D01*
X204134Y355118D02*
Y358937D01*
X224468Y349783D02*
X245079D01*
X247047Y351752D02*
Y352756D01*
X286122Y65335D02*
X309547D01*
X279528Y54921D02*
Y58740D01*
X299862Y49587D02*
X320472D01*
X322441Y51555D02*
Y52559D01*
D65*
X251969Y32776D02*
D03*
X328445Y31595D02*
D03*
X253051Y183662D02*
D03*
X328051Y332874D02*
D03*
D66*
X177067Y30807D02*
D03*
D67*
X327658Y108268D02*
D03*
X252658Y109843D02*
D03*
X178051Y109055D02*
D03*
X328051Y182874D02*
D03*
X178051Y183662D02*
D03*
X328839Y258662D02*
D03*
X178051Y258268D02*
D03*
X253051Y334134D02*
D03*
X177264Y333662D02*
D03*
D68*
X253051Y258268D02*
D03*
M02*
