G04*
G04 #@! TF.GenerationSoftware,Altium Limited,Altium Designer,25.8.1 (18)*
G04*
G04 Layer_Color=8421504*
%FSLAX25Y25*%
%MOIN*%
G70*
G04*
G04 #@! TF.SameCoordinates,30180D15-08CE-447F-8257-B4AE3817E0F8*
G04*
G04*
G04 #@! TF.FilePolarity,Positive*
G04*
G01*
G75*
G04:AMPARAMS|DCode=16|XSize=34.25mil|YSize=36.61mil|CornerRadius=4.28mil|HoleSize=0mil|Usage=FLASHONLY|Rotation=180.000|XOffset=0mil|YOffset=0mil|HoleType=Round|Shape=RoundedRectangle|*
%AMROUNDEDRECTD16*
21,1,0.03425,0.02805,0,0,180.0*
21,1,0.02569,0.03661,0,0,180.0*
1,1,0.00856,-0.01284,0.01403*
1,1,0.00856,0.01284,0.01403*
1,1,0.00856,0.01284,-0.01403*
1,1,0.00856,-0.01284,-0.01403*
%
%ADD16ROUNDEDRECTD16*%
%ADD17R,0.01870X0.01968*%
G04:AMPARAMS|DCode=18|XSize=21.26mil|YSize=23.62mil|CornerRadius=2.66mil|HoleSize=0mil|Usage=FLASHONLY|Rotation=90.000|XOffset=0mil|YOffset=0mil|HoleType=Round|Shape=RoundedRectangle|*
%AMROUNDEDRECTD18*
21,1,0.02126,0.01831,0,0,90.0*
21,1,0.01595,0.02362,0,0,90.0*
1,1,0.00532,0.00915,0.00797*
1,1,0.00532,0.00915,-0.00797*
1,1,0.00532,-0.00915,-0.00797*
1,1,0.00532,-0.00915,0.00797*
%
%ADD18ROUNDEDRECTD18*%
%ADD19R,0.04331X0.03937*%
%ADD20R,0.01181X0.04724*%
%ADD21R,0.04724X0.01181*%
%ADD22R,0.02362X0.04724*%
%ADD23R,0.01181X0.04528*%
%ADD24R,0.08583X0.07874*%
G36*
X152559Y280610D02*
Y277658D01*
X148622D01*
Y280610D01*
X152559D01*
D02*
G37*
G36*
X158465D02*
Y277658D01*
X154527D01*
Y280610D01*
X158465D01*
D02*
G37*
G36*
X150626Y240380D02*
Y248253D01*
X172279D01*
Y240380D01*
X150626D01*
D02*
G37*
G36*
X188027D02*
Y248253D01*
X209681D01*
Y240380D01*
X188027D01*
D02*
G37*
D16*
X161339Y308661D02*
D03*
X155197D02*
D03*
D17*
X153591Y314173D02*
D03*
X149559D02*
D03*
D18*
X152362Y229008D02*
D03*
X207480Y228221D02*
D03*
Y231622D02*
D03*
X152362Y232410D02*
D03*
D19*
X157283Y260236D02*
D03*
X163976D02*
D03*
D20*
X173031Y298425D02*
D03*
X184843Y265748D02*
D03*
X171063Y298425D02*
D03*
X186811Y265748D02*
D03*
X171063D02*
D03*
X173031D02*
D03*
X175000D02*
D03*
X176969D02*
D03*
X182874D02*
D03*
X188779D02*
D03*
X190748D02*
D03*
X192717D02*
D03*
Y298425D02*
D03*
X190748D02*
D03*
X188779D02*
D03*
X186811D02*
D03*
X184843D02*
D03*
X182874D02*
D03*
X180905D02*
D03*
X178937D02*
D03*
X176969D02*
D03*
X175000D02*
D03*
X178937Y265748D02*
D03*
X180905D02*
D03*
D21*
X198228Y290945D02*
D03*
X165551Y273228D02*
D03*
Y279134D02*
D03*
X198228Y292913D02*
D03*
X165551Y271260D02*
D03*
X198228Y277165D02*
D03*
Y279134D02*
D03*
Y281102D02*
D03*
Y283071D02*
D03*
Y288976D02*
D03*
Y287008D02*
D03*
Y285039D02*
D03*
X165551Y275197D02*
D03*
Y277165D02*
D03*
Y281102D02*
D03*
Y283071D02*
D03*
Y292913D02*
D03*
Y290945D02*
D03*
Y288976D02*
D03*
Y287008D02*
D03*
Y285039D02*
D03*
X198228Y275197D02*
D03*
Y271260D02*
D03*
Y273228D02*
D03*
D22*
X177759Y318431D02*
D03*
Y327486D02*
D03*
X174019D02*
D03*
Y318431D02*
D03*
X181500D02*
D03*
Y327486D02*
D03*
D23*
X188520Y378852D02*
D03*
X162142D02*
D03*
X163323D02*
D03*
X187338D02*
D03*
X185370D02*
D03*
X176315D02*
D03*
X174346D02*
D03*
X170409D02*
D03*
X165291D02*
D03*
X166472D02*
D03*
X172378D02*
D03*
X178283D02*
D03*
X182220D02*
D03*
X184189D02*
D03*
X180252D02*
D03*
X168441D02*
D03*
D24*
X195449Y396588D02*
D03*
X155212D02*
D03*
X195449Y381116D02*
D03*
X155212D02*
D03*
M02*
