G04*
G04 #@! TF.GenerationSoftware,Altium Limited,Altium Designer,25.8.1 (18)*
G04*
G04 Layer_Color=65535*
%FSLAX25Y25*%
%MOIN*%
G70*
G04*
G04 #@! TF.SameCoordinates,30180D15-08CE-447F-8257-B4AE3817E0F8*
G04*
G04*
G04 #@! TF.FilePolarity,Positive*
G04*
G01*
G75*
%ADD10C,0.00787*%
%ADD11C,0.01000*%
%ADD12C,0.00197*%
%ADD13C,0.00394*%
%ADD14C,0.00200*%
%ADD15C,0.00500*%
D10*
X188716Y374828D02*
G03*
X188323Y374828I-197J0D01*
G01*
D02*
G03*
X188716Y374828I197J0D01*
G01*
D02*
G03*
X188323Y374828I-197J0D01*
G01*
X157075Y192126D02*
G03*
X157075Y192126I-394J0D01*
G01*
X157811Y234769D02*
X202397D01*
X157811Y253765D02*
X202496D01*
X157811Y234769D02*
Y239494D01*
X202496Y249041D02*
Y253765D01*
X202397Y234769D02*
Y239494D01*
X157811Y249041D02*
Y253765D01*
X170870Y331816D02*
X184649D01*
Y314100D02*
Y331816D01*
X170870Y314100D02*
X184649D01*
X170870D02*
Y331816D01*
X174488Y270217D02*
X193760D01*
Y293957D01*
X170020D02*
X193760D01*
X170020Y274685D02*
Y293957D01*
Y274685D02*
X174488Y270217D01*
X147047Y282087D02*
X160138D01*
X147047Y276181D02*
Y282087D01*
Y276181D02*
X160138D01*
Y282087D01*
X155809Y330905D02*
Y326641D01*
X156662Y325788D01*
X158367D01*
X159220Y326641D01*
Y330905D01*
X160926Y325788D02*
X162631D01*
X161778D01*
Y330905D01*
X160926Y330052D01*
X165189D02*
X166042Y330905D01*
X167748D01*
X168600Y330052D01*
Y329199D01*
X167748Y328346D01*
X168600Y327494D01*
Y326641D01*
X167748Y325788D01*
X166042D01*
X165189Y326641D01*
Y327494D01*
X166042Y328346D01*
X165189Y329199D01*
Y330052D01*
X166042Y328346D02*
X167748D01*
X149214Y283859D02*
Y288582D01*
X151575D01*
X152363Y287795D01*
Y286221D01*
X151575Y285433D01*
X149214D01*
X150788D02*
X152363Y283859D01*
X156298D02*
Y288582D01*
X153937Y286221D01*
X157085D01*
D11*
X174413Y311738D02*
G03*
X174413Y311738I-394J0D01*
G01*
X144419Y310710D02*
X143420Y309710D01*
Y307711D01*
X144419Y306711D01*
X148418D01*
X149418Y307711D01*
Y309710D01*
X148418Y310710D01*
X149418Y312709D02*
Y314709D01*
Y313709D01*
X143420D01*
X144419Y312709D01*
Y317708D02*
X143420Y318707D01*
Y320707D01*
X144419Y321707D01*
X148418D01*
X149418Y320707D01*
Y318707D01*
X148418Y317708D01*
X144419D01*
X137734Y311174D02*
Y317172D01*
X140733D01*
X141732Y316173D01*
Y314173D01*
X140733Y313174D01*
X137734D01*
X139733D02*
X141732Y311174D01*
X143732D02*
X145731D01*
X144731D01*
Y317172D01*
X143732Y316173D01*
X162992Y219141D02*
X160993D01*
X161993D01*
Y214142D01*
X160993Y213143D01*
X159993D01*
X158993Y214142D01*
X164991Y213143D02*
X166991D01*
X165991D01*
Y219141D01*
X164991Y218141D01*
X141383Y262236D02*
X140383Y263235D01*
X138384D01*
X137384Y262236D01*
Y258237D01*
X138384Y257237D01*
X140383D01*
X141383Y258237D01*
X143382Y257237D02*
X145382D01*
X144382D01*
Y263235D01*
X143382Y262236D01*
X148381D02*
X149380Y263235D01*
X151380D01*
X152380Y262236D01*
Y261236D01*
X151380Y260236D01*
X150380D01*
X151380D01*
X152380Y259237D01*
Y258237D01*
X151380Y257237D01*
X149380D01*
X148381Y258237D01*
X215930Y231133D02*
X214930Y232133D01*
X212930D01*
X211931Y231133D01*
Y227134D01*
X212930Y226135D01*
X214930D01*
X215930Y227134D01*
X217929Y232133D02*
X221927D01*
Y231133D01*
X217929Y227134D01*
Y226135D01*
X142701Y232314D02*
X141701Y233314D01*
X139702D01*
X138702Y232314D01*
Y228316D01*
X139702Y227316D01*
X141701D01*
X142701Y228316D01*
X148699Y233314D02*
X146700Y232314D01*
X144701Y230315D01*
Y228316D01*
X145700Y227316D01*
X147699D01*
X148699Y228316D01*
Y229315D01*
X147699Y230315D01*
X144701D01*
X175135Y231346D02*
Y230346D01*
X177135Y228346D01*
X179134Y230346D01*
Y231346D01*
X177135Y228346D02*
Y225347D01*
X181133D02*
X183133D01*
X182133D01*
Y231346D01*
X181133Y230346D01*
X393675Y78637D02*
X397674Y72639D01*
Y78637D02*
X393675Y72639D01*
X399673D02*
X401673D01*
X400673D01*
Y78637D01*
X399673Y77637D01*
X408670Y78637D02*
X404672D01*
Y75638D01*
X406671Y76638D01*
X407671D01*
X408670Y75638D01*
Y73639D01*
X407671Y72639D01*
X405671D01*
X404672Y73639D01*
X318675Y78637D02*
X322674Y72639D01*
Y78637D02*
X318675Y72639D01*
X324673D02*
X326673D01*
X325673D01*
Y78637D01*
X324673Y77637D01*
X332671Y72639D02*
Y78637D01*
X329672Y75638D01*
X333670D01*
X243675Y78637D02*
X247674Y72639D01*
Y78637D02*
X243675Y72639D01*
X249673D02*
X251673D01*
X250673D01*
Y78637D01*
X249673Y77637D01*
X254672D02*
X255671Y78637D01*
X257671D01*
X258670Y77637D01*
Y76638D01*
X257671Y75638D01*
X256671D01*
X257671D01*
X258670Y74638D01*
Y73639D01*
X257671Y72639D01*
X255671D01*
X254672Y73639D01*
X393675Y153637D02*
X397674Y147639D01*
Y153637D02*
X393675Y147639D01*
X399673D02*
X401673D01*
X400673D01*
Y153637D01*
X399673Y152637D01*
X408670Y147639D02*
X404672D01*
X408670Y151638D01*
Y152637D01*
X407671Y153637D01*
X405671D01*
X404672Y152637D01*
X318675Y153637D02*
X322674Y147639D01*
Y153637D02*
X318675Y147639D01*
X324673D02*
X326673D01*
X325673D01*
Y153637D01*
X324673Y152637D01*
X329672Y147639D02*
X331671D01*
X330671D01*
Y153637D01*
X329672Y152637D01*
X243675Y153637D02*
X247674Y147639D01*
Y153637D02*
X243675Y147639D01*
X249673D02*
X251673D01*
X250673D01*
Y153637D01*
X249673Y152637D01*
X254672D02*
X255671Y153637D01*
X257671D01*
X258670Y152637D01*
Y148639D01*
X257671Y147639D01*
X255671D01*
X254672Y148639D01*
Y152637D01*
X393675Y228637D02*
X397674Y222639D01*
Y228637D02*
X393675Y222639D01*
X399673Y223639D02*
X400673Y222639D01*
X402672D01*
X403672Y223639D01*
Y227637D01*
X402672Y228637D01*
X400673D01*
X399673Y227637D01*
Y226638D01*
X400673Y225638D01*
X403672D01*
X318675Y228637D02*
X322674Y222639D01*
Y228637D02*
X318675Y222639D01*
X324673Y227637D02*
X325673Y228637D01*
X327672D01*
X328672Y227637D01*
Y226638D01*
X327672Y225638D01*
X328672Y224638D01*
Y223639D01*
X327672Y222639D01*
X325673D01*
X324673Y223639D01*
Y224638D01*
X325673Y225638D01*
X324673Y226638D01*
Y227637D01*
X325673Y225638D02*
X327672D01*
X243675Y228637D02*
X247674Y222639D01*
Y228637D02*
X243675Y222639D01*
X249673Y228637D02*
X253672D01*
Y227637D01*
X249673Y223639D01*
Y222639D01*
X393675Y303637D02*
X397674Y297639D01*
Y303637D02*
X393675Y297639D01*
X403672Y303637D02*
X401673Y302637D01*
X399673Y300638D01*
Y298639D01*
X400673Y297639D01*
X402672D01*
X403672Y298639D01*
Y299638D01*
X402672Y300638D01*
X399673D01*
X318675Y303637D02*
X322674Y297639D01*
Y303637D02*
X318675Y297639D01*
X328672Y303637D02*
X324673D01*
Y300638D01*
X326673Y301638D01*
X327672D01*
X328672Y300638D01*
Y298639D01*
X327672Y297639D01*
X325673D01*
X324673Y298639D01*
X243675Y303637D02*
X247674Y297639D01*
Y303637D02*
X243675Y297639D01*
X252672D02*
Y303637D01*
X249673Y300638D01*
X253672D01*
X393675Y378637D02*
X397674Y372639D01*
Y378637D02*
X393675Y372639D01*
X399673Y377637D02*
X400673Y378637D01*
X402672D01*
X403672Y377637D01*
Y376638D01*
X402672Y375638D01*
X401673D01*
X402672D01*
X403672Y374638D01*
Y373639D01*
X402672Y372639D01*
X400673D01*
X399673Y373639D01*
X318675Y378637D02*
X322674Y372639D01*
Y378637D02*
X318675Y372639D01*
X328672D02*
X324673D01*
X328672Y376638D01*
Y377637D01*
X327672Y378637D01*
X325673D01*
X324673Y377637D01*
X243675Y378637D02*
X247674Y372639D01*
Y378637D02*
X243675Y372639D01*
X249673D02*
X251673D01*
X250673D01*
Y378637D01*
X249673Y377637D01*
X195789Y302212D02*
Y297213D01*
X196789Y296214D01*
X198788D01*
X199788Y297213D01*
Y302212D01*
X205786D02*
X201787D01*
Y299213D01*
X203786Y300212D01*
X204786D01*
X205786Y299213D01*
Y297213D01*
X204786Y296214D01*
X202787D01*
X201787Y297213D01*
X171198Y398668D02*
Y393670D01*
X172198Y392670D01*
X174197D01*
X175197Y393670D01*
Y398668D01*
X177196Y392670D02*
X179196D01*
X178196D01*
Y398668D01*
X177196Y397669D01*
D12*
X152500Y311476D02*
X164035D01*
X152500Y305847D02*
X164035D01*
Y311476D01*
X152500Y305847D02*
Y311476D01*
X155512Y312205D02*
Y316142D01*
X147638D02*
X155512D01*
X147638Y312205D02*
Y316142D01*
Y312205D02*
X155512D01*
X150197Y234457D02*
X154527D01*
X150197Y226961D02*
X154527D01*
X150197D02*
Y234457D01*
X154527Y226961D02*
Y234457D01*
X205315Y233669D02*
X209646D01*
X205315Y226173D02*
X209646D01*
X205315D02*
Y233669D01*
X209646Y226173D02*
Y233669D01*
D13*
X192929Y387427D02*
X193047D01*
Y390380D01*
X192929D02*
X193047D01*
X192929Y387427D02*
Y390380D01*
Y403175D02*
Y407809D01*
Y403175D02*
Y407809D01*
X157732D02*
X192929D01*
X157732D02*
X192929D01*
X157732Y402190D02*
Y407809D01*
Y402190D02*
Y407809D01*
Y386442D02*
Y390380D01*
Y386442D02*
Y390380D01*
X243216Y307980D02*
Y369398D01*
Y307980D02*
X304634D01*
Y369398D01*
X243216D02*
X304634D01*
X318216D02*
X379634D01*
Y307980D02*
Y369398D01*
X318216Y307980D02*
X379634D01*
X318216D02*
Y369398D01*
X393216Y307980D02*
Y369398D01*
Y307980D02*
X454634D01*
Y369398D01*
X393216D02*
X454634D01*
X243216Y294398D02*
X304634D01*
Y232980D02*
Y294398D01*
X243216Y232980D02*
X304634D01*
X243216D02*
Y294398D01*
X318216Y232980D02*
Y294398D01*
Y232980D02*
X379634D01*
Y294398D01*
X318216D02*
X379634D01*
X393216D02*
X454634D01*
Y232980D02*
Y294398D01*
X393216Y232980D02*
X454634D01*
X393216D02*
Y294398D01*
X243216Y157980D02*
Y219398D01*
Y157980D02*
X304634D01*
Y219398D01*
X243216D02*
X304634D01*
X318216D02*
X379634D01*
Y157980D02*
Y219398D01*
X318216Y157980D02*
X379634D01*
X318216D02*
Y219398D01*
X393216Y157980D02*
Y219398D01*
Y157980D02*
X454634D01*
Y219398D01*
X393216D02*
X454634D01*
X243216Y144398D02*
X304634D01*
Y82980D02*
Y144398D01*
X243216Y82980D02*
X304634D01*
X243216D02*
Y144398D01*
X318216Y82980D02*
Y144398D01*
Y82980D02*
X379634D01*
Y144398D01*
X318216D02*
X379634D01*
X393216D02*
X454634D01*
Y82980D02*
Y144398D01*
X393216Y82980D02*
X454634D01*
X393216D02*
Y144398D01*
X243216Y7980D02*
Y69398D01*
Y7980D02*
X304634D01*
Y69398D01*
X243216D02*
X304634D01*
X318216D02*
X379634D01*
Y7980D02*
Y69398D01*
X318216Y7980D02*
X379634D01*
X318216D02*
Y69398D01*
X393216Y7980D02*
Y69398D01*
Y7980D02*
X454634D01*
Y69398D01*
X393216D02*
X454634D01*
D14*
X154043Y263319D02*
X167217D01*
Y257154D02*
Y263319D01*
X154043Y257154D02*
X167217D01*
X154043D02*
Y263319D01*
D15*
X159043Y82362D02*
X194870D01*
X159043D02*
Y211890D01*
X194870D01*
Y82362D02*
Y211890D01*
M02*
