M48
;Layer_Color=9474304
;FILE_FORMAT=2:5
INCH
;TYPE=PLATED
T01F00S00C0.03150
T02F00S00C0.03937
%
T01
X0023622Y0067716
X0020079Y0116142
X0030315Y0152362
X0089370Y0094095
X0158465Y0075787
X0157087Y0004331
X0155512Y0150591
X0235850Y0150276
X0310644Y0150212
X0312851Y0076772
X0316142Y0003937
X0230315
X0234252Y0075787
X0234623Y0228106
X0234429Y0301091
X0307673Y0300962
X0308383Y0227137
X0161831Y0226620
X0092126Y0231102
X0084646Y0237795
X0088189Y0268898
X0098032Y0287795
X0070866Y0294882
X0063971Y0289532
X0055905Y0289370
X0048819Y0279921
X0040551Y0247244
X0085433Y0195276
X0086614Y0162992
X0159248Y0301091
X0027165Y0290551
X0018898Y0285039
X0010236Y0264961
X0009843Y0248031
X0025984Y0249606
X0029528Y0190945
X0030315Y0164173
X0020866Y0168110
X0018504Y0313779
X0040551Y0325984
X0056693Y0331102
X0056293Y0339907
X0047244Y0341732
X0070866Y0343701
X0066535Y0334252
X0081102Y0321654
X0062205Y0371260
X0050394Y0371654
X0118518Y0361896
X0192520Y0369291
X0266594Y0371557
T02
X0052756Y0078110
Y0088110
Y0098110
Y0108110
Y0118110
Y0128110
Y0138110
Y0148110
X0062756
Y0138110
Y0128110
Y0118110
Y0108110
Y0098110
Y0088110
Y0078110
Y0158110
Y0168110
X0052756
Y0158110
M30
