M48
;Layer_Color=9474304
;FILE_FORMAT=2:5
INCH
;TYPE=NON_PLATED
T02F00S00C0.02559
T03F00S00C0.11811
T04F00S00C0.13780
T05F00S00C0.16100
%
T02
X0163953Y0383084
X0186708
T03
X0258661Y0048740
X0283661Y0058740
X0283563Y0133740
X0258563Y0123740
X0333378Y0123480
X0358378Y0133480
X0408563Y0123543
X0433563Y0133543
Y0058740
X0408563Y0048740
X0358268Y0058543
X0333268Y0048543
X0333563Y0198937
X0358563Y0208937
X0408071Y0198425
X0433071Y0208425
X0433661Y0283425
X0408661Y0273425
X0358169Y0283937
X0333169Y0273937
X0283563Y0283543
X0258563Y0273543
X0258169Y0198543
X0283169Y0208543
X0283465Y0358425
X0258465Y0348425
X0333169Y0348937
X0358169Y0358937
X0408563Y0348937
X0433563Y0358937
T04
X0135827Y0015748
X0476378
X0135827Y0360236
X0476378
T05
X0273425Y0038189
Y0113189
X0348425
X0423425
Y0038189
X0348425
Y0188189
Y0263189
X0423425
Y0188189
X0273425
Y0263189
Y0338189
X0348425
X0423425
M30
