M48
;Layer_Color=9474304
;FILE_FORMAT=2:5
INCH
;TYPE=PLATED
T01F00S00C0.00787
T02F00S00C0.01181
T03F00S00C0.03937
%
T01
X0179956Y0358293
X0183894
X0178340Y0363922
X0174404
T02
X0146063Y0107480
X0138976Y0139764
X0202547Y0115248
X0275590Y0150591
X0278543Y0075787
X0277559Y0002953
X0350394
X0354331Y0075787
X0355315Y0150591
X0431102
X0433071Y0076772
X0436024Y0002953
X0428150Y0227362
X0354331
Y0301181
X0427165
X0279528
X0221260
X0202988Y0292939
X0185039Y0311024
X0166076Y0310778
X0171000Y0302880
X0160567Y0271285
X0183204Y0261147
X0186748Y0261246
X0202547Y0256980
X0207278Y0237862
X0199213Y0228346
X0160630
X0202362Y0180709
X0281496Y0227362
X0152455Y0237961
X0151969Y0253937
X0147457Y0274016
X0131102Y0273622
Y0287795
X0142913Y0302362
X0150787Y0309055
X0146433Y0217017
X0148425Y0188189
Y0178740
X0138976Y0192126
X0177890Y0337821
X0183598Y0368234
X0166374Y0367840
X0168441Y0384671
X0180252Y0385163
X0180709Y0400000
X0168504Y0399606
X0238597Y0361896
X0318406Y0362500
X0394685Y0363189
T03
X0170866Y0102126
X0180866
Y0112126
Y0122126
Y0132126
Y0142126
Y0152126
X0170866
Y0142126
Y0132126
Y0122126
Y0112126
Y0162126
X0180866
Y0172126
Y0182126
X0170866
Y0172126
Y0192126
X0180866
M30
