M48
;Layer_Color=9474304
;FILE_FORMAT=4:4
METRIC,LZ
;TYPE=PLATED
T01F00S00C0.2000
T02F00S00C0.3000
;TYPE=NON_PLATED
T03F00S00C0.6500
T04F00S00C2.7000
T05F00S00C3.0000
T06F00S00C4.0894
%
T01
X0045709Y00910064
X0046709
X00452985Y00924363
X00442985
T02
X00705Y000075
X007075Y001925
X007Y003825
X009025
X01095
X011Y00195
X011075Y000075
X0089
X009Y001925
Y005775
Y00765
X01085
X010875Y005775
X00715
X0071Y00765
X00562
X00515589Y00744064
X00517095Y00724028
X0052Y00665
X00474339Y00663564
X0046534Y00663314
X0040453Y0065373
X0039984Y00673814
X0040784Y00689064
X00434339Y00769314
X00421834Y00789377
X0047Y0079
X00526487Y00604171
X00387237Y00604421
X0037Y00735
X00363Y00768
X00383Y00785
X00451839Y00858064
X00466339Y00935314
X00422589Y00934314
X0042784Y00977064
X0045784Y00978314
X00459Y01016
X00428Y01015
X00606035Y00919217
X0080875Y0092075
X010025Y009225
T03
X0041644Y00973034
X0047424
T04
X00345Y0004
X0121
X00345Y00915
X0121
T05
X00657Y001238
X007205Y001492
X0072025Y003397
X0065675Y003143
X0084678Y0031364
X0091028Y0033904
X0103775Y003138
X0110125Y003392
Y001492
X0103775Y001238
X0091Y001487
X008465Y001233
X0084725Y005053
X0091075Y005307
X010365Y00504
X011Y005294
X011015Y007199
X01038Y006945
X0090975Y007212
X0084625Y006958
X0072025Y007202
X0065675Y006948
X0065575Y005043
X0071925Y005297
X0072Y009104
X006565Y00885
X0084625Y008863
X0090975Y009117
X0103775Y008863
X0110125Y009117
T06
X006945Y00097
Y002875
X00885
X010755
Y00097
X00885
Y00478
Y006685
X010755
Y00478
X006945
Y006685
Y00859
X00885
X010755
M30
