M48
;Layer_Color=9474304
;FILE_FORMAT=2:5
INCH
;TYPE=PLATED
T01F00S00C0.03937
%
T01
X0141732Y0091732
X0138189Y0140157
X0170866Y0142126
X0180866
Y0132126
Y0122126
Y0112126
Y0102126
X0170866
Y0112126
Y0122126
Y0132126
Y0152126
X0180866
X0207480Y0118110
X0275590Y0150591
X0278543Y0075787
X0277165Y0004331
X0350394Y0003937
X0354331Y0075787
X0355929Y0150276
X0430723Y0150212
X0432930Y0076772
X0436221Y0003937
X0428462Y0227137
X0427751Y0300962
X0354508Y0301091
X0354701Y0228106
X0281910Y0226620
X0279327Y0301091
X0216142Y0311811
X0206299Y0292913
X0166929Y0303937
X0158661Y0271260
X0183071Y0258268
X0190945Y0257874
X0207480Y0233858
X0180315Y0218504
X0180866Y0192126
Y0182126
Y0172126
Y0162126
X0170866
Y0172126
Y0182126
Y0192126
X0204724Y0187008
X0148425Y0188189
Y0176378
X0138976Y0192126
X0147638Y0214961
X0152362Y0233858
X0144095Y0273622
X0127953Y0272047
X0128347Y0288976
X0137008Y0309055
X0150787Y0314173
X0136614Y0337795
X0177890Y0337821
X0180315Y0355906
X0174404Y0363922
X0165354Y0365748
X0188976Y0367717
X0180709Y0388189
X0170472Y0387795
X0163779Y0403937
X0187402Y0404331
X0198425Y0327953
X0188976Y0315748
X0238597Y0361896
X0312598Y0369291
X0386673Y0371557
M30
