M48
;Layer_Color=9474304
;FILE_FORMAT=2:5
INCH
;TYPE=PLATED
T01F00S00C0.03150
T02F00S00C0.03937
%
T01
X0017035Y0076272
X0022047Y0115748
X0055118Y0151181
X0085433Y0150000
X0155512Y0150591
X0158465Y0075787
X0100394Y0023622
X0234252Y0075787
X0235850Y0150276
X0310644Y0150212
X0312851Y0076772
X0308383Y0227137
X0307673Y0300962
X0234429Y0301091
X0234623Y0228106
X0161831Y0226620
X0092126Y0231102
X0084646Y0237795
X0088189Y0268898
X0098032Y0287795
X0080709Y0309842
X0054437Y0293807
X0048819Y0279921
X0040551Y0247244
X0085433Y0195276
X0159248Y0301091
X0018898Y0285039
X0010236Y0264961
X0009843Y0248031
X0025984Y0249606
X0022441Y0160236
X0018504Y0313779
X0063169Y0331735
Y0341578
X0066142Y0353937
X0047441Y0354035
X0050394Y0372047
X0062205
X0085216Y0341578
Y0331735
X0118518Y0361896
X0192520Y0369291
X0266594Y0371557
T02
X0037244Y0076535
Y0086535
Y0096535
Y0106535
Y0116535
Y0126535
Y0136535
Y0146535
X0047244
Y0136535
Y0126535
Y0116535
Y0106535
Y0096535
Y0086535
Y0076535
Y0156535
X0037244
Y0166535
X0047244
M30
